<svg width="800" height="450" viewBox="0 0 800 450" fill="none" xmlns="http://www.w3.org/2000/svg">
<g clip-path="url(#clip0_4647_13161)">
<rect width="800" height="450" fill="white"/>
<rect width="800" height="450" fill="#404040"/>
<path d="M448.75 176.25C452.884 176.25 456.25 179.616 456.25 183.75V233.93L433.977 211.657C431.78 209.467 428.221 209.467 426.023 211.657L419.071 218.609L422.026 220.957L428.676 214.308C429.408 213.575 430.595 213.575 431.326 214.308L456.25 239.227V248.156L460 251.137V183.75C460 177.537 454.961 172.5 448.75 172.5H361.07L365.788 176.25H448.75ZM369.226 273.75L398.008 244.969L395.052 242.62L392.5 245.18L373.773 226.641C371.576 224.451 368.017 224.451 365.819 226.641L343.75 248.93V201.844L340 198.867V266.25C340 272.461 345.037 277.5 351.25 277.5H438.93L434.212 273.75H369.226ZM351.25 273.75C347.116 273.75 343.75 270.384 343.75 266.25V254.224L368.664 229.31C369.396 228.578 370.583 228.578 371.315 229.31L389.837 247.833L363.93 273.75H351.25ZM474.086 281.648L328.044 165.405C327.702 165.133 327.29 165 326.881 165C326.33 165 325.782 165.241 325.407 165.706C324.763 166.519 324.898 167.698 325.708 168.343L471.747 284.593C472.305 284.859 472.703 285 472.914 285C473.463 285 474.013 284.758 474.383 284.293C475.234 283.477 475.094 282.305 474.086 281.648Z" fill="#757575"/>
</g>
<defs>
<clipPath id="clip0_4647_13161">
<rect width="800" height="450" fill="white"/>
</clipPath>
</defs>
</svg>
