
<svg width="49" height="16" viewBox="0 0 49 16" fill="none" xmlns="http://www.w3.org/2000/svg">
<path d="M12.0415 7.33375L12.7132 6.65815V6.38991C12.7132 5.99611 12.6796 5.61271 12.613 5.23999L10.5234 7.34151L12.0415 7.33375Z" fill="#F0EFEE"/>
<path d="M12.2138 3.90335C12.1598 3.77804 12.1027 3.65563 12.0427 3.53552L9.52246 6.07016C9.5325 6.17524 9.5374 6.28176 9.5374 6.38976V7.34656L9.76447 7.3454L12.4704 4.62396C12.4001 4.37916 12.3148 4.13864 12.2138 3.90335Z" fill="#F0EFEE"/>
<path d="M11.1322 2.17346L8.87695 4.44161C9.04029 4.65525 9.1778 4.89025 9.28863 5.14721C9.32967 5.24249 9.36528 5.33949 9.39627 5.43825L11.7733 3.04769C11.5835 2.73674 11.3699 2.44543 11.1322 2.17346Z" fill="#F0EFEE"/>
<path d="M9.92862 1.10583L7.59961 3.44818C7.94436 3.59802 8.25011 3.79723 8.51651 4.04465L10.7629 1.78547C10.5039 1.53515 10.226 1.30851 9.92862 1.10583Z" fill="#F0EFEE"/>
<path d="M8.83434 0.504318C8.69825 0.445422 8.5605 0.39201 8.42126 0.343506L5.58496 3.19601H6.36179C6.5903 3.19601 6.81191 3.21911 7.02636 3.26501L9.4613 0.81613C9.26008 0.702666 9.05109 0.598442 8.83434 0.504318Z" fill="#F0EFEE"/>
<path d="M6.49361 0.00463867L3.32031 3.1961H4.7749H4.83032L7.83681 0.172671C7.40393 0.0695995 6.95608 0.0135888 6.49361 0.00463867Z" fill="#F0EFEE"/>
<path d="M4.22943 0.00317383L1.05469 3.19607H1.59869H2.56469L5.73943 0.00317383H4.22943Z" fill="#F0EFEE"/>
<path d="M1.96468 0.00317383L0.0117188 1.9673V3.19607H0.29994L3.47497 0.00317383H1.96468Z" fill="#F0EFEE"/>
<path d="M0.0117188 0.00317383V1.20798L1.20967 0.00317383H0.0117188Z" fill="#F0EFEE"/>
<path d="M19.3721 16.0001H20.3211V15.0459L19.3721 16.0001Z" fill="#F0EFEE"/>
<path d="M20.2989 12.806L17.123 16.0001H18.6221L20.3208 14.292V12.806H20.2989Z" fill="#F0EFEE"/>
<path d="M18.7328 12.806H18.3267H18.0499L14.874 16.0001H16.3731L19.5487 12.806H18.7328Z" fill="#F0EFEE"/>
<path d="M16.8275 12.806H16.0777H15.8018L13.9697 14.6486V16.0001H14.1251L17.3009 12.806H16.8275Z" fill="#F0EFEE"/>
<path d="M13.9697 12.806V13.8945L15.052 12.806H13.9697Z" fill="#F0EFEE"/>
<path d="M1.58879 12.7708H1.57812V12.7831H1.58879V12.7708Z" fill="#F0EFEE"/>
<path d="M40.7221 15.9786V12.7832C40.2835 12.7832 39.9086 12.6281 39.5986 12.316C39.288 12.0039 39.1341 11.6271 39.1341 11.186V4.79583C39.1341 4.35499 39.288 3.97762 39.5986 3.66581C39.909 3.35487 40.2835 3.1978 40.7221 3.1978H43.8995C44.3377 3.1978 44.7118 3.35487 45.0222 3.66581C45.3325 3.97791 45.4875 4.35499 45.4875 4.79583V5.59443H48.6645V4.79583C48.6645 4.14219 48.539 3.52203 48.29 2.93594C48.0406 2.34985 47.7 1.83998 47.269 1.40662C46.8375 0.972679 46.3304 0.630839 45.7488 0.379658C45.1664 0.128765 44.5493 0.00317383 43.8995 0.00317383H40.7221C40.0564 0.00317383 39.4358 0.128765 38.8617 0.379658C38.2864 0.631127 37.7834 0.972679 37.3519 1.40662C36.9207 1.84027 36.5808 2.35014 36.3317 2.93594C36.0816 3.52203 35.957 4.14219 35.957 4.79583V11.186C35.957 11.8555 36.0816 12.4797 36.3317 13.0571C36.5811 13.6357 36.9211 14.1416 37.3519 14.5755C37.7834 15.0091 38.2864 15.351 38.8617 15.6016C39.4358 15.8534 40.056 15.9786 40.7221 15.9786Z" fill="#F0EFEE"/>
<path d="M1.58789 11.7135H4.75487V10.5355H3.69242V9.469H4.75487V7.33716H3.69644V8.4002H1.58789V11.7135Z" fill="#F0EFEE"/>
<path d="M6.87684 7.33362H5.81641V8.40014H6.87684V7.33362Z" fill="#F0EFEE"/>
<path d="M13.9688 0V0.0034646V3.19434H20.3219V0.0034646V0H13.9688Z" fill="#F0EFEE"/>
<path d="M14.497 8.40002H13.4365V9.46654H14.497V8.40002Z" fill="#F0EFEE"/>
<path d="M18.7343 9.46896V4.26172H15.5567V9.46868H14.4971V10.5355H15.5567V12.8051H18.7343V10.5355H17.6735V9.46896H18.7343Z" fill="#F0EFEE"/>
<path d="M20.7665 7.33362H19.7061V8.40014H20.7665V7.33362Z" fill="#F0EFEE"/>
<path d="M29.6934 0.387742V1.14158V2.64954V3.19694V3.1978C30.1317 3.1978 30.5058 3.35486 30.8161 3.66581C31.1264 3.97791 31.2814 4.35467 31.2814 4.79583V5.59443H34.4588V4.79583C34.4588 4.14191 34.333 3.52174 34.0838 2.93565C33.8347 2.34956 33.4939 1.83998 33.0627 1.40633C32.6316 0.972679 32.1246 0.630839 31.543 0.379369C30.9602 0.128476 30.3436 0.00317383 29.6934 0.00317383V0.00375127V0.387742Z" fill="#F0EFEE"/>
<path d="M31.2819 7.35156V10.547H31.2825V11.186C31.2825 11.6272 31.1274 12.0042 30.8171 12.316C30.5065 12.6281 30.1327 12.7832 29.6941 12.7832H26.5171C26.0787 12.7832 25.7038 12.6281 25.3934 12.316C25.0831 12.0039 24.929 11.6272 24.929 11.186L24.9298 7.99108L24.9301 7.44108V7.35156H23.52H22.7705H21.7554H21.7531L21.752 11.186C21.752 11.8555 21.8765 12.4797 22.1266 13.0572C22.3758 13.6354 22.7157 14.1416 23.1468 14.5755C23.578 15.0092 24.0812 15.351 24.6563 15.6016C25.2307 15.8534 25.8513 15.9786 26.5168 15.9786H29.6941C30.3443 15.9786 30.9609 15.8534 31.5437 15.6016C32.1253 15.351 32.6323 15.0092 33.0635 14.5755C33.4946 14.1416 33.8354 13.6354 34.0846 13.0572C34.334 12.4794 34.4595 11.8555 34.4595 11.186V7.35156H31.2819Z" fill="#F0EFEE"/>
<path d="M30.2212 10.547V7.35156H29.1602V8.41808H28.0998V7.35156H25.9893V9.48056H28.1104V10.547H30.2212Z" fill="#F0EFEE"/>
<path d="M40.1953 7.35156V8.41404H41.2554H42.3159V9.48056H41.2554V10.547H44.4276V10.5436V7.35156H40.1953Z" fill="#F0EFEE"/>
<path d="M12.7076 7.33362H12.2365H11.602H10.0918H9.53827H7.93756V8.40014H6.87713V9.46666V10.5355H8.99799H9.3735C9.34251 10.6342 9.32239 10.7364 9.28108 10.8323C9.114 11.2206 8.88693 11.5593 8.59982 11.8483C8.31275 12.137 7.97573 12.3653 7.59078 12.5328C7.20467 12.7008 6.79184 12.7834 6.35319 12.7834H1.5878H1.57718H0V15.9789H6.35351C7.23077 15.9789 8.05556 15.8117 8.82721 15.4765C9.59886 15.1425 10.2715 14.6863 10.8468 14.1077C11.4221 13.5295 11.8753 12.8524 12.2086 12.0769C12.4191 11.5858 12.5554 11.071 12.6326 10.5375C12.678 10.2277 12.7156 9.58906 12.7156 9.58906V7.33394L12.7076 7.33362Z" fill="#F0EFEE"/>
<path d="M24.886 7.3556L24.9294 7.312V5.80432L23.3887 7.35388L24.886 7.3556Z" fill="#F0EFEE"/>
<path d="M29.0213 3.19602L29.6918 2.52158V1.01392L27.5225 3.19602H29.0213Z" fill="#F0EFEE"/>
<path d="M24.9295 4.79358C24.9295 4.3527 25.0836 3.97593 25.3937 3.66383C25.7037 3.35289 26.0783 3.19612 26.517 3.19612H26.7737L29.6929 0.260174V0.00292969H28.4496L21.7539 6.7369V7.35218L22.6401 7.35302L24.9295 5.05054V4.79358Z" fill="#F0EFEE"/>
<path d="M26.517 0.00317383C26.4068 0.00317383 26.298 0.00692711 26.1903 0.0138563L21.7648 4.46441C21.7576 4.57325 21.7539 4.68265 21.7539 4.79353V5.98305L27.6998 0.00317383H26.517Z" fill="#F0EFEE"/>
<path d="M24.6568 0.378849C24.0818 0.630322 23.5789 0.97187 23.1479 1.40552C22.7171 1.83917 22.3775 2.34846 22.1283 2.93427C22.0407 3.13925 21.969 3.34886 21.9121 3.56222L25.2984 0.15625C25.0785 0.213993 24.8647 0.288193 24.6568 0.378849Z" fill="#F0EFEE"/>
<path d="M45.7477 15.6018C46.3293 15.3512 46.8356 15.0096 47.2671 14.5763C47.6981 14.1429 48.0387 13.6371 48.2877 13.0588C48.3722 12.863 48.4423 12.6615 48.4981 12.4551L45.1641 15.8085C45.3621 15.7528 45.5565 15.6844 45.7477 15.6018Z" fill="#F0EFEE"/>
<path d="M48.6627 11.1884V10.0283L42.7461 15.9787H43.8998C44.0201 15.9787 44.14 15.9744 44.2583 15.9657L48.65 11.5487C48.6588 11.43 48.6627 11.3099 48.6627 11.1884Z" fill="#F0EFEE"/>
<path d="M48.6624 7.76697L45.4866 10.9607V11.1882C45.4866 11.6291 45.3316 12.0058 45.0217 12.318C44.7118 12.6298 44.3381 12.7848 43.8995 12.7848H43.6732L40.7236 15.7514V15.9788H41.9964L48.6628 9.27461L48.6624 7.76697Z" fill="#F0EFEE"/>
<path d="M41.4248 12.7849L40.7236 13.49V14.9973L42.9239 12.7849H41.4248Z" fill="#F0EFEE"/>
<path d="M46.8159 7.36292L45.4873 8.69936V10.207L48.315 7.36292H46.8159Z" fill="#F0EFEE"/>
<path d="M45.4873 7.36292V7.94584L46.0665 7.36292H45.4873Z" fill="#F0EFEE"/>
</svg>