<svg width="14" height="14" viewBox="0 0 14 14" fill="none" xmlns="http://www.w3.org/2000/svg">
<path d="M9.76154 7.38006L8.26172 8.87988L12.5012 13.1194L14.001 11.6196L9.76154 7.38006Z" fill="#2B2A29"/>
<path d="M10.8883 5.22319C12.2528 5.22319 13.3629 4.11315 13.3629 2.74858C13.3629 2.3385 13.2498 1.95671 13.073 1.61733L11.164 3.52631L10.1105 2.47284L12.0195 0.563857C11.6801 0.387099 11.2983 0.273974 10.8883 0.273974C9.5237 0.273974 8.41366 1.38401 8.41366 2.74858C8.41366 3.03846 8.47023 3.31421 8.56214 3.56874L7.25413 4.87674L5.99562 3.61823L6.49761 3.11624L5.5007 2.11932L6.9996 0.620419C6.17238 -0.206806 4.82902 -0.206806 4.00179 0.620419L1.4989 3.12331L2.49582 4.12022H0.501992L0 4.62221L2.50289 7.1251L3.00488 6.62311V4.62221L4.00179 5.61913L4.50378 5.11713L5.7623 6.37565L0.523203 11.6147L2.02211 13.1136L10.0681 5.07471C10.3226 5.16663 10.5984 5.22319 10.8883 5.22319Z" fill="#2B2A29"/>
</svg>
