<svg width="64" height="56" viewBox="0 0 64 64" fill="none" xmlns="http://www.w3.org/2000/svg">
<path fill-rule="evenodd" clip-rule="evenodd" d="M52 42H12C8.68629 42 6 44.6863 6 48V62H58V48C58 44.6863 55.3137 42 52 42ZM12 40C7.58172 40 4 43.5817 4 48V64H60V48C60 43.5817 56.4183 40 52 40H12Z" fill="white" fill-opacity="0.5"/>
<path fill-rule="evenodd" clip-rule="evenodd" d="M43 2H21C12.7157 2 6 8.71573 6 17C6 25.2843 12.7157 32 21 32H43C51.2843 32 58 25.2843 58 17C58 8.71573 51.2843 2 43 2ZM21 0C11.6112 0 4 7.61116 4 17C4 26.3888 11.6112 34 21 34H43C52.3888 34 60 26.3888 60 17C60 7.61116 52.3888 0 43 0H21Z" fill="white" fill-opacity="0.5"/>
<path fill-rule="evenodd" clip-rule="evenodd" d="M22 20C23.6569 20 25 18.6569 25 17C25 15.3431 23.6569 14 22 14C20.3431 14 19 15.3431 19 17C19 18.6569 20.3431 20 22 20ZM22 22C24.7614 22 27 19.7614 27 17C27 14.2386 24.7614 12 22 12C19.2386 12 17 14.2386 17 17C17 19.7614 19.2386 22 22 22Z" fill="white" fill-opacity="0.5"/>
<path fill-rule="evenodd" clip-rule="evenodd" d="M42 20C43.6569 20 45 18.6569 45 17C45 15.3431 43.6569 14 42 14C40.3431 14 39 15.3431 39 17C39 18.6569 40.3431 20 42 20ZM42 22C44.7614 22 47 19.7614 47 17C47 14.2386 44.7614 12 42 12C39.2386 12 37 14.2386 37 17C37 19.7614 39.2386 22 42 22Z" fill="white" fill-opacity="0.5"/>
</svg>