<svg width="327" height="152" viewBox="0 0 327 152" fill="none" xmlns="http://www.w3.org/2000/svg">
<rect width="327" height="152" fill="#CD7A6E"/>
<path d="M199.996 49.2752C194.072 36.4762 179.677 32.0871 179.554 32.0257C178.112 31.5347 176.547 31.1356 174.95 30.798C172.249 30.2762 169.61 30 167.124 30C156.35 30 144.994 37.7653 142.539 39.8525C141.096 41.0495 133.822 47.5564 131.612 57.0406C130.292 62.6574 131.489 64.5604 132.287 65.8495C132.778 66.6168 133.054 67.1386 132.533 67.9673C132.195 68.4891 131.489 69.5327 130.599 70.8218L130.446 71.0366C126.455 76.8069 124.123 80.3366 124 81.2881C124 81.3495 124 81.4416 124 81.503C124.123 82.0554 124.829 82.6693 127.929 84.1426C128.942 84.6337 129.555 84.9406 129.709 85.1247C130.108 85.7079 130.261 87.0584 129.463 88.102C128.88 88.9 128.88 89.8208 129.463 90.5881C129.678 90.8644 129.924 91.0792 130.077 91.2327C130.476 91.6317 130.906 92.0614 130.906 92.6139C130.906 92.8901 130.845 93.1356 130.752 93.4119C130.63 93.8416 130.476 94.3327 130.66 95.2228C130.814 95.9287 131.213 96.5733 131.55 97.095C131.919 97.6782 132.226 98.1693 132.226 98.6911C132.226 99.1208 132.072 99.6426 131.857 100.318C131.612 101.054 131.305 102.098 131.305 103.019C131.305 104.738 131.98 107.623 134.497 107.623C135.234 107.623 137.597 107.254 141.495 106.549C142.692 106.334 143.981 106.088 145.301 105.843C145.332 105.843 145.362 105.812 145.424 105.812C149.046 105.259 155.246 104.277 157.333 103.97C157.21 107.531 156.504 122.202 156.504 122.355C156.473 122.693 156.75 122.969 157.087 123H157.118C157.425 123 157.701 122.754 157.732 122.417C157.762 121.68 158.591 104.615 158.56 103.264V90.7416C158.56 90.5881 158.499 90.4347 158.376 90.3119L151.348 83.2832C151.839 82.6079 152.146 81.7792 152.146 80.8891C152.146 78.6485 150.335 76.8376 148.094 76.8376C145.853 76.8376 144.043 78.6485 144.043 80.8891C144.043 83.1297 145.853 84.9406 148.094 84.9406C148.984 84.9406 149.813 84.6337 150.488 84.1426L157.363 91.0178V102.681C155.031 103.05 145.577 104.523 145.148 104.584C145.086 104.584 145.055 104.615 144.994 104.615C143.705 104.86 142.477 105.106 141.311 105.321C136.277 106.242 134.896 106.364 134.528 106.364C132.563 106.364 132.533 103.111 132.533 102.957C132.533 102.221 132.809 101.3 133.024 100.625C133.269 99.8574 133.453 99.2436 133.453 98.6297C133.453 97.7703 133.024 97.0644 132.594 96.3891C132.287 95.9287 131.95 95.4069 131.857 94.9158C131.735 94.3327 131.827 94.0564 131.95 93.6267C132.042 93.3505 132.134 92.9822 132.134 92.5525C132.134 91.4782 131.458 90.803 130.906 90.2505C130.722 90.097 130.568 89.9436 130.476 89.7901C130.077 89.299 130.384 88.9 130.476 88.7772C131.55 87.3654 131.458 85.4317 130.752 84.3881C130.415 83.9277 129.862 83.6515 128.481 82.9762C126.21 81.8713 125.504 81.3802 125.289 81.196C125.811 79.8455 129.893 73.9218 131.489 71.6505L131.643 71.4356C132.563 70.1465 133.269 69.103 133.607 68.5505C134.589 67.0158 133.822 65.8495 133.361 65.1436C132.686 64.0386 131.643 62.3812 132.84 57.2554C134.957 48.1396 141.986 41.8782 143.367 40.7426C145.761 38.7168 156.78 31.197 167.185 31.197C169.61 31.197 172.188 31.4426 174.797 31.9644C176.362 32.2713 177.836 32.6703 179.278 33.1614C179.432 33.1921 193.274 37.4584 198.983 49.7663C202.758 57.9 202.175 67.7525 197.295 78.9248C196.558 80.2139 195.852 81.4109 195.147 82.5772L194.962 82.8842C191.862 87.9178 189.407 91.8772 189.837 100.103C189.837 100.441 190.573 118.151 190.727 121.742H181.979V89.8822L185.202 86.6594C185.877 87.1505 186.706 87.4574 187.596 87.4574C189.837 87.4574 191.648 85.6465 191.648 83.4059C191.648 81.1654 189.837 79.3545 187.596 79.3545C185.355 79.3545 183.545 81.1654 183.545 83.4059C183.545 84.296 183.851 85.1248 184.343 85.8L180.844 89.2069C180.721 89.3297 180.659 89.4832 180.659 89.6366V122.294C180.659 122.632 180.936 122.908 181.273 122.908H191.249C191.402 122.908 191.555 122.847 191.678 122.724C191.801 122.601 191.862 122.448 191.832 122.294C191.832 122.294 190.942 100.41 190.911 100.011C190.512 92.1535 192.875 88.3475 195.852 83.498L196.037 83.1911C196.743 82.0248 197.479 80.8277 198.247 79.4465C203.342 67.9059 203.925 57.7465 199.996 49.2752ZM145.178 80.8277C145.178 79.2624 146.437 78.004 148.002 78.004C149.567 78.004 150.826 79.2624 150.826 80.8277C150.826 82.3931 149.567 83.6515 148.002 83.6515C146.467 83.6515 145.178 82.3931 145.178 80.8277ZM187.504 80.5822C189.069 80.5822 190.328 81.8406 190.328 83.4059C190.328 84.9713 189.069 86.2297 187.504 86.2297C185.939 86.2297 184.68 84.9713 184.68 83.4059C184.65 81.8713 185.939 80.5822 187.504 80.5822Z" fill="white" stroke="white"/>
<path d="M168.044 65.604C168.382 65.604 168.658 65.3278 168.658 64.9901V45.4386C170.592 45.1317 172.096 43.4743 172.096 41.4485C172.096 39.208 170.285 37.3971 168.044 37.3971C165.804 37.3971 163.993 39.208 163.993 41.4485C163.993 43.4743 165.497 45.1317 167.431 45.4386V64.9901C167.461 65.3584 167.707 65.604 168.044 65.604ZM165.221 41.4792C165.221 39.9139 166.479 38.6555 168.044 38.6555C169.61 38.6555 170.868 39.9139 170.868 41.4792C170.868 43.0446 169.61 44.303 168.044 44.303C166.479 44.3337 165.221 43.0446 165.221 41.4792Z" fill="white" stroke="white"/>
<path d="M178.787 61.3376C178.542 61.5832 178.542 61.9515 178.787 62.1971C178.91 62.3198 179.063 62.3812 179.217 62.3812C179.37 62.3812 179.524 62.3198 179.647 62.1971L184.834 57.0099C184.957 56.8872 185.018 56.7337 185.018 56.5802V50.1961C186.952 49.8891 188.456 48.2317 188.456 46.206C188.456 43.9654 186.645 42.1545 184.404 42.1545C182.163 42.1545 180.353 43.9654 180.353 46.206C180.353 48.2317 181.857 49.8891 183.79 50.1961V56.3347L178.787 61.3376ZM181.55 46.206C181.55 44.6406 182.808 43.3822 184.373 43.3822C185.939 43.3822 187.197 44.6406 187.197 46.206C187.197 47.7713 185.939 49.0297 184.373 49.0297C182.839 49.0604 181.55 47.7713 181.55 46.206Z" fill="white" stroke="white"/>
<path d="M156.535 47.5257C156.535 45.2851 154.724 43.4742 152.483 43.4742C150.242 43.4742 148.432 45.2851 148.432 47.5257C148.432 49.5821 149.966 51.2703 151.961 51.5158L151.869 55.2911C151.869 55.4445 151.931 55.6287 152.053 55.7208L157.455 61.1227C157.578 61.2455 157.732 61.3069 157.885 61.3069C158.039 61.3069 158.192 61.2455 158.315 61.1227C158.56 60.8772 158.56 60.5089 158.315 60.2633L153.097 55.0455L153.189 51.4851C155.092 51.1475 156.535 49.4901 156.535 47.5257ZM149.659 47.5257C149.659 45.9604 150.918 44.702 152.483 44.702C154.048 44.702 155.307 45.9604 155.307 47.5257C155.307 49.0911 154.048 50.3495 152.483 50.3495C150.948 50.3495 149.659 49.0911 149.659 47.5257Z" fill="white" stroke="white"/>
<path d="M192.752 74.4436C194.993 74.4436 196.804 72.6327 196.804 70.3921C196.804 68.1515 194.993 66.3406 192.752 66.3406C190.696 66.3406 189.008 67.9059 188.762 69.901H180.168C180.015 69.901 179.861 69.9624 179.739 70.0852L172.035 77.8198C171.912 77.9426 171.851 78.096 171.851 78.2495V121.711H165.681V78.4951C165.681 78.3416 165.62 78.1881 165.497 78.0654L156.811 69.3792C156.688 69.2564 156.535 69.1951 156.381 69.1951H147.388C147.081 67.2614 145.424 65.7574 143.398 65.7574C141.157 65.7574 139.347 67.5683 139.347 69.8089C139.347 72.0495 141.157 73.8604 143.398 73.8604C145.424 73.8604 147.081 72.3564 147.388 70.4228H156.136L164.453 78.7406V122.294C164.453 122.632 164.73 122.908 165.067 122.908H172.464C172.802 122.908 173.078 122.632 173.078 122.294V78.4951L180.445 71.1287H188.793C189.131 73.001 190.757 74.4436 192.752 74.4436ZM143.429 72.6327C141.863 72.6327 140.605 71.3743 140.605 69.8089C140.605 68.2436 141.863 66.9852 143.429 66.9852C144.994 66.9852 146.252 68.2436 146.252 69.8089C146.252 71.3743 144.994 72.6327 143.429 72.6327ZM192.752 67.5683C194.318 67.5683 195.576 68.8267 195.576 70.3921C195.576 71.9574 194.318 73.2158 192.752 73.2158C191.187 73.2158 189.929 71.9574 189.929 70.3921C189.929 68.8267 191.187 67.5683 192.752 67.5683Z" fill="white" stroke="white"/>
</svg>
