<svg width="327" height="152" viewBox="0 0 327 152" fill="none" xmlns="http://www.w3.org/2000/svg">
<rect width="327" height="152" fill="#CD7A6E"/>
<path fill-rule="evenodd" clip-rule="evenodd" d="M191.714 90.8333H135.286C130.611 90.8333 126.821 94.6389 126.821 99.3333V119.167H200.179V99.3333C200.179 94.6389 196.389 90.8333 191.714 90.8333ZM135.286 88C129.053 88 124 93.0741 124 99.3333V122H203V99.3333C203 93.0741 197.947 88 191.714 88H135.286Z" fill="white" fill-opacity="0.9"/>
<path fill-rule="evenodd" clip-rule="evenodd" d="M179.018 32.8235H147.982C136.295 32.8235 126.821 42.3046 126.821 54C126.821 65.6954 136.295 75.1765 147.982 75.1765H179.018C190.705 75.1765 200.179 65.6954 200.179 54C200.179 42.3046 190.705 32.8235 179.018 32.8235ZM147.982 30C134.737 30 124 40.7452 124 54C124 67.2548 134.737 78 147.982 78H179.018C192.263 78 203 67.2548 203 54C203 40.7452 192.263 30 179.018 30H147.982Z" fill="white" fill-opacity="0.9"/>
<path fill-rule="evenodd" clip-rule="evenodd" d="M151 58.2C153.32 58.2 155.2 56.3196 155.2 54C155.2 51.6804 153.32 49.8 151 49.8C148.68 49.8 146.8 51.6804 146.8 54C146.8 56.3196 148.68 58.2 151 58.2ZM151 61C154.866 61 158 57.866 158 54C158 50.134 154.866 47 151 47C147.134 47 144 50.134 144 54C144 57.866 147.134 61 151 61Z" fill="white" fill-opacity="0.9"/>
<path fill-rule="evenodd" clip-rule="evenodd" d="M176 58.2C178.32 58.2 180.2 56.3196 180.2 54C180.2 51.6804 178.32 49.8 176 49.8C173.68 49.8 171.8 51.6804 171.8 54C171.8 56.3196 173.68 58.2 176 58.2ZM176 61C179.866 61 183 57.866 183 54C183 50.134 179.866 47 176 47C172.134 47 169 50.134 169 54C169 57.866 172.134 61 176 61Z" fill="white" fill-opacity="0.9"/>
</svg>
