<svg width="256" height="44" viewBox="0 0 256 44" fill="none" xmlns="http://www.w3.org/2000/svg">
<g clip-path="url(#clip0_15_37)">
<mask id="mask0_15_37" style="mask-type:luminance" maskUnits="userSpaceOnUse" x="0" y="0" width="228" height="44">
<path d="M228 0H0V44H228V0Z" fill="white"/>
</mask>
<g mask="url(#mask0_15_37)">
<path d="M227.114 37.4195C227.026 37.3895 226.903 37.367 226.753 37.3445C226.61 37.3145 226.406 37.2995 226.154 37.2995C225.677 37.2995 225.309 37.472 225.051 37.8172C224.799 38.1623 224.669 38.6126 224.669 39.1828C224.669 39.498 224.703 39.7681 224.771 39.9932C224.846 40.2183 224.948 40.4059 225.064 40.5484C225.194 40.6985 225.337 40.8035 225.493 40.8711C225.657 40.9386 225.827 40.9761 225.997 40.9761C226.236 40.9761 226.447 40.9386 226.644 40.8711C226.842 40.796 226.999 40.706 227.114 40.6085V37.412V37.4195ZM227.121 41.4714C227.046 41.5239 226.897 41.5989 226.672 41.689C226.454 41.7715 226.202 41.8165 225.909 41.8165C225.616 41.8165 225.33 41.764 225.057 41.6589C224.799 41.5539 224.567 41.3963 224.369 41.1787C224.172 40.9536 224.015 40.676 223.899 40.3458C223.784 40.0157 223.729 39.6255 223.729 39.1678C223.729 38.7701 223.784 38.4025 223.893 38.0723C224.002 37.7347 224.158 37.4495 224.363 37.2094C224.574 36.9618 224.826 36.7742 225.126 36.6392C225.425 36.4966 225.759 36.4291 226.134 36.4291C226.549 36.4291 226.903 36.4666 227.21 36.5341C227.523 36.5941 227.782 36.6542 227.993 36.7142V41.5914C227.993 42.4318 227.796 43.0396 227.401 43.4222C227.006 43.7974 226.406 43.9925 225.609 43.9925C225.296 43.9925 225.003 43.9625 224.724 43.91C224.451 43.8574 224.213 43.7899 224.008 43.7074L224.172 42.8595C224.349 42.9345 224.567 43.002 224.819 43.0621C225.078 43.1221 225.35 43.1596 225.63 43.1596C226.154 43.1596 226.536 43.0471 226.767 42.8145C227.006 42.5819 227.121 42.2142 227.121 41.7115V41.4789V41.4714ZM218.539 36.7142C218.743 36.6617 219.016 36.6016 219.349 36.5341C219.683 36.4666 220.071 36.4366 220.514 36.4366C220.909 36.4366 221.236 36.4966 221.495 36.6241C221.754 36.7442 221.965 36.9168 222.115 37.1419C222.272 37.3595 222.387 37.6221 222.449 37.9297C222.51 38.2374 222.544 38.575 222.544 38.9502V42.0191H221.659V39.1603C221.659 38.8226 221.638 38.5375 221.59 38.2974C221.55 38.0573 221.488 37.8697 221.393 37.7196C221.297 37.5696 221.168 37.4645 221.011 37.4045C220.855 37.337 220.657 37.2995 220.419 37.2995C220.323 37.2995 220.228 37.2995 220.126 37.307C220.024 37.3145 219.928 37.322 219.833 37.337C219.744 37.337 219.663 37.352 219.588 37.367C219.52 37.382 219.465 37.3895 219.438 37.397V42.0116H218.552V36.7067L218.539 36.7142ZM216.564 35.5662C216.407 35.5662 216.271 35.5136 216.155 35.4011C216.046 35.281 215.991 35.1235 215.991 34.9284C215.991 34.7333 216.046 34.5757 216.155 34.4632C216.271 34.3431 216.407 34.2831 216.564 34.2831C216.72 34.2831 216.856 34.3431 216.965 34.4632C217.081 34.5757 217.136 34.7258 217.136 34.9284C217.136 35.131 217.081 35.281 216.965 35.4011C216.856 35.5136 216.727 35.5662 216.564 35.5662ZM217.013 42.0191H216.128V36.5566H217.013V42.0191ZM210.651 36.7142C210.856 36.6617 211.128 36.6016 211.462 36.5341C211.796 36.4741 212.184 36.4366 212.627 36.4366C213.022 36.4366 213.349 36.4966 213.607 36.6241C213.866 36.7442 214.077 36.9168 214.227 37.1419C214.384 37.3595 214.5 37.6221 214.561 37.9297C214.622 38.2374 214.656 38.575 214.656 38.9502V42.0191H213.771V39.1603C213.771 38.8226 213.75 38.5375 213.703 38.2974C213.662 38.0573 213.601 37.8697 213.505 37.7196C213.41 37.5696 213.28 37.4645 213.124 37.4045C212.967 37.337 212.77 37.2995 212.531 37.2995C212.436 37.2995 212.34 37.2995 212.238 37.307C212.136 37.307 212.041 37.322 211.945 37.337C211.857 37.337 211.775 37.352 211.7 37.367C211.632 37.382 211.578 37.3895 211.55 37.397V42.0116H210.665V36.7067L210.651 36.7142ZM207.641 36.5566H209.52V37.3745H207.641V39.8956C207.641 40.1658 207.661 40.3984 207.695 40.5784C207.736 40.751 207.79 40.8936 207.865 40.9986C207.94 41.0962 208.036 41.1637 208.151 41.2087C208.267 41.2537 208.397 41.2688 208.553 41.2688C208.819 41.2688 209.03 41.2387 209.194 41.1712C209.357 41.1037 209.473 41.0512 209.534 41.0211L209.704 41.8315C209.616 41.884 209.459 41.9366 209.234 42.0116C209.01 42.0866 208.758 42.1241 208.472 42.1241C208.138 42.1241 207.852 42.0791 207.634 41.9891C207.416 41.8915 207.245 41.749 207.109 41.5614C206.973 41.3738 206.878 41.1412 206.823 40.8711C206.775 40.5935 206.748 40.2708 206.748 39.9031V35.0259L207.634 34.8608V36.5491L207.641 36.5566ZM205.692 42.1241C205.148 42.1091 204.759 41.9816 204.528 41.734C204.296 41.4864 204.187 41.1037 204.187 40.5859V34.028L205.073 33.8629V40.4284C205.073 40.5859 205.086 40.721 205.113 40.8261C205.141 40.9311 205.182 41.0136 205.236 41.0812C205.291 41.1487 205.372 41.1937 205.468 41.2312C205.563 41.2613 205.679 41.2838 205.822 41.3063L205.699 42.1241H205.692ZM200.822 36.4216C201.176 36.4216 201.476 36.4741 201.721 36.5791C201.967 36.6767 202.164 36.8192 202.314 37.0068C202.464 37.1869 202.573 37.412 202.641 37.6671C202.702 37.9222 202.736 38.1999 202.736 38.5075V41.9216C202.661 41.9366 202.552 41.9591 202.409 41.9816C202.273 42.0041 202.123 42.0266 201.953 42.0416C201.783 42.0566 201.592 42.0791 201.388 42.0941C201.19 42.1166 200.993 42.1241 200.795 42.1241C200.516 42.1241 200.257 42.0941 200.025 42.0266C199.787 41.9666 199.589 41.869 199.412 41.734C199.242 41.5914 199.106 41.4113 199.01 41.1862C198.915 40.9611 198.867 40.691 198.867 40.3759C198.867 40.0607 198.922 39.8131 199.031 39.5955C199.147 39.3779 199.296 39.2053 199.487 39.0703C199.678 38.9352 199.903 38.8377 200.155 38.7776C200.407 38.7176 200.679 38.6801 200.958 38.6801C201.047 38.6801 201.142 38.6801 201.238 38.7026C201.333 38.7026 201.422 38.7251 201.503 38.7476C201.592 38.7626 201.667 38.7776 201.735 38.7926C201.796 38.8076 201.844 38.8151 201.871 38.8226V38.5525C201.871 38.395 201.858 38.2374 201.824 38.0798C201.789 37.9222 201.735 37.7797 201.653 37.6596C201.572 37.5321 201.456 37.4345 201.313 37.367C201.17 37.2919 200.986 37.2544 200.761 37.2544C200.468 37.2544 200.209 37.2769 199.991 37.3295C199.773 37.3745 199.61 37.4195 199.508 37.4645L199.405 36.6542C199.521 36.6016 199.712 36.5491 199.978 36.4966C200.243 36.4441 200.536 36.4141 200.843 36.4141L200.822 36.4216ZM200.904 41.3138C201.115 41.3138 201.299 41.3138 201.456 41.3063C201.619 41.2913 201.755 41.2688 201.864 41.2462V39.618C201.803 39.5805 201.694 39.558 201.551 39.5355C201.408 39.5055 201.238 39.4905 201.033 39.4905C200.897 39.4905 200.754 39.498 200.604 39.5205C200.461 39.543 200.318 39.588 200.196 39.6555C200.073 39.7156 199.971 39.8131 199.889 39.9256C199.807 40.0382 199.766 40.1883 199.766 40.3759C199.766 40.7285 199.869 40.9686 200.073 41.1112C200.277 41.2462 200.55 41.3138 200.904 41.3138ZM198.309 36.5566C198.064 37.5771 197.771 38.56 197.43 39.498C197.096 40.4359 196.776 41.2763 196.47 42.0191H195.666C195.353 41.2763 195.033 40.4359 194.692 39.498C194.358 38.56 194.072 37.5771 193.827 36.5566H194.78C194.855 36.9018 194.944 37.2694 195.046 37.6596C195.155 38.0423 195.264 38.4325 195.38 38.8151C195.503 39.1903 195.618 39.558 195.741 39.9181C195.864 40.2783 195.979 40.5935 196.081 40.8711C196.19 40.5935 196.306 40.2708 196.422 39.9181C196.545 39.558 196.66 39.1903 196.776 38.8151C196.899 38.4325 197.008 38.0423 197.11 37.6596C197.219 37.2694 197.308 36.9018 197.389 36.5566H198.302H198.309ZM192.383 36.4441C192.458 36.4441 192.546 36.4441 192.642 36.4666C192.744 36.4666 192.839 36.4891 192.935 36.5116C193.03 36.5266 193.118 36.5416 193.193 36.5641C193.275 36.5791 193.336 36.5941 193.377 36.6091L193.227 37.457C193.159 37.427 193.037 37.397 192.873 37.3595C192.717 37.3145 192.505 37.2995 192.253 37.2995C192.09 37.2995 191.92 37.322 191.756 37.3595C191.6 37.397 191.491 37.4195 191.443 37.4345V42.0266H190.557V36.7967C190.769 36.7142 191.027 36.6392 191.341 36.5641C191.654 36.4891 192.001 36.4516 192.39 36.4516L192.383 36.4441ZM187.88 35.5512C187.737 35.5512 187.601 35.4986 187.492 35.3861C187.383 35.266 187.329 35.116 187.329 34.9359C187.329 34.7558 187.383 34.6057 187.492 34.4932C187.608 34.3731 187.737 34.3131 187.88 34.3131C188.024 34.3131 188.153 34.3731 188.262 34.4932C188.378 34.6057 188.432 34.7558 188.432 34.9359C188.432 35.116 188.378 35.266 188.262 35.3861C188.153 35.4986 188.024 35.5512 187.88 35.5512ZM186.069 35.5512C185.926 35.5512 185.789 35.4986 185.68 35.3861C185.571 35.266 185.517 35.116 185.517 34.9359C185.517 34.7558 185.571 34.6057 185.68 34.4932C185.796 34.3731 185.926 34.3131 186.069 34.3131C186.212 34.3131 186.341 34.3731 186.45 34.4932C186.566 34.6057 186.62 34.7558 186.62 34.9359C186.62 35.116 186.566 35.266 186.45 35.3861C186.341 35.4986 186.212 35.5512 186.069 35.5512ZM188.378 39.2879C188.378 38.6726 188.248 38.1849 187.996 37.8247C187.751 37.457 187.41 37.2769 186.975 37.2769C186.539 37.2769 186.198 37.457 185.946 37.8247C185.701 38.1849 185.571 38.6651 185.571 39.2879C185.571 39.9106 185.694 40.3909 185.946 40.7585C186.198 41.1187 186.545 41.2913 186.975 41.2913C187.404 41.2913 187.744 41.1112 187.996 40.7585C188.248 40.3909 188.378 39.9031 188.378 39.2879ZM189.304 39.2879C189.304 39.7231 189.25 40.1132 189.134 40.4659C189.018 40.8186 188.855 41.1187 188.65 41.3663C188.446 41.6214 188.201 41.8165 187.915 41.9516C187.628 42.0866 187.315 42.1542 186.981 42.1542C186.648 42.1542 186.334 42.0866 186.048 41.9516C185.762 41.809 185.517 41.6139 185.306 41.3663C185.101 41.1112 184.945 40.8111 184.829 40.4659C184.713 40.1207 184.659 39.7231 184.659 39.2879C184.659 38.8527 184.713 38.47 184.829 38.1248C184.945 37.7647 185.101 37.4645 185.306 37.2094C185.517 36.9543 185.762 36.7667 186.048 36.6316C186.334 36.4891 186.648 36.4216 186.981 36.4216C187.315 36.4216 187.628 36.4891 187.915 36.6316C188.201 36.7667 188.446 36.9543 188.65 37.2094C188.861 37.4645 189.025 37.7647 189.134 38.1248C189.25 38.4775 189.304 38.8602 189.304 39.2879ZM183.187 33.8704C183.446 33.8704 183.671 33.8929 183.855 33.9304C184.046 33.9754 184.182 34.013 184.257 34.043L184.093 34.8834C184.018 34.8383 183.909 34.8008 183.766 34.7708C183.623 34.7258 183.453 34.7108 183.249 34.7108C182.833 34.7108 182.547 34.8383 182.384 35.0859C182.22 35.3336 182.138 35.6637 182.138 36.0839V36.5566H184.046V37.3745H182.138V42.0191H181.253V36.0614C181.253 35.3636 181.41 34.8233 181.723 34.4407C182.036 34.058 182.527 33.8629 183.194 33.8629L183.187 33.8704ZM177.922 42.1241C177.377 42.1091 176.989 41.9816 176.757 41.734C176.526 41.4864 176.417 41.1037 176.417 40.5859V34.028L177.302 33.8629V40.4284C177.302 40.5859 177.316 40.721 177.343 40.8261C177.37 40.9311 177.411 41.0136 177.466 41.0812C177.52 41.1412 177.602 41.1937 177.697 41.2312C177.793 41.2613 177.908 41.2838 178.052 41.3063L177.929 42.1241H177.922ZM173.052 36.4216C173.406 36.4216 173.706 36.4741 173.951 36.5791C174.196 36.6767 174.394 36.8192 174.544 37.0068C174.693 37.1869 174.802 37.412 174.871 37.6671C174.932 37.9222 174.966 38.1999 174.966 38.5075V41.9216C174.891 41.9366 174.782 41.9591 174.639 41.9816C174.503 42.0041 174.353 42.0266 174.183 42.0416C174.012 42.0566 173.822 42.0791 173.617 42.0941C173.42 42.1166 173.222 42.1241 173.025 42.1241C172.745 42.1241 172.487 42.0941 172.255 42.0266C172.017 41.9666 171.819 41.869 171.642 41.734C171.472 41.5914 171.335 41.4113 171.24 41.1862C171.145 40.9611 171.097 40.691 171.097 40.3759C171.097 40.0607 171.152 39.8131 171.261 39.5955C171.376 39.3779 171.526 39.2053 171.717 39.0703C171.908 38.9352 172.132 38.8377 172.384 38.7776C172.636 38.7176 172.909 38.6801 173.188 38.6801C173.277 38.6801 173.372 38.6801 173.467 38.7026C173.563 38.7026 173.651 38.7251 173.733 38.7476C173.822 38.7626 173.897 38.7776 173.965 38.7926C174.026 38.8076 174.074 38.8151 174.101 38.8226V38.5525C174.101 38.395 174.087 38.2374 174.053 38.0798C174.019 37.9222 173.965 37.7797 173.883 37.6596C173.801 37.5321 173.685 37.4345 173.542 37.367C173.399 37.2919 173.215 37.2544 172.991 37.2544C172.698 37.2544 172.439 37.2769 172.221 37.3295C172.003 37.3745 171.839 37.4195 171.737 37.4645L171.635 36.6542C171.751 36.6016 171.942 36.5491 172.207 36.4966C172.473 36.4441 172.766 36.4141 173.072 36.4141L173.052 36.4216ZM173.134 41.3138C173.345 41.3138 173.529 41.3138 173.685 41.3063C173.849 41.2913 173.985 41.2688 174.094 41.2462V39.618C174.033 39.5805 173.924 39.558 173.781 39.5355C173.638 39.5055 173.467 39.4905 173.263 39.4905C173.127 39.4905 172.984 39.498 172.834 39.5205C172.691 39.543 172.548 39.588 172.425 39.6555C172.303 39.7156 172.201 39.8131 172.119 39.9256C172.037 40.0382 171.996 40.1883 171.996 40.3759C171.996 40.7285 172.098 40.9686 172.303 41.1112C172.507 41.2462 172.779 41.3138 173.134 41.3138ZM168.447 36.5566H170.327V37.3745H168.447V39.8956C168.447 40.1658 168.468 40.3984 168.502 40.5784C168.543 40.751 168.597 40.8936 168.672 40.9986C168.747 41.0962 168.842 41.1637 168.958 41.2087C169.074 41.2537 169.203 41.2688 169.36 41.2688C169.626 41.2688 169.837 41.2387 170 41.1712C170.164 41.1037 170.28 41.0512 170.341 41.0211L170.511 41.8315C170.423 41.884 170.266 41.9366 170.041 42.0116C169.816 42.0866 169.564 42.1241 169.278 42.1241C168.945 42.1241 168.659 42.0791 168.441 41.9891C168.223 41.8915 168.052 41.749 167.916 41.5614C167.78 41.3738 167.685 41.1412 167.63 40.8711C167.582 40.5935 167.555 40.2708 167.555 39.9031V35.0259L168.441 34.8608V36.5491L168.447 36.5566ZM165.641 35.5662C165.484 35.5662 165.348 35.5136 165.232 35.4011C165.123 35.281 165.069 35.1235 165.069 34.9284C165.069 34.7333 165.123 34.5757 165.232 34.4632C165.348 34.3431 165.484 34.2831 165.641 34.2831C165.798 34.2831 165.934 34.3431 166.043 34.4632C166.159 34.5757 166.213 34.7258 166.213 34.9284C166.213 35.131 166.159 35.281 166.043 35.4011C165.934 35.5136 165.805 35.5662 165.641 35.5662ZM166.091 42.0191H165.205V36.5566H166.091V42.0191ZM162.787 37.4195C162.699 37.3895 162.576 37.367 162.426 37.3445C162.283 37.3145 162.079 37.2995 161.827 37.2995C161.35 37.2995 160.982 37.472 160.723 37.8172C160.471 38.1623 160.342 38.6126 160.342 39.1828C160.342 39.498 160.376 39.7681 160.444 39.9932C160.519 40.2183 160.621 40.4059 160.737 40.5484C160.866 40.6985 161.009 40.8035 161.166 40.8711C161.329 40.9386 161.5 40.9761 161.67 40.9761C161.908 40.9761 162.12 40.9386 162.317 40.8711C162.515 40.796 162.671 40.706 162.787 40.6085V37.412V37.4195ZM162.801 41.4714C162.726 41.5239 162.576 41.5989 162.351 41.689C162.133 41.7715 161.881 41.8165 161.588 41.8165C161.295 41.8165 161.009 41.764 160.737 41.6589C160.478 41.5539 160.246 41.3963 160.049 41.1787C159.851 40.9536 159.695 40.676 159.579 40.3458C159.463 40.0157 159.409 39.6255 159.409 39.1678C159.409 38.7701 159.463 38.4025 159.572 38.0723C159.681 37.7347 159.838 37.4495 160.042 37.2094C160.253 36.9618 160.505 36.7742 160.805 36.6392C161.105 36.4966 161.438 36.4291 161.813 36.4291C162.229 36.4291 162.583 36.4666 162.889 36.5341C163.203 36.5941 163.461 36.6542 163.673 36.7142V41.5914C163.673 42.4318 163.475 43.0396 163.08 43.4222C162.685 43.8049 162.085 43.9925 161.289 43.9925C160.975 43.9925 160.682 43.9625 160.403 43.91C160.131 43.8574 159.892 43.7899 159.688 43.7074L159.851 42.8595C160.028 42.9345 160.246 43.002 160.498 43.0621C160.757 43.1221 161.03 43.1596 161.309 43.1596C161.833 43.1596 162.215 43.0471 162.446 42.8145C162.685 42.5819 162.801 42.2142 162.801 41.7115V41.4789V41.4714ZM157.719 35.5662C157.563 35.5662 157.426 35.5136 157.311 35.4011C157.202 35.281 157.147 35.1235 157.147 34.9284C157.147 34.7333 157.202 34.5757 157.311 34.4632C157.426 34.3431 157.563 34.2831 157.719 34.2831C157.876 34.2831 158.012 34.3431 158.121 34.4632C158.237 34.5757 158.291 34.7258 158.291 34.9284C158.291 35.131 158.237 35.281 158.121 35.4011C158.012 35.5136 157.883 35.5662 157.719 35.5662ZM158.169 42.0191H157.283V36.5566H158.169V42.0191ZM154.865 34.0355L155.751 33.8704V41.8615C155.546 41.9216 155.288 41.9891 154.968 42.0491C154.647 42.1091 154.286 42.1467 153.871 42.1467C153.489 42.1467 153.149 42.0791 152.842 41.9441C152.536 41.809 152.277 41.6214 152.059 41.3738C151.841 41.1262 151.678 40.8336 151.555 40.4809C151.439 40.1207 151.385 39.7231 151.385 39.2804C151.385 38.8377 151.432 38.4775 151.528 38.1248C151.63 37.7722 151.773 37.472 151.964 37.2244C152.154 36.9768 152.386 36.7742 152.658 36.6392C152.938 36.4966 153.258 36.4291 153.612 36.4291C153.898 36.4291 154.15 36.4741 154.368 36.5566C154.593 36.6392 154.756 36.7217 154.865 36.7967V34.0355ZM154.865 37.7121C154.756 37.6146 154.6 37.5171 154.395 37.427C154.191 37.337 153.966 37.292 153.728 37.292C153.476 37.292 153.251 37.3445 153.067 37.4495C152.89 37.5471 152.74 37.6896 152.631 37.8697C152.515 38.0423 152.434 38.2524 152.386 38.5C152.338 38.7476 152.311 39.0102 152.311 39.2879C152.311 39.9256 152.454 40.4209 152.74 40.766C153.026 41.1112 153.408 41.2838 153.884 41.2838C154.123 41.2838 154.327 41.2763 154.484 41.2538C154.647 41.2237 154.777 41.2012 154.865 41.1712V37.7121ZM147.611 36.4441C147.686 36.4441 147.775 36.4441 147.87 36.4666C147.972 36.4666 148.068 36.4891 148.163 36.5116C148.258 36.5266 148.347 36.5416 148.422 36.5641C148.503 36.5791 148.565 36.5941 148.606 36.6091L148.456 37.457C148.388 37.427 148.265 37.397 148.102 37.3595C147.945 37.3145 147.734 37.2995 147.482 37.2995C147.318 37.2995 147.148 37.322 146.984 37.3595C146.828 37.397 146.719 37.4195 146.671 37.4345V42.0266H145.786V36.7967C145.997 36.7142 146.256 36.6392 146.569 36.5641C146.882 36.4891 147.23 36.4516 147.618 36.4516L147.611 36.4441ZM143.109 35.5512C142.966 35.5512 142.829 35.4986 142.721 35.3861C142.612 35.266 142.557 35.116 142.557 34.9359C142.557 34.7558 142.612 34.6057 142.721 34.4932C142.836 34.3731 142.966 34.3131 143.109 34.3131C143.252 34.3131 143.381 34.3731 143.49 34.4932C143.606 34.6057 143.66 34.7558 143.66 34.9359C143.66 35.116 143.606 35.266 143.49 35.3861C143.381 35.4986 143.252 35.5512 143.109 35.5512ZM141.297 35.5512C141.154 35.5512 141.018 35.4986 140.909 35.3861C140.8 35.266 140.745 35.116 140.745 34.9359C140.745 34.7558 140.8 34.6057 140.909 34.4932C141.024 34.3731 141.154 34.3131 141.297 34.3131C141.44 34.3131 141.569 34.3731 141.678 34.4932C141.794 34.6057 141.849 34.7558 141.849 34.9359C141.849 35.116 141.794 35.266 141.678 35.3861C141.569 35.4986 141.44 35.5512 141.297 35.5512ZM143.606 39.2879C143.606 38.6726 143.477 38.1849 143.225 37.8247C142.979 37.457 142.639 37.2769 142.203 37.2769C141.767 37.2769 141.426 37.457 141.174 37.8247C140.929 38.1849 140.8 38.6651 140.8 39.2879C140.8 39.9106 140.922 40.3909 141.174 40.7585C141.426 41.1187 141.774 41.2913 142.203 41.2913C142.632 41.2913 142.973 41.1112 143.225 40.7585C143.477 40.3909 143.606 39.9031 143.606 39.2879ZM144.532 39.2879C144.532 39.7231 144.478 40.1132 144.362 40.4659C144.246 40.8186 144.083 41.1187 143.878 41.3663C143.674 41.6214 143.429 41.8165 143.143 41.9516C142.857 42.0866 142.543 42.1542 142.21 42.1542C141.876 42.1542 141.563 42.0866 141.276 41.9516C140.99 41.809 140.745 41.6139 140.534 41.3663C140.33 41.1112 140.173 40.8111 140.057 40.4659C139.941 40.1207 139.887 39.7231 139.887 39.2879C139.887 38.8527 139.941 38.47 140.057 38.1248C140.173 37.7647 140.33 37.4645 140.534 37.2094C140.745 36.9543 140.99 36.7667 141.276 36.6316C141.563 36.4891 141.876 36.4216 142.21 36.4216C142.543 36.4216 142.857 36.4891 143.143 36.6316C143.429 36.7667 143.674 36.9543 143.878 37.2094C144.09 37.4645 144.253 37.7647 144.362 38.1248C144.478 38.4775 144.532 38.8602 144.532 39.2879ZM138.409 33.8704C138.668 33.8704 138.892 33.8929 139.076 33.9304C139.267 33.9754 139.403 34.013 139.478 34.043L139.315 34.8834C139.24 34.8383 139.131 34.8008 138.988 34.7708C138.845 34.7258 138.674 34.7108 138.47 34.7108C138.055 34.7108 137.769 34.8383 137.605 35.0859C137.442 35.3336 137.36 35.6637 137.36 36.0839V36.5566H139.267V37.3745H137.36V42.0191H136.474V36.0614C136.474 35.3636 136.631 34.8233 136.944 34.4407C137.258 34.058 137.748 33.8629 138.416 33.8629L138.409 33.8704ZM128.791 36.7142C128.995 36.6617 129.268 36.6016 129.602 36.5341C129.935 36.4741 130.324 36.4366 130.766 36.4366C131.161 36.4366 131.488 36.4966 131.747 36.6241C132.006 36.7442 132.217 36.9168 132.367 37.1419C132.524 37.3595 132.64 37.6221 132.701 37.9297C132.762 38.2374 132.796 38.575 132.796 38.9502V42.0191H131.911V39.1603C131.911 38.8226 131.89 38.5375 131.843 38.2974C131.802 38.0573 131.74 37.8697 131.645 37.7196C131.55 37.5696 131.42 37.4645 131.264 37.4045C131.107 37.337 130.909 37.2995 130.671 37.2995C130.576 37.2995 130.48 37.2995 130.378 37.307C130.276 37.307 130.181 37.322 130.085 37.337C129.997 37.337 129.915 37.352 129.84 37.367C129.772 37.382 129.717 37.3895 129.69 37.397V42.0116H128.805V36.7067L128.791 36.7142ZM126.591 38.7626C126.591 38.3199 126.496 37.9598 126.284 37.6821C126.08 37.397 125.801 37.2544 125.433 37.2544C125.229 37.2544 125.052 37.2995 124.888 37.3895C124.738 37.472 124.602 37.5846 124.5 37.7271C124.391 37.8697 124.309 38.0273 124.241 38.2074C124.187 38.3874 124.146 38.575 124.125 38.7626H126.584H126.591ZM123.185 39.2954C123.185 38.8151 123.247 38.395 123.376 38.0348C123.505 37.6671 123.669 37.367 123.88 37.1344C124.091 36.9018 124.33 36.7142 124.602 36.6016C124.874 36.4891 125.154 36.4216 125.44 36.4216C126.107 36.4216 126.618 36.6542 126.972 37.1119C127.327 37.5696 127.504 38.2674 127.504 39.2053V39.3704C127.504 39.4304 127.504 39.4904 127.497 39.5505H124.105C124.146 40.1207 124.296 40.5484 124.554 40.8411C124.813 41.1337 125.222 41.2838 125.774 41.2838C126.087 41.2838 126.346 41.2538 126.557 41.2012C126.775 41.1412 126.938 41.0812 127.041 41.0211L127.163 41.839C127.054 41.899 126.863 41.9666 126.591 42.0416C126.325 42.1091 126.019 42.1467 125.678 42.1467C125.249 42.1467 124.868 42.0791 124.554 41.9366C124.241 41.7865 123.982 41.5914 123.785 41.3363C123.58 41.0812 123.43 40.7885 123.328 40.4434C123.233 40.0907 123.185 39.708 123.185 39.2954ZM120.549 36.5566H122.429V37.3745H120.549V39.8956C120.549 40.1658 120.57 40.3984 120.604 40.5784C120.645 40.751 120.699 40.8936 120.774 40.9986C120.849 41.0962 120.944 41.1637 121.06 41.2087C121.176 41.2537 121.305 41.2688 121.462 41.2688C121.728 41.2688 121.939 41.2387 122.102 41.1712C122.266 41.1037 122.381 41.0512 122.443 41.0211L122.613 41.8315C122.525 41.884 122.368 41.9366 122.143 42.0116C121.918 42.0866 121.666 42.1241 121.38 42.1241C121.046 42.1241 120.76 42.0791 120.542 41.9891C120.324 41.8915 120.154 41.749 120.018 41.5614C119.882 41.3738 119.786 41.1412 119.732 40.8711C119.684 40.5935 119.657 40.2708 119.657 39.9031V35.0259L120.542 34.8608V36.5491L120.549 36.5566ZM117.525 38.7626C117.525 38.3199 117.43 37.9598 117.218 37.6821C117.014 37.397 116.735 37.2544 116.367 37.2544C116.163 37.2544 115.986 37.2995 115.822 37.3895C115.672 37.472 115.536 37.5846 115.434 37.7271C115.325 37.8697 115.243 38.0273 115.175 38.2074C115.12 38.3874 115.08 38.575 115.059 38.7626H117.518H117.525ZM114.119 39.2954C114.119 38.8151 114.18 38.395 114.31 38.0348C114.439 37.6671 114.603 37.367 114.814 37.1344C115.025 36.9018 115.264 36.7142 115.536 36.6016C115.808 36.4891 116.088 36.4216 116.374 36.4216C117.041 36.4216 117.552 36.6542 117.906 37.1119C118.261 37.5696 118.438 38.2674 118.438 39.2053V39.3704C118.438 39.4304 118.438 39.4904 118.431 39.5505H115.039C115.08 40.1207 115.229 40.5484 115.488 40.8411C115.747 41.1337 116.156 41.2838 116.708 41.2838C117.021 41.2838 117.28 41.2538 117.491 41.2012C117.709 41.1412 117.872 41.0812 117.974 41.0211L118.097 41.839C117.988 41.899 117.797 41.9666 117.525 42.0416C117.259 42.1091 116.953 42.1467 116.612 42.1467C116.183 42.1467 115.802 42.0791 115.488 41.9366C115.175 41.7865 114.916 41.5914 114.719 41.3363C114.514 41.0812 114.364 40.7885 114.262 40.4434C114.167 40.0907 114.119 39.708 114.119 39.2954ZM108.949 42.0191V34.0355L109.835 33.8704V36.6617C109.998 36.5941 110.175 36.5416 110.359 36.5041C110.55 36.4591 110.741 36.4441 110.925 36.4441C111.32 36.4441 111.647 36.5041 111.905 36.6316C112.164 36.7517 112.375 36.9243 112.525 37.1494C112.682 37.367 112.798 37.6296 112.859 37.9372C112.92 38.2449 112.954 38.5825 112.954 38.9577V42.0266H112.069V39.1678C112.069 38.8302 112.048 38.545 112.001 38.3049C111.96 38.0648 111.899 37.8772 111.803 37.7271C111.708 37.5771 111.579 37.472 111.422 37.412C111.265 37.3445 111.068 37.307 110.829 37.307C110.734 37.307 110.639 37.307 110.536 37.3295C110.434 37.3445 110.339 37.3595 110.243 37.382C110.155 37.397 110.073 37.412 109.998 37.4345C109.93 37.457 109.876 37.472 109.848 37.487V42.0266H108.963L108.949 42.0191ZM106.531 37.4195C106.443 37.3895 106.32 37.367 106.17 37.3445C106.027 37.3145 105.823 37.2995 105.571 37.2995C105.094 37.2995 104.726 37.472 104.467 37.8172C104.215 38.1623 104.086 38.6126 104.086 39.1828C104.086 39.498 104.12 39.7681 104.188 39.9932C104.263 40.2183 104.365 40.4059 104.481 40.5484C104.61 40.6985 104.753 40.8035 104.91 40.8711C105.074 40.9386 105.244 40.9761 105.414 40.9761C105.653 40.9761 105.864 40.9386 106.061 40.8711C106.259 40.796 106.415 40.706 106.531 40.6085V37.412V37.4195ZM106.545 41.4714C106.47 41.5239 106.32 41.5989 106.095 41.689C105.877 41.7715 105.625 41.8165 105.332 41.8165C105.04 41.8165 104.753 41.764 104.481 41.6589C104.222 41.5539 103.991 41.3963 103.793 41.1787C103.595 40.9536 103.439 40.676 103.323 40.3458C103.207 40.0157 103.153 39.6255 103.153 39.1678C103.153 38.7701 103.207 38.4025 103.316 38.0723C103.425 37.7347 103.582 37.4495 103.786 37.2094C103.997 36.9618 104.249 36.7742 104.549 36.6392C104.849 36.4966 105.183 36.4291 105.557 36.4291C105.973 36.4291 106.327 36.4666 106.633 36.5341C106.947 36.5941 107.206 36.6542 107.417 36.7142V41.5914C107.417 42.4318 107.219 43.0396 106.824 43.4222C106.429 43.7974 105.83 43.9925 105.033 43.9925C104.719 43.9925 104.426 43.9625 104.147 43.91C103.875 43.8574 103.636 43.7899 103.432 43.7074L103.595 42.8595C103.773 42.9345 103.991 43.002 104.243 43.0621C104.501 43.1221 104.774 43.1596 105.053 43.1596C105.578 43.1596 105.959 43.0471 106.191 42.8145C106.429 42.5819 106.545 42.2142 106.545 41.7115V41.4789V41.4714ZM101.463 35.5662C101.307 35.5662 101.171 35.5136 101.055 35.4011C100.946 35.281 100.891 35.1235 100.891 34.9284C100.891 34.7333 100.946 34.5757 101.055 34.4632C101.171 34.3431 101.307 34.2831 101.463 34.2831C101.62 34.2831 101.756 34.3431 101.865 34.4632C101.981 34.5757 102.036 34.7258 102.036 34.9284C102.036 35.131 101.981 35.281 101.865 35.4011C101.756 35.5136 101.627 35.5662 101.463 35.5662ZM101.906 42.0191H101.021V36.5566H101.906V42.0191ZM98.6095 34.0355L99.495 33.8704V41.8615C99.2906 41.9216 99.0318 41.9891 98.7117 42.0491C98.3915 42.1091 98.0305 42.1467 97.615 42.1467C97.2336 42.1467 96.893 42.0791 96.5865 41.9441C96.28 41.809 96.0211 41.6214 95.8032 41.3738C95.5852 41.1262 95.4217 40.8336 95.2991 40.4809C95.1833 40.1207 95.1288 39.7231 95.1288 39.2804C95.1288 38.8377 95.1765 38.4775 95.2719 38.1248C95.374 37.7722 95.5171 37.472 95.7078 37.2244C95.8985 36.9768 96.1301 36.7742 96.4026 36.6392C96.6818 36.4966 97.002 36.4291 97.3562 36.4291C97.6423 36.4291 97.8943 36.4741 98.1122 36.5566C98.337 36.6392 98.5005 36.7217 98.6095 36.7967V34.0355ZM98.6095 37.7121C98.5005 37.6146 98.3438 37.5171 98.1395 37.427C97.9352 37.337 97.7104 37.292 97.472 37.292C97.22 37.292 96.9952 37.3445 96.8113 37.4495C96.6342 37.5471 96.4843 37.6896 96.3753 37.8697C96.2595 38.0423 96.1778 38.2524 96.1301 38.5C96.0824 38.7476 96.0552 39.0102 96.0552 39.2879C96.0552 39.9256 96.1982 40.4209 96.4843 40.766C96.7704 41.1112 97.1518 41.2838 97.6286 41.2838C97.867 41.2838 98.0714 41.2763 98.2281 41.2538C98.3915 41.2237 98.5209 41.2012 98.6095 41.1712V37.7121ZM89.9317 36.7142C90.136 36.6617 90.4085 36.6016 90.7423 36.5341C91.076 36.4666 91.4643 36.4366 91.907 36.4366C92.3021 36.4366 92.629 36.4966 92.8879 36.6241C93.1467 36.7442 93.3579 36.9168 93.5077 37.1419C93.6644 37.3595 93.7802 37.6221 93.8415 37.9297C93.9028 38.2374 93.9368 38.575 93.9368 38.9502V42.0191H93.0513V39.1603C93.0513 38.8226 93.0309 38.5375 92.9832 38.2974C92.9424 38.0573 92.8811 37.8697 92.7857 37.7196C92.6903 37.5696 92.5609 37.4645 92.4043 37.4045C92.2476 37.337 92.05 37.2995 91.8116 37.2995C91.7163 37.2995 91.6209 37.2995 91.5188 37.307C91.4166 37.3145 91.3212 37.322 91.2259 37.337C91.1373 37.337 91.0556 37.352 90.9807 37.367C90.9125 37.382 90.8581 37.3895 90.8308 37.397V42.0116H89.9453V36.7067L89.9317 36.7142ZM84.6119 43.0396C84.6801 43.0771 84.7686 43.1071 84.8776 43.1371C84.9934 43.1746 85.1024 43.1896 85.2113 43.1896C85.5587 43.1896 85.8312 43.0996 86.0287 42.927C86.2263 42.7619 86.4034 42.4843 86.56 42.0941C86.1581 41.2538 85.7835 40.3608 85.4361 39.4229C85.0956 38.4775 84.8095 37.5246 84.5779 36.5566H85.5315C85.5996 36.8718 85.6813 37.2094 85.7767 37.5771C85.8789 37.9447 85.9879 38.3124 86.1105 38.7026C86.2331 39.0853 86.3625 39.4754 86.4987 39.8581C86.6349 40.2408 86.7848 40.616 86.9346 40.9686C87.173 40.2333 87.3842 39.5055 87.5613 38.7851C87.7384 38.0648 87.9087 37.322 88.0653 36.5566H88.9781C88.7465 37.5846 88.4945 38.575 88.2152 39.528C87.9359 40.4734 87.6362 41.3588 87.3093 42.1842C87.1799 42.4993 87.0504 42.7694 86.9074 42.9945C86.7712 43.2271 86.6213 43.4147 86.4578 43.5648C86.2944 43.7149 86.1036 43.8199 85.8925 43.8874C85.6881 43.955 85.4566 43.9925 85.1977 43.9925C85.1296 43.9925 85.0547 43.9925 84.9798 43.97C84.9048 43.97 84.8299 43.9475 84.7482 43.925C84.6801 43.91 84.6119 43.895 84.5506 43.8724C84.4961 43.8499 84.4553 43.8349 84.428 43.8199L84.5915 43.0321L84.6119 43.0396ZM79.9052 41.0136C79.8439 40.8486 79.7554 40.631 79.6464 40.3759C79.5442 40.1132 79.4352 39.8356 79.3126 39.5355C79.19 39.2353 79.0606 38.9277 78.9244 38.6125C78.7881 38.2899 78.6655 37.9898 78.5429 37.7121C78.4203 37.427 78.3045 37.1719 78.2024 36.9468C78.1002 36.7217 78.0184 36.5491 77.9571 36.4291C77.889 37.2544 77.8277 38.1548 77.7869 39.1153C77.7392 40.0757 77.7051 41.0437 77.6711 42.0266H76.7651C76.7924 41.3963 76.8196 40.766 76.8537 40.1282C76.8877 39.4829 76.9218 38.8527 76.9559 38.2374C77.0035 37.6146 77.0444 37.0068 77.0921 36.4216C77.1398 35.8363 77.1943 35.2735 77.2556 34.7483H78.0661C78.2364 35.0559 78.4203 35.4236 78.6179 35.8438C78.8154 36.264 79.0129 36.7067 79.2105 37.1644C79.408 37.6221 79.5987 38.0798 79.7826 38.5375C79.9665 38.9952 80.1368 39.4079 80.2867 39.7906C80.4365 39.4154 80.6068 38.9952 80.7907 38.5375C80.9746 38.0723 81.1653 37.6146 81.3629 37.1644C81.5604 36.6992 81.7579 36.264 81.9555 35.8438C82.153 35.4236 82.3369 35.0559 82.5072 34.7483H83.3178C83.5357 37.0969 83.6992 39.5205 83.8014 42.0266H82.8954C82.8614 41.0437 82.8273 40.0757 82.7797 39.1153C82.732 38.1473 82.6775 37.2544 82.6094 36.4291C82.5481 36.5491 82.4595 36.7217 82.3505 36.9468C82.2484 37.1719 82.1394 37.427 82.0168 37.7121C81.8942 37.9898 81.7647 38.2899 81.6285 38.6125C81.4923 38.9277 81.3697 39.2353 81.2471 39.5355C81.1245 39.8356 81.0087 40.1132 80.9065 40.3759C80.8043 40.6385 80.7226 40.8486 80.6613 41.0136H79.9188H79.9052ZM50.3026 41.1862C51.1813 41.1862 51.8352 40.9386 52.2711 40.4509C52.7002 39.9557 52.9182 39.2578 52.9182 38.3724C52.9182 37.487 52.7002 36.7892 52.2711 36.3015C51.842 35.8063 51.1813 35.5587 50.3026 35.5587C50.0438 35.5587 49.8394 35.5587 49.6896 35.5662C49.5465 35.5662 49.4512 35.5812 49.3967 35.5887V41.1562C49.4512 41.1562 49.5534 41.1712 49.6896 41.1787C49.8326 41.1787 50.037 41.1862 50.3026 41.1862ZM53.8991 38.3649C53.8991 38.9952 53.8105 39.543 53.6334 40.0157C53.4563 40.4809 53.2043 40.8636 52.8773 41.1712C52.5504 41.4713 52.1621 41.6965 51.7126 41.854C51.263 42.0041 50.7658 42.0716 50.2209 42.0716C49.9552 42.0716 49.6555 42.0566 49.3354 42.0266C49.0153 42.0041 48.7292 41.9591 48.4703 41.8915V34.8308C48.7292 34.7633 49.0221 34.7183 49.3354 34.6958C49.6623 34.6658 49.9552 34.6507 50.2209 34.6507C50.759 34.6507 51.2562 34.7258 51.7126 34.8834C52.1621 35.0334 52.5504 35.2585 52.8773 35.5662C53.2043 35.8663 53.4563 36.2565 53.6334 36.7217C53.8105 37.1869 53.8991 37.7271 53.8991 38.3649ZM55.2954 35.7237C55.1388 35.7237 55.0025 35.6712 54.8867 35.5587C54.7777 35.4386 54.7233 35.281 54.7233 35.0859C54.7233 34.8909 54.7777 34.7333 54.8867 34.6207C55.0025 34.5007 55.1388 34.4407 55.2954 34.4407C55.4521 34.4407 55.5883 34.5007 55.6973 34.6207C55.8131 34.7333 55.8676 34.8834 55.8676 35.0859C55.8676 35.2885 55.8131 35.4386 55.6973 35.5587C55.5883 35.6712 55.4589 35.7237 55.2954 35.7237ZM55.745 42.1767H54.8595V36.7142H55.745V42.1767ZM60.1929 37.4195C60.1043 37.3895 59.9817 37.367 59.8318 37.3445C59.6888 37.3145 59.4845 37.2995 59.2324 37.2995C58.7556 37.2995 58.3878 37.472 58.129 37.8172C57.877 38.1623 57.7475 38.6126 57.7475 39.1828C57.7475 39.498 57.7816 39.7681 57.8497 39.9932C57.9246 40.2183 58.0268 40.4059 58.1426 40.5484C58.272 40.6985 58.4151 40.8035 58.5717 40.8711C58.7352 40.9386 58.9055 40.9761 59.0758 40.9761C59.3142 40.9761 59.5253 40.9386 59.7229 40.8711C59.9204 40.796 60.0771 40.706 60.1929 40.6085V37.412V37.4195ZM60.2065 41.4789C60.1316 41.5314 59.9817 41.6064 59.7569 41.6965C59.539 41.779 59.2869 41.824 58.994 41.824C58.7011 41.824 58.4151 41.7715 58.1426 41.6664C57.8838 41.5614 57.6522 41.4038 57.4546 41.1862C57.2571 40.9611 57.1005 40.6835 56.9847 40.3533C56.8689 40.0232 56.8144 39.633 56.8144 39.1753C56.8144 38.7776 56.8689 38.41 56.9778 38.0798C57.0868 37.7422 57.2435 37.457 57.4478 37.2169C57.659 36.9693 57.911 36.7817 58.2107 36.6467C58.5104 36.5041 58.8442 36.4366 59.2188 36.4366C59.6343 36.4366 59.9885 36.4741 60.295 36.5416C60.6084 36.6016 60.8672 36.6617 61.0783 36.7217V41.5989C61.0783 42.4393 60.8808 43.0471 60.4858 43.4297C60.0907 43.8049 59.4913 44 58.6943 44C58.381 44 58.0881 43.97 57.8088 43.9175C57.5364 43.8649 57.298 43.7974 57.0936 43.7149L57.2571 42.867C57.4342 42.942 57.6522 43.0096 57.9042 43.0696C58.163 43.1296 58.4355 43.1671 58.7148 43.1671C59.2393 43.1671 59.6207 43.0546 59.8523 42.822C60.0907 42.5894 60.2065 42.2217 60.2065 41.719V41.4864V41.4789ZM65.3559 37.3895C65.2674 37.3595 65.1448 37.337 64.9949 37.3145C64.8519 37.2844 64.6476 37.2694 64.3955 37.2694C63.9187 37.2694 63.5509 37.442 63.2921 37.7872C63.04 38.1323 62.9106 38.5825 62.9106 39.1528C62.9106 39.4679 62.9447 39.7381 63.0128 39.9632C63.0877 40.1883 63.1899 40.3759 63.3057 40.5184C63.4351 40.6685 63.5782 40.7735 63.7348 40.8411C63.8983 40.9086 64.0686 40.9461 64.2389 40.9461C64.4773 40.9461 64.6884 40.9086 64.886 40.8411C65.0835 40.766 65.2401 40.676 65.3559 40.5784V37.382V37.3895ZM65.3628 41.4488C65.2878 41.5014 65.138 41.5764 64.9132 41.6664C64.6952 41.749 64.4432 41.794 64.1503 41.794C63.8574 41.794 63.5713 41.7415 63.2989 41.6364C63.04 41.5314 62.8085 41.3738 62.6109 41.1562C62.4134 40.9311 62.2567 40.6535 62.1409 40.3233C62.0251 39.9932 61.9706 39.603 61.9706 39.1453C61.9706 38.7476 62.0251 38.3799 62.1341 38.0498C62.2431 37.7121 62.3998 37.427 62.6041 37.1869C62.8153 36.9393 63.0673 36.7517 63.367 36.6166C63.6667 36.4741 64.0005 36.4065 64.3751 36.4065C64.7906 36.4065 65.1448 36.4441 65.4513 36.5116C65.7646 36.5716 66.0235 36.6317 66.2346 36.6917V41.5689C66.2346 42.4093 66.0371 43.0171 65.642 43.3997C65.247 43.7749 64.6475 43.97 63.8506 43.97C63.5373 43.97 63.2444 43.94 62.9651 43.8874C62.6927 43.8349 62.4543 43.7674 62.2499 43.6849L62.4134 42.837C62.5905 42.912 62.8085 42.9795 63.0605 43.0396C63.3193 43.0996 63.5918 43.1371 63.871 43.1371C64.3955 43.1371 64.777 43.0246 65.0086 42.7919C65.247 42.5593 65.3628 42.1917 65.3628 41.689V41.4563V41.4488Z" fill="#1D1D1B"/>
<path d="M19.0721 0H9.53601V10.5048H19.0721V0Z" fill="#ACB3A8"/>
<path d="M28.6081 10.5048H19.0721V21.0096H28.6081V10.5048Z" fill="#5A6751"/>
<path d="M38.1442 10.5048H28.6081V21.0096H38.1442V10.5048Z" fill="#ACB3A8"/>
<path d="M9.53604 21.0096H0V31.5143H9.53604V21.0096Z" fill="#5A6751"/>
<path d="M19.0721 21.0096H9.53601V31.5143H19.0721V21.0096Z" fill="#D6D9D3"/>
<path d="M38.1442 21.0096H28.6081V31.5143H38.1442V21.0096Z" fill="#D6D9D3"/>
<path d="M28.6081 31.5143H19.0721V42.0191H28.6081V31.5143Z" fill="#ACB3A8"/>
<path d="M74.2449 38.2674H68.7957V39.0177H74.2449V38.2674Z" fill="#1D1D1B"/>
<path d="M214.547 25.7217C213.723 25.7067 213.049 25.6091 212.524 25.4291C212.014 25.249 211.612 24.9939 211.305 24.6712C211.012 24.3336 210.808 23.9359 210.692 23.4707C210.59 22.9979 210.542 22.4652 210.542 21.8724V9.70941L213.383 9.20668V21.2422C213.383 21.5198 213.403 21.7749 213.437 22C213.471 22.2251 213.546 22.4127 213.648 22.5703C213.764 22.7278 213.921 22.8479 214.125 22.9454C214.329 23.043 214.602 23.103 214.942 23.133L214.541 25.7142L214.547 25.7217ZM204.174 14.1664C205.011 14.1664 205.713 14.2715 206.271 14.4816C206.83 14.6917 207.273 14.9918 207.607 15.382C207.947 15.7722 208.192 16.2524 208.329 16.8076C208.472 17.3704 208.54 17.9932 208.54 18.676V25.1889C208.131 25.2865 207.566 25.399 206.844 25.5266C206.122 25.6692 205.243 25.7367 204.214 25.7367C203.567 25.7367 202.975 25.6767 202.443 25.5491C201.919 25.4215 201.469 25.219 201.088 24.9413C200.706 24.6487 200.414 24.266 200.209 23.8083C200.005 23.3431 199.903 22.7803 199.903 22.105C199.903 21.4297 200.019 20.912 200.243 20.4693C200.482 20.0191 200.802 19.6664 201.197 19.3963C201.592 19.1337 202.042 18.9386 202.552 18.8261C203.063 18.6985 203.588 18.6385 204.133 18.6385C204.5 18.6385 204.827 18.661 205.107 18.6985C205.4 18.7285 205.631 18.766 205.815 18.8261V18.5334C205.815 18.0007 205.672 17.573 205.379 17.2503C205.086 16.9277 204.575 16.7701 203.853 16.7701C203.37 16.7701 202.893 16.8151 202.423 16.8977C201.953 16.9652 201.544 17.0703 201.204 17.2128L200.843 14.6917C201.006 14.6391 201.211 14.5791 201.456 14.5266C201.708 14.4591 201.98 14.399 202.273 14.3615C202.566 14.309 202.873 14.264 203.186 14.234C203.52 14.1889 203.847 14.1739 204.18 14.1739L204.174 14.1664ZM204.405 23.3281C204.684 23.3281 204.95 23.3281 205.209 23.3056C205.461 23.2906 205.665 23.2681 205.822 23.2456V20.8745C205.706 20.8445 205.536 20.822 205.304 20.7919C205.073 20.7619 204.868 20.7469 204.678 20.7469C204.412 20.7469 204.153 20.7694 203.915 20.807C203.683 20.837 203.486 20.897 203.302 20.9945C203.125 21.0921 202.982 21.2271 202.879 21.3922C202.777 21.5573 202.73 21.7674 202.73 22.0225C202.73 22.5102 202.873 22.8554 203.165 23.0505C203.472 23.2306 203.881 23.3206 204.405 23.3206V23.3281ZM192.948 11.7053L195.789 11.2026V14.4591H199.201V17.0628H195.789V20.9495C195.789 21.6098 195.891 22.1351 196.095 22.5252C196.313 22.9154 196.735 23.1105 197.376 23.1105C197.682 23.1105 197.996 23.0805 198.309 23.028C198.643 22.9604 198.936 22.8704 199.208 22.7578L199.61 25.1964C199.269 25.354 198.888 25.4816 198.466 25.5941C198.043 25.7067 197.532 25.7592 196.919 25.7592C196.143 25.7592 195.503 25.6467 194.992 25.4216C194.481 25.1814 194.079 24.8588 193.772 24.4536C193.466 24.0334 193.248 23.5307 193.125 22.9379C193.01 22.3527 192.955 21.6999 192.955 20.987V11.6978L192.948 11.7053ZM191.613 17.2353C191.361 17.1678 191.061 17.0928 190.714 17.0252C190.374 16.9427 189.999 16.8977 189.611 16.8977C189.434 16.8977 189.216 16.9202 188.964 16.9577C188.725 16.9877 188.534 17.0177 188.412 17.0628V25.5116H185.571V15.0518C186.082 14.8567 186.675 14.6767 187.363 14.5041C188.064 14.324 188.841 14.234 189.692 14.234C189.842 14.234 190.026 14.249 190.244 14.279C190.462 14.294 190.673 14.324 190.891 14.3615C191.109 14.3915 191.32 14.4291 191.538 14.4891C191.756 14.5341 191.94 14.5866 192.09 14.6542L191.613 17.2353ZM181.042 19.9666C181.042 18.9986 180.865 18.2408 180.511 17.7005C180.17 17.1378 179.673 16.8602 179.026 16.8602C178.379 16.8602 177.874 17.1378 177.52 17.7005C177.166 18.2483 176.989 19.0061 176.989 19.9666C176.989 20.927 177.166 21.6999 177.52 22.2776C177.874 22.8404 178.379 23.118 179.026 23.118C179.673 23.118 180.17 22.8404 180.511 22.2776C180.865 21.6999 181.042 20.9345 181.042 19.9666ZM183.937 19.9666C183.937 20.837 183.821 21.6323 183.596 22.3602C183.365 23.073 183.038 23.6883 182.602 24.206C182.173 24.7087 181.648 25.0989 181.035 25.384C180.436 25.6617 179.761 25.8042 179.012 25.8042C178.263 25.8042 177.602 25.6617 176.989 25.384C176.39 25.1064 175.879 24.7087 175.443 24.206C175.014 23.6883 174.673 23.073 174.435 22.3602C174.196 21.6323 174.074 20.837 174.074 19.9666C174.074 19.0962 174.196 18.3083 174.435 17.5955C174.687 16.8827 175.034 16.2749 175.463 15.7647C175.906 15.2619 176.43 14.8718 177.03 14.5866C177.643 14.309 178.304 14.1664 179.012 14.1664C179.72 14.1664 180.395 14.309 180.994 14.5866C181.607 14.8643 182.125 15.2619 182.561 15.7647C182.99 16.2674 183.33 16.8752 183.569 17.5955C183.807 18.3158 183.93 19.1037 183.93 19.9666H183.937ZM172.943 19.9891C172.943 20.8445 172.848 21.6173 172.657 22.3226C172.466 23.028 172.187 23.6282 171.819 24.131C171.451 24.6337 170.995 25.0239 170.443 25.309C169.898 25.5866 169.265 25.7292 168.556 25.7292C168.161 25.7292 167.794 25.6842 167.453 25.6016C167.112 25.5191 166.779 25.399 166.458 25.2415V29.3984H163.618V14.8417C163.87 14.7592 164.163 14.6842 164.497 14.6091C164.831 14.5266 165.171 14.4516 165.525 14.399C165.893 14.3465 166.261 14.3015 166.629 14.2715C167.01 14.2265 167.371 14.2115 167.719 14.2115C168.543 14.2115 169.285 14.354 169.932 14.6316C170.579 14.8943 171.124 15.2844 171.574 15.7872C172.017 16.2749 172.357 16.8827 172.582 17.5955C172.82 18.3083 172.943 19.1112 172.943 19.9891ZM170.041 20.0716C170.041 19.1037 169.844 18.3383 169.449 17.7606C169.054 17.1753 168.468 16.8752 167.691 16.8752C167.439 16.8752 167.201 16.8902 166.983 16.9202C166.765 16.9352 166.588 16.9577 166.452 16.9802V22.6303C166.629 22.7578 166.86 22.8629 167.14 22.9454C167.433 23.028 167.725 23.073 168.018 23.073C169.367 23.073 170.041 22.075 170.041 20.0716ZM157.249 14.1664C158.087 14.1664 158.789 14.2715 159.347 14.4816C159.906 14.6917 160.349 14.9918 160.682 15.382C161.023 15.7722 161.268 16.2524 161.404 16.8076C161.541 17.3629 161.616 17.9932 161.616 18.676V25.1889C161.207 25.2865 160.641 25.399 159.919 25.5266C159.197 25.6692 158.319 25.7367 157.29 25.7367C156.643 25.7367 156.051 25.6767 155.519 25.5491C154.995 25.4215 154.545 25.219 154.164 24.9413C153.782 24.6487 153.489 24.266 153.285 23.8083C153.081 23.3506 152.979 22.7803 152.979 22.105C152.979 21.4297 153.094 20.912 153.319 20.4693C153.558 20.0191 153.878 19.6664 154.273 19.3963C154.668 19.1262 155.117 18.9386 155.628 18.8261C156.139 18.6985 156.664 18.6385 157.209 18.6385C157.576 18.6385 157.903 18.661 158.183 18.6985C158.475 18.7285 158.707 18.766 158.891 18.8261V18.5334C158.891 18.0007 158.748 17.573 158.455 17.2503C158.162 16.9277 157.651 16.7701 156.929 16.7701C156.446 16.7701 155.969 16.8151 155.499 16.8977C155.029 16.9652 154.62 17.0703 154.28 17.2128L153.919 14.6917C154.082 14.6391 154.286 14.5791 154.532 14.5266C154.784 14.4591 155.056 14.399 155.349 14.3615C155.642 14.309 155.948 14.264 156.262 14.234C156.595 14.1889 156.922 14.1739 157.256 14.1739L157.249 14.1664ZM157.481 23.3281C157.76 23.3281 158.026 23.3281 158.285 23.3056C158.544 23.2831 158.741 23.2681 158.898 23.2456V20.8745C158.782 20.8445 158.612 20.822 158.38 20.7919C158.148 20.7619 157.944 20.7469 157.753 20.7469C157.488 20.7469 157.229 20.7694 156.991 20.807C156.759 20.837 156.561 20.897 156.378 20.9945C156.194 21.0921 156.057 21.2271 155.955 21.3922C155.853 21.5573 155.805 21.7674 155.805 22.0225C155.805 22.5102 155.948 22.8554 156.241 23.0505C156.548 23.2306 156.956 23.3206 157.481 23.3206V23.3281ZM146.024 11.7053L148.864 11.2026V14.4591H152.277V17.0628H148.864V20.9495C148.864 21.6098 148.967 22.1351 149.171 22.5252C149.389 22.9154 149.811 23.1105 150.452 23.1105C150.758 23.1105 151.071 23.0805 151.385 23.028C151.718 22.9604 152.011 22.8704 152.284 22.7578L152.686 25.1964C152.345 25.354 151.964 25.4816 151.541 25.5941C151.119 25.7067 150.608 25.7592 149.995 25.7592C149.219 25.7592 148.578 25.6467 148.068 25.4216C147.557 25.1814 147.155 24.8588 146.848 24.4536C146.542 24.0334 146.324 23.5307 146.201 22.9379C146.085 22.3527 146.031 21.6999 146.031 20.987V11.6978L146.024 11.7053ZM139.751 14.1664C140.589 14.1664 141.29 14.2715 141.849 14.4816C142.407 14.6917 142.85 14.9918 143.184 15.382C143.524 15.7722 143.769 16.2524 143.906 16.8076C144.049 17.3704 144.117 17.9932 144.117 18.676V25.1889C143.708 25.2865 143.143 25.399 142.421 25.5266C141.699 25.6692 140.82 25.7367 139.792 25.7367C139.145 25.7367 138.552 25.6767 138.021 25.5491C137.496 25.4215 137.047 25.219 136.665 24.9413C136.284 24.6487 135.991 24.266 135.786 23.8083C135.582 23.3431 135.48 22.7803 135.48 22.105C135.48 21.4297 135.596 20.912 135.821 20.4693C136.059 20.0191 136.379 19.6664 136.774 19.3963C137.169 19.1337 137.619 18.9386 138.13 18.8261C138.64 18.6985 139.165 18.6385 139.71 18.6385C140.078 18.6385 140.405 18.661 140.684 18.6985C140.977 18.7285 141.208 18.766 141.392 18.8261V18.5334C141.392 18.0007 141.249 17.573 140.956 17.2503C140.663 16.9277 140.153 16.7701 139.431 16.7701C138.947 16.7701 138.47 16.8151 138 16.8977C137.53 16.9652 137.122 17.0703 136.781 17.2128L136.42 14.6917C136.583 14.6391 136.788 14.5791 137.033 14.5266C137.285 14.4591 137.557 14.399 137.85 14.3615C138.143 14.309 138.45 14.264 138.763 14.234C139.097 14.1889 139.424 14.1739 139.758 14.1739L139.751 14.1664ZM139.982 23.3281C140.262 23.3281 140.527 23.3281 140.786 23.3056C141.038 23.2906 141.242 23.2681 141.399 23.2456V20.8745C141.283 20.8445 141.113 20.822 140.881 20.7919C140.65 20.7619 140.446 20.7469 140.255 20.7469C139.989 20.7469 139.73 20.7694 139.492 20.807C139.26 20.837 139.063 20.897 138.879 20.9945C138.702 21.0921 138.559 21.2271 138.457 21.3922C138.354 21.5573 138.307 21.7674 138.307 22.0225C138.307 22.5102 138.45 22.8554 138.743 23.0505C139.049 23.2306 139.458 23.3206 139.982 23.3206V23.3281ZM134.056 25.1514C133.804 25.234 133.511 25.3165 133.178 25.4065C132.844 25.4741 132.497 25.5416 132.129 25.5941C131.775 25.6467 131.407 25.6917 131.025 25.7217C130.657 25.7667 130.303 25.7817 129.956 25.7817C129.132 25.7817 128.389 25.6467 127.742 25.384C127.095 25.1214 126.55 24.7387 126.101 24.251C125.658 23.7483 125.31 23.148 125.072 22.4427C124.84 21.7299 124.731 20.927 124.731 20.0491C124.731 19.1712 124.834 18.3458 125.038 17.633C125.242 16.9052 125.535 16.2899 125.917 15.7872C126.298 15.2844 126.761 14.8943 127.306 14.6316C127.865 14.369 128.498 14.234 129.213 14.234C129.608 14.234 129.956 14.279 130.262 14.3615C130.583 14.4441 130.896 14.5641 131.216 14.7217V9.72442L134.056 9.22169V25.1664V25.1514ZM127.633 19.899C127.633 20.867 127.831 21.6398 128.226 22.2326C128.621 22.8179 129.207 23.118 129.983 23.118C130.235 23.118 130.474 23.118 130.691 23.0955C130.909 23.0655 131.087 23.043 131.223 23.013V17.3179C131.046 17.1903 130.807 17.0853 130.514 17.0027C130.235 16.9202 129.949 16.8752 129.656 16.8752C128.307 16.8752 127.633 17.8806 127.633 19.899ZM115.393 23.2606C115.917 23.2606 116.285 23.208 116.496 23.0955C116.714 22.9829 116.823 22.7653 116.823 22.4427C116.823 22.1876 116.68 21.97 116.401 21.7899C116.122 21.5948 115.693 21.3772 115.12 21.1371C114.678 20.957 114.269 20.7694 113.901 20.5668C113.547 20.3718 113.241 20.1391 112.989 19.8765C112.736 19.5989 112.539 19.2688 112.396 18.8861C112.253 18.5109 112.185 18.0532 112.185 17.5205C112.185 16.485 112.532 15.6671 113.234 15.0593C113.935 14.4591 114.896 14.1589 116.115 14.1589C116.728 14.1589 117.307 14.219 117.872 14.3465C118.431 14.4591 118.874 14.5866 119.207 14.7217L118.71 17.1603C118.376 17.0327 118.015 16.9202 117.62 16.8226C117.239 16.7251 116.81 16.6726 116.326 16.6726C115.434 16.6726 114.991 16.9427 114.991 17.4904C114.991 17.618 115.012 17.7306 115.046 17.8281C115.08 17.9256 115.161 18.0232 115.277 18.1207C115.393 18.2033 115.543 18.3008 115.734 18.4134C115.938 18.5109 116.19 18.6235 116.496 18.751C117.116 19.0061 117.634 19.2537 118.043 19.5089C118.451 19.749 118.765 20.0116 118.996 20.3042C119.235 20.5818 119.405 20.897 119.493 21.2497C119.596 21.6023 119.643 22.0075 119.643 22.4652C119.643 23.5607 119.269 24.3861 118.519 24.9413C117.784 25.5041 116.735 25.7817 115.373 25.7817C114.48 25.7817 113.738 25.6992 113.138 25.5266C112.553 25.3615 112.144 25.219 111.919 25.1064L112.396 22.5628C112.88 22.7728 113.377 22.9379 113.881 23.0655C114.392 23.178 114.889 23.2306 115.386 23.2306L115.393 23.2606ZM108.146 18.8711C108.132 18.6085 108.091 18.3458 108.009 18.0907C107.948 17.8356 107.839 17.618 107.682 17.4154C107.539 17.2203 107.355 17.0552 107.131 16.9352C106.913 16.8076 106.64 16.7476 106.313 16.7476C105.986 16.7476 105.721 16.8076 105.496 16.9352C105.264 17.0477 105.074 17.1978 104.924 17.4004C104.774 17.603 104.651 17.8281 104.563 18.0907C104.488 18.3458 104.426 18.6009 104.392 18.8711H108.152H108.146ZM101.47 20.0716C101.47 19.0887 101.607 18.2333 101.872 17.5055C102.151 16.7626 102.512 16.1473 102.962 15.6596C103.412 15.1719 103.916 14.7967 104.488 14.5491C105.074 14.294 105.673 14.1739 106.279 14.1739C107.703 14.1739 108.827 14.6542 109.658 15.6221C110.482 16.575 110.897 17.9857 110.897 19.8465C110.897 20.0266 110.897 20.2292 110.877 20.4543C110.863 20.6644 110.85 20.852 110.836 21.0246H104.392C104.454 21.6698 104.726 22.1801 105.21 22.5552C105.693 22.9304 106.341 23.1255 107.158 23.1255C107.682 23.1255 108.186 23.073 108.684 22.9754C109.195 22.8629 109.603 22.7278 109.923 22.5778L110.305 25.1214C110.155 25.204 109.951 25.2865 109.692 25.3765C109.433 25.4666 109.154 25.5341 108.834 25.5866C108.527 25.6542 108.2 25.7142 107.839 25.7517C107.478 25.7892 107.124 25.8117 106.77 25.8117C105.864 25.8117 105.08 25.6617 104.406 25.369C103.745 25.0764 103.194 24.6787 102.744 24.1685C102.315 23.6507 101.988 23.043 101.77 22.3376C101.566 21.6398 101.464 20.882 101.464 20.0716H101.47ZM99.856 24.1235C99.856 25.9318 99.4337 27.2674 98.5959 28.1378C97.7717 29.0232 96.4843 29.4584 94.7406 29.4584C94.1276 29.4584 93.5214 29.3984 92.9083 29.2708C92.2953 29.1582 91.7299 29.0082 91.2123 28.8056L91.7095 26.1794C92.1523 26.3745 92.6154 26.5321 93.099 26.6446C93.5963 26.7572 94.1548 26.8097 94.7747 26.8097C95.5852 26.8097 96.1574 26.6146 96.4912 26.2244C96.8317 25.8342 97.0088 25.3315 97.0088 24.7087V24.311C96.7023 24.4686 96.389 24.5812 96.0552 24.6712C95.7351 24.7387 95.3877 24.7763 95.0062 24.7763C93.6235 24.7763 92.5609 24.3261 91.8185 23.4331C91.0829 22.5252 90.715 21.2572 90.715 19.6289C90.715 18.8185 90.8308 18.0832 91.0556 17.4229C91.2872 16.7476 91.6141 16.1773 92.0501 15.6971C92.4928 15.2244 93.0377 14.8567 93.6712 14.6016C94.3047 14.339 95.0267 14.204 95.8236 14.204C96.1642 14.204 96.5184 14.2265 96.8726 14.264C97.2404 14.294 97.6014 14.3315 97.9624 14.3915C98.3234 14.4516 98.6572 14.5191 98.9705 14.6016C99.3043 14.6692 99.5904 14.7517 99.8492 14.8342V24.1235H99.856ZM93.6167 19.6289C93.6167 21.3772 94.257 22.2551 95.5444 22.2551C95.8373 22.2551 96.1097 22.2101 96.3617 22.1276C96.6138 22.045 96.8317 21.9475 97.0088 21.8349V16.8376C96.8658 16.8076 96.7023 16.7851 96.5116 16.7776C96.3209 16.7476 96.0961 16.7326 95.8441 16.7326C95.0948 16.7326 94.5363 17.0027 94.1684 17.5505C93.8006 18.0982 93.6167 18.7885 93.6167 19.6289ZM89.3664 11.2701C89.3664 11.8479 89.1961 12.2981 88.8487 12.6357C88.5149 12.9584 88.1267 13.116 87.6635 13.116C87.2003 13.116 86.8053 12.9584 86.4647 12.6357C86.1309 12.2981 85.9674 11.8479 85.9674 11.2701C85.9674 10.6924 86.1309 10.2497 86.4647 9.92701C86.8053 9.58935 87.2071 9.42428 87.6635 9.42428C88.1199 9.42428 88.5149 9.58935 88.8487 9.92701C89.1893 10.2497 89.3664 10.6999 89.3664 11.2701ZM89.1007 25.5116H86.2603V14.4591H89.1007V25.5116ZM84.8299 17.2353C84.5779 17.1678 84.2782 17.0928 83.9308 17.0252C83.5902 16.9427 83.2156 16.8977 82.8274 16.8977C82.6503 16.8977 82.4323 16.9202 82.1803 16.9577C81.9419 16.9877 81.7511 17.0177 81.6285 17.0628V25.5116H78.7882V15.0518C79.299 14.8567 79.8916 14.6767 80.5796 14.5041C81.2812 14.324 82.0577 14.234 82.9091 14.234C83.059 14.234 83.2429 14.249 83.4608 14.279C83.6788 14.294 83.89 14.324 84.1079 14.3615C84.3259 14.3915 84.537 14.4291 84.755 14.4891C84.973 14.5341 85.1569 14.5866 85.3067 14.6542L84.8299 17.2353ZM74.4152 18.8711C74.4016 18.6085 74.3607 18.3458 74.279 18.0907C74.2177 17.8356 74.1087 17.618 73.952 17.4154C73.809 17.2203 73.6251 17.0552 73.4003 16.9352C73.1823 16.8076 72.9099 16.7476 72.5829 16.7476C72.256 16.7476 71.9903 16.8076 71.7656 16.9352C71.534 17.0477 71.3432 17.1978 71.1934 17.4004C71.0435 17.603 70.9209 17.8281 70.8324 18.0907C70.7575 18.3458 70.6961 18.6009 70.6621 18.8711H74.422H74.4152ZM67.74 20.0716C67.74 19.0887 67.8762 18.2333 68.1419 17.5055C68.4211 16.7626 68.7821 16.1473 69.2317 15.6596C69.6812 15.1719 70.1853 14.7967 70.7575 14.5491C71.3432 14.294 71.9426 14.1739 72.5489 14.1739C73.9725 14.1739 75.0964 14.6542 75.9274 15.6221C76.7515 16.575 77.167 17.9857 77.167 19.8465C77.167 20.0266 77.167 20.2292 77.1466 20.4543C77.133 20.6644 77.1194 20.852 77.1057 21.0246H70.6621C70.7234 21.6698 70.9959 22.1801 71.4795 22.5552C71.9631 22.9304 72.6102 23.1255 73.4275 23.1255C73.952 23.1255 74.4561 23.073 74.9533 22.9754C75.4642 22.8629 75.8729 22.7278 76.193 22.5778L76.5744 25.1214C76.4246 25.204 76.2202 25.2865 75.9614 25.3765C75.7026 25.4666 75.4233 25.5341 75.1032 25.5866C74.7967 25.6542 74.4697 25.7142 74.1087 25.7517C73.7477 25.7892 73.3935 25.8117 73.0393 25.8117C72.1334 25.8117 71.3501 25.6617 70.6757 25.369C70.015 25.0764 69.4633 24.6787 69.0137 24.1685C68.5846 23.6507 68.2576 23.043 68.0397 22.3376C67.8353 21.6398 67.7332 20.882 67.7332 20.0716H67.74ZM61.2895 25.5116C60.6424 24.1085 59.9817 22.4727 59.3074 20.5969C58.6467 18.721 58.02 16.6726 57.4206 14.4591H60.4313C60.5607 15.0068 60.7037 15.5996 60.8672 16.2449C61.0443 16.8752 61.2214 17.5205 61.3985 18.1808C61.5892 18.8261 61.7731 19.4563 61.9502 20.0716C62.141 20.6869 62.3249 21.2497 62.502 21.7524C62.6654 21.2497 62.8425 20.6869 63.0333 20.0716C63.224 19.4563 63.4079 18.8261 63.585 18.1808C63.7757 17.5205 63.9528 16.8752 64.1163 16.2449C64.2934 15.5996 64.45 15.0068 64.5727 14.4591H67.5084C66.909 16.6726 66.2755 18.7135 65.6012 20.5969C64.9405 22.4727 64.2866 24.116 63.6395 25.5116H61.2759H61.2895ZM52.1281 23.013C52.5504 23.013 52.891 22.9754 53.1566 22.9079C53.4359 22.8254 53.6607 22.7203 53.8242 22.5928C53.9876 22.4502 54.1034 22.2926 54.1647 22.1125C54.226 21.9325 54.2601 21.7299 54.2601 21.5048C54.2601 21.0321 54.0558 20.6344 53.6471 20.3267C53.2384 20.0041 52.5436 19.6589 51.5491 19.2988C51.12 19.1337 50.6841 18.9386 50.255 18.7285C49.8258 18.5034 49.4376 18.2333 49.0902 17.9106C48.7496 17.573 48.4704 17.1753 48.2524 16.7101C48.0344 16.2374 47.9254 15.6596 47.9254 14.9843C47.9254 14.309 48.0412 13.7087 48.266 13.176C48.4976 12.6282 48.8177 12.1705 49.2401 11.7879C49.6624 11.4052 50.1664 11.12 50.7658 10.925C51.3652 10.7149 52.0396 10.6098 52.7888 10.6098C53.6811 10.6098 54.4508 10.7149 55.0979 10.925C55.745 11.1351 56.2831 11.3677 56.6986 11.6153L55.8404 14.1964C55.4725 13.9864 55.057 13.8063 54.6007 13.6487C54.1579 13.4836 53.613 13.3936 52.9795 13.3936C52.2643 13.3936 51.7535 13.5061 51.4333 13.7312C51.1268 13.9413 50.977 14.2715 50.977 14.7217C50.977 14.9843 51.0315 15.2094 51.1473 15.397C51.2631 15.5846 51.4197 15.7497 51.6241 15.8997C51.842 16.0423 52.0804 16.1698 52.3461 16.2974C52.6253 16.41 52.9319 16.53 53.2588 16.6576C53.9468 16.9352 54.5462 17.2203 55.0502 17.4979C55.5611 17.7606 55.9766 18.0757 56.3103 18.4434C56.6509 18.811 56.9098 19.2312 57.0732 19.7265C57.2367 20.2217 57.3184 20.8145 57.3184 21.5123C57.3184 22.8704 56.8893 23.9284 56.0243 24.6862C55.1592 25.4291 53.8582 25.7967 52.1145 25.7967C51.5287 25.7967 51.0042 25.7517 50.5342 25.6692C50.0642 25.6016 49.6419 25.5116 49.2741 25.399C48.9199 25.2865 48.6066 25.1664 48.3409 25.0389C48.0889 24.9113 47.8709 24.7913 47.6938 24.6787L48.5317 22.075C48.9267 22.3151 49.4103 22.5327 49.9825 22.7278C50.5683 22.9079 51.2767 22.9979 52.1213 22.9979L52.1281 23.013Z" fill="#1D1D1B"/>
</g>
</g>
<path d="M220 7H255.289V27H220V7Z" fill="#5A6751"/>
<path d="M230.165 13.1517V14.257H228.081V19.8591H226.495V14.257H224.411V13.1517H230.165ZM231.801 19.8591V13.1517H236.596V14.257H233.374V15.7632H236.174V16.8684H233.374V18.7539H236.877V19.8591H231.801ZM240.866 18.8839C241.131 18.8839 241.348 18.8622 241.518 18.8189C241.697 18.7681 241.838 18.7038 241.94 18.6238C242.036 18.5463 242.106 18.4493 242.145 18.3421C242.187 18.2337 242.209 18.1254 242.209 18.017C242.211 17.8845 242.161 17.7552 242.068 17.6486C241.97 17.5369 241.849 17.4414 241.71 17.3669C241.558 17.2768 241.395 17.2005 241.224 17.1393C241.049 17.0682 240.869 17.0031 240.687 16.9443C240.448 16.8718 240.201 16.7885 239.946 16.695C239.694 16.6029 239.457 16.4826 239.243 16.3375C239.034 16.1891 238.861 16.009 238.731 15.8065C238.594 15.5898 238.527 15.3223 238.527 15.0046C238.527 14.3762 238.765 13.8852 239.243 13.531C239.728 13.1768 240.393 13 241.237 13C241.723 13 242.145 13.0474 242.503 13.1409C242.87 13.235 243.177 13.3393 243.423 13.4551L242.963 14.4845C242.735 14.378 242.495 14.2909 242.247 14.2245C241.958 14.1479 241.655 14.1114 241.352 14.1161C240.517 14.1161 240.099 14.3728 240.099 14.8854C240.099 15.0155 240.142 15.1313 240.227 15.2322C240.313 15.3263 240.419 15.413 240.547 15.4923C240.683 15.5647 240.832 15.6297 240.994 15.6873C241.164 15.7449 241.331 15.7991 241.493 15.8498C241.74 15.9291 241.995 16.0192 242.26 16.1207C242.532 16.2149 242.78 16.3442 243.002 16.5108C243.232 16.67 243.419 16.8718 243.564 17.1176C243.709 17.356 243.781 17.6594 243.781 18.0279C243.781 18.6563 243.539 19.144 243.053 19.4907C242.576 19.83 241.847 20 240.866 20C240.21 20 239.686 19.9424 239.294 19.8266C238.901 19.704 238.607 19.5916 238.411 19.4907L238.872 18.4071C239.102 18.5223 239.374 18.6306 239.69 18.7322C240.014 18.8338 240.406 18.8839 240.866 18.8839ZM250.878 13.1517V14.257H248.793V19.8591H247.208V14.257H245.124V13.1517H250.878Z" fill="white"/>
<defs>
<clipPath id="clip0_15_37">
<rect width="228" height="44" fill="white"/>
</clipPath>
</defs>
</svg>
