<svg xmlns="http://www.w3.org/2000/svg" width="228" height="44" viewBox="0 0 228 44" fill="none">
  <g clip-path="url(#clip0_2667_21578)">
    <path d="M56.5493 36.5297C56.5493 37.1297 56.456 37.6531 56.2693 38.0997C56.0827 38.5397 55.8193 38.9063 55.4793 39.1997C55.1393 39.4863 54.7327 39.703 54.2593 39.8497C53.786 39.9897 53.266 40.0597 52.6994 40.0597C52.4194 40.0597 52.1094 40.0463 51.7694 40.0197C51.436 39.9997 51.1327 39.9563 50.8594 39.8897V33.1697C51.1327 33.1031 51.436 33.0597 51.7694 33.0397C52.1094 33.0131 52.4194 32.9997 52.6994 32.9997C53.266 32.9997 53.786 33.0731 54.2593 33.2197C54.7327 33.3597 55.1393 33.5764 55.4793 33.8697C55.8193 34.1564 56.0827 34.5231 56.2693 34.9697C56.456 35.4097 56.5493 35.9297 56.5493 36.5297ZM52.7794 39.2097C53.6993 39.2097 54.386 38.9763 54.8393 38.5097C55.2927 38.0363 55.5193 37.3763 55.5193 36.5297C55.5193 35.6831 55.2927 35.0264 54.8393 34.5597C54.386 34.0864 53.6993 33.8497 52.7794 33.8497C52.506 33.8497 52.2927 33.8531 52.1394 33.8597C51.9927 33.8664 51.8894 33.8731 51.8294 33.8797V39.1797C51.8894 39.1863 51.9927 39.193 52.1394 39.1997C52.2927 39.2063 52.506 39.2097 52.7794 39.2097ZM57.9882 33.0697H58.9582V39.9997H57.9882V33.0697ZM64.9037 36.5897H65.8737V39.8297C65.7937 39.8563 65.677 39.8863 65.5237 39.9197C65.377 39.953 65.2037 39.9863 65.0037 40.0197C64.8104 40.053 64.597 40.0797 64.3637 40.0997C64.1304 40.1263 63.8937 40.1397 63.6537 40.1397C63.1671 40.1397 62.7237 40.0597 62.3237 39.8997C61.9237 39.7397 61.5804 39.5063 61.2937 39.1997C61.0071 38.893 60.7837 38.5163 60.6237 38.0697C60.4704 37.6231 60.3937 37.1097 60.3937 36.5297C60.3937 35.9497 60.4804 35.4364 60.6537 34.9897C60.8337 34.5364 61.0737 34.1564 61.3737 33.8497C61.6737 33.5431 62.0237 33.3097 62.4237 33.1497C62.8304 32.9897 63.2637 32.9097 63.7237 32.9097C64.0371 32.9097 64.3137 32.9297 64.5537 32.9697C64.8004 33.0097 65.0104 33.0564 65.1837 33.1097C65.357 33.1631 65.497 33.2164 65.6037 33.2697C65.717 33.3231 65.7937 33.3631 65.8337 33.3897L65.5237 34.1997C65.3304 34.0731 65.0737 33.9697 64.7537 33.8897C64.4337 33.8031 64.1071 33.7597 63.7737 33.7597C63.4204 33.7597 63.0971 33.8231 62.8037 33.9497C62.5171 34.0764 62.2704 34.2597 62.0637 34.4997C61.8637 34.7397 61.7071 35.0331 61.5937 35.3797C61.4804 35.7197 61.4237 36.1031 61.4237 36.5297C61.4237 36.9431 61.4704 37.3197 61.5637 37.6597C61.6637 37.9997 61.8104 38.2931 62.0037 38.5397C62.2037 38.7797 62.4471 38.9663 62.7337 39.0997C63.0271 39.233 63.3704 39.2997 63.7637 39.2997C64.0437 39.2997 64.2804 39.2863 64.4737 39.2597C64.6737 39.2263 64.817 39.1963 64.9037 39.1697V36.5897ZM71.6221 36.5897H72.5921V39.8297C72.5121 39.8563 72.3956 39.8863 72.2421 39.9197C72.0956 39.953 71.9221 39.9863 71.7221 40.0197C71.5292 40.053 71.3158 40.0797 71.0824 40.0997C70.8491 40.1263 70.6124 40.1397 70.3724 40.1397C69.8858 40.1397 69.4424 40.0597 69.0424 39.8997C68.6424 39.7397 68.2991 39.5063 68.0124 39.1997C67.7258 38.893 67.5025 38.5163 67.3425 38.0697C67.1891 37.6231 67.1125 37.1097 67.1125 36.5297C67.1125 35.9497 67.1991 35.4364 67.3725 34.9897C67.5525 34.5364 67.7924 34.1564 68.0924 33.8497C68.3924 33.5431 68.7424 33.3097 69.1424 33.1497C69.5491 32.9897 69.9824 32.9097 70.4424 32.9097C70.7558 32.9097 71.0324 32.9297 71.2724 32.9697C71.5192 33.0097 71.7292 33.0564 71.9021 33.1097C72.0756 33.1631 72.2156 33.2164 72.3221 33.2697C72.4356 33.3231 72.5121 33.3631 72.5521 33.3897L72.2421 34.1997C72.0492 34.0731 71.7921 33.9697 71.4721 33.8897C71.1524 33.8031 70.8258 33.7597 70.4924 33.7597C70.1391 33.7597 69.8158 33.8231 69.5224 33.9497C69.2358 34.0764 68.9891 34.2597 68.7824 34.4997C68.5824 34.7397 68.4258 35.0331 68.3124 35.3797C68.1991 35.7197 68.1424 36.1031 68.1424 36.5297C68.1424 36.9431 68.1891 37.3197 68.2824 37.6597C68.3824 37.9997 68.5291 38.2931 68.7224 38.5397C68.9224 38.7797 69.1658 38.9663 69.4524 39.0997C69.7458 39.233 70.0891 39.2997 70.4824 39.2997C70.7624 39.2997 70.9991 39.2863 71.1924 39.2597C71.3924 39.2263 71.5356 39.1963 71.6221 39.1697V36.5897ZM90.3133 39.9997C90.1998 39.6997 90.0933 39.4063 89.9933 39.1197C89.8933 38.8263 89.7898 38.5297 89.6833 38.2297H86.5434L85.9134 39.9997H84.9034C85.1698 39.2663 85.4198 38.5897 85.6534 37.9697C85.887 37.3431 86.1134 36.7497 86.3334 36.1897C86.5598 35.6297 86.7834 35.0964 87.0034 34.5897C87.2234 34.0764 87.4534 33.5697 87.6934 33.0697H88.5834C88.8234 33.5697 89.0534 34.0764 89.2734 34.5897C89.4934 35.0964 89.7133 35.6297 89.9333 36.1897C90.1598 36.7497 90.3898 37.3431 90.6233 37.9697C90.8569 38.5897 91.1069 39.2663 91.3733 39.9997H90.3133ZM89.4034 37.4297C89.1898 36.8497 88.9769 36.2897 88.7634 35.7497C88.5569 35.2031 88.3398 34.6797 88.1134 34.1797C87.8798 34.6797 87.6569 35.2031 87.4434 35.7497C87.2369 36.2897 87.0298 36.8497 86.8234 37.4297H89.4034ZM95.3576 39.4797C95.2776 39.533 95.1212 39.603 94.8876 39.6897C94.6612 39.7697 94.3947 39.8097 94.0876 39.8097C93.7747 39.8097 93.4776 39.7597 93.1976 39.6597C92.9247 39.5597 92.6848 39.4063 92.4776 39.1997C92.2712 38.9863 92.1076 38.723 91.9876 38.4097C91.8676 38.0963 91.8076 37.7231 91.8076 37.2897C91.8076 36.9097 91.8648 36.5631 91.9776 36.2497C92.0912 35.9297 92.2548 35.6564 92.4676 35.4297C92.6876 35.1964 92.9548 35.0164 93.2676 34.8897C93.5812 34.7564 93.9347 34.6897 94.3276 34.6897C94.7612 34.6897 95.1376 34.7231 95.4576 34.7897C95.7847 34.8497 96.0576 34.9064 96.2776 34.9597V39.5997C96.2776 40.3997 96.0712 40.9797 95.6576 41.3397C95.2447 41.6997 94.6176 41.8797 93.7776 41.8797C93.4512 41.8797 93.1412 41.853 92.8476 41.7997C92.5612 41.7463 92.3112 41.683 92.0976 41.6097L92.2676 40.7997C92.4548 40.873 92.6812 40.9363 92.9476 40.9897C93.2212 41.0497 93.5047 41.0797 93.7976 41.0797C94.3512 41.0797 94.7476 40.9697 94.9876 40.7497C95.2347 40.5297 95.3576 40.1797 95.3576 39.6997V39.4797ZM95.3476 35.6197C95.2547 35.5931 95.1276 35.5697 94.9676 35.5497C94.8147 35.5231 94.6047 35.5097 94.3376 35.5097C93.8376 35.5097 93.4512 35.6731 93.1776 35.9997C92.9112 36.3264 92.7776 36.7597 92.7776 37.2997C92.7776 37.5997 92.8148 37.8563 92.8876 38.0697C92.9676 38.2831 93.0712 38.4597 93.1976 38.5997C93.3312 38.7397 93.4812 38.843 93.6476 38.9097C93.8212 38.9763 93.9976 39.0097 94.1776 39.0097C94.4247 39.0097 94.6512 38.9763 94.8576 38.9097C95.0647 38.8363 95.2276 38.7531 95.3476 38.6597V35.6197ZM97.589 37.4097C97.589 36.9497 97.6554 36.5497 97.789 36.2097C97.9226 35.8631 98.099 35.5764 98.319 35.3497C98.539 35.1231 98.7926 34.9531 99.079 34.8397C99.3654 34.7264 99.659 34.6697 99.959 34.6697C100.659 34.6697 101.195 34.8897 101.569 35.3297C101.943 35.7631 102.129 36.4264 102.129 37.3197C102.129 37.3597 102.129 37.4131 102.129 37.4797C102.129 37.5397 102.125 37.5963 102.119 37.6497H98.559C98.599 38.1897 98.7554 38.5997 99.029 38.8797C99.3026 39.1597 99.729 39.2997 100.309 39.2997C100.635 39.2997 100.909 39.273 101.129 39.2197C101.355 39.1597 101.525 39.103 101.639 39.0497L101.769 39.8297C101.655 39.8897 101.455 39.953 101.169 40.0197C100.889 40.0863 100.569 40.1197 100.209 40.1197C99.7554 40.1197 99.3626 40.053 99.029 39.9197C98.7026 39.7797 98.4326 39.5897 98.219 39.3497C98.0054 39.1097 97.8454 38.8263 97.739 38.4997C97.639 38.1663 97.589 37.8031 97.589 37.4097ZM101.159 36.8997C101.165 36.4797 101.059 36.1364 100.839 35.8697C100.625 35.5964 100.329 35.4597 99.949 35.4597C99.7354 35.4597 99.5454 35.5031 99.379 35.5897C99.219 35.6697 99.0826 35.7764 98.969 35.9097C98.8554 36.0431 98.7654 36.1964 98.699 36.3697C98.639 36.5431 98.599 36.7197 98.579 36.8997H101.159ZM103.465 34.9497C103.678 34.8964 103.962 34.8397 104.315 34.7797C104.668 34.7197 105.075 34.6897 105.535 34.6897C105.948 34.6897 106.292 34.7497 106.565 34.8697C106.838 34.9831 107.055 35.1464 107.215 35.3597C107.382 35.5664 107.498 35.8164 107.565 36.1097C107.632 36.4031 107.665 36.7264 107.665 37.0797V39.9997H106.735V37.2797C106.735 36.9597 106.712 36.6864 106.665 36.4597C106.625 36.2331 106.555 36.0497 106.455 35.9097C106.355 35.7697 106.222 35.6697 106.055 35.6097C105.888 35.5431 105.682 35.5097 105.435 35.5097C105.335 35.5097 105.232 35.5131 105.125 35.5197C105.018 35.5264 104.915 35.5364 104.815 35.5497C104.722 35.5564 104.635 35.5664 104.555 35.5797C104.482 35.5931 104.428 35.6031 104.395 35.6097V39.9997H103.465V34.9497ZM111.467 40.1197C111.047 40.1197 110.677 40.053 110.357 39.9197C110.044 39.7863 109.777 39.5997 109.557 39.3597C109.344 39.1197 109.184 38.8363 109.077 38.5097C108.97 38.1763 108.917 37.8097 108.917 37.4097C108.917 37.0097 108.974 36.6431 109.087 36.3097C109.207 35.9764 109.374 35.6897 109.587 35.4497C109.8 35.2031 110.06 35.0131 110.367 34.8797C110.68 34.7397 111.027 34.6697 111.407 34.6697C111.64 34.6697 111.874 34.6897 112.107 34.7297C112.34 34.7697 112.564 34.8331 112.777 34.9197L112.567 35.7097C112.427 35.6431 112.264 35.5897 112.077 35.5497C111.897 35.5097 111.704 35.4897 111.497 35.4897C110.977 35.4897 110.577 35.6531 110.297 35.9797C110.024 36.3064 109.887 36.7831 109.887 37.4097C109.887 37.6897 109.917 37.9463 109.977 38.1797C110.044 38.4131 110.144 38.6131 110.277 38.7797C110.417 38.9463 110.594 39.0763 110.807 39.1697C111.02 39.2563 111.28 39.2997 111.587 39.2997C111.834 39.2997 112.057 39.2763 112.257 39.2297C112.457 39.183 112.614 39.133 112.727 39.0797L112.857 39.8597C112.804 39.893 112.727 39.9263 112.627 39.9597C112.527 39.9863 112.414 40.0097 112.287 40.0297C112.16 40.0563 112.024 40.0763 111.877 40.0897C111.737 40.1097 111.6 40.1197 111.467 40.1197ZM113.353 40.9697C113.426 41.003 113.52 41.033 113.633 41.0597C113.753 41.093 113.87 41.1097 113.983 41.1097C114.35 41.1097 114.636 41.0263 114.843 40.8597C115.05 40.6997 115.236 40.4363 115.403 40.0697C114.983 39.2697 114.59 38.4231 114.223 37.5297C113.863 36.6297 113.563 35.7197 113.323 34.7997H114.323C114.396 35.0997 114.483 35.4231 114.583 35.7697C114.69 36.1164 114.806 36.4731 114.933 36.8397C115.06 37.2063 115.196 37.5731 115.343 37.9397C115.49 38.3063 115.643 38.6597 115.803 38.9997C116.056 38.2997 116.276 37.6063 116.463 36.9197C116.65 36.2331 116.826 35.5264 116.993 34.7997H117.953C117.713 35.7797 117.446 36.7231 117.153 37.6297C116.86 38.5297 116.543 39.373 116.203 40.1597C116.07 40.4597 115.93 40.7163 115.783 40.9297C115.643 41.1497 115.486 41.3297 115.313 41.4697C115.14 41.6097 114.943 41.713 114.723 41.7797C114.51 41.8463 114.266 41.8797 113.993 41.8797C113.92 41.8797 113.843 41.873 113.763 41.8597C113.683 41.853 113.603 41.8397 113.523 41.8197C113.45 41.8063 113.38 41.7897 113.313 41.7697C113.253 41.7497 113.21 41.733 113.183 41.7197L113.353 40.9697ZM123.278 32.2397C123.552 32.2397 123.785 32.2597 123.978 32.2997C124.178 32.3397 124.318 32.3764 124.398 32.4097L124.228 33.2097C124.148 33.1697 124.035 33.1331 123.888 33.0997C123.742 33.0597 123.562 33.0397 123.348 33.0397C122.915 33.0397 122.612 33.1597 122.438 33.3997C122.265 33.6331 122.178 33.9497 122.178 34.3497V34.7997H124.178V35.5797H122.178V39.9997H121.248V34.3297C121.248 33.6631 121.412 33.1497 121.738 32.7897C122.065 32.4231 122.578 32.2397 123.278 32.2397ZM129.695 37.3997C129.695 37.8131 129.635 38.1863 129.515 38.5197C129.395 38.8531 129.225 39.1397 129.005 39.3797C128.792 39.6197 128.535 39.8063 128.235 39.9397C127.935 40.0663 127.609 40.1297 127.255 40.1297C126.902 40.1297 126.575 40.0663 126.275 39.9397C125.975 39.8063 125.715 39.6197 125.495 39.3797C125.282 39.1397 125.115 38.8531 124.995 38.5197C124.875 38.1863 124.815 37.8131 124.815 37.3997C124.815 36.9931 124.875 36.6231 124.995 36.2897C125.115 35.9497 125.282 35.6597 125.495 35.4197C125.715 35.1797 125.975 34.9964 126.275 34.8697C126.575 34.7364 126.902 34.6697 127.255 34.6697C127.609 34.6697 127.935 34.7364 128.235 34.8697C128.535 34.9964 128.792 35.1797 129.005 35.4197C129.225 35.6597 129.395 35.9497 129.515 36.2897C129.635 36.6231 129.695 36.9931 129.695 37.3997ZM128.725 37.3997C128.725 36.8131 128.592 36.3497 128.325 36.0097C128.065 35.6631 127.709 35.4897 127.255 35.4897C126.802 35.4897 126.442 35.6631 126.175 36.0097C125.915 36.3497 125.785 36.8131 125.785 37.3997C125.785 37.9863 125.915 38.4531 126.175 38.7997C126.442 39.1397 126.802 39.3097 127.255 39.3097C127.709 39.3097 128.065 39.1397 128.325 38.7997C128.592 38.4531 128.725 37.9863 128.725 37.3997ZM132.924 34.6897C133.004 34.6897 133.094 34.6964 133.194 34.7097C133.3 34.7164 133.404 34.7297 133.504 34.7497C133.604 34.7631 133.694 34.7797 133.774 34.7997C133.86 34.8131 133.924 34.8264 133.964 34.8397L133.804 35.6497C133.73 35.6231 133.607 35.5931 133.434 35.5597C133.267 35.5197 133.05 35.4997 132.784 35.4997C132.61 35.4997 132.437 35.5197 132.264 35.5597C132.097 35.5931 131.987 35.6164 131.934 35.6297V39.9997H131.004V35.0197C131.224 34.9397 131.497 34.8664 131.824 34.7997C132.15 34.7264 132.517 34.6897 132.924 34.6897ZM142.926 36.5297C142.926 37.1297 142.832 37.6531 142.646 38.0997C142.459 38.5397 142.196 38.9063 141.856 39.1997C141.516 39.4863 141.109 39.703 140.636 39.8497C140.162 39.9897 139.642 40.0597 139.076 40.0597C138.796 40.0597 138.486 40.0463 138.146 40.0197C137.812 39.9997 137.509 39.9563 137.236 39.8897V33.1697C137.509 33.1031 137.812 33.0597 138.146 33.0397C138.486 33.0131 138.796 32.9997 139.076 32.9997C139.642 32.9997 140.162 33.0731 140.636 33.2197C141.109 33.3597 141.516 33.5764 141.856 33.8697C142.196 34.1564 142.459 34.5231 142.646 34.9697C142.832 35.4097 142.926 35.9297 142.926 36.5297ZM139.156 39.2097C140.076 39.2097 140.762 38.9763 141.216 38.5097C141.669 38.0363 141.896 37.3763 141.896 36.5297C141.896 35.6831 141.669 35.0264 141.216 34.5597C140.762 34.0864 140.076 33.8497 139.156 33.8497C138.882 33.8497 138.669 33.8531 138.516 33.8597C138.369 33.8664 138.266 33.8731 138.206 33.8797V39.1797C138.266 39.1863 138.369 39.193 138.516 39.1997C138.669 39.2063 138.882 39.2097 139.156 39.2097ZM145.234 39.9997H144.304V34.7997H145.234V39.9997ZM144.764 33.8597C144.598 33.8597 144.454 33.8064 144.334 33.6997C144.221 33.5864 144.164 33.4364 144.164 33.2497C144.164 33.0631 144.221 32.9164 144.334 32.8097C144.454 32.6964 144.598 32.6397 144.764 32.6397C144.931 32.6397 145.071 32.6964 145.184 32.8097C145.304 32.9164 145.364 33.0631 145.364 33.2497C145.364 33.4364 145.304 33.5864 145.184 33.6997C145.071 33.8064 144.931 33.8597 144.764 33.8597ZM150.094 39.4797C150.014 39.533 149.857 39.603 149.624 39.6897C149.397 39.7697 149.131 39.8097 148.824 39.8097C148.511 39.8097 148.214 39.7597 147.934 39.6597C147.661 39.5597 147.421 39.4063 147.214 39.1997C147.007 38.9863 146.844 38.723 146.724 38.4097C146.604 38.0963 146.544 37.7231 146.544 37.2897C146.544 36.9097 146.601 36.5631 146.714 36.2497C146.827 35.9297 146.991 35.6564 147.204 35.4297C147.424 35.1964 147.691 35.0164 148.004 34.8897C148.317 34.7564 148.671 34.6897 149.064 34.6897C149.497 34.6897 149.874 34.7231 150.194 34.7897C150.521 34.8497 150.794 34.9064 151.014 34.9597V39.5997C151.014 40.3997 150.807 40.9797 150.394 41.3397C149.981 41.6997 149.354 41.8797 148.514 41.8797C148.187 41.8797 147.877 41.853 147.584 41.7997C147.297 41.7463 147.047 41.683 146.834 41.6097L147.004 40.7997C147.191 40.873 147.417 40.9363 147.684 40.9897C147.957 41.0497 148.241 41.0797 148.534 41.0797C149.087 41.0797 149.484 40.9697 149.724 40.7497C149.971 40.5297 150.094 40.1797 150.094 39.6997V39.4797ZM150.084 35.6197C149.991 35.5931 149.864 35.5697 149.704 35.5497C149.551 35.5231 149.341 35.5097 149.074 35.5097C148.574 35.5097 148.187 35.6731 147.914 35.9997C147.647 36.3264 147.514 36.7597 147.514 37.2997C147.514 37.5997 147.551 37.8563 147.624 38.0697C147.704 38.2831 147.807 38.4597 147.934 38.5997C148.067 38.7397 148.217 38.843 148.384 38.9097C148.557 38.9763 148.734 39.0097 148.914 39.0097C149.161 39.0097 149.387 38.9763 149.594 38.9097C149.801 38.8363 149.964 38.7531 150.084 38.6597V35.6197ZM153.545 39.9997H152.615V34.7997H153.545V39.9997ZM153.075 33.8597C152.909 33.8597 152.765 33.8064 152.645 33.6997C152.531 33.5864 152.475 33.4364 152.475 33.2497C152.475 33.0631 152.531 32.9164 152.645 32.8097C152.765 32.6964 152.909 32.6397 153.075 32.6397C153.241 32.6397 153.381 32.6964 153.495 32.8097C153.615 32.9164 153.675 33.0631 153.675 33.2497C153.675 33.4364 153.615 33.5864 153.495 33.6997C153.381 33.8064 153.241 33.8597 153.075 33.8597ZM156.014 34.7997H157.984V35.5797H156.014V37.9797C156.014 38.2397 156.034 38.4563 156.074 38.6297C156.114 38.7963 156.174 38.9297 156.254 39.0297C156.334 39.123 156.434 39.1897 156.554 39.2297C156.674 39.2697 156.814 39.2897 156.974 39.2897C157.254 39.2897 157.478 39.2597 157.644 39.1997C157.818 39.133 157.938 39.0863 158.004 39.0597L158.184 39.8297C158.091 39.8763 157.928 39.933 157.694 39.9997C157.461 40.073 157.194 40.1097 156.894 40.1097C156.541 40.1097 156.248 40.0663 156.014 39.9797C155.788 39.8863 155.604 39.7497 155.464 39.5697C155.324 39.3897 155.224 39.1697 155.164 38.9097C155.111 38.6431 155.084 38.3363 155.084 37.9897V33.3497L156.014 33.1897V34.7997ZM160.928 39.3297C161.148 39.3297 161.341 39.3263 161.508 39.3197C161.681 39.3063 161.824 39.2863 161.938 39.2597V37.7097C161.871 37.6763 161.761 37.6497 161.608 37.6297C161.461 37.6031 161.281 37.5897 161.068 37.5897C160.928 37.5897 160.778 37.5997 160.618 37.6197C160.464 37.6397 160.321 37.6831 160.188 37.7497C160.061 37.8097 159.954 37.8963 159.868 38.0097C159.781 38.1163 159.738 38.2597 159.738 38.4397C159.738 38.7731 159.844 39.0063 160.058 39.1397C160.271 39.2663 160.561 39.3297 160.928 39.3297ZM160.848 34.6697C161.221 34.6697 161.534 34.7197 161.788 34.8197C162.048 34.9131 162.254 35.0497 162.408 35.2297C162.568 35.4031 162.681 35.6131 162.748 35.8597C162.814 36.0997 162.848 36.3664 162.848 36.6597V39.9097C162.768 39.923 162.654 39.943 162.508 39.9697C162.368 39.9897 162.208 40.0097 162.028 40.0297C161.848 40.0497 161.651 40.0663 161.438 40.0797C161.231 40.0997 161.024 40.1097 160.818 40.1097C160.524 40.1097 160.254 40.0797 160.008 40.0197C159.761 39.9597 159.548 39.8663 159.368 39.7397C159.188 39.6063 159.048 39.433 158.948 39.2197C158.848 39.0063 158.798 38.7497 158.798 38.4497C158.798 38.1631 158.854 37.9163 158.968 37.7097C159.088 37.5031 159.248 37.3363 159.448 37.2097C159.648 37.0831 159.881 36.9897 160.148 36.9297C160.414 36.8697 160.694 36.8397 160.988 36.8397C161.081 36.8397 161.178 36.8464 161.278 36.8597C161.378 36.8664 161.471 36.8797 161.558 36.8997C161.651 36.9131 161.731 36.9264 161.798 36.9397C161.864 36.9531 161.911 36.9631 161.938 36.9697V36.7097C161.938 36.5564 161.921 36.4064 161.888 36.2597C161.854 36.1064 161.794 35.9731 161.708 35.8597C161.621 35.7397 161.501 35.6464 161.348 35.5797C161.201 35.5064 161.008 35.4697 160.768 35.4697C160.461 35.4697 160.191 35.4931 159.958 35.5397C159.731 35.5797 159.561 35.6231 159.448 35.6697L159.338 34.8997C159.458 34.8464 159.658 34.7964 159.938 34.7497C160.218 34.6964 160.521 34.6697 160.848 34.6697ZM165.952 40.0997C165.379 40.0863 164.972 39.963 164.732 39.7297C164.492 39.4963 164.372 39.133 164.372 38.6397V32.3997L165.302 32.2397V38.4897C165.302 38.6431 165.316 38.7697 165.342 38.8697C165.369 38.9697 165.412 39.0497 165.472 39.1097C165.532 39.1697 165.612 39.2163 165.712 39.2497C165.812 39.2763 165.936 39.2997 166.082 39.3197L165.952 40.0997ZM173.731 36.5897H174.701V39.8297C174.621 39.8563 174.504 39.8863 174.351 39.9197C174.204 39.953 174.031 39.9863 173.831 40.0197C173.638 40.053 173.424 40.0797 173.191 40.0997C172.958 40.1263 172.721 40.1397 172.481 40.1397C171.994 40.1397 171.551 40.0597 171.151 39.8997C170.751 39.7397 170.408 39.5063 170.121 39.1997C169.834 38.893 169.611 38.5163 169.451 38.0697C169.298 37.6231 169.221 37.1097 169.221 36.5297C169.221 35.9497 169.308 35.4364 169.481 34.9897C169.661 34.5364 169.901 34.1564 170.201 33.8497C170.501 33.5431 170.851 33.3097 171.251 33.1497C171.658 32.9897 172.091 32.9097 172.551 32.9097C172.864 32.9097 173.141 32.9297 173.381 32.9697C173.628 33.0097 173.838 33.0564 174.011 33.1097C174.184 33.1631 174.324 33.2164 174.431 33.2697C174.544 33.3231 174.621 33.3631 174.661 33.3897L174.351 34.1997C174.158 34.0731 173.901 33.9697 173.581 33.8897C173.261 33.8031 172.934 33.7597 172.601 33.7597C172.248 33.7597 171.924 33.8231 171.631 33.9497C171.344 34.0764 171.098 34.2597 170.891 34.4997C170.691 34.7397 170.534 35.0331 170.421 35.3797C170.308 35.7197 170.251 36.1031 170.251 36.5297C170.251 36.9431 170.298 37.3197 170.391 37.6597C170.491 37.9997 170.638 38.2931 170.831 38.5397C171.031 38.7797 171.274 38.9663 171.561 39.0997C171.854 39.233 172.198 39.2997 172.591 39.2997C172.871 39.2997 173.108 39.2863 173.301 39.2597C173.501 39.2263 173.644 39.1963 173.731 39.1697V36.5897ZM180.75 37.3997C180.75 37.8131 180.69 38.1863 180.57 38.5197C180.45 38.8531 180.28 39.1397 180.06 39.3797C179.846 39.6197 179.59 39.8063 179.29 39.9397C178.99 40.0663 178.663 40.1297 178.31 40.1297C177.956 40.1297 177.63 40.0663 177.33 39.9397C177.03 39.8063 176.77 39.6197 176.55 39.3797C176.336 39.1397 176.17 38.8531 176.05 38.5197C175.93 38.1863 175.87 37.8131 175.87 37.3997C175.87 36.9931 175.93 36.6231 176.05 36.2897C176.17 35.9497 176.336 35.6597 176.55 35.4197C176.77 35.1797 177.03 34.9964 177.33 34.8697C177.63 34.7364 177.956 34.6697 178.31 34.6697C178.663 34.6697 178.99 34.7364 179.29 34.8697C179.59 34.9964 179.846 35.1797 180.06 35.4197C180.28 35.6597 180.45 35.9497 180.57 36.2897C180.69 36.6231 180.75 36.9931 180.75 37.3997ZM179.78 37.3997C179.78 36.8131 179.646 36.3497 179.38 36.0097C179.12 35.6631 178.763 35.4897 178.31 35.4897C177.856 35.4897 177.496 35.6631 177.23 36.0097C176.97 36.3497 176.84 36.8131 176.84 37.3997C176.84 37.9863 176.97 38.4531 177.23 38.7997C177.496 39.1397 177.856 39.3097 178.31 39.3097C178.763 39.3097 179.12 39.1397 179.38 38.7997C179.646 38.4531 179.78 37.9863 179.78 37.3997ZM185.981 34.7997C185.721 35.7731 185.415 36.7064 185.061 37.5997C184.715 38.4931 184.378 39.293 184.051 39.9997H183.211C182.885 39.293 182.545 38.4931 182.191 37.5997C181.845 36.7064 181.541 35.7731 181.281 34.7997H182.281C182.361 35.1264 182.455 35.4764 182.561 35.8497C182.675 36.2164 182.791 36.5831 182.911 36.9497C183.038 37.3097 183.165 37.6597 183.291 37.9997C183.418 38.3397 183.538 38.6431 183.651 38.9097C183.765 38.6431 183.885 38.3397 184.011 37.9997C184.138 37.6597 184.261 37.3097 184.381 36.9497C184.508 36.5831 184.625 36.2164 184.731 35.8497C184.845 35.4764 184.941 35.1264 185.021 34.7997H185.981ZM186.514 37.4097C186.514 36.9497 186.581 36.5497 186.714 36.2097C186.848 35.8631 187.024 35.5764 187.244 35.3497C187.464 35.1231 187.718 34.9531 188.004 34.8397C188.291 34.7264 188.584 34.6697 188.884 34.6697C189.584 34.6697 190.121 34.8897 190.494 35.3297C190.868 35.7631 191.054 36.4264 191.054 37.3197C191.054 37.3597 191.054 37.4131 191.054 37.4797C191.054 37.5397 191.051 37.5963 191.044 37.6497H187.484C187.524 38.1897 187.681 38.5997 187.954 38.8797C188.228 39.1597 188.654 39.2997 189.234 39.2997C189.561 39.2997 189.834 39.273 190.054 39.2197C190.281 39.1597 190.451 39.103 190.564 39.0497L190.694 39.8297C190.581 39.8897 190.381 39.953 190.094 40.0197C189.814 40.0863 189.494 40.1197 189.134 40.1197C188.681 40.1197 188.288 40.053 187.954 39.9197C187.628 39.7797 187.358 39.5897 187.144 39.3497C186.931 39.1097 186.771 38.8263 186.664 38.4997C186.564 38.1663 186.514 37.8031 186.514 37.4097ZM190.084 36.8997C190.091 36.4797 189.984 36.1364 189.764 35.8697C189.551 35.5964 189.254 35.4597 188.874 35.4597C188.661 35.4597 188.471 35.5031 188.304 35.5897C188.144 35.6697 188.008 35.7764 187.894 35.9097C187.781 36.0431 187.691 36.1964 187.624 36.3697C187.564 36.5431 187.524 36.7197 187.504 36.8997H190.084ZM194.31 34.6897C194.39 34.6897 194.48 34.6964 194.58 34.7097C194.687 34.7164 194.79 34.7297 194.89 34.7497C194.99 34.7631 195.08 34.7797 195.16 34.7997C195.247 34.8131 195.31 34.8264 195.35 34.8397L195.19 35.6497C195.117 35.6231 194.993 35.5931 194.82 35.5597C194.653 35.5197 194.437 35.4997 194.17 35.4997C193.997 35.4997 193.823 35.5197 193.65 35.5597C193.483 35.5931 193.373 35.6164 193.32 35.6297V39.9997H192.39V35.0197C192.61 34.9397 192.883 34.8664 193.21 34.7997C193.537 34.7264 193.903 34.6897 194.31 34.6897ZM196.247 34.9497C196.461 34.8964 196.744 34.8397 197.097 34.7797C197.451 34.7197 197.857 34.6897 198.317 34.6897C198.731 34.6897 199.074 34.7497 199.347 34.8697C199.621 34.9831 199.837 35.1464 199.997 35.3597C200.164 35.5664 200.281 35.8164 200.347 36.1097C200.414 36.4031 200.447 36.7264 200.447 37.0797V39.9997H199.517V37.2797C199.517 36.9597 199.494 36.6864 199.447 36.4597C199.407 36.2331 199.337 36.0497 199.237 35.9097C199.137 35.7697 199.004 35.6697 198.837 35.6097C198.671 35.5431 198.464 35.5097 198.217 35.5097C198.117 35.5097 198.014 35.5131 197.907 35.5197C197.801 35.5264 197.697 35.5364 197.597 35.5497C197.504 35.5564 197.417 35.5664 197.337 35.5797C197.264 35.5931 197.211 35.6031 197.177 35.6097V39.9997H196.247V34.9497ZM201.99 34.9497C202.203 34.8964 202.483 34.8397 202.83 34.7797C203.183 34.7197 203.59 34.6897 204.05 34.6897C204.383 34.6897 204.663 34.7364 204.89 34.8297C205.116 34.9164 205.306 35.0464 205.46 35.2197C205.506 35.1864 205.58 35.1397 205.68 35.0797C205.78 35.0197 205.903 34.9631 206.05 34.9097C206.196 34.8497 206.36 34.7997 206.54 34.7597C206.72 34.7131 206.913 34.6897 207.12 34.6897C207.52 34.6897 207.846 34.7497 208.1 34.8697C208.353 34.9831 208.55 35.1464 208.69 35.3597C208.836 35.5731 208.933 35.8264 208.98 36.1197C209.033 36.4131 209.06 36.7331 209.06 37.0797V39.9997H208.13V37.2797C208.13 36.9731 208.113 36.7097 208.08 36.4897C208.053 36.2697 207.996 36.0864 207.91 35.9397C207.83 35.7931 207.716 35.6864 207.57 35.6197C207.43 35.5464 207.246 35.5097 207.02 35.5097C206.706 35.5097 206.446 35.5531 206.24 35.6397C206.04 35.7197 205.903 35.7931 205.83 35.8597C205.883 36.0331 205.923 36.2231 205.95 36.4297C205.976 36.6364 205.99 36.8531 205.99 37.0797V39.9997H205.06V37.2797C205.06 36.9731 205.043 36.7097 205.01 36.4897C204.976 36.2697 204.916 36.0864 204.83 35.9397C204.75 35.7931 204.636 35.6864 204.49 35.6197C204.35 35.5464 204.17 35.5097 203.95 35.5097C203.856 35.5097 203.756 35.5131 203.65 35.5197C203.543 35.5264 203.44 35.5364 203.34 35.5497C203.246 35.5564 203.16 35.5664 203.08 35.5797C203 35.5931 202.946 35.6031 202.92 35.6097V39.9997H201.99V34.9497ZM210.313 37.4097C210.313 36.9497 210.38 36.5497 210.513 36.2097C210.646 35.8631 210.823 35.5764 211.043 35.3497C211.263 35.1231 211.516 34.9531 211.803 34.8397C212.09 34.7264 212.383 34.6697 212.683 34.6697C213.383 34.6697 213.919 34.8897 214.293 35.3297C214.666 35.7631 214.853 36.4264 214.853 37.3197C214.853 37.3597 214.853 37.4131 214.853 37.4797C214.853 37.5397 214.849 37.5963 214.843 37.6497H211.283C211.323 38.1897 211.48 38.5997 211.753 38.8797C212.026 39.1597 212.453 39.2997 213.033 39.2997C213.359 39.2997 213.633 39.273 213.853 39.2197C214.079 39.1597 214.249 39.103 214.363 39.0497L214.493 39.8297C214.379 39.8897 214.179 39.953 213.893 40.0197C213.613 40.0863 213.293 40.1197 212.933 40.1197C212.48 40.1197 212.086 40.053 211.753 39.9197C211.426 39.7797 211.156 39.5897 210.943 39.3497C210.73 39.1097 210.57 38.8263 210.463 38.4997C210.363 38.1663 210.313 37.8031 210.313 37.4097ZM213.883 36.8997C213.889 36.4797 213.783 36.1364 213.563 35.8697C213.35 35.5964 213.053 35.4597 212.673 35.4597C212.46 35.4597 212.27 35.5031 212.103 35.5897C211.943 35.6697 211.806 35.7764 211.693 35.9097C211.579 36.0431 211.49 36.1964 211.423 36.3697C211.363 36.5431 211.323 36.7197 211.303 36.8997H213.883ZM216.189 34.9497C216.402 34.8964 216.685 34.8397 217.039 34.7797C217.392 34.7197 217.799 34.6897 218.259 34.6897C218.672 34.6897 219.015 34.7497 219.289 34.8697C219.562 34.9831 219.779 35.1464 219.939 35.3597C220.105 35.5664 220.222 35.8164 220.289 36.1097C220.355 36.4031 220.389 36.7264 220.389 37.0797V39.9997H219.459V37.2797C219.459 36.9597 219.435 36.6864 219.389 36.4597C219.349 36.2331 219.279 36.0497 219.179 35.9097C219.079 35.7697 218.945 35.6697 218.779 35.6097C218.612 35.5431 218.405 35.5097 218.159 35.5097C218.059 35.5097 217.955 35.5131 217.849 35.5197C217.742 35.5264 217.639 35.5364 217.539 35.5497C217.445 35.5564 217.359 35.5664 217.279 35.5797C217.205 35.5931 217.152 35.6031 217.119 35.6097V39.9997H216.189V34.9497ZM222.801 34.7997H224.771V35.5797H222.801V37.9797C222.801 38.2397 222.821 38.4563 222.861 38.6297C222.901 38.7963 222.961 38.9297 223.041 39.0297C223.121 39.123 223.221 39.1897 223.341 39.2297C223.461 39.2697 223.601 39.2897 223.761 39.2897C224.041 39.2897 224.264 39.2597 224.431 39.1997C224.604 39.133 224.724 39.0863 224.791 39.0597L224.971 39.8297C224.877 39.8763 224.714 39.933 224.481 39.9997C224.247 40.073 223.981 40.1097 223.681 40.1097C223.327 40.1097 223.034 40.0663 222.801 39.9797C222.574 39.8863 222.391 39.7497 222.251 39.5697C222.111 39.3897 222.011 39.1697 221.951 38.9097C221.897 38.6431 221.871 38.3363 221.871 37.9897V33.3497L222.801 33.1897V34.7997Z" fill="#F0EFEE"/>
    <path d="M19.9999 0H10V9.99992H19.9999V0Z" fill="#CD7A6E"/>
    <path d="M29.9999 9.99988H20V19.9998H29.9999V9.99988Z" fill="#695F59"/>
    <path d="M39.9999 9.99988H30V19.9998H39.9999V9.99988Z" fill="#B4AFAC"/>
    <path d="M9.99992 19.9999H0V29.9998H9.99992V19.9999Z" fill="#5A6751"/>
    <path d="M19.9999 19.9999H10V29.9998H19.9999V19.9999Z" fill="#ACB3A8"/>
    <path d="M39.9999 19.9999H30V29.9998H39.9999V19.9999Z" fill="#F4E0CE"/>
    <path d="M29.9999 29.9998H20V39.9997H29.9999V29.9998Z" fill="#D59151"/>
    <path d="M82.142 36.4282H76.4277V37.1425H82.142V36.4282Z" fill="#F0EFEE"/>
    <path d="M54.6653 21.9055C55.1053 21.9055 55.4653 21.8722 55.7453 21.8055C56.0387 21.7255 56.272 21.6255 56.4453 21.5055C56.6187 21.3722 56.7387 21.2189 56.8053 21.0455C56.872 20.8722 56.9053 20.6789 56.9053 20.4655C56.9053 20.0122 56.692 19.6389 56.2653 19.3455C55.8387 19.0389 55.1053 18.7122 54.0654 18.3655C53.612 18.2055 53.1587 18.0256 52.7054 17.8256C52.252 17.6122 51.8454 17.3522 51.4854 17.0456C51.1254 16.7256 50.832 16.3456 50.6054 15.9056C50.3787 15.4522 50.2654 14.9056 50.2654 14.2656C50.2654 13.6256 50.3854 13.0522 50.6254 12.5456C50.8654 12.0256 51.2054 11.5856 51.6454 11.2256C52.0854 10.8656 52.6187 10.5923 53.2454 10.4056C53.872 10.2056 54.5787 10.1056 55.3653 10.1056C56.2987 10.1056 57.1053 10.2056 57.7853 10.4056C58.4653 10.6056 59.0253 10.8256 59.4653 11.0656L58.5653 13.5256C58.1787 13.3256 57.7453 13.1522 57.2653 13.0056C56.7987 12.8456 56.232 12.7656 55.5653 12.7656C54.8187 12.7656 54.2787 12.8722 53.9454 13.0856C53.6254 13.2856 53.4654 13.5989 53.4654 14.0256C53.4654 14.2789 53.5254 14.4922 53.6454 14.6656C53.7654 14.8389 53.932 14.9989 54.1454 15.1456C54.372 15.2789 54.6253 15.4056 54.9053 15.5256C55.1987 15.6322 55.5187 15.7456 55.8653 15.8656C56.5853 16.1322 57.212 16.3989 57.7453 16.6656C58.2787 16.9189 58.7187 17.2189 59.0653 17.5656C59.4253 17.9122 59.692 18.3189 59.8653 18.7855C60.0387 19.2522 60.1253 19.8189 60.1253 20.4855C60.1253 21.7789 59.672 22.7855 58.7653 23.5055C57.8587 24.2121 56.492 24.5655 54.6653 24.5655C54.052 24.5655 53.4987 24.5255 53.0054 24.4455C52.512 24.3789 52.072 24.2921 51.6854 24.1855C51.312 24.0789 50.9854 23.9655 50.7054 23.8455C50.4387 23.7255 50.212 23.6122 50.0254 23.5055L50.9054 21.0255C51.3187 21.2522 51.8254 21.4589 52.4254 21.6455C53.0387 21.8189 53.7854 21.9055 54.6653 21.9055ZM64.2734 24.2855C63.5934 22.9522 62.9001 21.3922 62.1934 19.6055C61.5001 17.8189 60.8401 15.8722 60.2135 13.7656H63.3734C63.5067 14.2856 63.6601 14.8522 63.8334 15.4656C64.0201 16.0656 64.2067 16.6789 64.3934 17.3056C64.5934 17.9189 64.7867 18.5189 64.9734 19.1055C65.1734 19.6922 65.3667 20.2255 65.5534 20.7055C65.7267 20.2255 65.9134 19.6922 66.1134 19.1055C66.3134 18.5189 66.5067 17.9189 66.6934 17.3056C66.8934 16.6789 67.08 16.0656 67.2534 15.4656C67.44 14.8522 67.6 14.2856 67.7334 13.7656H70.8134C70.1867 15.8722 69.52 17.8189 68.8134 19.6055C68.12 21.3922 67.4334 22.9522 66.7534 24.2855H64.2734ZM71.036 19.1055C71.036 18.1722 71.176 17.3589 71.4559 16.6656C71.7495 15.9589 72.1295 15.3722 72.5959 14.9056C73.0623 14.4389 73.5959 14.0856 74.1959 13.8456C74.8095 13.6056 75.4359 13.4856 76.0759 13.4856C77.5695 13.4856 78.7494 13.9456 79.6159 14.8656C80.4823 15.7722 80.9159 17.1122 80.9159 18.8855C80.9159 19.0589 80.9094 19.2522 80.8959 19.4655C80.8823 19.6655 80.8694 19.8455 80.8559 20.0055H74.0959C74.1623 20.6189 74.4495 21.1055 74.9559 21.4655C75.4623 21.8255 76.1423 22.0055 76.9959 22.0055C77.5423 22.0055 78.0759 21.9589 78.5959 21.8655C79.1294 21.7589 79.5623 21.6322 79.8959 21.4855L80.2959 23.9055C80.1359 23.9855 79.9223 24.0655 79.6559 24.1455C79.3894 24.2255 79.0894 24.2921 78.7559 24.3455C78.4359 24.4121 78.0895 24.4655 77.7159 24.5055C77.3423 24.5455 76.9695 24.5655 76.5959 24.5655C75.6495 24.5655 74.8223 24.4255 74.1159 24.1455C73.4223 23.8655 72.8424 23.4855 72.3759 23.0055C71.9224 22.5122 71.5824 21.9322 71.356 21.2655C71.1426 20.5989 71.036 19.8789 71.036 19.1055ZM78.0359 17.9656C78.0223 17.7122 77.9759 17.4656 77.8959 17.2256C77.8295 16.9856 77.7159 16.7722 77.5559 16.5856C77.4095 16.3989 77.2159 16.2456 76.9759 16.1256C76.7495 16.0056 76.4623 15.9456 76.1159 15.9456C75.7823 15.9456 75.4959 16.0056 75.2559 16.1256C75.0159 16.2322 74.8159 16.3789 74.6559 16.5656C74.4959 16.7522 74.3695 16.9722 74.2759 17.2256C74.1959 17.4656 74.1359 17.7122 74.0959 17.9656H78.0359ZM88.9558 16.4056C88.6887 16.3389 88.3758 16.2722 88.0158 16.2056C87.6558 16.1256 87.2687 16.0856 86.8558 16.0856C86.6687 16.0856 86.4422 16.1056 86.1758 16.1456C85.9222 16.1722 85.7287 16.2056 85.5958 16.2456V24.2855H82.6158V14.3256C83.1487 14.1389 83.7758 13.9656 84.4958 13.8056C85.2287 13.6322 86.0422 13.5456 86.9358 13.5456C87.0958 13.5456 87.2887 13.5589 87.5158 13.5856C87.7422 13.5989 87.9687 13.6256 88.1958 13.6656C88.4222 13.6922 88.6487 13.7322 88.8758 13.7856C89.1022 13.8256 89.2958 13.8789 89.4558 13.9456L88.9558 16.4056ZM93.4329 24.2855H90.4529V13.7656H93.4329V24.2855ZM93.7129 10.7256C93.7129 11.2722 93.5329 11.7056 93.1729 12.0256C92.8265 12.3322 92.4129 12.4856 91.9329 12.4856C91.4529 12.4856 91.0329 12.3322 90.6729 12.0256C90.3265 11.7056 90.1529 11.2722 90.1529 10.7256C90.1529 10.179 90.3265 9.75226 90.6729 9.44562C91.0329 9.12562 91.4529 8.96562 91.9329 8.96562C92.4129 8.96562 92.8265 9.12562 93.1729 9.44562C93.5329 9.75226 93.7129 10.179 93.7129 10.7256ZM98.1743 18.6855C98.1743 20.3522 98.8479 21.1855 100.194 21.1855C100.501 21.1855 100.788 21.1455 101.054 21.0655C101.321 20.9855 101.548 20.8922 101.734 20.7855V16.0256C101.588 15.9989 101.414 15.9789 101.214 15.9656C101.014 15.9389 100.781 15.9256 100.514 15.9256C99.7278 15.9256 99.1407 16.1856 98.7543 16.7056C98.3679 17.2256 98.1743 17.8856 98.1743 18.6855ZM104.714 22.9655C104.714 24.6855 104.274 25.9588 103.394 26.7855C102.528 27.6255 101.181 28.0455 99.3543 28.0455C98.7143 28.0455 98.0743 27.9855 97.4343 27.8655C96.7943 27.7588 96.2007 27.6121 95.6543 27.4255L96.1743 24.9255C96.6407 25.1121 97.1279 25.2589 97.6343 25.3655C98.1543 25.4721 98.7407 25.5255 99.3943 25.5255C100.248 25.5255 100.848 25.3389 101.194 24.9655C101.554 24.5921 101.734 24.1121 101.734 23.5255V23.1455C101.414 23.2922 101.081 23.4055 100.734 23.4855C100.401 23.5522 100.034 23.5855 99.6343 23.5855C98.1807 23.5855 97.0679 23.1589 96.2943 22.3055C95.5207 21.4389 95.1343 20.2322 95.1343 18.6855C95.1343 17.9122 95.2543 17.2122 95.4943 16.5856C95.7343 15.9456 96.0807 15.3989 96.5343 14.9456C97.0007 14.4922 97.5679 14.1456 98.2343 13.9056C98.9007 13.6522 99.6543 13.5256 100.494 13.5256C100.854 13.5256 101.221 13.5456 101.594 13.5856C101.981 13.6122 102.361 13.6522 102.734 13.7056C103.108 13.7589 103.461 13.8256 103.794 13.9056C104.141 13.9722 104.448 14.0456 104.714 14.1256V22.9655ZM106.409 19.1055C106.409 18.1722 106.549 17.3589 106.829 16.6656C107.123 15.9589 107.503 15.3722 107.969 14.9056C108.436 14.4389 108.969 14.0856 109.569 13.8456C110.183 13.6056 110.809 13.4856 111.449 13.4856C112.943 13.4856 114.123 13.9456 114.989 14.8656C115.856 15.7722 116.289 17.1122 116.289 18.8855C116.289 19.0589 116.283 19.2522 116.269 19.4655C116.256 19.6655 116.243 19.8455 116.229 20.0055H109.469C109.536 20.6189 109.823 21.1055 110.329 21.4655C110.836 21.8255 111.516 22.0055 112.369 22.0055C112.916 22.0055 113.449 21.9589 113.969 21.8655C114.503 21.7589 114.936 21.6322 115.269 21.4855L115.669 23.9055C115.509 23.9855 115.296 24.0655 115.029 24.1455C114.763 24.2255 114.463 24.2921 114.129 24.3455C113.809 24.4121 113.463 24.4655 113.089 24.5055C112.716 24.5455 112.343 24.5655 111.969 24.5655C111.023 24.5655 110.196 24.4255 109.489 24.1455C108.796 23.8655 108.216 23.4855 107.749 23.0055C107.296 22.5122 106.956 21.9322 106.729 21.2655C106.516 20.5989 106.409 19.8789 106.409 19.1055ZM113.409 17.9656C113.396 17.7122 113.349 17.4656 113.269 17.2256C113.203 16.9856 113.089 16.7722 112.929 16.5856C112.783 16.3989 112.589 16.2456 112.349 16.1256C112.123 16.0056 111.836 15.9456 111.489 15.9456C111.156 15.9456 110.869 16.0056 110.629 16.1256C110.389 16.2322 110.189 16.3789 110.029 16.5656C109.869 16.7522 109.743 16.9722 109.649 17.2256C109.569 17.4656 109.509 17.7122 109.469 17.9656H113.409ZM121.008 22.1455C121.556 22.1455 121.942 22.0922 122.168 21.9855C122.396 21.8789 122.508 21.6722 122.508 21.3655C122.508 21.1255 122.362 20.9189 122.068 20.7455C121.776 20.5589 121.328 20.3522 120.728 20.1255C120.262 19.9522 119.836 19.7722 119.448 19.5855C119.076 19.3989 118.756 19.1789 118.488 18.9255C118.222 18.6589 118.016 18.3455 117.868 17.9856C117.722 17.6256 117.648 17.1922 117.648 16.6856C117.648 15.6989 118.016 14.9189 118.748 14.3456C119.482 13.7722 120.488 13.4856 121.768 13.4856C122.408 13.4856 123.022 13.5456 123.608 13.6656C124.196 13.7722 124.662 13.8922 125.008 14.0256L124.488 16.3456C124.142 16.2256 123.762 16.1189 123.348 16.0256C122.948 15.9322 122.496 15.8856 121.988 15.8856C121.056 15.8856 120.588 16.1456 120.588 16.6656C120.588 16.7856 120.608 16.8922 120.648 16.9856C120.688 17.0789 120.768 17.1722 120.888 17.2656C121.008 17.3456 121.168 17.4389 121.368 17.5456C121.582 17.6389 121.848 17.7456 122.168 17.8656C122.822 18.1055 123.362 18.3455 123.788 18.5855C124.216 18.8122 124.548 19.0655 124.788 19.3455C125.042 19.6122 125.215 19.9122 125.308 20.2455C125.415 20.5789 125.468 20.9655 125.468 21.4055C125.468 22.4455 125.076 23.2322 124.288 23.7655C123.516 24.2989 122.416 24.5655 120.988 24.5655C120.056 24.5655 119.276 24.4855 118.648 24.3255C118.036 24.1655 117.608 24.0321 117.368 23.9255L117.868 21.5055C118.376 21.7055 118.896 21.8655 119.428 21.9855C119.962 22.0922 120.488 22.1455 121.008 22.1455ZM133.84 18.9455C133.84 19.8655 134.047 20.6055 134.46 21.1655C134.874 21.7255 135.487 22.0055 136.3 22.0055C136.567 22.0055 136.814 21.9989 137.04 21.9855C137.267 21.9589 137.454 21.9322 137.6 21.9055V16.4856C137.414 16.3656 137.167 16.2656 136.86 16.1856C136.567 16.1056 136.267 16.0656 135.96 16.0656C134.547 16.0656 133.84 17.0256 133.84 18.9455ZM140.58 23.9455C140.314 24.0255 140.007 24.1055 139.66 24.1855C139.314 24.2521 138.947 24.3121 138.56 24.3655C138.187 24.4189 137.8 24.4589 137.4 24.4855C137.014 24.5255 136.64 24.5455 136.28 24.5455C135.414 24.5455 134.64 24.4189 133.96 24.1655C133.28 23.9121 132.707 23.5521 132.24 23.0855C131.774 22.6055 131.414 22.0322 131.16 21.3655C130.92 20.6855 130.8 19.9255 130.8 19.0855C130.8 18.2322 130.907 17.4656 131.12 16.7856C131.334 16.0922 131.64 15.5056 132.04 15.0256C132.44 14.5456 132.927 14.1789 133.5 13.9256C134.087 13.6722 134.754 13.5456 135.5 13.5456C135.914 13.5456 136.28 13.5856 136.6 13.6656C136.934 13.7456 137.267 13.8589 137.6 14.0056V9.24562L140.58 8.76562V23.9455ZM146.79 22.2055C147.084 22.2055 147.364 22.1989 147.63 22.1855C147.897 22.1722 148.11 22.1522 148.27 22.1255V19.8655C148.15 19.8389 147.97 19.8122 147.73 19.7855C147.49 19.7589 147.27 19.7455 147.07 19.7455C146.79 19.7455 146.524 19.7655 146.27 19.8055C146.03 19.8322 145.817 19.8922 145.63 19.9855C145.444 20.0789 145.297 20.2055 145.19 20.3655C145.084 20.5255 145.03 20.7255 145.03 20.9655C145.03 21.4322 145.184 21.7589 145.49 21.9455C145.81 22.1189 146.244 22.2055 146.79 22.2055ZM146.55 13.4856C147.43 13.4856 148.164 13.5856 148.75 13.7856C149.337 13.9856 149.804 14.2722 150.15 14.6456C150.51 15.0189 150.764 15.4722 150.91 16.0056C151.057 16.5389 151.13 17.1322 151.13 17.7856V23.9855C150.704 24.0789 150.11 24.1855 149.35 24.3055C148.59 24.4389 147.67 24.5055 146.59 24.5055C145.91 24.5055 145.29 24.4455 144.73 24.3255C144.184 24.2055 143.71 24.0121 143.31 23.7455C142.91 23.4655 142.604 23.1055 142.39 22.6655C142.178 22.2255 142.07 21.6855 142.07 21.0455C142.07 20.4322 142.19 19.9122 142.43 19.4855C142.684 19.0589 143.018 18.7189 143.43 18.4655C143.844 18.2122 144.318 18.0322 144.85 17.9256C145.384 17.8056 145.937 17.7456 146.51 17.7456C146.897 17.7456 147.237 17.7656 147.53 17.8056C147.837 17.8322 148.084 17.8722 148.27 17.9256V17.6456C148.27 17.1389 148.117 16.7322 147.81 16.4256C147.504 16.1189 146.97 15.9656 146.21 15.9656C145.704 15.9656 145.204 16.0056 144.71 16.0856C144.217 16.1522 143.79 16.2522 143.43 16.3856L143.05 13.9856C143.224 13.9322 143.437 13.8789 143.69 13.8256C143.957 13.7589 144.244 13.7056 144.55 13.6656C144.857 13.6122 145.177 13.5722 145.51 13.5456C145.857 13.5056 146.204 13.4856 146.55 13.4856ZM153.125 11.1456L156.105 10.6656V13.7656H159.685V16.2456H156.105V19.9455C156.105 20.5722 156.212 21.0722 156.425 21.4455C156.652 21.8189 157.099 22.0055 157.765 22.0055C158.085 22.0055 158.412 21.9789 158.745 21.9255C159.092 21.8589 159.405 21.7722 159.685 21.6655L160.105 23.9855C159.745 24.1321 159.345 24.2589 158.905 24.3655C158.465 24.4721 157.925 24.5255 157.285 24.5255C156.472 24.5255 155.799 24.4189 155.265 24.2055C154.732 23.9789 154.305 23.6721 153.985 23.2855C153.665 22.8855 153.439 22.4055 153.305 21.8455C153.185 21.2855 153.125 20.6655 153.125 19.9855V11.1456ZM165.141 22.2055C165.434 22.2055 165.714 22.1989 165.981 22.1855C166.248 22.1722 166.461 22.1522 166.621 22.1255V19.8655C166.501 19.8389 166.321 19.8122 166.081 19.7855C165.841 19.7589 165.621 19.7455 165.421 19.7455C165.141 19.7455 164.874 19.7655 164.621 19.8055C164.381 19.8322 164.168 19.8922 163.981 19.9855C163.794 20.0789 163.648 20.2055 163.541 20.3655C163.434 20.5255 163.381 20.7255 163.381 20.9655C163.381 21.4322 163.534 21.7589 163.841 21.9455C164.161 22.1189 164.594 22.2055 165.141 22.2055ZM164.901 13.4856C165.781 13.4856 166.514 13.5856 167.101 13.7856C167.688 13.9856 168.154 14.2722 168.501 14.6456C168.861 15.0189 169.114 15.4722 169.261 16.0056C169.408 16.5389 169.481 17.1322 169.481 17.7856V23.9855C169.054 24.0789 168.461 24.1855 167.701 24.3055C166.941 24.4389 166.021 24.5055 164.941 24.5055C164.261 24.5055 163.641 24.4455 163.081 24.3255C162.534 24.2055 162.061 24.0121 161.661 23.7455C161.261 23.4655 160.954 23.1055 160.741 22.6655C160.528 22.2255 160.421 21.6855 160.421 21.0455C160.421 20.4322 160.541 19.9122 160.781 19.4855C161.035 19.0589 161.368 18.7189 161.781 18.4655C162.194 18.2122 162.668 18.0322 163.201 17.9256C163.734 17.8056 164.288 17.7456 164.861 17.7456C165.248 17.7456 165.588 17.7656 165.881 17.8056C166.188 17.8322 166.434 17.8722 166.621 17.9256V17.6456C166.621 17.1389 166.468 16.7322 166.161 16.4256C165.854 16.1189 165.321 15.9656 164.561 15.9656C164.054 15.9656 163.554 16.0056 163.061 16.0856C162.568 16.1522 162.141 16.2522 161.781 16.3856L161.401 13.9856C161.575 13.9322 161.788 13.8789 162.041 13.8256C162.308 13.7589 162.594 13.7056 162.901 13.6656C163.208 13.6122 163.528 13.5722 163.861 13.5456C164.208 13.5056 164.554 13.4856 164.901 13.4856ZM178.316 19.1055C178.316 18.1855 178.109 17.4522 177.696 16.9056C177.282 16.3456 176.669 16.0656 175.856 16.0656C175.589 16.0656 175.342 16.0789 175.116 16.1056C174.889 16.1189 174.702 16.1389 174.556 16.1656V21.5455C174.742 21.6655 174.982 21.7655 175.276 21.8455C175.582 21.9255 175.889 21.9655 176.196 21.9655C177.609 21.9655 178.316 21.0122 178.316 19.1055ZM181.356 19.0255C181.356 19.8389 181.256 20.5789 181.056 21.2455C180.856 21.9122 180.562 22.4855 180.176 22.9655C179.789 23.4455 179.309 23.8189 178.736 24.0855C178.162 24.3521 177.502 24.4855 176.756 24.4855C176.342 24.4855 175.956 24.4455 175.596 24.3655C175.236 24.2855 174.889 24.1721 174.556 24.0255V27.9855H171.576V14.1256C171.842 14.0456 172.149 13.9722 172.496 13.9056C172.842 13.8256 173.202 13.7589 173.576 13.7056C173.962 13.6522 174.349 13.6122 174.736 13.5856C175.136 13.5456 175.516 13.5256 175.876 13.5256C176.742 13.5256 177.516 13.6589 178.196 13.9256C178.876 14.1789 179.449 14.5456 179.916 15.0256C180.382 15.4922 180.736 16.0656 180.976 16.7456C181.229 17.4256 181.356 18.1855 181.356 19.0255ZM192.886 19.0055C192.886 19.8322 192.766 20.5922 192.526 21.2855C192.286 21.9655 191.939 22.5522 191.486 23.0455C191.033 23.5255 190.486 23.8989 189.846 24.1655C189.219 24.4321 188.513 24.5655 187.726 24.5655C186.953 24.5655 186.246 24.4321 185.606 24.1655C184.979 23.8989 184.439 23.5255 183.986 23.0455C183.533 22.5522 183.179 21.9655 182.926 21.2855C182.673 20.5922 182.546 19.8322 182.546 19.0055C182.546 18.1789 182.673 17.4256 182.926 16.7456C183.193 16.0656 183.553 15.4856 184.006 15.0056C184.473 14.5256 185.019 14.1522 185.646 13.8856C186.286 13.6189 186.979 13.4856 187.726 13.4856C188.486 13.4856 189.179 13.6189 189.806 13.8856C190.446 14.1522 190.993 14.5256 191.446 15.0056C191.899 15.4856 192.253 16.0656 192.506 16.7456C192.759 17.4256 192.886 18.1789 192.886 19.0055ZM189.846 19.0055C189.846 18.0856 189.659 17.3656 189.286 16.8456C188.926 16.3122 188.406 16.0456 187.726 16.0456C187.046 16.0456 186.519 16.3122 186.146 16.8456C185.773 17.3656 185.586 18.0856 185.586 19.0055C185.586 19.9255 185.773 20.6589 186.146 21.2055C186.519 21.7389 187.046 22.0055 187.726 22.0055C188.406 22.0055 188.926 21.7389 189.286 21.2055C189.659 20.6589 189.846 19.9255 189.846 19.0055ZM200.934 16.4056C200.668 16.3389 200.354 16.2722 199.994 16.2056C199.634 16.1256 199.248 16.0856 198.834 16.0856C198.648 16.0856 198.421 16.1056 198.154 16.1456C197.901 16.1722 197.708 16.2056 197.574 16.2456V24.2855H194.594V14.3256C195.128 14.1389 195.754 13.9656 196.474 13.8056C197.208 13.6322 198.021 13.5456 198.914 13.5456C199.074 13.5456 199.268 13.5589 199.494 13.5856C199.721 13.5989 199.948 13.6256 200.174 13.6656C200.401 13.6922 200.628 13.7322 200.854 13.7856C201.081 13.8256 201.274 13.8789 201.434 13.9456L200.934 16.4056ZM202.332 11.1456L205.312 10.6656V13.7656H208.892V16.2456H205.312V19.9455C205.312 20.5722 205.418 21.0722 205.632 21.4455C205.858 21.8189 206.305 22.0055 206.972 22.0055C207.292 22.0055 207.618 21.9789 207.952 21.9255C208.298 21.8589 208.612 21.7722 208.892 21.6655L209.312 23.9855C208.952 24.1321 208.552 24.2589 208.112 24.3655C207.672 24.4721 207.132 24.5255 206.492 24.5255C205.678 24.5255 205.005 24.4189 204.472 24.2055C203.938 23.9789 203.512 23.6721 203.192 23.2855C202.872 22.8855 202.645 22.4055 202.512 21.8455C202.392 21.2855 202.332 20.6655 202.332 19.9855V11.1456ZM214.348 22.2055C214.641 22.2055 214.921 22.1989 215.188 22.1855C215.455 22.1722 215.668 22.1522 215.828 22.1255V19.8655C215.708 19.8389 215.528 19.8122 215.288 19.7855C215.048 19.7589 214.828 19.7455 214.628 19.7455C214.348 19.7455 214.081 19.7655 213.828 19.8055C213.588 19.8322 213.375 19.8922 213.188 19.9855C213.001 20.0789 212.855 20.2055 212.748 20.3655C212.641 20.5255 212.588 20.7255 212.588 20.9655C212.588 21.4322 212.741 21.7589 213.048 21.9455C213.368 22.1189 213.801 22.2055 214.348 22.2055ZM214.108 13.4856C214.988 13.4856 215.721 13.5856 216.308 13.7856C216.895 13.9856 217.361 14.2722 217.708 14.6456C218.068 15.0189 218.321 15.4722 218.468 16.0056C218.615 16.5389 218.688 17.1322 218.688 17.7856V23.9855C218.261 24.0789 217.668 24.1855 216.908 24.3055C216.148 24.4389 215.228 24.5055 214.148 24.5055C213.468 24.5055 212.848 24.4455 212.288 24.3255C211.741 24.2055 211.268 24.0121 210.868 23.7455C210.468 23.4655 210.161 23.1055 209.948 22.6655C209.735 22.2255 209.628 21.6855 209.628 21.0455C209.628 20.4322 209.748 19.9122 209.988 19.4855C210.241 19.0589 210.575 18.7189 210.988 18.4655C211.401 18.2122 211.875 18.0322 212.408 17.9256C212.941 17.8056 213.495 17.7456 214.068 17.7456C214.455 17.7456 214.795 17.7656 215.088 17.8056C215.395 17.8322 215.641 17.8722 215.828 17.9256V17.6456C215.828 17.1389 215.675 16.7322 215.368 16.4256C215.061 16.1189 214.528 15.9656 213.768 15.9656C213.261 15.9656 212.761 16.0056 212.268 16.0856C211.775 16.1522 211.348 16.2522 210.988 16.3856L210.608 13.9856C210.781 13.9322 210.995 13.8789 211.248 13.8256C211.515 13.7589 211.801 13.7056 212.108 13.6656C212.415 13.6122 212.735 13.5722 213.068 13.5456C213.415 13.5056 213.761 13.4856 214.108 13.4856ZM224.983 24.4855C224.115 24.4721 223.409 24.3789 222.863 24.2055C222.329 24.0321 221.903 23.7921 221.583 23.4855C221.275 23.1655 221.063 22.7855 220.943 22.3455C220.835 21.8922 220.783 21.3855 220.783 20.8255V9.24562L223.763 8.76562V20.2255C223.763 20.4922 223.783 20.7322 223.823 20.9455C223.863 21.1589 223.935 21.3389 224.043 21.4855C224.163 21.6322 224.329 21.7522 224.543 21.8455C224.755 21.9389 225.043 21.9989 225.403 22.0255L224.983 24.4855Z" fill="#F0EFEE"/>
  </g>
  <defs>
    <clipPath id="clip0_2667_21578">
      <rect width="228" height="44" fill="white"/>
    </clipPath>
  </defs>
</svg>