<svg width="260" height="40" viewBox="0 0 260 40" fill="none" xmlns="http://www.w3.org/2000/svg">
<g clip-path="url(#clip0_1102_8034)">
<mask id="mask0_1102_8034" style="mask-type:luminance" maskUnits="userSpaceOnUse" x="0" y="0" width="260" height="40">
<path d="M260 0H0V40H260V0Z" fill="white"/>
</mask>
<g mask="url(#mask0_1102_8034)">
<path d="M139.058 11.1745C139.018 10.5004 138.974 9.81902 138.926 9.14776C138.88 8.47722 138.824 7.82256 138.763 7.2011C138.702 6.58109 138.633 6.0116 138.56 5.50995L138.55 5.43994H136.883L136.86 5.48253C136.728 5.72288 136.575 6.02387 136.404 6.3761C136.233 6.72905 136.053 7.11521 135.867 7.52518C135.683 7.93299 135.497 8.35813 135.315 8.78831C135.16 9.15137 135.014 9.49638 134.876 9.82335L134.437 8.78831C134.254 8.35813 134.068 7.93299 133.884 7.52518C133.698 7.11449 133.518 6.72833 133.347 6.3761C133.175 6.02098 133.022 5.71999 132.892 5.48253L132.869 5.43994H131.125L131.115 5.50995C131.042 6.01232 130.974 6.58109 130.913 7.2011C130.851 7.82112 130.796 8.4765 130.75 9.14776C130.703 9.81469 130.659 10.4968 130.618 11.1745C130.579 11.8509 130.543 12.494 130.515 13.0866L130.51 13.1724H132.333L132.335 13.0931C132.356 12.3539 132.386 11.5455 132.422 10.6909C132.454 9.93668 132.5 9.16797 132.559 8.40143C132.655 8.62374 132.757 8.86121 132.867 9.11456C133.028 9.48845 133.188 9.86305 133.342 10.2276C133.499 10.5993 133.651 10.9544 133.796 11.2929C133.942 11.6314 134.066 11.9209 134.168 12.1605L134.189 12.2103H135.485L135.506 12.1605C135.609 11.9201 135.733 11.6307 135.878 11.2929C136.024 10.9544 136.176 10.5993 136.332 10.2276C136.488 9.858 136.648 9.48339 136.808 9.11456C136.917 8.86193 137.02 8.62374 137.115 8.40143C137.174 9.16869 137.22 9.9374 137.252 10.6909C137.288 11.5585 137.317 12.3669 137.339 13.0931L137.341 13.1724H139.163L139.159 13.0866C139.132 12.5012 139.098 11.8574 139.058 11.1745Z" fill="#556850"/>
<path d="M142.89 13.1724H144.755V10.2203C145.242 9.45885 145.712 8.6887 146.15 7.93299C146.594 7.16862 147.027 6.3696 147.44 5.55904L147.5 5.43994H145.438L145.417 5.4883C145.185 6.00871 144.929 6.53056 144.655 7.04087C144.401 7.51436 144.132 7.9929 143.854 8.46495C143.576 7.99074 143.311 7.51219 143.065 7.04159C142.799 6.53056 142.547 6.00799 142.316 5.4883L142.294 5.43994H140.135L140.195 5.55904C140.609 6.37321 141.044 7.17584 141.49 7.94382C141.933 8.70819 142.404 9.48195 142.89 10.242V13.1724Z" fill="#556850"/>
<path d="M155.364 5.44005H153.511V9.71953C153.293 9.39617 153.062 9.05838 152.82 8.71264C152.524 8.29039 152.221 7.87464 151.918 7.4755C151.617 7.07923 151.317 6.70174 151.028 6.35311C150.736 6.00305 150.467 5.70351 150.226 5.46315L150.202 5.43933H148.702V13.1718H150.545V8.35463C151.128 9.05116 151.685 9.7946 152.205 10.5691C152.769 11.4085 153.299 12.2696 153.782 13.13L153.806 13.1718H155.364V5.44005Z" fill="#556850"/>
<path d="M158.712 13.2324C159.12 13.2577 159.481 13.2707 159.786 13.2707C160.459 13.2707 161.076 13.1884 161.619 13.0267C162.165 12.8643 162.636 12.616 163.017 12.2898C163.4 11.9628 163.699 11.5442 163.906 11.0468C164.113 10.551 164.218 9.96344 164.218 9.30084C164.218 8.60936 164.112 8.00667 163.906 7.5108C163.699 7.01277 163.397 6.59774 163.011 6.27799C162.625 5.95896 162.158 5.72222 161.623 5.57425C161.091 5.42701 160.491 5.35266 159.84 5.35266C159.535 5.35266 159.165 5.36565 158.739 5.39092C158.312 5.4169 157.896 5.4667 157.502 5.5396L157.435 5.55187V13.0592L157.501 13.0729C157.895 13.153 158.302 13.2064 158.712 13.2324ZM159.301 11.6279V6.99184C159.386 6.98246 159.476 6.97668 159.57 6.97379C159.694 6.97019 159.814 6.96874 159.928 6.96874C160.751 6.96874 161.359 7.16579 161.734 7.55556C162.109 7.94604 162.299 8.53285 162.299 9.30084C162.299 10.0327 162.1 10.6123 161.706 11.0245C161.314 11.4352 160.697 11.6438 159.874 11.6438C159.725 11.6438 159.602 11.6423 159.5 11.6387C159.427 11.6358 159.361 11.6322 159.301 11.6279Z" fill="#556850"/>
<path d="M167.828 5.43994H165.964V13.1724H167.828V5.43994Z" fill="#556850"/>
<path d="M174.272 11.6574C174.189 11.6718 174.096 11.6812 173.995 11.687C173.863 11.6942 173.701 11.6978 173.514 11.6978C173.178 11.6978 172.882 11.6394 172.632 11.5253C172.383 11.4113 172.173 11.2481 172.007 11.041C171.84 10.8317 171.713 10.5791 171.63 10.2882C171.545 9.99513 171.502 9.66238 171.502 9.30077C171.502 8.55877 171.674 7.96763 172.013 7.54466C172.347 7.12675 172.904 6.91454 173.667 6.91454C174.013 6.91454 174.337 6.95929 174.63 7.04735C174.926 7.13685 175.19 7.24295 175.417 7.36349L175.501 7.40752L176.046 5.89105L175.989 5.8564C175.928 5.81815 175.829 5.76546 175.693 5.69977C175.556 5.63265 175.379 5.56697 175.168 5.50345C174.958 5.44065 174.705 5.38508 174.416 5.33744C174.126 5.2898 173.796 5.26526 173.438 5.26526C172.907 5.26526 172.4 5.35548 171.932 5.53304C171.461 5.71132 171.046 5.97622 170.698 6.32123C170.35 6.66553 170.072 7.0921 169.873 7.58869C169.673 8.08384 169.572 8.66054 169.572 9.30149C169.572 9.9345 169.664 10.5062 169.845 11.0006C170.026 11.4972 170.287 11.9223 170.621 12.2637C170.954 12.6058 171.362 12.8693 171.834 13.0476C172.302 13.2251 172.831 13.3146 173.405 13.3146C174.069 13.3146 174.635 13.2684 175.09 13.1768C175.543 13.0851 175.878 12.9978 176.085 12.9162L176.137 12.896V9.01205H174.273L174.272 11.6574Z" fill="#556850"/>
<path d="M179.91 9.96122H182.604V13.1724H184.468V5.43994H182.604V8.33431H179.91V5.43994H178.045V13.1724H179.91V9.96122Z" fill="#556850"/>
<path d="M192.056 11.578H188.403V9.91791H191.424V8.35596H188.403V7.03437H191.805V5.43994H186.539V13.1724H192.056V11.578Z" fill="#556850"/>
<path d="M197.127 13.1724V7.05602H199.405V5.43994H192.983V7.05602H195.262V13.1724H197.127Z" fill="#556850"/>
<path d="M206.341 11.578H202.688V9.91791H205.709V8.35596H202.688V7.03437H206.09V5.43994H200.823V13.1724H206.341V11.578Z" fill="#556850"/>
<path d="M209.765 8.35535C210.348 9.05188 210.905 9.79532 211.425 10.5698C211.988 11.4092 212.519 12.2703 213.002 13.1307L213.026 13.1726H214.584V5.44005H212.731V9.71953C212.513 9.39617 212.282 9.05837 212.04 8.71264C211.744 8.29039 211.441 7.87464 211.138 7.47549C210.837 7.07923 210.537 6.70174 210.247 6.35311C209.956 6.00305 209.687 5.70351 209.446 5.46315L209.422 5.43933H207.922V13.1718H209.765V8.35535Z" fill="#556850"/>
<path d="M221.628 7.03437H224.987V5.43994H219.764V13.1724H221.628V10.0486H224.616V8.45412H221.628V7.03437Z" fill="#556850"/>
<path d="M228.11 4.6049C228.292 4.76731 228.508 4.84959 228.754 4.84959C228.999 4.84959 229.215 4.76731 229.397 4.6049C229.581 4.44034 229.675 4.21586 229.675 3.93725C229.675 3.65936 229.581 3.43489 229.397 3.27032C229.214 3.10792 228.998 3.02563 228.754 3.02563C228.509 3.02563 228.293 3.10792 228.111 3.27032C227.927 3.43489 227.833 3.65936 227.833 3.93725C227.832 4.21658 227.926 4.44106 228.11 4.6049Z" fill="#556850"/>
<path d="M233.579 11.0397C233.774 10.5409 233.873 9.95556 233.873 9.3009C233.873 8.64552 233.772 8.06015 233.573 7.5614C233.373 7.06192 233.096 6.63534 232.747 6.29394C232.398 5.95253 231.985 5.69269 231.518 5.52235C231.053 5.35201 230.552 5.26611 230.029 5.26611C229.52 5.26611 229.028 5.35201 228.567 5.52235C228.103 5.69341 227.69 5.95253 227.339 6.29394C226.987 6.63534 226.704 7.06192 226.497 7.56068C226.29 8.06015 226.186 8.64552 226.186 9.30163C226.186 9.95701 226.286 10.5424 226.486 11.0411C226.686 11.5413 226.964 11.9665 227.312 12.3035C227.66 12.6413 228.074 12.899 228.541 13.0701C229.005 13.2404 229.506 13.3263 230.03 13.3263C230.568 13.3263 231.078 13.2404 231.546 13.0701C232.017 12.899 232.429 12.6413 232.77 12.3035C233.11 11.9643 233.383 11.5399 233.579 11.0397ZM230.84 11.498C230.602 11.6092 230.328 11.6655 230.029 11.6655C229.723 11.6655 229.449 11.6092 229.214 11.4987C228.979 11.3883 228.778 11.2288 228.616 11.0253C228.452 10.8195 228.324 10.5698 228.237 10.2825C228.149 9.99382 228.105 9.66324 228.105 9.30163C228.105 8.94723 228.149 8.61881 228.237 8.32577C228.324 8.03489 228.452 7.78299 228.616 7.578C228.778 7.37373 228.979 7.21205 229.214 7.09801C229.449 6.98397 229.723 6.92622 230.029 6.92622C230.328 6.92622 230.601 6.98252 230.84 7.09368C231.078 7.20411 231.281 7.36363 231.443 7.56717C231.607 7.77288 231.734 8.02478 231.822 8.31494C231.91 8.60871 231.954 8.94073 231.954 9.30163C231.954 9.66252 231.91 9.9931 231.822 10.2825C231.734 10.5698 231.607 10.8195 231.443 11.0253C231.281 11.2288 231.078 11.3876 230.84 11.498Z" fill="#556850"/>
<path d="M230.542 4.6049C230.723 4.76731 230.94 4.84959 231.185 4.84959C231.43 4.84959 231.647 4.76731 231.828 4.6049C232.013 4.44034 232.106 4.21586 232.106 3.93725C232.106 3.65936 232.013 3.43489 231.828 3.27032C231.646 3.10792 231.43 3.02563 231.185 3.02563C230.94 3.02563 230.724 3.10792 230.542 3.27032C230.357 3.43489 230.264 3.65936 230.264 3.93725C230.264 4.21586 230.357 4.44106 230.542 4.6049Z" fill="#556850"/>
<path d="M241.956 13.0556C241.827 12.7806 241.683 12.4947 241.53 12.206C241.377 11.9188 241.217 11.638 241.053 11.3716C240.89 11.1075 240.723 10.8491 240.554 10.6037C240.411 10.3943 240.271 10.2023 240.138 10.0327C240.56 9.84218 240.891 9.58522 241.126 9.26763C241.378 8.92334 241.507 8.4715 241.507 7.92511C241.507 7.04814 241.19 6.39131 240.566 5.97268C239.951 5.56126 239.06 5.35266 237.915 5.35266C237.603 5.35266 237.243 5.3671 236.845 5.39669C236.448 5.42628 236.057 5.47753 235.685 5.55115L235.619 5.56414V13.1732H237.483V10.4102H238.203C238.338 10.5741 238.475 10.7588 238.611 10.9588C238.758 11.1739 238.906 11.4027 239.053 11.6387C239.2 11.8747 239.346 12.1237 239.489 12.3778C239.631 12.6326 239.772 12.8838 239.911 13.1314L239.934 13.1732H242.013L241.956 13.0556ZM239.587 7.91356C239.587 8.27157 239.465 8.51625 239.214 8.66205C238.951 8.81435 238.503 8.89158 237.881 8.89158H237.483V6.99545C237.548 6.9904 237.615 6.98534 237.685 6.97957C237.783 6.97235 237.892 6.96874 238.012 6.96874C238.54 6.96874 238.944 7.04453 239.209 7.19322C239.463 7.33541 239.587 7.57143 239.587 7.91356Z" fill="#556850"/>
<path d="M136.308 18.4761C135.922 18.1571 135.455 17.9203 134.92 17.7724C134.388 17.6251 133.788 17.5508 133.137 17.5508C132.832 17.5508 132.462 17.5638 132.036 17.589C131.609 17.615 131.193 17.6648 130.799 17.7377L130.732 17.75V25.2573L130.798 25.271C131.191 25.3511 131.599 25.4053 132.009 25.4313C132.416 25.4565 132.777 25.4695 133.082 25.4695C133.755 25.4695 134.372 25.3872 134.915 25.2256C135.462 25.0632 135.932 24.8149 136.313 24.4886C136.696 24.1616 136.995 23.743 137.203 23.2457C137.409 22.7498 137.514 22.1623 137.514 21.4997C137.514 20.8082 137.409 20.2055 137.203 19.7097C136.995 19.2109 136.694 18.7959 136.308 18.4761ZM135.596 21.499C135.596 22.2309 135.396 22.8105 135.003 23.2226C134.61 23.6333 133.993 23.8419 133.17 23.8419C133.021 23.8419 132.899 23.8404 132.797 23.8368C132.724 23.8347 132.658 23.8311 132.598 23.8267V19.1907C132.683 19.1813 132.773 19.1755 132.868 19.1726C132.991 19.169 133.111 19.1676 133.225 19.1676C134.049 19.1676 134.656 19.3646 135.031 19.7544C135.405 20.1434 135.596 20.731 135.596 21.499Z" fill="#556850"/>
<path d="M141.124 17.6382H139.259V25.3707H141.124V17.6382Z" fill="#556850"/>
<path d="M147.514 23.8556C147.431 23.8701 147.338 23.8795 147.236 23.8852C147.104 23.8925 146.943 23.8961 146.756 23.8961C146.42 23.8961 146.124 23.8376 145.874 23.7236C145.625 23.6095 145.415 23.4464 145.249 23.2392C145.082 23.0299 144.955 22.7773 144.871 22.4864C144.786 22.1934 144.744 21.8606 144.744 21.499C144.744 20.757 144.916 20.1659 145.255 19.7429C145.589 19.325 146.146 19.1128 146.908 19.1128C147.255 19.1128 147.579 19.1575 147.872 19.2456C148.167 19.3351 148.432 19.4412 148.659 19.5617L148.742 19.6058L149.287 18.0893L149.231 18.0546C149.17 18.0164 149.07 17.9637 148.935 17.898C148.797 17.8309 148.621 17.7652 148.409 17.7017C148.2 17.6389 147.947 17.5833 147.658 17.5357C147.367 17.488 147.038 17.4635 146.679 17.4635C146.148 17.4635 145.642 17.5537 145.173 17.7313C144.703 17.9096 144.288 18.1745 143.94 18.5195C143.591 18.8638 143.314 19.2903 143.114 19.7869C142.915 20.2821 142.814 20.8588 142.814 21.4997C142.814 22.1327 142.905 22.7044 143.086 23.1988C143.268 23.6954 143.529 24.1205 143.862 24.4619C144.196 24.8041 144.604 25.0675 145.075 25.2458C145.544 25.4234 146.073 25.5129 146.647 25.5129C147.31 25.5129 147.877 25.4667 148.332 25.375C148.785 25.2833 149.12 25.196 149.327 25.1144L149.379 25.0942V21.2103H147.514V23.8556Z" fill="#556850"/>
<path d="M153.151 17.6382H151.286V25.3707H153.151V17.6382Z" fill="#556850"/>
<path d="M160.99 17.6382H154.568V19.2543H156.847V25.3707H158.712V19.2543H160.99V17.6382Z" fill="#556850"/>
<path d="M167.83 22.9996C167.575 22.3096 167.323 21.6513 167.079 21.0429C166.837 20.4373 166.591 19.8497 166.35 19.2983C166.11 18.7505 165.863 18.2077 165.615 17.6851L165.592 17.6382H163.877L163.855 17.6844C163.601 18.2077 163.351 18.7505 163.115 19.299C162.878 19.8483 162.635 20.4351 162.392 21.0429C162.15 21.6484 161.898 22.3067 161.642 22.9996C161.388 23.6875 161.116 24.4482 160.832 25.2617L160.794 25.3707H162.735L162.753 25.3137C162.836 25.0517 162.926 24.7803 163.021 24.5074L163.289 23.7322H166.124L166.394 24.5053C166.488 24.7759 166.58 25.0481 166.664 25.3137L166.682 25.3707H168.679L168.641 25.2617C168.357 24.4504 168.085 23.6896 167.83 22.9996ZM164.608 19.9125C164.644 19.8201 164.676 19.7364 164.703 19.6621C164.733 19.735 164.765 19.8173 164.801 19.9089C164.874 20.098 164.96 20.3167 165.057 20.5643C165.155 20.8148 165.259 21.0898 165.365 21.3828C165.461 21.6484 165.561 21.9256 165.662 22.2136H163.734C163.839 21.9278 163.943 21.6499 164.045 21.3871C164.161 21.089 164.265 20.8155 164.359 20.5672C164.452 20.3203 164.535 20.1016 164.608 19.9125Z" fill="#556850"/>
<path d="M171.863 17.6382H169.998V25.3707H175.21V23.7431H171.863V17.6382Z" fill="#556850"/>
<path d="M179.735 25.3707H181.6V22.2468H184.587V20.6524H181.6V19.2326H184.958V17.6382H179.735V25.3707Z" fill="#556850"/>
<path d="M192.718 18.4913C192.37 18.1499 191.957 17.8901 191.49 17.7197C191.025 17.5494 190.523 17.4635 190 17.4635C189.491 17.4635 188.999 17.5494 188.538 17.7197C188.075 17.8908 187.662 18.1499 187.31 18.4913C186.959 18.8327 186.675 19.2593 186.469 19.7581C186.262 20.2575 186.157 20.8429 186.157 21.499C186.157 22.1544 186.258 22.7398 186.458 23.2385C186.657 23.7387 186.935 24.1639 187.284 24.5009C187.632 24.8387 188.045 25.0964 188.512 25.2675C188.977 25.4378 189.478 25.5237 190.002 25.5237C190.539 25.5237 191.049 25.4378 191.518 25.2675C191.988 25.0964 192.401 24.8387 192.741 24.5009C193.082 24.1631 193.355 23.7387 193.551 23.2385C193.746 22.7398 193.845 22.1544 193.845 21.4997C193.845 20.8444 193.745 20.259 193.545 19.7602C193.345 19.2593 193.067 18.8327 192.718 18.4913ZM190.812 23.6961C190.573 23.8073 190.3 23.8636 190.001 23.8636C189.695 23.8636 189.42 23.8073 189.185 23.6969C188.95 23.5864 188.749 23.4269 188.587 23.2234C188.424 23.0177 188.296 22.7679 188.209 22.4806C188.121 22.1919 188.076 21.8614 188.076 21.4997C188.076 21.1453 188.121 20.8169 188.209 20.5239C188.296 20.233 188.424 19.9811 188.587 19.7761C188.749 19.5718 188.951 19.4102 189.186 19.2961C189.421 19.1821 189.695 19.1243 190.001 19.1243C190.3 19.1243 190.572 19.1806 190.812 19.2918C191.049 19.4022 191.253 19.5617 191.415 19.7653C191.578 19.971 191.705 20.2229 191.793 20.5131C191.881 20.8068 191.926 21.1388 191.926 21.4997C191.926 21.8606 191.881 22.1912 191.793 22.4806C191.706 22.7679 191.578 23.0177 191.415 23.2234C191.252 23.4269 191.049 23.5857 190.812 23.6961Z" fill="#556850"/>
<path d="M188.725 15.2246C188.48 15.2246 188.263 15.3069 188.082 15.4693C187.897 15.6339 187.804 15.8583 187.804 16.1362C187.804 16.4148 187.897 16.6393 188.082 16.8032C188.263 16.9656 188.48 17.0479 188.725 17.0479C188.97 17.0479 189.187 16.9656 189.368 16.8032C189.553 16.6386 189.646 16.4141 189.646 16.1355C189.646 15.8576 189.553 15.6331 189.368 15.4686C189.186 15.3069 188.97 15.2246 188.725 15.2246Z" fill="#556850"/>
<path d="M191.8 15.4693C191.617 15.3069 191.401 15.2246 191.157 15.2246C190.912 15.2246 190.696 15.3069 190.513 15.4693C190.329 15.6339 190.235 15.8583 190.235 16.1362C190.235 16.4141 190.329 16.6393 190.513 16.8032C190.695 16.9656 190.911 17.0479 191.157 17.0479C191.402 17.0479 191.618 16.9656 191.8 16.8032C191.984 16.6386 192.078 16.4141 192.078 16.1355C192.078 15.8583 191.984 15.6339 191.8 15.4693Z" fill="#556850"/>
<path d="M201.501 24.4037C201.348 24.1164 201.188 23.8356 201.023 23.5693C200.861 23.3051 200.693 23.0467 200.525 22.8013C200.381 22.592 200.242 22.4 200.108 22.2304C200.531 22.0398 200.862 21.7829 201.096 21.4653C201.349 21.121 201.477 20.6691 201.477 20.1227C201.477 19.2458 201.161 18.5889 200.536 18.1703C199.922 17.7589 199.03 17.5503 197.885 17.5503C197.574 17.5503 197.214 17.5647 196.816 17.5943C196.419 17.6239 196.028 17.6752 195.656 17.7488L195.589 17.7618V25.3709H197.454V22.6079H198.173C198.309 22.7717 198.446 22.9565 198.582 23.1564C198.728 23.3715 198.877 23.6003 199.024 23.8363C199.171 24.0724 199.317 24.3214 199.46 24.5754C199.602 24.8302 199.743 25.0814 199.881 25.329L199.905 25.3709H201.983L201.928 25.2539C201.797 24.9789 201.654 24.6931 201.501 24.4037ZM199.558 20.1119C199.558 20.4699 199.436 20.7146 199.185 20.8604C198.923 21.0127 198.475 21.0899 197.852 21.0899H197.454V19.1938C197.519 19.1887 197.586 19.1837 197.657 19.1779C197.754 19.1707 197.864 19.1671 197.983 19.1671C198.511 19.1671 198.915 19.2429 199.181 19.3916C199.435 19.5338 199.558 19.7698 199.558 20.1119Z" fill="#556850"/>
<path d="M210.452 17.6382H208.466L208.448 17.6952C208.307 18.1312 208.148 18.6075 207.976 19.1128C207.801 19.6224 207.623 20.1298 207.448 20.622C207.274 21.1071 207.099 21.5921 206.926 22.0635C206.787 22.4417 206.656 22.7802 206.535 23.0725C206.408 22.778 206.277 22.4388 206.141 22.0606L205.625 20.6184C205.445 20.1146 205.267 19.6072 205.096 19.1085C204.925 18.6075 204.766 18.1319 204.625 17.6945L204.607 17.6375H202.558L202.594 17.745C202.752 18.2185 202.945 18.7699 203.167 19.3856C203.389 19.9999 203.633 20.6473 203.894 21.3099C204.157 21.9783 204.438 22.6618 204.729 23.3417C205.02 24.0238 205.32 24.6908 205.62 25.3238L205.642 25.3707H207.368L207.391 25.3238C207.69 24.69 207.989 24.0245 208.278 23.3446C208.566 22.6654 208.845 21.9812 209.107 21.3106C209.367 20.6466 209.61 19.9991 209.831 19.3878C210.046 18.7909 210.243 18.2387 210.415 17.7472L210.452 17.6382Z" fill="#556850"/>
<path d="M217.138 22.9996C216.883 22.3096 216.631 21.6513 216.387 21.0429C216.145 20.4373 215.899 19.8497 215.658 19.2983C215.418 18.7505 215.171 18.2077 214.923 17.6851L214.901 17.6382H213.186L213.163 17.6844C212.909 18.2077 212.659 18.7505 212.423 19.299C212.186 19.8483 211.943 20.4351 211.7 21.0429C211.458 21.6484 211.206 22.3067 210.95 22.9996C210.697 23.6875 210.424 24.4482 210.14 25.2617L210.102 25.3707H212.043L212.061 25.3137C212.144 25.0517 212.234 24.7803 212.329 24.5074L212.597 23.7322H215.432L215.702 24.5053C215.796 24.7759 215.888 25.0481 215.972 25.3137L215.99 25.3707H217.987L217.949 25.2617C217.666 24.4504 217.392 23.6896 217.138 22.9996ZM213.916 19.9125C213.952 19.8201 213.984 19.7364 214.011 19.6621C214.041 19.735 214.073 19.8173 214.109 19.9089C214.182 20.098 214.268 20.3167 214.365 20.5643C214.463 20.8148 214.567 21.0898 214.674 21.3828C214.769 21.6484 214.869 21.9256 214.971 22.2136H213.042C213.147 21.9278 213.251 21.6499 213.353 21.3871C213.469 21.089 213.573 20.8155 213.667 20.5672C213.76 20.3203 213.843 20.1016 213.916 19.9125Z" fill="#556850"/>
<path d="M221.116 17.6382H219.251V25.3707H224.463V23.7431H221.116V17.6382Z" fill="#556850"/>
<path d="M224.681 19.2543H226.96V25.3707H228.825V19.2543H231.103V17.6382H224.681V19.2543Z" fill="#556850"/>
<path d="M237.33 21.9176C237.112 21.5943 236.881 21.2565 236.639 20.9107C236.343 20.4885 236.04 20.0728 235.737 19.6736C235.436 19.2773 235.136 18.8999 234.847 18.5512C234.556 18.2012 234.286 17.9016 234.046 17.6613L234.022 17.6375H232.521V25.3699H234.364V20.5527C234.947 21.2493 235.505 21.9927 236.024 22.7672C236.588 23.6066 237.118 24.4677 237.602 25.3281L237.625 25.3699H239.183V17.6382H237.33V21.9176Z" fill="#556850"/>
<path d="M243.119 17.6382H241.255V25.3707H243.119V17.6382Z" fill="#556850"/>
<path d="M249.946 21.9176C249.728 21.5943 249.497 21.2565 249.255 20.9107C248.959 20.4885 248.656 20.0728 248.353 19.6736C248.052 19.2773 247.752 18.8999 247.463 18.5512C247.171 18.2012 246.902 17.9016 246.661 17.6613L246.638 17.6375H245.137V25.3699H246.98V20.5527C247.563 21.2493 248.121 21.9927 248.64 22.7672C249.204 23.6066 249.734 24.4677 250.218 25.3281L250.241 25.3699H251.799V17.6382H249.946V21.9176Z" fill="#556850"/>
<path d="M258.135 21.2096V23.8556C258.052 23.8701 257.959 23.8795 257.857 23.8852C257.725 23.8925 257.564 23.8961 257.376 23.8961C257.041 23.8961 256.744 23.8376 256.494 23.7236C256.246 23.6095 256.035 23.4464 255.87 23.2392C255.702 23.0299 255.576 22.7773 255.492 22.4864C255.407 22.1934 255.364 21.8606 255.364 21.499C255.364 20.757 255.537 20.1659 255.875 19.7429C256.21 19.325 256.767 19.1128 257.529 19.1128C257.876 19.1128 258.199 19.1575 258.493 19.2456C258.788 19.3351 259.053 19.4412 259.28 19.5617L259.363 19.6058L259.908 18.0893L259.852 18.0546C259.791 18.0164 259.691 17.9637 259.556 17.898C259.418 17.8309 259.241 17.7652 259.03 17.7017C258.821 17.6389 258.568 17.5833 258.279 17.5357C257.988 17.488 257.659 17.4635 257.3 17.4635C256.769 17.4635 256.262 17.5537 255.794 17.7313C255.323 17.9096 254.908 18.1745 254.56 18.5195C254.212 18.8638 253.935 19.2903 253.735 19.7869C253.535 20.2821 253.435 20.8588 253.435 21.4997C253.435 22.1327 253.526 22.7044 253.707 23.1988C253.889 23.6954 254.149 24.1205 254.483 24.4619C254.817 24.8041 255.225 25.0675 255.696 25.2458C256.164 25.4234 256.693 25.5129 257.268 25.5129C257.931 25.5129 258.498 25.4667 258.952 25.375C259.406 25.2833 259.741 25.196 259.948 25.1144L260 25.0942V21.2103L258.135 21.2096Z" fill="#556850"/>
<path d="M134.34 35.9709C134.278 35.776 134.211 35.5761 134.139 35.3711C134.067 35.1661 133.996 34.9619 133.925 34.7583H131.74C131.67 34.9626 131.599 35.1676 131.528 35.3726C131.457 35.5783 131.391 35.7775 131.33 35.9709H130.022C130.233 35.3675 130.433 34.8096 130.621 34.2978C130.81 33.7861 130.995 33.3032 131.176 32.8506C131.357 32.3981 131.535 31.9686 131.71 31.5615C131.885 31.1544 132.068 30.7575 132.256 30.3691H133.45C133.634 30.7575 133.814 31.1544 133.993 31.5615C134.171 31.9686 134.351 32.3981 134.532 32.8506C134.713 33.3032 134.898 33.7861 135.088 34.2978C135.277 34.8096 135.477 35.3675 135.688 35.9709H134.34ZM132.827 31.6388C132.799 31.7203 132.758 31.8308 132.704 31.9708C132.65 32.1108 132.589 32.2725 132.519 32.4558C132.45 32.6392 132.373 32.8413 132.287 33.0621C132.202 33.283 132.115 33.514 132.027 33.7565H133.626C133.541 33.5132 133.458 33.2816 133.378 33.06C133.298 32.8384 133.221 32.6363 133.149 32.4522C133.077 32.2689 133.014 32.1072 132.959 31.9672C132.904 31.8279 132.86 31.7182 132.827 31.6388Z" fill="#556850"/>
<path d="M140.352 35.4374C140.352 36.1325 140.176 36.6486 139.823 36.9857C139.471 37.3228 138.926 37.4909 138.189 37.4909C137.931 37.4909 137.672 37.4678 137.414 37.4224C137.156 37.3762 136.917 37.3155 136.696 37.2405L136.906 36.23C137.094 36.305 137.292 36.3649 137.499 36.4075C137.706 36.4508 137.941 36.4725 138.205 36.4725C138.549 36.4725 138.793 36.3967 138.936 36.2458C139.078 36.095 139.15 35.9008 139.15 35.6641V35.5103C139.021 35.5695 138.887 35.6143 138.75 35.6439C138.614 35.6735 138.464 35.6886 138.302 35.6886C137.716 35.6886 137.267 35.5147 136.955 35.1675C136.643 34.8196 136.486 34.3338 136.486 33.7088C136.486 33.3962 136.535 33.1118 136.632 32.8556C136.728 32.5994 136.87 32.38 137.056 32.1966C137.242 32.0133 137.469 31.8718 137.737 31.7722C138.006 31.6726 138.31 31.6228 138.65 31.6228C138.795 31.6228 138.944 31.6293 139.098 31.643C139.251 31.6567 139.403 31.6741 139.554 31.6957C139.705 31.7174 139.849 31.7426 139.986 31.7722C140.123 31.8018 140.245 31.8328 140.353 31.8653L140.352 35.4374ZM137.714 33.708C137.714 34.3815 137.985 34.7185 138.529 34.7185C138.652 34.7185 138.768 34.7027 138.876 34.6702C138.983 34.6377 139.075 34.6002 139.15 34.5569V32.6333C139.091 32.6225 139.021 32.6131 138.941 32.6052C138.86 32.5972 138.766 32.5929 138.658 32.5929C138.34 32.5929 138.104 32.6983 137.948 32.9083C137.791 33.1176 137.714 33.3847 137.714 33.708Z" fill="#556850"/>
<path d="M141.644 33.8777C141.644 33.5002 141.701 33.1703 141.817 32.8874C141.933 32.6044 142.085 32.3691 142.273 32.18C142.461 31.9916 142.678 31.8487 142.923 31.7513C143.168 31.6545 143.42 31.6055 143.678 31.6055C144.28 31.6055 144.757 31.7902 145.106 32.1591C145.455 32.5286 145.631 33.0714 145.631 33.7882C145.631 33.8582 145.628 33.9354 145.623 34.0184C145.617 34.1021 145.612 34.1758 145.607 34.2407H142.879C142.906 34.4883 143.022 34.6853 143.227 34.8311C143.431 34.9769 143.705 35.0491 144.05 35.0491C144.27 35.0491 144.487 35.0289 144.7 34.9885C144.912 34.9481 145.086 34.8983 145.22 34.8391L145.381 35.8171C145.316 35.8496 145.231 35.8821 145.123 35.9138C145.016 35.9463 144.896 35.9744 144.764 35.999C144.633 36.0235 144.491 36.0437 144.341 36.0596C144.19 36.0755 144.04 36.0842 143.889 36.0842C143.507 36.0842 143.175 36.0279 142.892 35.9145C142.61 35.8012 142.376 35.6468 142.19 35.4497C142.005 35.2534 141.868 35.0202 141.779 34.7503C141.688 34.4811 141.644 34.1902 141.644 33.8777ZM144.468 33.4164C144.463 33.3139 144.445 33.2143 144.416 33.1176C144.386 33.0209 144.34 32.9343 144.279 32.8592C144.217 32.7841 144.139 32.7221 144.045 32.673C143.95 32.6246 143.833 32.6001 143.694 32.6001C143.559 32.6001 143.444 32.6232 143.346 32.6687C143.25 32.7141 143.169 32.7755 143.104 32.8506C143.039 32.9263 142.99 33.0137 142.955 33.1133C142.92 33.2129 142.894 33.3139 142.879 33.4164H144.468Z" fill="#556850"/>
<path d="M146.922 31.8646C147.127 31.8054 147.391 31.7505 147.714 31.6986C148.036 31.6473 148.375 31.6221 148.73 31.6221C149.091 31.6221 149.391 31.6697 149.631 31.7635C149.87 31.8581 150.059 31.9916 150.2 32.1634C150.34 32.3359 150.439 32.5409 150.498 32.7777C150.557 33.0151 150.587 33.2786 150.587 33.5702V35.9708H149.384V33.7153C149.384 33.3269 149.333 33.0527 149.231 32.891C149.128 32.7293 148.937 32.6485 148.658 32.6485C148.571 32.6485 148.48 32.6528 148.383 32.6607C148.287 32.6687 148.2 32.678 148.125 32.6889V35.9708H146.922V31.8646Z" fill="#556850"/>
<path d="M151.837 33.8453C151.837 33.5378 151.887 33.2484 151.986 32.9763C152.086 32.7042 152.23 32.4667 152.418 32.2646C152.606 32.0625 152.835 31.9023 153.104 31.7839C153.373 31.6655 153.68 31.6063 154.024 31.6063C154.25 31.6063 154.457 31.6265 154.645 31.667C154.833 31.7074 155.016 31.7651 155.194 31.8409L154.944 32.803C154.831 32.7597 154.707 32.7222 154.573 32.6897C154.438 32.6572 154.288 32.6414 154.121 32.6414C153.766 32.6414 153.501 32.7518 153.326 32.9727C153.151 33.1935 153.064 33.4844 153.064 33.8453C153.064 34.2278 153.146 34.5245 153.311 34.7345C153.475 34.9446 153.761 35.0499 154.17 35.0499C154.316 35.0499 154.471 35.0362 154.639 35.0095C154.805 34.9828 154.959 34.9395 155.098 34.8803L155.268 35.8663C155.128 35.9255 154.953 35.9767 154.743 36.02C154.533 36.0633 154.302 36.085 154.049 36.085C153.662 36.085 153.328 36.0272 153.048 35.911C152.769 35.7955 152.538 35.6375 152.358 35.4383C152.178 35.2391 152.046 35.003 151.962 34.7309C151.879 34.4581 151.837 34.1636 151.837 33.8453Z" fill="#556850"/>
<path d="M160.214 31.7195C159.971 32.5387 159.718 33.3067 159.454 34.0234C159.189 34.7402 158.901 35.4353 158.588 36.1094C158.475 36.3519 158.362 36.5584 158.249 36.728C158.136 36.8976 158.012 37.0376 157.877 37.1481C157.742 37.2585 157.59 37.3393 157.42 37.3906C157.25 37.4418 157.053 37.4671 156.826 37.4671C156.638 37.4671 156.464 37.4498 156.305 37.4144C156.145 37.379 156.015 37.3401 155.913 37.2975L156.122 36.3353C156.246 36.3786 156.357 36.4082 156.453 36.4241C156.55 36.44 156.652 36.4487 156.76 36.4487C156.976 36.4487 157.141 36.3909 157.257 36.2747C157.373 36.1585 157.471 35.9983 157.551 35.794C157.277 35.2555 157.002 34.65 156.728 33.9794C156.453 33.3081 156.194 32.5553 155.953 31.7202H157.229C157.283 31.9302 157.346 32.1583 157.419 32.403C157.492 32.6484 157.569 32.896 157.65 33.1465C157.731 33.3969 157.814 33.6409 157.897 33.8784C157.981 34.1158 158.061 34.3309 158.137 34.5251C158.206 34.3309 158.28 34.1158 158.356 33.8784C158.431 33.6416 158.505 33.3976 158.578 33.1465C158.651 32.8953 158.722 32.6477 158.789 32.403C158.856 32.1576 158.917 31.9302 158.971 31.7202L160.214 31.7195Z" fill="#556850"/>
<path d="M165.355 29.6985C165.581 29.6985 165.788 29.7216 165.976 29.7671C166.164 29.8125 166.309 29.8573 166.412 29.9006L166.178 30.8627C166.07 30.8144 165.953 30.7776 165.827 30.7537C165.7 30.7292 165.583 30.7176 165.476 30.7176C165.33 30.7176 165.208 30.7379 165.108 30.7783C165.009 30.8187 164.931 30.8743 164.874 30.9443C164.818 31.0143 164.777 31.098 164.753 31.1948C164.728 31.2915 164.717 31.3969 164.717 31.5102V31.7202H166.202V32.7228H164.717V35.9723H163.514V31.4943C163.514 30.9443 163.669 30.5083 163.978 30.185C164.288 29.8602 164.746 29.6985 165.355 29.6985Z" fill="#556850"/>
<path d="M171.254 33.8374C171.254 34.1715 171.206 34.4776 171.109 34.7547C171.012 35.0326 170.872 35.2694 170.689 35.4664C170.506 35.6635 170.287 35.815 170.031 35.9233C169.776 36.0309 169.489 36.085 169.172 36.085C168.86 36.085 168.576 36.0309 168.32 35.9233C168.064 35.8158 167.845 35.6635 167.662 35.4664C167.479 35.2701 167.336 35.0326 167.234 34.7547C167.132 34.4776 167.081 34.1715 167.081 33.8374C167.081 33.5032 167.133 33.1986 167.238 32.9236C167.343 32.6486 167.488 32.414 167.674 32.2206C167.86 32.0271 168.08 31.8755 168.335 31.768C168.59 31.6605 168.869 31.6063 169.17 31.6063C169.477 31.6063 169.758 31.6605 170.013 31.768C170.268 31.8755 170.488 32.0264 170.671 32.2206C170.854 32.4147 170.997 32.6493 171.099 32.9236C171.203 33.1986 171.254 33.5032 171.254 33.8374ZM170.028 33.8374C170.028 33.4656 169.953 33.1733 169.806 32.9604C169.658 32.7475 169.447 32.6414 169.172 32.6414C168.898 32.6414 168.685 32.7475 168.535 32.9604C168.384 33.1733 168.308 33.4656 168.308 33.8374C168.308 34.2091 168.383 34.5043 168.535 34.7223C168.685 34.9402 168.898 35.0499 169.172 35.0499C169.447 35.0499 169.658 34.941 169.806 34.7223C169.953 34.5043 170.028 34.2091 170.028 33.8374Z" fill="#556850"/>
<path d="M175.104 32.7863C174.996 32.7596 174.87 32.7315 174.725 32.7011C174.579 32.6715 174.424 32.6564 174.256 32.6564C174.181 32.6564 174.091 32.6629 173.986 32.6766C173.881 32.6903 173.802 32.7047 173.748 32.7213V35.9708H172.546V31.9454C172.761 31.8704 173.015 31.7989 173.308 31.7311C173.601 31.6639 173.928 31.63 174.289 31.63C174.354 31.63 174.432 31.6343 174.523 31.6423C174.615 31.6502 174.706 31.661 174.798 31.6748C174.889 31.6885 174.981 31.7043 175.072 31.7231C175.164 31.7419 175.241 31.765 175.306 31.7917L175.104 32.7863Z" fill="#556850"/>
<path d="M183.594 33.1661C183.594 33.6511 183.518 34.0741 183.368 34.435C183.217 34.7959 183.003 35.0954 182.726 35.3322C182.449 35.5696 182.112 35.7472 181.713 35.8656C181.315 35.9839 180.869 36.0431 180.373 36.0431C180.147 36.0431 179.884 36.0337 179.582 36.015C179.281 35.9962 178.985 35.9572 178.694 35.8981V30.4413C178.985 30.3872 179.287 30.3511 179.602 30.3323C179.917 30.3136 180.188 30.3042 180.414 30.3042C180.892 30.3042 181.327 30.3583 181.717 30.4659C182.107 30.5734 182.442 30.7438 182.722 30.9755C183.002 31.2072 183.217 31.5038 183.368 31.8647C183.518 32.2256 183.594 32.6594 183.594 33.1661ZM179.954 34.9446C180.013 34.9503 180.082 34.954 180.16 34.9568C180.238 34.9597 180.331 34.9612 180.438 34.9612C181.068 34.9612 181.534 34.8024 181.839 34.4841C182.143 34.1665 182.295 33.7269 182.295 33.1668C182.295 32.5793 182.149 32.1347 181.859 31.8329C181.568 31.5312 181.108 31.3804 180.479 31.3804C180.392 31.3804 180.304 31.3818 180.212 31.3847C180.12 31.3876 180.035 31.3941 179.954 31.4049V34.9446Z" fill="#556850"/>
<path d="M186.241 30.4903C186.241 30.7111 186.169 30.8851 186.027 31.0114C185.884 31.1377 185.716 31.2012 185.522 31.2012C185.328 31.2012 185.16 31.1377 185.018 31.0114C184.875 30.8851 184.804 30.7111 184.804 30.4903C184.804 30.2694 184.875 30.0954 185.018 29.9691C185.16 29.8428 185.328 29.7793 185.522 29.7793C185.716 29.7793 185.884 29.8428 186.027 29.9691C186.169 30.0954 186.241 30.2694 186.241 30.4903ZM186.128 35.9708H184.925V31.7187H186.128V35.9708Z" fill="#556850"/>
<path d="M191.285 35.4374C191.285 36.1325 191.109 36.6486 190.756 36.9857C190.404 37.3228 189.859 37.4909 189.122 37.4909C188.864 37.4909 188.606 37.4678 188.348 37.4224C188.09 37.3762 187.85 37.3155 187.629 37.2405L187.839 36.23C188.027 36.305 188.225 36.3649 188.432 36.4075C188.639 36.4508 188.874 36.4725 189.138 36.4725C189.482 36.4725 189.726 36.3967 189.869 36.2458C190.011 36.095 190.083 35.9008 190.083 35.6641V35.5103C189.954 35.5695 189.82 35.6143 189.683 35.6439C189.547 35.6735 189.397 35.6886 189.235 35.6886C188.649 35.6886 188.2 35.5147 187.888 35.1675C187.576 34.8196 187.419 34.3338 187.419 33.7088C187.419 33.3962 187.468 33.1118 187.565 32.8556C187.662 32.5994 187.803 32.38 187.989 32.1966C188.175 32.0133 188.402 31.8718 188.67 31.7722C188.939 31.6726 189.243 31.6228 189.583 31.6228C189.728 31.6228 189.877 31.6293 190.031 31.643C190.184 31.6567 190.336 31.6741 190.487 31.6957C190.638 31.7174 190.782 31.7426 190.919 31.7722C191.055 31.8018 191.178 31.8328 191.286 31.8653L191.285 35.4374ZM188.647 33.708C188.647 34.3815 188.918 34.7185 189.462 34.7185C189.585 34.7185 189.701 34.7027 189.809 34.6702C189.916 34.6377 190.008 34.6002 190.083 34.5569V32.6333C190.024 32.6225 189.954 32.6131 189.874 32.6052C189.793 32.5972 189.699 32.5929 189.591 32.5929C189.273 32.5929 189.037 32.6983 188.881 32.9083C188.724 33.1176 188.647 33.3847 188.647 33.708Z" fill="#556850"/>
<path d="M194.093 30.4903C194.093 30.7111 194.022 30.8851 193.879 31.0114C193.737 31.1377 193.569 31.2012 193.375 31.2012C193.181 31.2012 193.013 31.1377 192.87 31.0114C192.728 30.8851 192.656 30.7111 192.656 30.4903C192.656 30.2694 192.728 30.0954 192.87 29.9691C193.013 29.8428 193.181 29.7793 193.375 29.7793C193.569 29.7793 193.737 29.8428 193.879 29.9691C194.022 30.0954 194.093 30.2694 194.093 30.4903ZM193.98 35.9708H192.777V31.7187H193.98V35.9708Z" fill="#556850"/>
<path d="M195.433 30.66L196.636 30.4658V31.7188H198.08V32.7214H196.636V34.2169C196.636 34.4703 196.68 34.6724 196.769 34.8233C196.858 34.9741 197.036 35.0499 197.306 35.0499C197.435 35.0499 197.568 35.0376 197.705 35.0138C197.842 34.9893 197.967 34.9561 198.08 34.9128L198.25 35.8504C198.104 35.9095 197.943 35.9608 197.766 36.0041C197.588 36.0474 197.37 36.0691 197.112 36.0691C196.784 36.0691 196.512 36.0243 196.297 35.9355C196.082 35.8467 195.909 35.7226 195.78 35.5638C195.651 35.405 195.561 35.2123 195.51 34.9857C195.459 34.759 195.434 34.5086 195.434 34.2335V30.66H195.433Z" fill="#556850"/>
<path d="M200.945 31.6063C201.3 31.6063 201.595 31.6467 201.833 31.7276C202.069 31.8084 202.259 31.9246 202.402 32.0755C202.545 32.2263 202.645 32.4097 202.705 32.6255C202.764 32.8413 202.793 33.0809 202.793 33.3451V35.8511C202.621 35.8887 202.382 35.9334 202.075 35.9847C201.768 36.0359 201.397 36.0612 200.961 36.0612C200.686 36.0612 200.437 36.0366 200.214 35.9883C199.991 35.9399 199.798 35.8605 199.637 35.7501C199.475 35.6396 199.351 35.4953 199.266 35.3177C199.179 35.1402 199.137 34.9215 199.137 34.6631C199.137 34.4155 199.186 34.2055 199.286 34.0322C199.385 33.8597 199.519 33.7226 199.685 33.6201C199.852 33.5176 200.043 33.444 200.258 33.3978C200.473 33.3523 200.696 33.3292 200.928 33.3292C201.084 33.3292 201.223 33.3357 201.344 33.3494C201.465 33.3631 201.563 33.3805 201.639 33.4021V33.2888C201.639 33.0838 201.577 32.92 201.453 32.7958C201.329 32.6717 201.114 32.6096 200.807 32.6096C200.602 32.6096 200.401 32.6248 200.202 32.6544C200.003 32.6839 199.831 32.7258 199.685 32.7799L199.532 31.8099C199.602 31.7882 199.689 31.7651 199.794 31.7413C199.899 31.7168 200.013 31.6958 200.137 31.6763C200.261 31.6576 200.391 31.6417 200.528 31.628C200.667 31.6128 200.805 31.6063 200.945 31.6063ZM201.042 35.1308C201.16 35.1308 201.273 35.1279 201.381 35.1228C201.488 35.1178 201.575 35.1091 201.639 35.0983V34.1845C201.59 34.1737 201.518 34.1629 201.421 34.152C201.325 34.1412 201.235 34.1362 201.154 34.1362C201.041 34.1362 200.935 34.1427 200.836 34.1564C200.736 34.1701 200.649 34.1954 200.574 34.2329C200.498 34.2704 200.439 34.3217 200.396 34.3866C200.353 34.4516 200.331 34.5324 200.331 34.6291C200.331 34.8175 200.395 34.9482 200.521 35.0211C200.648 35.094 200.821 35.1308 201.042 35.1308Z" fill="#556850"/>
<path d="M205.941 36.0518C205.591 36.046 205.308 36.0084 205.089 35.9384C204.872 35.8684 204.699 35.7703 204.573 35.6432C204.446 35.5169 204.36 35.3632 204.315 35.1827C204.268 35.0023 204.246 34.7987 204.246 34.5721V29.8913L205.449 29.6971V34.3288C205.449 34.4371 205.457 34.5338 205.473 34.6197C205.489 34.7063 205.52 34.7785 205.566 34.8377C205.612 34.8969 205.678 34.946 205.764 34.9835C205.849 35.021 205.965 35.0456 206.111 35.0564L205.941 36.0518Z" fill="#556850"/>
<path d="M212.268 31.3392C211.682 31.3392 211.258 31.5023 210.997 31.8285C210.736 32.1548 210.606 32.6008 210.606 33.1667C210.606 33.4417 210.638 33.6907 210.702 33.9145C210.767 34.1382 210.864 34.331 210.993 34.4926C211.122 34.6543 211.283 34.7799 211.477 34.8687C211.671 34.9575 211.896 35.0022 212.155 35.0022C212.295 35.0022 212.414 34.9993 212.514 34.9943C212.613 34.9892 212.701 34.9784 212.776 34.9618V33.0137H214.035V35.7861C213.885 35.8453 213.642 35.9088 213.309 35.9759C212.975 36.043 212.564 36.077 212.074 36.077C211.654 36.077 211.273 36.012 210.931 35.8828C210.59 35.7536 210.298 35.5652 210.056 35.3169C209.814 35.0693 209.626 34.7648 209.495 34.4031C209.363 34.0422 209.298 33.6301 209.298 33.1667C209.298 32.6976 209.371 32.2832 209.515 31.9216C209.661 31.5607 209.86 31.2547 210.113 31.0042C210.366 30.7538 210.663 30.564 211.005 30.434C211.347 30.3048 211.711 30.2399 212.098 30.2399C212.362 30.2399 212.6 30.2572 212.812 30.2926C213.025 30.3279 213.208 30.3683 213.361 30.4138C213.515 30.46 213.641 30.5069 213.74 30.5553C213.84 30.6036 213.911 30.6419 213.954 30.6686L213.591 31.6791C213.419 31.5874 213.222 31.508 212.998 31.4409C212.776 31.3731 212.532 31.3392 212.268 31.3392Z" fill="#556850"/>
<path d="M219.459 33.8374C219.459 34.1715 219.411 34.4776 219.313 34.7547C219.217 35.0326 219.076 35.2694 218.894 35.4664C218.711 35.6635 218.492 35.815 218.236 35.9233C217.98 36.0309 217.694 36.085 217.376 36.085C217.064 36.085 216.78 36.0309 216.525 35.9233C216.269 35.8158 216.05 35.6635 215.867 35.4664C215.684 35.2701 215.541 35.0326 215.439 34.7547C215.336 34.4776 215.285 34.1715 215.285 33.8374C215.285 33.5032 215.338 33.1986 215.442 32.9236C215.547 32.6486 215.692 32.414 215.878 32.2206C216.064 32.0271 216.285 31.8755 216.54 31.768C216.795 31.6605 217.074 31.6063 217.375 31.6063C217.682 31.6063 217.963 31.6605 218.218 31.768C218.473 31.8755 218.693 32.0264 218.876 32.2206C219.059 32.4147 219.202 32.6493 219.304 32.9236C219.408 33.1986 219.459 33.5032 219.459 33.8374ZM218.232 33.8374C218.232 33.4656 218.158 33.1733 218.01 32.9604C217.862 32.7475 217.651 32.6414 217.376 32.6414C217.102 32.6414 216.889 32.7475 216.739 32.9604C216.588 33.1733 216.512 33.4656 216.512 33.8374C216.512 34.2091 216.587 34.5043 216.739 34.7223C216.889 34.9402 217.102 35.0499 217.376 35.0499C217.651 35.0499 217.862 34.941 218.01 34.7223C218.158 34.5043 218.232 34.2091 218.232 33.8374Z" fill="#556850"/>
<path d="M221.91 35.9708C221.634 35.4323 221.355 34.8015 221.071 34.079C220.788 33.3572 220.519 32.5705 220.265 31.7188H221.541C221.595 31.9288 221.658 32.1569 221.731 32.4016C221.804 32.647 221.879 32.8945 221.958 33.145C222.036 33.3955 222.114 33.6394 222.193 33.8769C222.271 34.1144 222.349 34.3295 222.424 34.5236C222.494 34.3295 222.57 34.1144 222.651 33.8769C222.732 33.6401 222.812 33.3962 222.89 33.145C222.969 32.8938 223.045 32.6462 223.117 32.4016C223.19 32.1562 223.254 31.9288 223.308 31.7188H224.552C224.298 32.5705 224.029 33.3572 223.746 34.079C223.463 34.8015 223.183 35.4316 222.908 35.9708H221.91Z" fill="#556850"/>
<path d="M225.35 33.8777C225.35 33.5002 225.408 33.1703 225.524 32.8874C225.64 32.6044 225.791 32.3691 225.98 32.18C226.168 31.9916 226.385 31.8487 226.63 31.7513C226.875 31.6545 227.126 31.6055 227.384 31.6055C227.987 31.6055 228.463 31.7902 228.813 32.1591C229.162 32.5286 229.337 33.0714 229.337 33.7882C229.337 33.8582 229.334 33.9354 229.329 34.0184C229.324 34.1021 229.318 34.1758 229.313 34.2407H226.586C226.613 34.4883 226.729 34.6853 226.933 34.8311C227.138 34.9769 227.412 35.0491 227.756 35.0491C227.977 35.0491 228.194 35.0289 228.406 34.9885C228.619 34.9481 228.792 34.8983 228.926 34.8391L229.088 35.8171C229.023 35.8496 228.937 35.8821 228.83 35.9138C228.723 35.9463 228.602 35.9744 228.471 35.999C228.339 36.0235 228.198 36.0437 228.047 36.0596C227.897 36.0755 227.746 36.0842 227.596 36.0842C227.214 36.0842 226.881 36.0279 226.599 35.9145C226.316 35.8012 226.082 35.6468 225.897 35.4497C225.711 35.2534 225.574 35.0202 225.486 34.7503C225.395 34.4811 225.35 34.1902 225.35 33.8777ZM228.175 33.4164C228.169 33.3139 228.152 33.2143 228.122 33.1176C228.093 33.0209 228.047 32.9343 227.985 32.8592C227.923 32.7841 227.846 32.7221 227.751 32.673C227.657 32.6246 227.54 32.6001 227.4 32.6001C227.265 32.6001 227.15 32.6232 227.053 32.6687C226.956 32.7141 226.876 32.7755 226.811 32.8506C226.746 32.9263 226.696 33.0137 226.662 33.1133C226.626 33.2129 226.601 33.3139 226.585 33.4164H228.175Z" fill="#556850"/>
<path d="M233.187 32.7863C233.079 32.7596 232.952 32.7315 232.808 32.7011C232.662 32.6715 232.506 32.6564 232.339 32.6564C232.263 32.6564 232.173 32.6629 232.069 32.6766C231.964 32.6903 231.884 32.7047 231.831 32.7213V35.9708H230.628V31.9454C230.844 31.8704 231.098 31.7989 231.391 31.7311C231.684 31.6639 232.011 31.63 232.372 31.63C232.436 31.63 232.514 31.6343 232.606 31.6423C232.697 31.6502 232.789 31.661 232.88 31.6748C232.972 31.6885 233.063 31.7043 233.155 31.7231C233.246 31.7419 233.324 31.765 233.389 31.7917L233.187 32.7863Z" fill="#556850"/>
<path d="M234.397 31.8646C234.602 31.8054 234.866 31.7505 235.189 31.6986C235.512 31.6473 235.85 31.6221 236.205 31.6221C236.566 31.6221 236.866 31.6697 237.106 31.7635C237.345 31.8581 237.534 31.9916 237.675 32.1634C237.815 32.3359 237.914 32.5409 237.973 32.7777C238.032 33.0151 238.062 33.2786 238.062 33.5702V35.9708H236.859V33.7153C236.859 33.3269 236.808 33.0527 236.706 32.891C236.603 32.7293 236.412 32.6485 236.133 32.6485C236.046 32.6485 235.955 32.6528 235.858 32.6607C235.762 32.6687 235.675 32.678 235.6 32.6889V35.9708H234.397V31.8646Z" fill="#556850"/>
<path d="M241.846 33.716C241.846 33.3277 241.796 33.0534 241.697 32.8917C241.598 32.73 241.427 32.6492 241.185 32.6492C241.109 32.6492 241.031 32.6535 240.951 32.6614C240.87 32.6694 240.792 32.6788 240.716 32.6896V35.9716H239.514V31.8653C239.616 31.8386 239.736 31.8105 239.873 31.7801C240.009 31.7505 240.155 31.7238 240.308 31.6993C240.462 31.6748 240.619 31.656 240.78 31.643C240.942 31.6293 241.1 31.6228 241.257 31.6228C241.564 31.6228 241.812 31.6618 242.003 31.7397C242.194 31.8177 242.351 31.9108 242.475 32.0183C242.647 31.8942 242.845 31.7975 243.068 31.7275C243.292 31.6574 243.497 31.6221 243.686 31.6221C244.025 31.6221 244.303 31.6697 244.521 31.7635C244.739 31.8581 244.912 31.9916 245.041 32.1634C245.17 32.3359 245.259 32.5409 245.308 32.7777C245.356 33.0151 245.381 33.2786 245.381 33.5702V35.9708H244.178V33.7153C244.178 33.3269 244.128 33.0527 244.029 32.891C243.929 32.7293 243.759 32.6485 243.516 32.6485C243.452 32.6485 243.362 32.6643 243.246 32.6968C243.13 32.7293 243.035 32.7697 242.959 32.8181C242.997 32.9422 243.021 33.0729 243.032 33.21C243.043 33.3471 243.048 33.4944 243.048 33.6503V35.9701H241.845L241.846 33.716Z" fill="#556850"/>
<path d="M246.632 33.8777C246.632 33.5002 246.689 33.1703 246.806 32.8874C246.922 32.6044 247.073 32.3691 247.262 32.18C247.45 31.9916 247.667 31.8487 247.912 31.7513C248.157 31.6545 248.408 31.6055 248.666 31.6055C249.268 31.6055 249.745 31.7902 250.094 32.1591C250.444 32.5286 250.619 33.0714 250.619 33.7882C250.619 33.8582 250.616 33.9354 250.611 34.0184C250.605 34.1021 250.6 34.1758 250.595 34.2407H247.868C247.894 34.4883 248.01 34.6853 248.215 34.8311C248.42 34.9769 248.693 35.0491 249.038 35.0491C249.258 35.0491 249.475 35.0289 249.688 34.9885C249.9 34.9481 250.074 34.8983 250.208 34.8391L250.369 35.8171C250.305 35.8496 250.219 35.8821 250.111 35.9138C250.004 35.9463 249.884 35.9744 249.753 35.999C249.621 36.0235 249.48 36.0437 249.329 36.0596C249.178 36.0755 249.028 36.0842 248.877 36.0842C248.495 36.0842 248.163 36.0279 247.881 35.9145C247.598 35.8012 247.364 35.6468 247.179 35.4497C246.993 35.2534 246.856 35.0202 246.767 34.7503C246.677 34.4811 246.632 34.1902 246.632 33.8777ZM249.456 33.4164C249.451 33.3139 249.433 33.2143 249.404 33.1176C249.374 33.0209 249.328 32.9343 249.267 32.8592C249.205 32.7841 249.127 32.7221 249.033 32.673C248.938 32.6246 248.822 32.6001 248.682 32.6001C248.547 32.6001 248.432 32.6232 248.335 32.6687C248.238 32.7141 248.157 32.7755 248.092 32.8506C248.028 32.9263 247.978 33.0137 247.943 33.1133C247.908 33.2129 247.883 33.3139 247.867 33.4164H249.456Z" fill="#556850"/>
<path d="M251.91 31.8646C252.115 31.8054 252.379 31.7505 252.701 31.6986C253.024 31.6473 253.363 31.6221 253.718 31.6221C254.078 31.6221 254.378 31.6697 254.618 31.7635C254.857 31.8581 255.047 31.9916 255.187 32.1634C255.327 32.3359 255.427 32.5409 255.486 32.7777C255.545 33.0151 255.574 33.2786 255.574 33.5702V35.9708H254.372V33.7153C254.372 33.3269 254.321 33.0527 254.218 32.891C254.116 32.7293 253.925 32.6485 253.645 32.6485C253.559 32.6485 253.468 32.6528 253.371 32.6607C253.274 32.6687 253.188 32.678 253.113 32.6889V35.9708H251.91V31.8646Z" fill="#556850"/>
<path d="M256.986 30.66L258.189 30.4658V31.7188H259.634V32.7214H258.189V34.2169C258.189 34.4703 258.234 34.6724 258.322 34.8233C258.411 34.9741 258.59 35.0499 258.859 35.0499C258.988 35.0499 259.122 35.0376 259.259 35.0138C259.396 34.9893 259.521 34.9561 259.634 34.9128L259.803 35.8504C259.658 35.9095 259.496 35.9608 259.319 36.0041C259.142 36.0474 258.923 36.0691 258.665 36.0691C258.338 36.0691 258.065 36.0243 257.85 35.9355C257.635 35.8467 257.463 35.7226 257.334 35.5638C257.205 35.405 257.115 35.2123 257.063 34.9857C257.012 34.759 256.987 34.5086 256.987 34.2335V30.66H256.986Z" fill="#556850"/>
<path d="M30.2276 18.3343L31.9138 16.6453V15.9747C31.9138 14.9902 31.8295 14.0317 31.6623 13.0999L26.417 18.3537L30.2276 18.3343Z" fill="#EF8271"/>
<path d="M30.6595 9.75867C30.5241 9.44541 30.3807 9.13937 30.2301 8.83911L23.9038 15.1757C23.929 15.4384 23.9413 15.7047 23.9413 15.9747V18.3667L24.5113 18.3638L31.3038 11.5602C31.1272 10.9482 30.9132 10.3469 30.6595 9.75867Z" fill="#EF8271"/>
<path d="M27.9438 5.43372L22.2827 11.1041C22.6927 11.6382 23.0379 12.2257 23.3161 12.8681C23.4191 13.1063 23.5085 13.3488 23.5863 13.5957L29.553 7.61929C29.0766 6.84192 28.5405 6.11364 27.9438 5.43372Z" fill="#EF8271"/>
<path d="M24.923 2.76465L19.0767 8.62051C19.9421 8.99512 20.7096 9.49315 21.3783 10.1117L27.0171 4.46374C26.3671 3.83795 25.6695 3.27134 24.923 2.76465Z" fill="#EF8271"/>
<path d="M22.1771 1.26104C21.8355 1.1138 21.4897 0.980269 21.1402 0.859009L14.0205 7.99027H15.9705C16.5441 7.99027 17.1004 8.04801 17.6387 8.16277L23.7509 2.04057C23.2458 1.75691 22.7212 1.49635 22.1771 1.26104Z" fill="#EF8271"/>
<path d="M16.2996 0.0117188L8.33398 7.99036H11.9853H12.1244L19.6713 0.431799C18.5847 0.174121 17.4605 0.0340941 16.2996 0.0117188Z" fill="#EF8271"/>
<path d="M10.6172 0.00805664L2.64795 7.9903H4.01351H6.43836L14.4076 0.00805664H10.6172Z" fill="#EF8271"/>
<path d="M4.93113 0.00805664L0.0288086 4.91837V7.9903H0.752302L8.72227 0.00805664H4.93113Z" fill="#EF8271"/>
<path d="M0.0288086 0.00805664V3.02007L3.03592 0.00805664H0.0288086Z" fill="#EF8271"/>
<path d="M48.627 40.0001H51.0093V37.6146L48.627 40.0001Z" fill="#6D5F58"/>
<path d="M50.9545 32.0149L42.9824 40H46.7454L51.0093 35.7299V32.0149H50.9545Z" fill="#6D5F58"/>
<path d="M47.0243 32.0149H46.0047H45.31L37.3379 40H41.1009L49.0723 32.0149H47.0243Z" fill="#6D5F58"/>
<path d="M42.24 32.0149H40.3578H39.6653L35.0664 36.6213V40H35.4563L43.4283 32.0149H42.24Z" fill="#6D5F58"/>
<path d="M35.0664 32.0149V34.736L37.783 32.0149H35.0664Z" fill="#6D5F58"/>
<path d="M3.98711 31.9268H3.96045V31.9577H3.98711V31.9268Z" fill="#1D1D1B"/>
<path d="M102.222 39.9467V31.958C101.121 31.958 100.18 31.5704 99.4017 30.7901C98.622 30.0099 98.2357 29.0679 98.2357 27.965V11.9897C98.2357 10.8876 98.622 9.94418 99.4017 9.16465C100.181 8.38729 101.121 7.99463 102.222 7.99463H110.198C111.298 7.99463 112.237 8.38729 113.016 9.16465C113.795 9.9449 114.184 10.8876 114.184 11.9897V13.9862H122.159V11.9897C122.159 10.3556 121.844 8.8052 121.219 7.33997C120.593 5.87474 119.738 4.60007 118.656 3.51666C117.573 2.43182 116.3 1.57722 114.84 0.949267C113.378 0.322034 111.829 0.00805664 110.198 0.00805664H102.222C100.551 0.00805664 98.9931 0.322034 97.5519 0.949267C96.1078 1.57794 94.8453 2.43182 93.7622 3.51666C92.6798 4.60079 91.8266 5.87547 91.2011 7.33997C90.5735 8.8052 90.2607 10.3556 90.2607 11.9897V27.965C90.2607 29.6389 90.5735 31.1994 91.2011 32.6429C91.8273 34.0894 92.6806 35.354 93.7622 36.4388C94.8453 37.5229 96.1078 38.3775 97.5519 39.0041C98.9931 39.6335 100.55 39.9467 102.222 39.9467Z" fill="#838C7A"/>
<path d="M3.98633 29.2836H11.9361V26.3387H9.26912V23.6724H11.9361V18.3428H9.27921V21.0004H3.98633V29.2836Z" fill="#EF8271"/>
<path d="M17.263 18.3342H14.6011V21.0005H17.263V18.3342Z" fill="#F4AB99"/>
<path d="M35.0635 0V0.00866151V7.98585H51.0113V0.00866151V0H35.0635Z" fill="#6D5F58"/>
<path d="M36.3894 21.0002H33.7275V23.6665H36.3894V21.0002Z" fill="#9B8F89"/>
<path d="M47.026 23.6724V10.6543H39.0494V23.6717H36.3896V26.3387H39.0494V32.0127H47.026V26.3387H44.3633V23.6724H47.026Z" fill="#9B8F89"/>
<path d="M52.1278 18.3342H49.4658V21.0005H52.1278V18.3342Z" fill="#9B8F89"/>
<path d="M74.5376 0.969477V2.85406V6.62396V7.99247V7.99463C75.638 7.99463 76.5769 8.38728 77.3559 9.16465C78.1349 9.9449 78.524 10.8868 78.524 11.9897V13.9862H86.4997V11.9897C86.4997 10.3549 86.1841 8.80448 85.5586 7.33925C84.9331 5.87402 84.0778 4.60007 82.9954 3.51594C81.9131 2.43182 80.6405 1.57722 79.1805 0.948545C77.7177 0.321312 76.1698 0.00805664 74.5376 0.00805664V0.00950025V0.969477Z" fill="#F4AC70"/>
<path d="M78.5227 18.3789V26.3676H78.5241V27.965C78.5241 29.0679 78.135 30.0105 77.356 30.79C76.5763 31.5703 75.6381 31.9579 74.537 31.9579H66.562C65.4616 31.9579 64.5205 31.5703 63.7415 30.79C62.9625 30.0098 62.5756 29.0679 62.5756 27.965L62.5777 19.9777L62.5785 18.6027V18.3789H59.0388H57.1573H54.6092H54.6035L54.6006 27.965C54.6006 29.6388 54.9133 31.1993 55.541 32.6429C56.1665 34.0886 57.0197 35.3539 58.102 36.4387C59.1844 37.5229 60.4476 38.3775 61.891 39.004C63.3329 39.6334 64.8909 39.9466 66.5613 39.9466H74.537C76.1691 39.9466 77.717 39.6334 79.1799 39.004C80.6398 38.3775 81.9124 37.5229 82.9948 36.4387C84.0771 35.3539 84.9325 34.0886 85.558 32.6429C86.1842 31.1986 86.4991 29.6388 86.4991 27.965V18.3789H78.5227Z" fill="#F4AC70"/>
<path d="M75.8609 26.3676V18.3789H73.1976V21.0452H70.5357V18.3789H65.2378V23.7014H70.5623V26.3676H75.8609Z" fill="#ED8532"/>
<path d="M100.898 18.3789V21.0351H103.559H106.221V23.7014H103.559V26.3676H111.522V26.359V18.3789H100.898Z" fill="#556850"/>
<path d="M31.8986 18.3342H30.716H29.1235H25.3324H23.943H19.9249V21.0005H17.263V23.6668V26.3388H22.5868H23.5294C23.4516 26.5857 23.4011 26.8412 23.2974 27.0808C22.878 28.0516 22.308 28.8983 21.5873 29.6208C20.8667 30.3426 20.0207 30.9135 19.0544 31.3322C18.0852 31.7522 17.0489 31.9587 15.9478 31.9587H3.9857H3.95904H0V39.9474H15.9486C18.1507 39.9474 20.2211 39.5295 22.1581 38.6915C24.0951 37.8564 25.7835 36.716 27.2276 35.2695C28.6717 33.8238 29.8095 32.1312 30.6461 30.1925C31.1744 28.9647 31.5166 27.6777 31.7105 26.3439C31.8243 25.5694 31.9187 23.9728 31.9187 23.9728V18.335L31.8986 18.3342Z" fill="#F4AB99"/>
<path d="M62.4687 18.3889L62.5775 18.2799V14.5107L58.71 18.3846L62.4687 18.3889Z" fill="#ED8532"/>
<path d="M72.8502 7.99006L74.5335 6.30396V2.53479L69.0879 7.99006H72.8502Z" fill="#ED8532"/>
<path d="M62.5774 11.9837C62.5774 10.8815 62.9643 9.93959 63.7426 9.15934C64.5208 8.38198 65.4612 7.99005 66.5623 7.99005H67.2066L74.5345 0.650192V0.00708008H71.4135L54.606 16.842V18.3802L56.8305 18.3823L62.5774 12.6261V11.9837Z" fill="#ED8532"/>
<path d="M66.5623 0.0078125C66.2856 0.0078125 66.0125 0.0171957 65.7423 0.0345186L54.6333 11.1609C54.6153 11.433 54.606 11.7065 54.606 11.9837V14.9575L69.5313 0.0078125H66.5623Z" fill="#ED8532"/>
<path d="M61.8942 0.946879C60.4508 1.57556 59.1883 2.42943 58.1066 3.51355C57.025 4.59768 56.1725 5.87091 55.547 7.33542C55.3272 7.84788 55.1471 8.3719 55.0044 8.9053L63.5047 0.390381C62.9527 0.534738 62.4159 0.720238 61.8942 0.946879Z" fill="#ED8532"/>
<path d="M114.837 39.0045C116.297 38.378 117.568 37.5242 118.651 36.4408C119.733 35.3574 120.588 34.0928 121.213 32.6471C121.425 32.1577 121.601 31.6539 121.741 31.1378L113.372 39.5213C113.869 39.382 114.357 39.211 114.837 39.0045Z" fill="#556850"/>
<path d="M122.153 27.9707V25.0706L107.301 39.9466H110.197C110.499 39.9466 110.8 39.9357 111.097 39.9141L122.121 28.8715C122.143 28.5748 122.153 28.2746 122.153 27.9707Z" fill="#556850"/>
<path d="M122.153 19.4174L114.181 27.4018V27.9705C114.181 29.0727 113.792 30.0146 113.014 30.7949C112.236 31.5744 111.298 31.962 110.197 31.962H109.629L102.225 39.3784V39.9471H105.42L122.154 23.1865L122.153 19.4174Z" fill="#556850"/>
<path d="M103.985 31.9622L102.225 33.7248V37.4932L107.748 31.9622H103.985Z" fill="#556850"/>
<path d="M117.517 18.407L114.182 21.7481V25.5173L121.28 18.407H117.517Z" fill="#556850"/>
<path d="M114.182 18.407V19.8643L115.636 18.407H114.182Z" fill="#556850"/>
</g>
</g>
<defs>
<clipPath id="clip0_1102_8034">
<rect width="260" height="40" fill="white"/>
</clipPath>
</defs>
</svg>
