<svg xmlns="http://www.w3.org/2000/svg" width="228" height="44" viewBox="0 0 228 44" >
  <defs>
    <style>
      .cls-1 {
        fill: #6d6059;
      }

      .cls-1, .cls-2, .cls-3, .cls-4, .cls-5, .cls-6, .cls-7, .cls-8 {
        stroke-width: 0px;
      }

      .cls-2 {
        fill: #fde4ce;
      }

      .cls-3 {
        fill: #546850;
      }

      .cls-4 {
        fill: #baafaa;
      }

      .cls-5 {
        fill: #f18732;
      }

      .cls-6 {
        fill: #f08371;
      }

      .cls-7 {
        fill: #848d7a;
      }

      .cls-8 {
        fill: #1d1d1b;
      }
    </style>
  </defs>
  <path class="cls-8" d="M333.43,49.87c-.13-.04-.31-.07-.53-.1-.21-.04-.51-.06-.88-.06-.7,0-1.24.23-1.62.69-.37.46-.56,1.06-.56,1.82,0,.42.05.78.15,1.08.11.3.26.55.43.74.19.2.4.34.63.43.24.09.49.14.74.14.35,0,.66-.05.95-.14.29-.1.52-.22.69-.35v-4.26ZM333.44,55.27c-.11.07-.33.17-.66.29-.32.11-.69.17-1.12.17s-.85-.07-1.25-.21c-.38-.14-.72-.35-1.01-.64-.29-.3-.52-.67-.69-1.11s-.25-.96-.25-1.57c0-.53.08-1.02.24-1.46.16-.45.39-.83.69-1.15.31-.33.68-.58,1.12-.76.44-.19.93-.28,1.48-.28.61,0,1.13.05,1.58.14.46.08.84.16,1.15.24v6.5c0,1.12-.29,1.93-.87,2.44-.58.5-1.46.76-2.63.76-.46,0-.89-.04-1.3-.11-.4-.07-.75-.16-1.05-.27l.24-1.13c.26.1.58.19.95.27.38.08.78.13,1.19.13.77,0,1.33-.15,1.67-.46.35-.31.52-.8.52-1.47v-.31ZM320.84,48.93c.3-.07.7-.15,1.19-.24s1.06-.13,1.71-.13c.58,0,1.06.08,1.44.25.38.16.69.39.91.69.23.29.4.64.49,1.05s.14.86.14,1.36v4.09h-1.3v-3.81c0-.45-.03-.83-.1-1.15-.06-.32-.15-.57-.29-.77s-.33-.34-.56-.42c-.23-.09-.52-.14-.87-.14-.14,0-.28,0-.43.01s-.29.02-.43.04c-.13,0-.25.02-.36.04-.1.02-.18.03-.22.04v6.15h-1.3v-7.07ZM317.94,47.4c-.23,0-.43-.07-.6-.22-.16-.16-.24-.37-.24-.63s.08-.47.24-.62c.17-.16.37-.24.6-.24s.43.08.59.24c.17.15.25.35.25.62s-.08.47-.25.63c-.16.15-.35.22-.59.22ZM318.6,56h-1.3v-7.28h1.3v7.28ZM309.26,48.93c.3-.07.7-.15,1.19-.24.49-.08,1.06-.13,1.71-.13.58,0,1.06.08,1.44.25.38.16.69.39.91.69.23.29.4.64.49,1.05.09.41.14.86.14,1.36v4.09h-1.3v-3.81c0-.45-.03-.83-.1-1.15-.06-.32-.15-.57-.29-.77s-.33-.34-.56-.42c-.23-.09-.52-.14-.87-.14-.14,0-.28,0-.43.01-.15,0-.29.02-.43.04-.13,0-.25.02-.36.04-.1.02-.18.03-.22.04v6.15h-1.3v-7.07ZM304.84,48.72h2.76v1.09h-2.76v3.36c0,.36.03.67.08.91.06.23.14.42.25.56.11.13.25.22.42.28s.36.08.59.08c.39,0,.7-.04.94-.13.24-.09.41-.16.5-.2l.25,1.08c-.13.07-.36.14-.69.24-.33.1-.7.15-1.12.15-.49,0-.91-.06-1.23-.18-.32-.13-.57-.32-.77-.57s-.34-.56-.42-.92c-.07-.37-.11-.8-.11-1.29v-6.5l1.3-.22v2.25ZM301.98,56.14c-.8-.02-1.37-.19-1.71-.52s-.5-.84-.5-1.53v-8.74l1.3-.22v8.75c0,.21.02.39.06.53.04.14.1.25.18.34s.2.15.34.2c.14.04.31.07.52.1l-.18,1.09ZM294.83,48.54c.52,0,.96.07,1.32.21.36.13.65.32.87.57.22.24.38.54.48.88.09.34.14.71.14,1.12v4.55c-.11.02-.27.05-.48.08-.2.03-.42.06-.67.08s-.53.05-.83.07c-.29.03-.58.04-.87.04-.41,0-.79-.04-1.13-.13-.35-.08-.64-.21-.9-.39-.25-.19-.45-.43-.59-.73s-.21-.66-.21-1.08.08-.75.24-1.04c.17-.29.39-.52.67-.7s.61-.31.98-.39c.37-.08.77-.13,1.18-.13.13,0,.27,0,.41.03.14,0,.27.03.39.06.13.02.24.04.34.06.09.02.16.03.2.04v-.36c0-.21-.02-.42-.07-.63-.05-.21-.13-.4-.25-.56-.12-.17-.29-.3-.5-.39-.21-.1-.48-.15-.81-.15-.43,0-.81.03-1.13.1-.32.06-.56.12-.71.18l-.15-1.08c.17-.07.45-.14.84-.21.39-.07.82-.11,1.27-.11ZM294.95,55.06c.31,0,.58,0,.81-.01.24-.02.44-.05.6-.08v-2.17c-.09-.05-.25-.08-.46-.11-.21-.04-.46-.06-.76-.06-.2,0-.41.01-.63.04-.21.03-.42.09-.6.18-.18.08-.33.21-.45.36-.12.15-.18.35-.18.6,0,.47.15.79.45.98.3.18.7.27,1.22.27ZM291.14,48.72c-.36,1.36-.79,2.67-1.29,3.92-.49,1.25-.96,2.37-1.41,3.36h-1.18c-.46-.99-.93-2.11-1.43-3.36-.49-1.25-.91-2.56-1.27-3.92h1.4c.11.46.24.95.39,1.47.16.51.32,1.03.49,1.54.18.5.35.99.53,1.47.18.48.35.9.5,1.27.16-.37.33-.8.5-1.27.18-.48.35-.97.52-1.47.18-.51.34-1.03.49-1.54.16-.52.29-1.01.41-1.47h1.34ZM282.44,48.57c.11,0,.24,0,.38.03.15,0,.29.03.43.06.14.02.27.04.38.07.12.02.21.04.27.06l-.22,1.13c-.1-.04-.28-.08-.52-.13-.23-.06-.54-.08-.91-.08-.24,0-.49.03-.73.08-.23.05-.39.08-.46.1v6.12h-1.3v-6.97c.31-.11.69-.21,1.15-.31.46-.1.97-.15,1.54-.15ZM275.83,47.38c-.21,0-.41-.07-.57-.22-.16-.16-.24-.36-.24-.6s.08-.44.24-.59c.17-.16.36-.24.57-.24s.4.08.56.24c.17.15.25.35.25.59s-.08.44-.25.6c-.16.15-.35.22-.56.22ZM273.17,47.38c-.21,0-.41-.07-.57-.22-.16-.16-.24-.36-.24-.6s.08-.44.24-.59c.17-.16.36-.24.57-.24s.4.08.56.24c.17.15.25.35.25.59s-.08.44-.25.6c-.16.15-.35.22-.56.22ZM276.56,52.36c0-.82-.19-1.47-.56-1.95-.36-.49-.86-.73-1.5-.73s-1.14.24-1.51.73c-.36.48-.55,1.12-.55,1.95s.18,1.47.55,1.96c.37.48.88.71,1.51.71s1.13-.24,1.5-.71c.37-.49.56-1.14.56-1.96ZM277.92,52.36c0,.58-.08,1.1-.25,1.57s-.41.87-.71,1.2c-.3.34-.66.6-1.08.78-.42.18-.88.27-1.37.27s-.95-.09-1.37-.27c-.42-.19-.78-.45-1.09-.78-.3-.34-.53-.74-.7-1.2s-.25-.99-.25-1.57.08-1.09.25-1.55c.17-.48.4-.88.7-1.22.31-.34.67-.59,1.09-.77.42-.19.88-.28,1.37-.28s.95.09,1.37.28c.42.18.78.43,1.08.77.31.34.55.74.71,1.22.17.47.25.98.25,1.55ZM268.94,45.14c.38,0,.71.03.98.08.28.06.48.11.59.15l-.24,1.12c-.11-.06-.27-.11-.48-.15-.21-.06-.46-.08-.76-.08-.61,0-1.03.17-1.27.5-.24.33-.36.77-.36,1.33v.63h2.8v1.09h-2.8v6.19h-1.3v-7.94c0-.93.23-1.65.69-2.16.46-.51,1.18-.77,2.16-.77ZM261.21,56.14c-.8-.02-1.37-.19-1.71-.52-.34-.33-.5-.84-.5-1.53v-8.74l1.3-.22v8.75c0,.21.02.39.06.53.04.14.1.25.18.34.08.08.2.15.34.2.14.04.31.07.52.1l-.18,1.09ZM254.06,48.54c.52,0,.96.07,1.32.21.36.13.65.32.87.57.22.24.38.54.48.88.09.34.14.71.14,1.12v4.55c-.11.02-.27.05-.48.08-.2.03-.42.06-.67.08s-.53.05-.83.07c-.29.03-.58.04-.87.04-.41,0-.79-.04-1.13-.13-.35-.08-.64-.21-.9-.39-.25-.19-.45-.43-.59-.73s-.21-.66-.21-1.08.08-.75.24-1.04c.17-.29.39-.52.67-.7s.61-.31.98-.39c.37-.08.77-.13,1.18-.13.13,0,.27,0,.41.03.14,0,.27.03.39.06.13.02.24.04.34.06.09.02.16.03.2.04v-.36c0-.21-.02-.42-.07-.63-.05-.21-.13-.4-.25-.56-.12-.17-.29-.3-.5-.39-.21-.1-.48-.15-.81-.15-.43,0-.81.03-1.13.1-.32.06-.56.12-.71.18l-.15-1.08c.17-.07.45-.14.84-.21.39-.07.82-.11,1.27-.11ZM254.18,55.06c.31,0,.58,0,.81-.01.24-.02.44-.05.6-.08v-2.17c-.09-.05-.25-.08-.46-.11-.21-.04-.46-.06-.76-.06-.2,0-.41.01-.63.04-.21.03-.42.09-.6.18-.18.08-.33.21-.45.36-.12.15-.18.35-.18.6,0,.47.15.79.45.98.3.18.7.27,1.22.27ZM247.3,48.72h2.76v1.09h-2.76v3.36c0,.36.03.67.08.91.06.23.14.42.25.56.11.13.25.22.42.28s.36.08.59.08c.39,0,.7-.04.94-.13.24-.09.41-.16.5-.2l.25,1.08c-.13.07-.36.14-.69.24-.33.1-.7.15-1.12.15-.49,0-.91-.06-1.23-.18-.32-.13-.57-.32-.77-.57s-.34-.56-.42-.92c-.07-.37-.11-.8-.11-1.29v-6.5l1.3-.22v2.25ZM243.18,47.4c-.23,0-.43-.07-.6-.22-.16-.16-.24-.37-.24-.63s.08-.47.24-.62c.17-.16.37-.24.6-.24s.43.08.59.24c.17.15.25.35.25.62s-.08.47-.25.63c-.16.15-.35.22-.59.22ZM243.84,56h-1.3v-7.28h1.3v7.28ZM238.99,49.87c-.13-.04-.31-.07-.53-.1-.21-.04-.51-.06-.88-.06-.7,0-1.24.23-1.62.69-.37.46-.56,1.06-.56,1.82,0,.42.05.78.15,1.08.11.3.26.55.43.74.19.2.4.34.63.43.24.09.49.14.74.14.35,0,.66-.05.95-.14.29-.1.52-.22.69-.35v-4.26ZM239.01,55.27c-.11.07-.33.17-.66.29-.32.11-.69.17-1.12.17s-.85-.07-1.25-.21c-.38-.14-.72-.35-1.01-.64-.29-.3-.52-.67-.69-1.11s-.25-.96-.25-1.57c0-.53.08-1.02.24-1.46.16-.45.39-.83.69-1.15.31-.33.68-.58,1.12-.76.44-.19.93-.28,1.48-.28.61,0,1.13.05,1.58.14.46.08.84.16,1.15.24v6.5c0,1.12-.29,1.93-.87,2.44s-1.46.76-2.63.76c-.46,0-.89-.04-1.3-.11-.4-.07-.75-.16-1.05-.27l.24-1.13c.26.1.58.19.95.27.38.08.78.13,1.19.13.77,0,1.33-.15,1.67-.46.35-.31.52-.8.52-1.47v-.31ZM231.55,47.4c-.23,0-.43-.07-.6-.22-.16-.16-.24-.37-.24-.63s.08-.47.24-.62c.17-.16.37-.24.6-.24s.43.08.59.24c.17.15.25.35.25.62s-.08.47-.25.63c-.16.15-.35.22-.59.22ZM232.21,56h-1.3v-7.28h1.3v7.28ZM227.36,45.36l1.3-.22v10.65c-.3.08-.68.17-1.15.25-.47.08-1,.13-1.61.13-.56,0-1.06-.09-1.51-.27s-.83-.43-1.15-.76c-.32-.33-.56-.72-.74-1.19-.17-.48-.25-1.01-.25-1.6s.07-1.07.21-1.54c.15-.47.36-.87.64-1.2s.62-.6,1.02-.78c.41-.19.88-.28,1.4-.28.42,0,.79.06,1.11.17.33.11.57.22.73.32v-3.68ZM227.36,50.26c-.16-.13-.39-.26-.69-.38-.3-.12-.63-.18-.98-.18-.37,0-.7.07-.97.21-.26.13-.48.32-.64.56-.17.23-.29.51-.36.84-.07.33-.11.68-.11,1.05,0,.85.21,1.51.63,1.97.42.46.98.69,1.68.69.35,0,.65-.01.88-.04.24-.04.43-.07.56-.11v-4.61ZM216.71,48.57c.11,0,.24,0,.38.03.15,0,.29.03.43.06.14.02.27.04.38.07.12.02.21.04.27.06l-.22,1.13c-.1-.04-.28-.08-.52-.13-.23-.06-.54-.08-.91-.08-.24,0-.49.03-.73.08-.23.05-.39.08-.46.1v6.12h-1.3v-6.97c.31-.11.69-.21,1.15-.31.46-.1.97-.15,1.54-.15ZM210.1,47.38c-.21,0-.41-.07-.57-.22-.16-.16-.24-.36-.24-.6s.08-.44.24-.59c.17-.16.36-.24.57-.24s.4.08.56.24c.17.15.25.35.25.59s-.08.44-.25.6c-.16.15-.35.22-.56.22ZM207.44,47.38c-.21,0-.41-.07-.57-.22-.16-.16-.24-.36-.24-.6s.08-.44.24-.59c.17-.16.36-.24.57-.24s.4.08.56.24c.17.15.25.35.25.59s-.08.44-.25.6c-.16.15-.35.22-.56.22ZM210.83,52.36c0-.82-.19-1.47-.56-1.95-.36-.49-.86-.73-1.5-.73s-1.14.24-1.51.73c-.36.48-.55,1.12-.55,1.95s.18,1.47.55,1.96c.37.48.88.71,1.51.71s1.13-.24,1.5-.71c.37-.49.56-1.14.56-1.96ZM212.19,52.36c0,.58-.08,1.1-.25,1.57s-.41.87-.71,1.2c-.3.34-.66.6-1.08.78-.42.18-.88.27-1.37.27s-.95-.09-1.37-.27c-.42-.19-.78-.45-1.09-.78-.3-.34-.53-.74-.7-1.2s-.25-.99-.25-1.57.08-1.09.25-1.55c.17-.48.4-.88.7-1.22.31-.34.67-.59,1.09-.77.42-.19.88-.28,1.37-.28s.95.09,1.37.28c.42.18.78.43,1.08.77.31.34.55.74.71,1.22.17.47.25.98.25,1.55ZM203.2,45.14c.38,0,.71.03.98.08.28.06.48.11.59.15l-.24,1.12c-.11-.06-.27-.11-.48-.15-.21-.06-.46-.08-.76-.08-.61,0-1.03.17-1.27.5-.24.33-.36.77-.36,1.33v.63h2.8v1.09h-2.8v6.19h-1.3v-7.94c0-.93.23-1.65.69-2.16.46-.51,1.18-.77,2.16-.77ZM189.08,48.93c.3-.07.7-.15,1.19-.24.49-.08,1.06-.13,1.71-.13.58,0,1.06.08,1.44.25.38.16.69.39.91.69.23.29.4.64.49,1.05.09.41.14.86.14,1.36v4.09h-1.3v-3.81c0-.45-.03-.83-.1-1.15-.06-.32-.15-.57-.29-.77s-.33-.34-.56-.42c-.23-.09-.52-.14-.87-.14-.14,0-.28,0-.43.01-.15,0-.29.02-.43.04-.13,0-.25.02-.36.04-.1.02-.18.03-.22.04v6.15h-1.3v-7.07ZM185.85,51.66c0-.59-.14-1.07-.45-1.44-.3-.38-.71-.57-1.25-.57-.3,0-.56.06-.8.18-.22.11-.42.26-.57.45-.16.19-.28.4-.38.64-.08.24-.14.49-.17.74h3.61ZM180.85,52.37c0-.64.09-1.2.28-1.68.19-.49.43-.89.74-1.2s.66-.56,1.06-.71.81-.24,1.23-.24c.98,0,1.73.31,2.25.92.52.61.78,1.54.78,2.79v.22c0,.08,0,.16-.01.24h-4.98c.06.76.28,1.33.66,1.72.38.39.98.59,1.79.59.46,0,.84-.04,1.15-.11.32-.08.56-.16.71-.24l.18,1.09c-.16.08-.44.17-.84.27-.39.09-.84.14-1.34.14-.63,0-1.19-.09-1.65-.28-.46-.2-.84-.46-1.13-.8-.3-.34-.52-.73-.67-1.19-.14-.47-.21-.98-.21-1.53ZM176.98,48.72h2.76v1.09h-2.76v3.36c0,.36.03.67.08.91.06.23.14.42.25.56.11.13.25.22.42.28s.36.08.59.08c.39,0,.7-.04.94-.13.24-.09.41-.16.5-.2l.25,1.08c-.13.07-.36.14-.69.24-.33.1-.7.15-1.12.15-.49,0-.91-.06-1.23-.18-.32-.13-.57-.32-.77-.57s-.34-.56-.42-.92c-.07-.37-.11-.8-.11-1.29v-6.5l1.3-.22v2.25ZM172.54,51.66c0-.59-.14-1.07-.45-1.44-.3-.38-.71-.57-1.25-.57-.3,0-.56.06-.8.18-.22.11-.42.26-.57.45-.16.19-.28.4-.38.64-.08.24-.14.49-.17.74h3.61ZM167.54,52.37c0-.64.09-1.2.28-1.68.19-.49.43-.89.74-1.2s.66-.56,1.06-.71.81-.24,1.23-.24c.98,0,1.73.31,2.25.92.52.61.78,1.54.78,2.79v.22c0,.08,0,.16-.01.24h-4.98c.06.76.28,1.33.66,1.72.38.39.98.59,1.79.59.46,0,.84-.04,1.15-.11.32-.08.56-.16.71-.24l.18,1.09c-.16.08-.44.17-.84.27-.39.09-.84.14-1.34.14-.63,0-1.19-.09-1.65-.28-.46-.2-.84-.46-1.13-.8-.3-.34-.52-.73-.67-1.19-.14-.47-.21-.98-.21-1.53ZM159.95,56v-10.64l1.3-.22v3.72c.24-.09.5-.16.77-.21.28-.06.56-.08.83-.08.58,0,1.06.08,1.44.25.38.16.69.39.91.69.23.29.4.64.49,1.05.09.41.14.86.14,1.36v4.09h-1.3v-3.81c0-.45-.03-.83-.1-1.15-.06-.32-.15-.57-.29-.77s-.33-.34-.56-.42c-.23-.09-.52-.14-.87-.14-.14,0-.28,0-.43.03-.15.02-.29.04-.43.07-.13.02-.25.04-.36.07-.1.03-.18.05-.22.07v6.05h-1.3ZM156.4,49.87c-.13-.04-.31-.07-.53-.1-.21-.04-.51-.06-.88-.06-.7,0-1.24.23-1.62.69-.37.46-.56,1.06-.56,1.82,0,.42.05.78.15,1.08.11.3.26.55.43.74.19.2.4.34.63.43.24.09.49.14.74.14.35,0,.66-.05.95-.14.29-.1.52-.22.69-.35v-4.26ZM156.42,55.27c-.11.07-.33.17-.66.29-.32.11-.69.17-1.12.17s-.85-.07-1.25-.21c-.38-.14-.72-.35-1.01-.64-.29-.3-.52-.67-.69-1.11s-.25-.96-.25-1.57c0-.53.08-1.02.24-1.46.16-.45.39-.83.69-1.15.31-.33.68-.58,1.12-.76.44-.19.93-.28,1.48-.28.61,0,1.13.05,1.58.14.46.08.84.16,1.15.24v6.5c0,1.12-.29,1.93-.87,2.44-.58.5-1.46.76-2.63.76-.46,0-.89-.04-1.3-.11-.4-.07-.75-.16-1.05-.27l.24-1.13c.26.1.58.19.95.27.38.08.78.13,1.19.13.77,0,1.33-.15,1.67-.46.35-.31.52-.8.52-1.47v-.31ZM148.96,47.4c-.23,0-.43-.07-.6-.22-.16-.16-.24-.37-.24-.63s.08-.47.24-.62c.17-.16.37-.24.6-.24s.43.08.59.24c.17.15.25.35.25.62s-.08.47-.25.63c-.16.15-.35.22-.59.22ZM149.61,56h-1.3v-7.28h1.3v7.28ZM144.77,45.36l1.3-.22v10.65c-.3.08-.68.17-1.15.25-.47.08-1,.13-1.61.13-.56,0-1.06-.09-1.51-.27s-.83-.43-1.15-.76c-.32-.33-.56-.72-.74-1.19-.17-.48-.25-1.01-.25-1.6s.07-1.07.21-1.54c.15-.47.36-.87.64-1.2s.62-.6,1.02-.78c.41-.19.88-.28,1.4-.28.42,0,.79.06,1.11.17.33.11.57.22.73.32v-3.68ZM144.77,50.26c-.16-.13-.39-.26-.69-.38-.3-.12-.63-.18-.98-.18-.37,0-.7.07-.97.21-.26.13-.48.32-.64.56-.17.23-.29.51-.36.84-.07.33-.11.68-.11,1.05,0,.85.21,1.51.63,1.97.42.46.98.69,1.68.69.35,0,.65-.01.88-.04.24-.04.43-.07.56-.11v-4.61ZM132.03,48.93c.3-.07.7-.15,1.19-.24s1.06-.13,1.71-.13c.58,0,1.06.08,1.44.25.38.16.69.39.91.69.23.29.4.64.49,1.05s.14.86.14,1.36v4.09h-1.3v-3.81c0-.45-.03-.83-.1-1.15-.06-.32-.15-.57-.29-.77s-.33-.34-.56-.42c-.23-.09-.52-.14-.87-.14-.14,0-.28,0-.43.01s-.29.02-.43.04c-.13,0-.25.02-.36.04-.1.02-.18.03-.22.04v6.15h-1.3v-7.07ZM124.22,57.36c.1.05.23.09.39.13.17.05.33.07.49.07.51,0,.91-.12,1.2-.35.29-.22.55-.59.78-1.11-.59-1.12-1.14-2.31-1.65-3.56-.5-1.26-.92-2.53-1.26-3.82h1.4c.1.42.22.87.36,1.36.15.49.31.98.49,1.5.18.51.37,1.03.57,1.54s.42,1.01.64,1.48c.35-.98.66-1.95.92-2.91.26-.96.51-1.95.74-2.97h1.34c-.34,1.37-.71,2.69-1.12,3.96-.41,1.26-.85,2.44-1.33,3.54-.19.42-.38.78-.59,1.08-.2.31-.42.56-.66.76-.24.2-.52.34-.83.43-.3.09-.64.14-1.02.14-.1,0-.21,0-.32-.03-.11,0-.22-.03-.34-.06-.1-.02-.2-.04-.29-.07-.08-.03-.14-.05-.18-.07l.24-1.05ZM117.31,54.66c-.09-.22-.22-.51-.38-.85-.15-.35-.31-.72-.49-1.12s-.37-.81-.57-1.23c-.2-.43-.38-.83-.56-1.2-.18-.38-.35-.72-.5-1.02-.15-.3-.27-.53-.36-.69-.1,1.1-.19,2.3-.25,3.58-.07,1.28-.12,2.57-.17,3.88h-1.33c.04-.84.08-1.68.13-2.53.05-.86.1-1.7.15-2.52.07-.83.13-1.64.2-2.42.07-.78.15-1.53.24-2.23h1.19c.25.41.52.9.81,1.46s.58,1.15.87,1.76c.29.61.57,1.22.84,1.83.27.61.52,1.16.74,1.67.22-.5.47-1.06.74-1.67.27-.62.55-1.23.84-1.83.29-.62.58-1.2.87-1.76s.56-1.05.81-1.46h1.19c.32,3.13.56,6.36.71,9.7h-1.33c-.05-1.31-.1-2.6-.17-3.88-.07-1.29-.15-2.48-.25-3.58-.09.16-.22.39-.38.69-.15.3-.31.64-.49,1.02-.18.37-.37.77-.57,1.2-.2.42-.38.83-.56,1.23s-.35.77-.5,1.12c-.15.35-.27.63-.36.85h-1.09ZM73.85,54.89c1.29,0,2.25-.33,2.89-.98.63-.66.95-1.59.95-2.77s-.32-2.11-.95-2.76c-.63-.66-1.6-.99-2.89-.99-.38,0-.68,0-.9.01-.21,0-.35.02-.43.03v7.42c.08,0,.23.02.43.03.21,0,.51.01.9.01ZM79.13,51.13c0,.84-.13,1.57-.39,2.2-.26.62-.63,1.13-1.11,1.54-.48.4-1.05.7-1.71.91-.66.2-1.39.29-2.19.29-.39,0-.83-.02-1.3-.06-.47-.03-.89-.09-1.27-.18v-9.41c.38-.09.81-.15,1.27-.18.48-.04.91-.06,1.3-.06.79,0,1.52.1,2.19.31.66.2,1.23.5,1.71.91.48.4.85.92,1.11,1.54.26.62.39,1.34.39,2.19ZM81.18,47.61c-.23,0-.43-.07-.6-.22-.16-.16-.24-.37-.24-.63s.08-.47.24-.62c.17-.16.37-.24.6-.24s.43.08.59.24c.17.15.25.35.25.62s-.08.47-.25.63c-.16.15-.35.22-.59.22ZM81.84,56.21h-1.3v-7.28h1.3v7.28ZM88.37,49.87c-.13-.04-.31-.07-.53-.1-.21-.04-.51-.06-.88-.06-.7,0-1.24.23-1.62.69-.37.46-.56,1.06-.56,1.82,0,.42.05.78.15,1.08.11.3.26.55.43.74.19.2.4.34.63.43.24.09.49.14.74.14.35,0,.66-.05.95-.14.29-.1.52-.22.69-.35v-4.26ZM88.39,55.28c-.11.07-.33.17-.66.29-.32.11-.69.17-1.12.17s-.85-.07-1.25-.21c-.38-.14-.72-.35-1.01-.64-.29-.3-.52-.67-.69-1.11s-.25-.96-.25-1.57c0-.53.08-1.02.24-1.46.16-.45.39-.83.69-1.15.31-.33.68-.58,1.12-.76.44-.19.93-.28,1.48-.28.61,0,1.13.05,1.58.14.46.08.84.16,1.15.24v6.5c0,1.12-.29,1.93-.87,2.44-.58.5-1.46.76-2.63.76-.46,0-.89-.04-1.3-.11-.4-.07-.75-.16-1.05-.27l.24-1.13c.26.1.58.19.95.27.38.08.78.13,1.19.13.77,0,1.33-.15,1.67-.46.35-.31.52-.8.52-1.47v-.31ZM95.95,49.83c-.13-.04-.31-.07-.53-.1-.21-.04-.51-.06-.88-.06-.7,0-1.24.23-1.62.69-.37.46-.56,1.06-.56,1.82,0,.42.05.78.15,1.08.11.3.26.55.43.74.19.2.4.34.63.43.24.09.49.14.74.14.35,0,.66-.05.95-.14.29-.1.52-.22.69-.35v-4.26ZM95.96,55.24c-.11.07-.33.17-.66.29-.32.11-.69.17-1.12.17s-.85-.07-1.25-.21c-.38-.14-.72-.35-1.01-.64-.29-.3-.52-.67-.69-1.11s-.25-.96-.25-1.57c0-.53.08-1.02.24-1.46.16-.45.39-.83.69-1.15.31-.33.68-.58,1.12-.76.44-.19.93-.28,1.48-.28.61,0,1.13.05,1.58.14.46.08.84.16,1.15.24v6.5c0,1.12-.29,1.93-.87,2.44-.58.5-1.46.76-2.63.76-.46,0-.89-.04-1.3-.11-.4-.07-.75-.16-1.05-.27l.24-1.13c.26.1.58.19.95.27.38.08.78.13,1.19.13.77,0,1.33-.15,1.67-.46.35-.31.52-.8.52-1.47v-.31Z"/>
  <rect class="cls-6" x="14" width="14" height="14"/>
  <rect class="cls-1" x="28" y="14" width="14" height="14"/>
  <rect class="cls-4" x="42" y="14" width="14" height="14"/>
  <rect class="cls-3" y="28" width="14" height="14"/>
  <rect class="cls-7" x="14" y="28" width="14" height="14"/>
  <rect class="cls-2" x="42" y="28" width="14" height="14"/>
  <rect class="cls-5" x="28" y="42" width="14" height="14"/>
  <rect class="cls-8" x="101" y="51" width="8" height="1"/>
  <path class="cls-8" d="M314.98,34.28c-1.21-.02-2.2-.15-2.97-.39-.75-.24-1.34-.58-1.79-1.01-.43-.45-.73-.98-.9-1.6-.15-.63-.22-1.34-.22-2.13V12.94l4.17-.67v16.04c0,.37.03.71.08,1.01s.16.55.31.76c.17.21.4.37.7.5s.7.21,1.2.25l-.59,3.44ZM299.75,18.88c1.23,0,2.26.14,3.08.42.82.28,1.47.68,1.96,1.2.5.52.86,1.16,1.06,1.9.21.75.31,1.58.31,2.49v8.68c-.6.13-1.43.28-2.49.45-1.06.19-2.35.28-3.86.28-.95,0-1.82-.08-2.6-.25-.77-.17-1.43-.44-1.99-.81-.56-.39-.99-.9-1.29-1.51-.3-.62-.45-1.37-.45-2.27s.17-1.59.5-2.18c.35-.6.82-1.07,1.4-1.43.58-.35,1.24-.61,1.99-.76.75-.17,1.52-.25,2.32-.25.54,0,1.02.03,1.43.08.43.04.77.09,1.04.17v-.39c0-.71-.21-1.28-.64-1.71-.43-.43-1.18-.64-2.24-.64-.71,0-1.41.06-2.1.17-.69.09-1.29.23-1.79.42l-.53-3.36c.24-.07.54-.15.9-.22.37-.09.77-.17,1.2-.22.43-.07.88-.13,1.34-.17.49-.06.97-.08,1.46-.08ZM300.09,31.09c.41,0,.8,0,1.18-.03.37-.02.67-.05.9-.08v-3.16c-.17-.04-.42-.07-.76-.11s-.64-.06-.92-.06c-.39,0-.77.03-1.12.08-.34.04-.63.12-.9.25-.26.13-.47.31-.62.53-.15.22-.22.5-.22.84,0,.65.21,1.11.64,1.37.45.24,1.05.36,1.82.36ZM283.27,15.6l4.17-.67v4.34h5.01v3.47h-5.01v5.18c0,.88.15,1.58.45,2.1.32.52.94.78,1.88.78.45,0,.91-.04,1.37-.11.49-.09.92-.21,1.32-.36l.59,3.25c-.5.21-1.06.38-1.68.53s-1.37.22-2.27.22c-1.14,0-2.08-.15-2.83-.45-.75-.32-1.34-.75-1.79-1.29-.45-.56-.77-1.23-.95-2.02-.17-.78-.25-1.65-.25-2.6v-12.38ZM281.31,22.97c-.37-.09-.81-.19-1.32-.28-.5-.11-1.05-.17-1.62-.17-.26,0-.58.03-.95.08-.35.04-.63.08-.81.14v11.26h-4.17v-13.94c.75-.26,1.62-.5,2.63-.73,1.03-.24,2.17-.36,3.42-.36.22,0,.49.02.81.06.32.02.63.06.95.11.32.04.63.09.95.17.32.06.59.13.81.22l-.7,3.44ZM265.79,26.61c0-1.29-.26-2.3-.78-3.02-.5-.75-1.23-1.12-2.18-1.12s-1.69.37-2.21,1.12c-.52.73-.78,1.74-.78,3.02s.26,2.31.78,3.08c.52.75,1.26,1.12,2.21,1.12s1.68-.37,2.18-1.12c.52-.77.78-1.79.78-3.08ZM270.04,26.61c0,1.16-.17,2.22-.5,3.19-.34.95-.82,1.77-1.46,2.46-.63.67-1.4,1.19-2.3,1.57-.88.37-1.87.56-2.97.56s-2.07-.19-2.97-.56c-.88-.37-1.63-.9-2.27-1.57-.63-.69-1.13-1.51-1.48-2.46-.35-.97-.53-2.03-.53-3.19s.18-2.21.53-3.16c.37-.95.88-1.76,1.51-2.44.65-.67,1.42-1.19,2.3-1.57.9-.37,1.87-.56,2.91-.56s2.03.19,2.91.56c.9.37,1.66.9,2.3,1.57.63.67,1.13,1.48,1.48,2.44s.53,2.01.53,3.16ZM253.9,26.64c0,1.14-.14,2.17-.42,3.11s-.69,1.74-1.23,2.41c-.54.67-1.21,1.19-2.02,1.57-.8.37-1.73.56-2.77.56-.58,0-1.12-.06-1.62-.17s-.99-.27-1.46-.48v5.54h-4.17v-19.4c.37-.11.8-.21,1.29-.31.49-.11.99-.21,1.51-.28.54-.07,1.08-.13,1.62-.17.56-.06,1.09-.08,1.6-.08,1.21,0,2.3.19,3.25.56.95.35,1.75.87,2.41,1.54.65.65,1.15,1.46,1.48,2.41.35.95.53,2.02.53,3.19ZM249.64,26.75c0-1.29-.29-2.31-.87-3.08-.58-.78-1.44-1.18-2.58-1.18-.37,0-.72.02-1.04.06-.32.02-.58.05-.78.08v7.53c.26.17.6.31,1.01.42.43.11.86.17,1.29.17,1.98,0,2.97-1.33,2.97-4ZM230.86,18.88c1.23,0,2.26.14,3.08.42s1.47.68,1.96,1.2c.5.52.86,1.16,1.06,1.9s.31,1.58.31,2.49v8.68c-.6.13-1.43.28-2.49.45-1.06.19-2.35.28-3.86.28-.95,0-1.82-.08-2.6-.25-.77-.17-1.43-.44-1.99-.81-.56-.39-.99-.9-1.29-1.51s-.45-1.37-.45-2.27.17-1.59.5-2.18c.35-.6.82-1.07,1.4-1.43s1.24-.61,1.99-.76c.75-.17,1.52-.25,2.32-.25.54,0,1.02.03,1.43.08.43.04.77.09,1.04.17v-.39c0-.71-.21-1.28-.64-1.71s-1.18-.64-2.24-.64c-.71,0-1.41.06-2.1.17-.69.09-1.29.23-1.79.42l-.53-3.36c.24-.07.54-.15.9-.22.37-.09.77-.17,1.2-.22.43-.07.88-.13,1.34-.17.49-.06.97-.08,1.46-.08ZM231.2,31.09c.41,0,.8,0,1.18-.03s.67-.05.9-.08v-3.16c-.17-.04-.42-.07-.76-.11s-.64-.06-.92-.06c-.39,0-.77.03-1.12.08-.34.04-.63.12-.9.25s-.47.31-.62.53-.22.5-.22.84c0,.65.21,1.11.64,1.37.45.24,1.05.36,1.82.36ZM214.38,15.6l4.17-.67v4.34h5.01v3.47h-5.01v5.18c0,.88.15,1.58.45,2.1.32.52.94.78,1.88.78.45,0,.91-.04,1.37-.11.49-.09.92-.21,1.32-.36l.59,3.25c-.5.21-1.06.38-1.68.53s-1.37.22-2.27.22c-1.14,0-2.08-.15-2.83-.45-.75-.32-1.34-.75-1.79-1.29-.45-.56-.77-1.23-.95-2.02-.17-.78-.25-1.65-.25-2.6v-12.38ZM205.17,18.88c1.23,0,2.26.14,3.08.42.82.28,1.47.68,1.96,1.2.5.52.86,1.16,1.06,1.9.21.75.31,1.58.31,2.49v8.68c-.6.13-1.43.28-2.49.45-1.06.19-2.35.28-3.86.28-.95,0-1.82-.08-2.6-.25-.77-.17-1.43-.44-1.99-.81-.56-.39-.99-.9-1.29-1.51-.3-.62-.45-1.37-.45-2.27s.17-1.59.5-2.18c.35-.6.82-1.07,1.4-1.43.58-.35,1.24-.61,1.99-.76.75-.17,1.52-.25,2.32-.25.54,0,1.02.03,1.43.08.43.04.77.09,1.04.17v-.39c0-.71-.21-1.28-.64-1.71-.43-.43-1.18-.64-2.24-.64-.71,0-1.41.06-2.1.17-.69.09-1.29.23-1.79.42l-.53-3.36c.24-.07.54-.15.9-.22.37-.09.77-.17,1.2-.22.43-.07.88-.13,1.34-.17.49-.06.97-.08,1.46-.08ZM205.51,31.09c.41,0,.8,0,1.18-.03.37-.02.67-.05.9-.08v-3.16c-.17-.04-.42-.07-.76-.11s-.64-.06-.92-.06c-.39,0-.77.03-1.12.08-.34.04-.63.12-.9.25-.26.13-.47.31-.62.53-.15.22-.22.5-.22.84,0,.65.21,1.11.64,1.37.45.24,1.05.36,1.82.36ZM196.81,33.52c-.37.11-.8.22-1.29.34-.49.09-1,.18-1.54.25-.52.07-1.06.13-1.62.17-.54.06-1.06.08-1.57.08-1.21,0-2.3-.18-3.25-.53s-1.75-.86-2.41-1.51c-.65-.67-1.16-1.47-1.51-2.41-.34-.95-.5-2.02-.5-3.19s.15-2.27.45-3.22c.3-.97.73-1.79,1.29-2.46s1.24-1.19,2.04-1.54c.82-.35,1.75-.53,2.8-.53.58,0,1.09.06,1.54.17.47.11.93.27,1.4.48v-6.66l4.17-.67v21.25ZM187.38,26.52c0,1.29.29,2.32.87,3.11.58.78,1.44,1.18,2.58,1.18.37,0,.72,0,1.04-.03.32-.04.58-.07.78-.11v-7.59c-.26-.17-.61-.31-1.04-.42-.41-.11-.83-.17-1.26-.17-1.98,0-2.97,1.34-2.97,4.03ZM169.41,31c.77,0,1.31-.07,1.62-.22.32-.15.48-.44.48-.87,0-.34-.21-.63-.62-.87-.41-.26-1.04-.55-1.88-.87-.65-.24-1.25-.49-1.79-.76-.52-.26-.97-.57-1.34-.92-.37-.37-.66-.81-.87-1.32-.21-.5-.31-1.11-.31-1.82,0-1.38.51-2.47,1.54-3.28,1.03-.8,2.44-1.2,4.23-1.2.9,0,1.75.08,2.58.25.82.15,1.47.32,1.96.5l-.73,3.25c-.49-.17-1.02-.32-1.6-.45-.56-.13-1.19-.2-1.9-.2-1.31,0-1.96.36-1.96,1.09,0,.17.03.32.08.45s.17.26.34.39c.17.11.39.24.67.39.3.13.67.28,1.12.45.91.34,1.67.67,2.27,1.01.6.32,1.06.67,1.4,1.06.35.37.6.79.73,1.26.15.47.22,1.01.22,1.62,0,1.46-.55,2.56-1.65,3.3-1.08.75-2.62,1.12-4.62,1.12-1.31,0-2.4-.11-3.28-.34-.86-.22-1.46-.41-1.79-.56l.7-3.39c.71.28,1.44.5,2.18.67.75.15,1.48.22,2.21.22ZM158.77,25.15c-.02-.35-.08-.7-.2-1.04-.09-.34-.25-.63-.48-.9-.21-.26-.48-.48-.81-.64-.32-.17-.72-.25-1.2-.25s-.87.08-1.2.25c-.34.15-.62.35-.84.62s-.4.57-.53.92c-.11.34-.2.68-.25,1.04h5.52ZM148.97,26.75c0-1.31.2-2.45.59-3.42.41-.99.94-1.81,1.6-2.46s1.4-1.15,2.24-1.48c.86-.34,1.74-.5,2.63-.5,2.09,0,3.74.64,4.96,1.93,1.21,1.27,1.82,3.15,1.82,5.63,0,.24,0,.51-.03.81-.02.28-.04.53-.06.76h-9.46c.09.86.49,1.54,1.2,2.04s1.66.76,2.86.76c.77,0,1.51-.07,2.24-.2.75-.15,1.35-.33,1.82-.53l.56,3.39c-.22.11-.52.22-.9.34s-.79.21-1.26.28c-.45.09-.93.17-1.46.22s-1.05.08-1.57.08c-1.33,0-2.48-.2-3.47-.59-.97-.39-1.78-.92-2.44-1.6-.63-.69-1.11-1.5-1.43-2.44-.3-.93-.45-1.94-.45-3.02ZM146.6,32.15c0,2.41-.62,4.19-1.85,5.35-1.21,1.18-3.1,1.76-5.66,1.76-.9,0-1.79-.08-2.69-.25-.9-.15-1.73-.35-2.49-.62l.73-3.5c.65.26,1.33.47,2.04.62.73.15,1.55.22,2.46.22,1.19,0,2.03-.26,2.52-.78.5-.52.76-1.19.76-2.02v-.53c-.45.21-.91.36-1.4.48-.47.09-.98.14-1.54.14-2.03,0-3.59-.6-4.68-1.79-1.08-1.21-1.62-2.9-1.62-5.07,0-1.08.17-2.06.5-2.94.34-.9.82-1.66,1.46-2.3.65-.63,1.45-1.12,2.38-1.46.93-.35,1.99-.53,3.16-.53.5,0,1.02.03,1.54.08.54.04,1.07.09,1.6.17s1.02.17,1.48.28c.49.09.91.2,1.29.31v12.38ZM137.44,26.16c0,2.33.94,3.5,2.83,3.5.43,0,.83-.06,1.2-.17s.69-.24.95-.39v-6.66c-.21-.04-.45-.07-.73-.08-.28-.04-.61-.06-.98-.06-1.1,0-1.92.36-2.46,1.09s-.81,1.65-.81,2.77ZM131.2,15.02c0,.77-.25,1.37-.76,1.82-.49.43-1.06.64-1.74.64s-1.26-.21-1.76-.64c-.49-.45-.73-1.05-.73-1.82s.24-1.36.73-1.79c.5-.45,1.09-.67,1.76-.67s1.25.22,1.74.67c.5.43.76,1.03.76,1.79ZM130.81,34h-4.17v-14.73h4.17v14.73ZM124.54,22.97c-.37-.09-.81-.19-1.32-.28-.5-.11-1.05-.17-1.62-.17-.26,0-.58.03-.95.08-.35.04-.63.08-.81.14v11.26h-4.17v-13.94c.75-.26,1.62-.5,2.63-.73,1.03-.24,2.17-.36,3.42-.36.22,0,.49.02.81.06.32.02.63.06.95.11.32.04.63.09.95.17.32.06.59.13.81.22l-.7,3.44ZM109.25,25.15c-.02-.35-.08-.7-.2-1.04-.09-.34-.25-.63-.48-.9-.21-.26-.48-.48-.81-.64-.32-.17-.72-.25-1.2-.25s-.87.08-1.2.25c-.34.15-.62.35-.84.62s-.4.57-.53.92c-.11.34-.2.68-.25,1.04h5.52ZM99.45,26.75c0-1.31.2-2.45.59-3.42.41-.99.94-1.81,1.6-2.46s1.4-1.15,2.24-1.48c.86-.34,1.74-.5,2.63-.5,2.09,0,3.74.64,4.96,1.93,1.21,1.27,1.82,3.15,1.82,5.63,0,.24,0,.51-.03.81-.02.28-.04.53-.06.76h-9.46c.09.86.49,1.54,1.2,2.04s1.66.76,2.86.76c.77,0,1.51-.07,2.24-.2.75-.15,1.35-.33,1.82-.53l.56,3.39c-.22.11-.52.22-.9.34s-.79.21-1.26.28c-.45.09-.93.17-1.46.22s-1.05.08-1.57.08c-1.33,0-2.48-.2-3.47-.59-.97-.39-1.78-.92-2.44-1.6-.63-.69-1.11-1.5-1.43-2.44-.3-.93-.45-1.94-.45-3.02ZM89.98,34c-.95-1.87-1.92-4.05-2.91-6.55-.97-2.5-1.89-5.23-2.77-8.18h4.42c.19.73.4,1.52.64,2.38.26.84.52,1.7.78,2.58.28.86.55,1.7.81,2.52.28.82.55,1.57.81,2.24.24-.67.5-1.42.78-2.24s.55-1.66.81-2.52c.28-.88.54-1.74.78-2.58.26-.86.49-1.65.67-2.38h4.31c-.88,2.95-1.81,5.67-2.8,8.18-.97,2.5-1.93,4.69-2.88,6.55h-3.47ZM76.53,30.67c.62,0,1.12-.05,1.51-.14.41-.11.74-.25.98-.42.24-.19.41-.4.5-.64s.14-.51.14-.81c0-.63-.3-1.16-.9-1.57-.6-.43-1.62-.89-3.08-1.37-.63-.22-1.27-.48-1.9-.76-.63-.3-1.2-.66-1.71-1.09-.5-.45-.91-.98-1.23-1.6-.32-.63-.48-1.4-.48-2.3s.17-1.7.5-2.41c.34-.73.81-1.34,1.43-1.85s1.36-.89,2.24-1.15c.88-.28,1.87-.42,2.97-.42,1.31,0,2.44.14,3.39.42s1.74.59,2.35.92l-1.26,3.44c-.54-.28-1.15-.52-1.82-.73-.65-.22-1.45-.34-2.38-.34-1.05,0-1.8.15-2.27.45-.45.28-.67.72-.67,1.32,0,.35.08.65.25.9s.4.47.7.67c.32.19.67.36,1.06.53.41.15.86.31,1.34.48,1.01.37,1.89.75,2.63,1.12.75.35,1.36.77,1.85,1.26.5.49.88,1.05,1.12,1.71s.36,1.45.36,2.38c0,1.81-.63,3.22-1.9,4.23-1.27.99-3.18,1.48-5.74,1.48-.86,0-1.63-.06-2.32-.17-.69-.09-1.31-.21-1.85-.36-.52-.15-.98-.31-1.37-.48-.37-.17-.69-.33-.95-.48l1.23-3.47c.58.32,1.29.61,2.13.87.86.24,1.9.36,3.14.36Z"/>
</svg>