<svg width="248" height="44" viewBox="0 0 348 59" fill="none" xmlns="http://www.w3.org/2000/svg">
  <g clip-path="url(#clip0_4796_38155)">
    <path d="M333.43 49.87C333.3 49.83 333.12 49.8 332.9 49.77C332.69 49.73 332.39 49.71 332.02 49.71C331.32 49.71 330.78 49.94 330.4 50.4C330.03 50.86 329.84 51.46 329.84 52.22C329.84 52.64 329.89 53 329.99 53.3C330.1 53.6 330.25 53.85 330.42 54.04C330.61 54.24 330.82 54.38 331.05 54.47C331.29 54.56 331.54 54.61 331.79 54.61C332.14 54.61 332.45 54.56 332.74 54.47C333.03 54.37 333.26 54.25 333.43 54.12V49.86V49.87ZM333.44 55.27C333.33 55.34 333.11 55.44 332.78 55.56C332.46 55.67 332.09 55.73 331.66 55.73C331.23 55.73 330.81 55.66 330.41 55.52C330.03 55.38 329.69 55.17 329.4 54.88C329.11 54.58 328.88 54.21 328.71 53.77C328.54 53.33 328.46 52.81 328.46 52.2C328.46 51.67 328.54 51.18 328.7 50.74C328.86 50.29 329.09 49.91 329.39 49.59C329.7 49.26 330.07 49.01 330.51 48.83C330.95 48.64 331.44 48.55 331.99 48.55C332.6 48.55 333.12 48.6 333.57 48.69C334.03 48.77 334.41 48.85 334.72 48.93V55.43C334.72 56.55 334.43 57.36 333.85 57.87C333.27 58.37 332.39 58.63 331.22 58.63C330.76 58.63 330.33 58.59 329.92 58.52C329.52 58.45 329.17 58.36 328.87 58.25L329.11 57.12C329.37 57.22 329.69 57.31 330.06 57.39C330.44 57.47 330.84 57.52 331.25 57.52C332.02 57.52 332.58 57.37 332.92 57.06C333.27 56.75 333.44 56.26 333.44 55.59V55.28V55.27ZM320.84 48.93C321.14 48.86 321.54 48.78 322.03 48.69C322.52 48.6 323.09 48.56 323.74 48.56C324.32 48.56 324.8 48.64 325.18 48.81C325.56 48.97 325.87 49.2 326.09 49.5C326.32 49.79 326.49 50.14 326.58 50.55C326.67 50.96 326.72 51.41 326.72 51.91V56H325.42V52.19C325.42 51.74 325.39 51.36 325.32 51.04C325.26 50.72 325.17 50.47 325.03 50.27C324.89 50.07 324.7 49.93 324.47 49.85C324.24 49.76 323.95 49.71 323.6 49.71C323.46 49.71 323.32 49.71 323.17 49.72C323.02 49.73 322.88 49.74 322.74 49.76C322.61 49.76 322.49 49.78 322.38 49.8C322.28 49.82 322.2 49.83 322.16 49.84V55.99H320.86V48.92L320.84 48.93ZM317.94 47.4C317.71 47.4 317.51 47.33 317.34 47.18C317.18 47.02 317.1 46.81 317.1 46.55C317.1 46.29 317.18 46.08 317.34 45.93C317.51 45.77 317.71 45.69 317.94 45.69C318.17 45.69 318.37 45.77 318.53 45.93C318.7 46.08 318.78 46.28 318.78 46.55C318.78 46.82 318.7 47.02 318.53 47.18C318.37 47.33 318.18 47.4 317.94 47.4ZM318.6 56H317.3V48.72H318.6V56ZM309.26 48.93C309.56 48.86 309.96 48.78 310.45 48.69C310.94 48.61 311.51 48.56 312.16 48.56C312.74 48.56 313.22 48.64 313.6 48.81C313.98 48.97 314.29 49.2 314.51 49.5C314.74 49.79 314.91 50.14 315 50.55C315.09 50.96 315.14 51.41 315.14 51.91V56H313.84V52.19C313.84 51.74 313.81 51.36 313.74 51.04C313.68 50.72 313.59 50.47 313.45 50.27C313.31 50.07 313.12 49.93 312.89 49.85C312.66 49.76 312.37 49.71 312.02 49.71C311.88 49.71 311.74 49.71 311.59 49.72C311.44 49.72 311.3 49.74 311.16 49.76C311.03 49.76 310.91 49.78 310.8 49.8C310.7 49.82 310.62 49.83 310.58 49.84V55.99H309.28V48.92L309.26 48.93ZM304.84 48.72H307.6V49.81H304.84V53.17C304.84 53.53 304.87 53.84 304.92 54.08C304.98 54.31 305.06 54.5 305.17 54.64C305.28 54.77 305.42 54.86 305.59 54.92C305.76 54.98 305.95 55 306.18 55C306.57 55 306.88 54.96 307.12 54.87C307.36 54.78 307.53 54.71 307.62 54.67L307.87 55.75C307.74 55.82 307.51 55.89 307.18 55.99C306.85 56.09 306.48 56.14 306.06 56.14C305.57 56.14 305.15 56.08 304.83 55.96C304.51 55.83 304.26 55.64 304.06 55.39C303.86 55.14 303.72 54.83 303.64 54.47C303.57 54.1 303.53 53.67 303.53 53.18V46.68L304.83 46.46V48.71L304.84 48.72ZM301.98 56.14C301.18 56.12 300.61 55.95 300.27 55.62C299.93 55.29 299.77 54.78 299.77 54.09V45.35L301.07 45.13V53.88C301.07 54.09 301.09 54.27 301.13 54.41C301.17 54.55 301.23 54.66 301.31 54.75C301.39 54.84 301.51 54.9 301.65 54.95C301.79 54.99 301.96 55.02 302.17 55.05L301.99 56.14H301.98ZM294.83 48.54C295.35 48.54 295.79 48.61 296.15 48.75C296.51 48.88 296.8 49.07 297.02 49.32C297.24 49.56 297.4 49.86 297.5 50.2C297.59 50.54 297.64 50.91 297.64 51.32V55.87C297.53 55.89 297.37 55.92 297.16 55.95C296.96 55.98 296.74 56.01 296.49 56.03C296.24 56.05 295.96 56.08 295.66 56.1C295.37 56.13 295.08 56.14 294.79 56.14C294.38 56.14 294 56.1 293.66 56.01C293.31 55.93 293.02 55.8 292.76 55.62C292.51 55.43 292.31 55.19 292.17 54.89C292.03 54.59 291.96 54.23 291.96 53.81C291.96 53.39 292.04 53.06 292.2 52.77C292.37 52.48 292.59 52.25 292.87 52.07C293.15 51.89 293.48 51.76 293.85 51.68C294.22 51.6 294.62 51.55 295.03 51.55C295.16 51.55 295.3 51.55 295.44 51.58C295.58 51.58 295.71 51.61 295.83 51.64C295.96 51.66 296.07 51.68 296.17 51.7C296.26 51.72 296.33 51.73 296.37 51.74V51.38C296.37 51.17 296.35 50.96 296.3 50.75C296.25 50.54 296.17 50.35 296.05 50.19C295.93 50.02 295.76 49.89 295.55 49.8C295.34 49.7 295.07 49.65 294.74 49.65C294.31 49.65 293.93 49.68 293.61 49.75C293.29 49.81 293.05 49.87 292.9 49.93L292.75 48.85C292.92 48.78 293.2 48.71 293.59 48.64C293.98 48.57 294.41 48.53 294.86 48.53L294.83 48.54ZM294.95 55.06C295.26 55.06 295.53 55.06 295.76 55.05C296 55.03 296.2 55 296.36 54.97V52.8C296.27 52.75 296.11 52.72 295.9 52.69C295.69 52.65 295.44 52.63 295.14 52.63C294.94 52.63 294.73 52.64 294.51 52.67C294.3 52.7 294.09 52.76 293.91 52.85C293.73 52.93 293.58 53.06 293.46 53.21C293.34 53.36 293.28 53.56 293.28 53.81C293.28 54.28 293.43 54.6 293.73 54.79C294.03 54.97 294.43 55.06 294.95 55.06ZM291.14 48.72C290.78 50.08 290.35 51.39 289.85 52.64C289.36 53.89 288.89 55.01 288.44 56H287.26C286.8 55.01 286.33 53.89 285.83 52.64C285.34 51.39 284.92 50.08 284.56 48.72H285.96C286.07 49.18 286.2 49.67 286.35 50.19C286.51 50.7 286.67 51.22 286.84 51.73C287.02 52.23 287.19 52.72 287.37 53.2C287.55 53.68 287.72 54.1 287.87 54.47C288.03 54.1 288.2 53.67 288.37 53.2C288.55 52.72 288.72 52.23 288.89 51.73C289.07 51.22 289.23 50.7 289.38 50.19C289.54 49.67 289.67 49.18 289.79 48.72H291.13H291.14ZM282.44 48.57C282.55 48.57 282.68 48.57 282.82 48.6C282.97 48.6 283.11 48.63 283.25 48.66C283.39 48.68 283.52 48.7 283.63 48.73C283.75 48.75 283.84 48.77 283.9 48.79L283.68 49.92C283.58 49.88 283.4 49.84 283.16 49.79C282.93 49.73 282.62 49.71 282.25 49.71C282.01 49.71 281.76 49.74 281.52 49.79C281.29 49.84 281.13 49.87 281.06 49.89V56.01H279.76V49.04C280.07 48.93 280.45 48.83 280.91 48.73C281.37 48.63 281.88 48.58 282.45 48.58L282.44 48.57ZM275.83 47.38C275.62 47.38 275.42 47.31 275.26 47.16C275.1 47 275.02 46.8 275.02 46.56C275.02 46.32 275.1 46.12 275.26 45.97C275.43 45.81 275.62 45.73 275.83 45.73C276.04 45.73 276.23 45.81 276.39 45.97C276.56 46.12 276.64 46.32 276.64 46.56C276.64 46.8 276.56 47 276.39 47.16C276.23 47.31 276.04 47.38 275.83 47.38ZM273.17 47.38C272.96 47.38 272.76 47.31 272.6 47.16C272.44 47 272.36 46.8 272.36 46.56C272.36 46.32 272.44 46.12 272.6 45.97C272.77 45.81 272.96 45.73 273.17 45.73C273.38 45.73 273.57 45.81 273.73 45.97C273.9 46.12 273.98 46.32 273.98 46.56C273.98 46.8 273.9 47 273.73 47.16C273.57 47.31 273.38 47.38 273.17 47.38ZM276.56 52.36C276.56 51.54 276.37 50.89 276 50.41C275.64 49.92 275.14 49.68 274.5 49.68C273.86 49.68 273.36 49.92 272.99 50.41C272.63 50.89 272.44 51.53 272.44 52.36C272.44 53.19 272.62 53.83 272.99 54.32C273.36 54.8 273.87 55.03 274.5 55.03C275.13 55.03 275.63 54.79 276 54.32C276.37 53.83 276.56 53.18 276.56 52.36ZM277.92 52.36C277.92 52.94 277.84 53.46 277.67 53.93C277.5 54.4 277.26 54.8 276.96 55.13C276.66 55.47 276.3 55.73 275.88 55.91C275.46 56.09 275 56.18 274.51 56.18C274.02 56.18 273.56 56.09 273.14 55.91C272.72 55.72 272.36 55.46 272.05 55.13C271.75 54.79 271.52 54.39 271.35 53.93C271.18 53.47 271.1 52.94 271.1 52.36C271.1 51.78 271.18 51.27 271.35 50.81C271.52 50.33 271.75 49.93 272.05 49.59C272.36 49.25 272.72 49 273.14 48.82C273.56 48.63 274.02 48.54 274.51 48.54C275 48.54 275.46 48.63 275.88 48.82C276.3 49 276.66 49.25 276.96 49.59C277.27 49.93 277.51 50.33 277.67 50.81C277.84 51.28 277.92 51.79 277.92 52.36ZM268.94 45.14C269.32 45.14 269.65 45.17 269.92 45.22C270.2 45.28 270.4 45.33 270.51 45.37L270.27 46.49C270.16 46.43 270 46.38 269.79 46.34C269.58 46.28 269.33 46.26 269.03 46.26C268.42 46.26 268 46.43 267.76 46.76C267.52 47.09 267.4 47.53 267.4 48.09V48.72H270.2V49.81H267.4V56H266.1V48.06C266.1 47.13 266.33 46.41 266.79 45.9C267.25 45.39 267.97 45.13 268.95 45.13L268.94 45.14ZM261.21 56.14C260.41 56.12 259.84 55.95 259.5 55.62C259.16 55.29 259 54.78 259 54.09V45.35L260.3 45.13V53.88C260.3 54.09 260.32 54.27 260.36 54.41C260.4 54.55 260.46 54.66 260.54 54.75C260.62 54.83 260.74 54.9 260.88 54.95C261.02 54.99 261.19 55.02 261.4 55.05L261.22 56.14H261.21ZM254.06 48.54C254.58 48.54 255.02 48.61 255.38 48.75C255.74 48.88 256.03 49.07 256.25 49.32C256.47 49.56 256.63 49.86 256.73 50.2C256.82 50.54 256.87 50.91 256.87 51.32V55.87C256.76 55.89 256.6 55.92 256.39 55.95C256.19 55.98 255.97 56.01 255.72 56.03C255.47 56.05 255.19 56.08 254.89 56.1C254.6 56.13 254.31 56.14 254.02 56.14C253.61 56.14 253.23 56.1 252.89 56.01C252.54 55.93 252.25 55.8 251.99 55.62C251.74 55.43 251.54 55.19 251.4 54.89C251.26 54.59 251.19 54.23 251.19 53.81C251.19 53.39 251.27 53.06 251.43 52.77C251.6 52.48 251.82 52.25 252.1 52.07C252.38 51.89 252.71 51.76 253.08 51.68C253.45 51.6 253.85 51.55 254.26 51.55C254.39 51.55 254.53 51.55 254.67 51.58C254.81 51.58 254.94 51.61 255.06 51.64C255.19 51.66 255.3 51.68 255.4 51.7C255.49 51.72 255.56 51.73 255.6 51.74V51.38C255.6 51.17 255.58 50.96 255.53 50.75C255.48 50.54 255.4 50.35 255.28 50.19C255.16 50.02 254.99 49.89 254.78 49.8C254.57 49.7 254.3 49.65 253.97 49.65C253.54 49.65 253.16 49.68 252.84 49.75C252.52 49.81 252.28 49.87 252.13 49.93L251.98 48.85C252.15 48.78 252.43 48.71 252.82 48.64C253.21 48.57 253.64 48.53 254.09 48.53L254.06 48.54ZM254.18 55.06C254.49 55.06 254.76 55.06 254.99 55.05C255.23 55.03 255.43 55 255.59 54.97V52.8C255.5 52.75 255.34 52.72 255.13 52.69C254.92 52.65 254.67 52.63 254.37 52.63C254.17 52.63 253.96 52.64 253.74 52.67C253.53 52.7 253.32 52.76 253.14 52.85C252.96 52.93 252.81 53.06 252.69 53.21C252.57 53.36 252.51 53.56 252.51 53.81C252.51 54.28 252.66 54.6 252.96 54.79C253.26 54.97 253.66 55.06 254.18 55.06ZM247.3 48.72H250.06V49.81H247.3V53.17C247.3 53.53 247.33 53.84 247.38 54.08C247.44 54.31 247.52 54.5 247.63 54.64C247.74 54.77 247.88 54.86 248.05 54.92C248.22 54.98 248.41 55 248.64 55C249.03 55 249.34 54.96 249.58 54.87C249.82 54.78 249.99 54.71 250.08 54.67L250.33 55.75C250.2 55.82 249.97 55.89 249.64 55.99C249.31 56.09 248.94 56.14 248.52 56.14C248.03 56.14 247.61 56.08 247.29 55.96C246.97 55.83 246.72 55.64 246.52 55.39C246.32 55.14 246.18 54.83 246.1 54.47C246.03 54.1 245.99 53.67 245.99 53.18V46.68L247.29 46.46V48.71L247.3 48.72ZM243.18 47.4C242.95 47.4 242.75 47.33 242.58 47.18C242.42 47.02 242.34 46.81 242.34 46.55C242.34 46.29 242.42 46.08 242.58 45.93C242.75 45.77 242.95 45.69 243.18 45.69C243.41 45.69 243.61 45.77 243.77 45.93C243.94 46.08 244.02 46.28 244.02 46.55C244.02 46.82 243.94 47.02 243.77 47.18C243.61 47.33 243.42 47.4 243.18 47.4ZM243.84 56H242.54V48.72H243.84V56ZM238.99 49.87C238.86 49.83 238.68 49.8 238.46 49.77C238.25 49.73 237.95 49.71 237.58 49.71C236.88 49.71 236.34 49.94 235.96 50.4C235.59 50.86 235.4 51.46 235.4 52.22C235.4 52.64 235.45 53 235.55 53.3C235.66 53.6 235.81 53.85 235.98 54.04C236.17 54.24 236.38 54.38 236.61 54.47C236.85 54.56 237.1 54.61 237.35 54.61C237.7 54.61 238.01 54.56 238.3 54.47C238.59 54.37 238.82 54.25 238.99 54.12V49.86V49.87ZM239.01 55.27C238.9 55.34 238.68 55.44 238.35 55.56C238.03 55.67 237.66 55.73 237.23 55.73C236.8 55.73 236.38 55.66 235.98 55.52C235.6 55.38 235.26 55.17 234.97 54.88C234.68 54.58 234.45 54.21 234.28 53.77C234.11 53.33 234.03 52.81 234.03 52.2C234.03 51.67 234.11 51.18 234.27 50.74C234.43 50.29 234.66 49.91 234.96 49.59C235.27 49.26 235.64 49.01 236.08 48.83C236.52 48.64 237.01 48.55 237.56 48.55C238.17 48.55 238.69 48.6 239.14 48.69C239.6 48.77 239.98 48.85 240.29 48.93V55.43C240.29 56.55 240 57.36 239.42 57.87C238.84 58.38 237.96 58.63 236.79 58.63C236.33 58.63 235.9 58.59 235.49 58.52C235.09 58.45 234.74 58.36 234.44 58.25L234.68 57.12C234.94 57.22 235.26 57.31 235.63 57.39C236.01 57.47 236.41 57.52 236.82 57.52C237.59 57.52 238.15 57.37 238.49 57.06C238.84 56.75 239.01 56.26 239.01 55.59V55.28V55.27ZM231.55 47.4C231.32 47.4 231.12 47.33 230.95 47.18C230.79 47.02 230.71 46.81 230.71 46.55C230.71 46.29 230.79 46.08 230.95 45.93C231.12 45.77 231.32 45.69 231.55 45.69C231.78 45.69 231.98 45.77 232.14 45.93C232.31 46.08 232.39 46.28 232.39 46.55C232.39 46.82 232.31 47.02 232.14 47.18C231.98 47.33 231.79 47.4 231.55 47.4ZM232.21 56H230.91V48.72H232.21V56ZM227.36 45.36L228.66 45.14V55.79C228.36 55.87 227.98 55.96 227.51 56.04C227.04 56.12 226.51 56.17 225.9 56.17C225.34 56.17 224.84 56.08 224.39 55.9C223.94 55.72 223.56 55.47 223.24 55.14C222.92 54.81 222.68 54.42 222.5 53.95C222.33 53.47 222.25 52.94 222.25 52.35C222.25 51.76 222.32 51.28 222.46 50.81C222.61 50.34 222.82 49.94 223.1 49.61C223.38 49.28 223.72 49.01 224.12 48.83C224.53 48.64 225 48.55 225.52 48.55C225.94 48.55 226.31 48.61 226.63 48.72C226.96 48.83 227.2 48.94 227.36 49.04V45.36ZM227.36 50.26C227.2 50.13 226.97 50 226.67 49.88C226.37 49.76 226.04 49.7 225.69 49.7C225.32 49.7 224.99 49.77 224.72 49.91C224.46 50.04 224.24 50.23 224.08 50.47C223.91 50.7 223.79 50.98 223.72 51.31C223.65 51.64 223.61 51.99 223.61 52.36C223.61 53.21 223.82 53.87 224.24 54.33C224.66 54.79 225.22 55.02 225.92 55.02C226.27 55.02 226.57 55.01 226.8 54.98C227.04 54.94 227.23 54.91 227.36 54.87V50.26ZM216.71 48.57C216.82 48.57 216.95 48.57 217.09 48.6C217.24 48.6 217.38 48.63 217.52 48.66C217.66 48.68 217.79 48.7 217.9 48.73C218.02 48.75 218.11 48.77 218.17 48.79L217.95 49.92C217.85 49.88 217.67 49.84 217.43 49.79C217.2 49.73 216.89 49.71 216.52 49.71C216.28 49.71 216.03 49.74 215.79 49.79C215.56 49.84 215.4 49.87 215.33 49.89V56.01H214.03V49.04C214.34 48.93 214.72 48.83 215.18 48.73C215.64 48.63 216.15 48.58 216.72 48.58L216.71 48.57ZM210.1 47.38C209.89 47.38 209.69 47.31 209.53 47.16C209.37 47 209.29 46.8 209.29 46.56C209.29 46.32 209.37 46.12 209.53 45.97C209.7 45.81 209.89 45.73 210.1 45.73C210.31 45.73 210.5 45.81 210.66 45.97C210.83 46.12 210.91 46.32 210.91 46.56C210.91 46.8 210.83 47 210.66 47.16C210.5 47.31 210.31 47.38 210.1 47.38ZM207.44 47.38C207.23 47.38 207.03 47.31 206.87 47.16C206.71 47 206.63 46.8 206.63 46.56C206.63 46.32 206.71 46.12 206.87 45.97C207.04 45.81 207.23 45.73 207.44 45.73C207.65 45.73 207.84 45.81 208 45.97C208.17 46.12 208.25 46.32 208.25 46.56C208.25 46.8 208.17 47 208 47.16C207.84 47.31 207.65 47.38 207.44 47.38ZM210.83 52.36C210.83 51.54 210.64 50.89 210.27 50.41C209.91 49.92 209.41 49.68 208.77 49.68C208.13 49.68 207.63 49.92 207.26 50.41C206.9 50.89 206.71 51.53 206.71 52.36C206.71 53.19 206.89 53.83 207.26 54.32C207.63 54.8 208.14 55.03 208.77 55.03C209.4 55.03 209.9 54.79 210.27 54.32C210.64 53.83 210.83 53.18 210.83 52.36ZM212.19 52.36C212.19 52.94 212.11 53.46 211.94 53.93C211.77 54.4 211.53 54.8 211.23 55.13C210.93 55.47 210.57 55.73 210.15 55.91C209.73 56.09 209.27 56.18 208.78 56.18C208.29 56.18 207.83 56.09 207.41 55.91C206.99 55.72 206.63 55.46 206.32 55.13C206.02 54.79 205.79 54.39 205.62 53.93C205.45 53.47 205.37 52.94 205.37 52.36C205.37 51.78 205.45 51.27 205.62 50.81C205.79 50.33 206.02 49.93 206.32 49.59C206.63 49.25 206.99 49 207.41 48.82C207.83 48.63 208.29 48.54 208.78 48.54C209.27 48.54 209.73 48.63 210.15 48.82C210.57 49 210.93 49.25 211.23 49.59C211.54 49.93 211.78 50.33 211.94 50.81C212.11 51.28 212.19 51.79 212.19 52.36ZM203.2 45.14C203.58 45.14 203.91 45.17 204.18 45.22C204.46 45.28 204.66 45.33 204.77 45.37L204.53 46.49C204.42 46.43 204.26 46.38 204.05 46.34C203.84 46.28 203.59 46.26 203.29 46.26C202.68 46.26 202.26 46.43 202.02 46.76C201.78 47.09 201.66 47.53 201.66 48.09V48.72H204.46V49.81H201.66V56H200.36V48.06C200.36 47.13 200.59 46.41 201.05 45.9C201.51 45.39 202.23 45.13 203.21 45.13L203.2 45.14ZM189.08 48.93C189.38 48.86 189.78 48.78 190.27 48.69C190.76 48.61 191.33 48.56 191.98 48.56C192.56 48.56 193.04 48.64 193.42 48.81C193.8 48.97 194.11 49.2 194.33 49.5C194.56 49.79 194.73 50.14 194.82 50.55C194.91 50.96 194.96 51.41 194.96 51.91V56H193.66V52.19C193.66 51.74 193.63 51.36 193.56 51.04C193.5 50.72 193.41 50.47 193.27 50.27C193.13 50.07 192.94 49.93 192.71 49.85C192.48 49.76 192.19 49.71 191.84 49.71C191.7 49.71 191.56 49.71 191.41 49.72C191.26 49.72 191.12 49.74 190.98 49.76C190.85 49.76 190.73 49.78 190.62 49.8C190.52 49.82 190.44 49.83 190.4 49.84V55.99H189.1V48.92L189.08 48.93ZM185.85 51.66C185.85 51.07 185.71 50.59 185.4 50.22C185.1 49.84 184.69 49.65 184.15 49.65C183.85 49.65 183.59 49.71 183.35 49.83C183.13 49.94 182.93 50.09 182.78 50.28C182.62 50.47 182.5 50.68 182.4 50.92C182.32 51.16 182.26 51.41 182.23 51.66H185.84H185.85ZM180.85 52.37C180.85 51.73 180.94 51.17 181.13 50.69C181.32 50.2 181.56 49.8 181.87 49.49C182.18 49.18 182.53 48.93 182.93 48.78C183.33 48.63 183.74 48.54 184.16 48.54C185.14 48.54 185.89 48.85 186.41 49.46C186.93 50.07 187.19 51 187.19 52.25V52.47C187.19 52.55 187.19 52.63 187.18 52.71H182.2C182.26 53.47 182.48 54.04 182.86 54.43C183.24 54.82 183.84 55.02 184.65 55.02C185.11 55.02 185.49 54.98 185.8 54.91C186.12 54.83 186.36 54.75 186.51 54.67L186.69 55.76C186.53 55.84 186.25 55.93 185.85 56.03C185.46 56.12 185.01 56.17 184.51 56.17C183.88 56.17 183.32 56.08 182.86 55.89C182.4 55.69 182.02 55.43 181.73 55.09C181.43 54.75 181.21 54.36 181.06 53.9C180.92 53.43 180.85 52.92 180.85 52.37ZM176.98 48.72H179.74V49.81H176.98V53.17C176.98 53.53 177.01 53.84 177.06 54.08C177.12 54.31 177.2 54.5 177.31 54.64C177.42 54.77 177.56 54.86 177.73 54.92C177.9 54.98 178.09 55 178.32 55C178.71 55 179.02 54.96 179.26 54.87C179.5 54.78 179.67 54.71 179.76 54.67L180.01 55.75C179.88 55.82 179.65 55.89 179.32 55.99C178.99 56.09 178.62 56.14 178.2 56.14C177.71 56.14 177.29 56.08 176.97 55.96C176.65 55.83 176.4 55.64 176.2 55.39C176 55.14 175.86 54.83 175.78 54.47C175.71 54.1 175.67 53.67 175.67 53.18V46.68L176.97 46.46V48.71L176.98 48.72ZM172.54 51.66C172.54 51.07 172.4 50.59 172.09 50.22C171.79 49.84 171.38 49.65 170.84 49.65C170.54 49.65 170.28 49.71 170.04 49.83C169.82 49.94 169.62 50.09 169.47 50.28C169.31 50.47 169.19 50.68 169.09 50.92C169.01 51.16 168.95 51.41 168.92 51.66H172.53H172.54ZM167.54 52.37C167.54 51.73 167.63 51.17 167.82 50.69C168.01 50.2 168.25 49.8 168.56 49.49C168.87 49.18 169.22 48.93 169.62 48.78C170.02 48.63 170.43 48.54 170.85 48.54C171.83 48.54 172.58 48.85 173.1 49.46C173.62 50.07 173.88 51 173.88 52.25V52.47C173.88 52.55 173.88 52.63 173.87 52.71H168.89C168.95 53.47 169.17 54.04 169.55 54.43C169.93 54.82 170.53 55.02 171.34 55.02C171.8 55.02 172.18 54.98 172.49 54.91C172.81 54.83 173.05 54.75 173.2 54.67L173.38 55.76C173.22 55.84 172.94 55.93 172.54 56.03C172.15 56.12 171.7 56.17 171.2 56.17C170.57 56.17 170.01 56.08 169.55 55.89C169.09 55.69 168.71 55.43 168.42 55.09C168.12 54.75 167.9 54.36 167.75 53.9C167.61 53.43 167.54 52.92 167.54 52.37ZM159.95 56V45.36L161.25 45.14V48.86C161.49 48.77 161.75 48.7 162.02 48.65C162.3 48.59 162.58 48.57 162.85 48.57C163.43 48.57 163.91 48.65 164.29 48.82C164.67 48.98 164.98 49.21 165.2 49.51C165.43 49.8 165.6 50.15 165.69 50.56C165.78 50.97 165.83 51.42 165.83 51.92V56.01H164.53V52.2C164.53 51.75 164.5 51.37 164.43 51.05C164.37 50.73 164.28 50.48 164.14 50.28C164 50.08 163.81 49.94 163.58 49.86C163.35 49.77 163.06 49.72 162.71 49.72C162.57 49.72 162.43 49.72 162.28 49.75C162.13 49.77 161.99 49.79 161.85 49.82C161.72 49.84 161.6 49.86 161.49 49.89C161.39 49.92 161.31 49.94 161.27 49.96V56.01H159.97L159.95 56ZM156.4 49.87C156.27 49.83 156.09 49.8 155.87 49.77C155.66 49.73 155.36 49.71 154.99 49.71C154.29 49.71 153.75 49.94 153.37 50.4C153 50.86 152.81 51.46 152.81 52.22C152.81 52.64 152.86 53 152.96 53.3C153.07 53.6 153.22 53.85 153.39 54.04C153.58 54.24 153.79 54.38 154.02 54.47C154.26 54.56 154.51 54.61 154.76 54.61C155.11 54.61 155.42 54.56 155.71 54.47C156 54.37 156.23 54.25 156.4 54.12V49.86V49.87ZM156.42 55.27C156.31 55.34 156.09 55.44 155.76 55.56C155.44 55.67 155.07 55.73 154.64 55.73C154.21 55.73 153.79 55.66 153.39 55.52C153.01 55.38 152.67 55.17 152.38 54.88C152.09 54.58 151.86 54.21 151.69 53.77C151.52 53.33 151.44 52.81 151.44 52.2C151.44 51.67 151.52 51.18 151.68 50.74C151.84 50.29 152.07 49.91 152.37 49.59C152.68 49.26 153.05 49.01 153.49 48.83C153.93 48.64 154.42 48.55 154.97 48.55C155.58 48.55 156.1 48.6 156.55 48.69C157.01 48.77 157.39 48.85 157.7 48.93V55.43C157.7 56.55 157.41 57.36 156.83 57.87C156.25 58.37 155.37 58.63 154.2 58.63C153.74 58.63 153.31 58.59 152.9 58.52C152.5 58.45 152.15 58.36 151.85 58.25L152.09 57.12C152.35 57.22 152.67 57.31 153.04 57.39C153.42 57.47 153.82 57.52 154.23 57.52C155 57.52 155.56 57.37 155.9 57.06C156.25 56.75 156.42 56.26 156.42 55.59V55.28V55.27ZM148.96 47.4C148.73 47.4 148.53 47.33 148.36 47.18C148.2 47.02 148.12 46.81 148.12 46.55C148.12 46.29 148.2 46.08 148.36 45.93C148.53 45.77 148.73 45.69 148.96 45.69C149.19 45.69 149.39 45.77 149.55 45.93C149.72 46.08 149.8 46.28 149.8 46.55C149.8 46.82 149.72 47.02 149.55 47.18C149.39 47.33 149.2 47.4 148.96 47.4ZM149.61 56H148.31V48.72H149.61V56ZM144.77 45.36L146.07 45.14V55.79C145.77 55.87 145.39 55.96 144.92 56.04C144.45 56.12 143.92 56.17 143.31 56.17C142.75 56.17 142.25 56.08 141.8 55.9C141.35 55.72 140.97 55.47 140.65 55.14C140.33 54.81 140.09 54.42 139.91 53.95C139.74 53.47 139.66 52.94 139.66 52.35C139.66 51.76 139.73 51.28 139.87 50.81C140.02 50.34 140.23 49.94 140.51 49.61C140.79 49.28 141.13 49.01 141.53 48.83C141.94 48.64 142.41 48.55 142.93 48.55C143.35 48.55 143.72 48.61 144.04 48.72C144.37 48.83 144.61 48.94 144.77 49.04V45.36ZM144.77 50.26C144.61 50.13 144.38 50 144.08 49.88C143.78 49.76 143.45 49.7 143.1 49.7C142.73 49.7 142.4 49.77 142.13 49.91C141.87 50.04 141.65 50.23 141.49 50.47C141.32 50.7 141.2 50.98 141.13 51.31C141.06 51.64 141.02 51.99 141.02 52.36C141.02 53.21 141.23 53.87 141.65 54.33C142.07 54.79 142.63 55.02 143.33 55.02C143.68 55.02 143.98 55.01 144.21 54.98C144.45 54.94 144.64 54.91 144.77 54.87V50.26ZM132.03 48.93C132.33 48.86 132.73 48.78 133.22 48.69C133.71 48.6 134.28 48.56 134.93 48.56C135.51 48.56 135.99 48.64 136.37 48.81C136.75 48.97 137.06 49.2 137.28 49.5C137.51 49.79 137.68 50.14 137.77 50.55C137.86 50.96 137.91 51.41 137.91 51.91V56H136.61V52.19C136.61 51.74 136.58 51.36 136.51 51.04C136.45 50.72 136.36 50.47 136.22 50.27C136.08 50.07 135.89 49.93 135.66 49.85C135.43 49.76 135.14 49.71 134.79 49.71C134.65 49.71 134.51 49.71 134.36 49.72C134.21 49.73 134.07 49.74 133.93 49.76C133.8 49.76 133.68 49.78 133.57 49.8C133.47 49.82 133.39 49.83 133.35 49.84V55.99H132.05V48.92L132.03 48.93ZM124.22 57.36C124.32 57.41 124.45 57.45 124.61 57.49C124.78 57.54 124.94 57.56 125.1 57.56C125.61 57.56 126.01 57.44 126.3 57.21C126.59 56.99 126.85 56.62 127.08 56.1C126.49 54.98 125.94 53.79 125.43 52.54C124.93 51.28 124.51 50.01 124.17 48.72H125.57C125.67 49.14 125.79 49.59 125.93 50.08C126.08 50.57 126.24 51.06 126.42 51.58C126.6 52.09 126.79 52.61 126.99 53.12C127.19 53.63 127.41 54.13 127.63 54.6C127.98 53.62 128.29 52.65 128.55 51.69C128.81 50.73 129.06 49.74 129.29 48.72H130.63C130.29 50.09 129.92 51.41 129.51 52.68C129.1 53.94 128.66 55.12 128.18 56.22C127.99 56.64 127.8 57 127.59 57.3C127.39 57.61 127.17 57.86 126.93 58.06C126.69 58.26 126.41 58.4 126.1 58.49C125.8 58.58 125.46 58.63 125.08 58.63C124.98 58.63 124.87 58.63 124.76 58.6C124.65 58.6 124.54 58.57 124.42 58.54C124.32 58.52 124.22 58.5 124.13 58.47C124.05 58.44 123.99 58.42 123.95 58.4L124.19 57.35L124.22 57.36ZM117.31 54.66C117.22 54.44 117.09 54.15 116.93 53.81C116.78 53.46 116.62 53.09 116.44 52.69C116.26 52.29 116.07 51.88 115.87 51.46C115.67 51.03 115.49 50.63 115.31 50.26C115.13 49.88 114.96 49.54 114.81 49.24C114.66 48.94 114.54 48.71 114.45 48.55C114.35 49.65 114.26 50.85 114.2 52.13C114.13 53.41 114.08 54.7 114.03 56.01H112.7C112.74 55.17 112.78 54.33 112.83 53.48C112.88 52.62 112.93 51.78 112.98 50.96C113.05 50.13 113.11 49.32 113.18 48.54C113.25 47.76 113.33 47.01 113.42 46.31H114.61C114.86 46.72 115.13 47.21 115.42 47.77C115.71 48.33 116 48.92 116.29 49.53C116.58 50.14 116.86 50.75 117.13 51.36C117.4 51.97 117.65 52.52 117.87 53.03C118.09 52.53 118.34 51.97 118.61 51.36C118.88 50.74 119.16 50.13 119.45 49.53C119.74 48.91 120.03 48.33 120.32 47.77C120.61 47.21 120.88 46.72 121.13 46.31H122.32C122.64 49.44 122.88 52.67 123.03 56.01H121.7C121.65 54.7 121.6 53.41 121.53 52.13C121.46 50.84 121.38 49.65 121.28 48.55C121.19 48.71 121.06 48.94 120.9 49.24C120.75 49.54 120.59 49.88 120.41 50.26C120.23 50.63 120.04 51.03 119.84 51.46C119.64 51.88 119.46 52.29 119.28 52.69C119.1 53.09 118.93 53.46 118.78 53.81C118.63 54.16 118.51 54.44 118.42 54.66H117.33H117.31ZM73.8499 54.89C75.1399 54.89 76.0999 54.56 76.7399 53.91C77.3699 53.25 77.6899 52.32 77.6899 51.14C77.6899 49.96 77.3699 49.03 76.7399 48.38C76.1099 47.72 75.1399 47.39 73.8499 47.39C73.4699 47.39 73.1699 47.39 72.9499 47.4C72.7399 47.4 72.5999 47.42 72.5199 47.43V54.85C72.5999 54.85 72.7499 54.87 72.9499 54.88C73.1599 54.88 73.4599 54.89 73.8499 54.89ZM79.1299 51.13C79.1299 51.97 78.9999 52.7 78.7399 53.33C78.4799 53.95 78.1099 54.46 77.6299 54.87C77.1499 55.27 76.5799 55.57 75.9199 55.78C75.2599 55.98 74.5299 56.07 73.7299 56.07C73.3399 56.07 72.8999 56.05 72.4299 56.01C71.9599 55.98 71.5399 55.92 71.1599 55.83V46.42C71.5399 46.33 71.9699 46.27 72.4299 46.24C72.9099 46.2 73.3399 46.18 73.7299 46.18C74.5199 46.18 75.2499 46.28 75.9199 46.49C76.5799 46.69 77.1499 46.99 77.6299 47.4C78.1099 47.8 78.4799 48.32 78.7399 48.94C78.9999 49.56 79.1299 50.28 79.1299 51.13ZM81.1799 47.61C80.9499 47.61 80.7499 47.54 80.5799 47.39C80.4199 47.23 80.3399 47.02 80.3399 46.76C80.3399 46.5 80.4199 46.29 80.5799 46.14C80.7499 45.98 80.9499 45.9 81.1799 45.9C81.4099 45.9 81.6099 45.98 81.7699 46.14C81.9399 46.29 82.0199 46.49 82.0199 46.76C82.0199 47.03 81.9399 47.23 81.7699 47.39C81.6099 47.54 81.4199 47.61 81.1799 47.61ZM81.8399 56.21H80.5399V48.93H81.8399V56.21ZM88.3699 49.87C88.2399 49.83 88.0599 49.8 87.8399 49.77C87.6299 49.73 87.3299 49.71 86.9599 49.71C86.2599 49.71 85.7199 49.94 85.3399 50.4C84.9699 50.86 84.7799 51.46 84.7799 52.22C84.7799 52.64 84.8299 53 84.9299 53.3C85.0399 53.6 85.1899 53.85 85.3599 54.04C85.5499 54.24 85.7599 54.38 85.9899 54.47C86.2299 54.56 86.4799 54.61 86.7299 54.61C87.0799 54.61 87.3899 54.56 87.6799 54.47C87.9699 54.37 88.1999 54.25 88.3699 54.12V49.86V49.87ZM88.3899 55.28C88.2799 55.35 88.0599 55.45 87.7299 55.57C87.4099 55.68 87.0399 55.74 86.6099 55.74C86.1799 55.74 85.7599 55.67 85.3599 55.53C84.9799 55.39 84.6399 55.18 84.3499 54.89C84.0599 54.59 83.8299 54.22 83.6599 53.78C83.4899 53.34 83.4099 52.82 83.4099 52.21C83.4099 51.68 83.4899 51.19 83.6499 50.75C83.8099 50.3 84.0399 49.92 84.3399 49.6C84.6499 49.27 85.0199 49.02 85.4599 48.84C85.8999 48.65 86.3899 48.56 86.9399 48.56C87.5499 48.56 88.0699 48.61 88.5199 48.7C88.9799 48.78 89.3599 48.86 89.6699 48.94V55.44C89.6699 56.56 89.3799 57.37 88.7999 57.88C88.2199 58.38 87.3399 58.64 86.1699 58.64C85.7099 58.64 85.2799 58.6 84.8699 58.53C84.4699 58.46 84.1199 58.37 83.8199 58.26L84.0599 57.13C84.3199 57.23 84.6399 57.32 85.0099 57.4C85.3899 57.48 85.7899 57.53 86.1999 57.53C86.9699 57.53 87.5299 57.38 87.8699 57.07C88.2199 56.76 88.3899 56.27 88.3899 55.6V55.29V55.28ZM95.9499 49.83C95.8199 49.79 95.6399 49.76 95.4199 49.73C95.2099 49.69 94.9099 49.67 94.5399 49.67C93.8399 49.67 93.2999 49.9 92.9199 50.36C92.5499 50.82 92.3599 51.42 92.3599 52.18C92.3599 52.6 92.4099 52.96 92.5099 53.26C92.6199 53.56 92.7699 53.81 92.9399 54C93.1299 54.2 93.3399 54.34 93.5699 54.43C93.8099 54.52 94.0599 54.57 94.3099 54.57C94.6599 54.57 94.9699 54.52 95.2599 54.43C95.5499 54.33 95.7799 54.21 95.9499 54.08V49.82V49.83ZM95.9599 55.24C95.8499 55.31 95.6299 55.41 95.2999 55.53C94.9799 55.64 94.6099 55.7 94.1799 55.7C93.7499 55.7 93.3299 55.63 92.9299 55.49C92.5499 55.35 92.2099 55.14 91.9199 54.85C91.6299 54.55 91.3999 54.18 91.2299 53.74C91.0599 53.3 90.9799 52.78 90.9799 52.17C90.9799 51.64 91.0599 51.15 91.2199 50.71C91.3799 50.26 91.6099 49.88 91.9099 49.56C92.2199 49.23 92.5899 48.98 93.0299 48.8C93.4699 48.61 93.9599 48.52 94.5099 48.52C95.1199 48.52 95.6399 48.57 96.0899 48.66C96.5499 48.74 96.9299 48.82 97.2399 48.9V55.4C97.2399 56.52 96.9499 57.33 96.3699 57.84C95.7899 58.34 94.9099 58.6 93.7399 58.6C93.2799 58.6 92.8499 58.56 92.4399 58.49C92.0399 58.42 91.6899 58.33 91.3899 58.22L91.6299 57.09C91.8899 57.19 92.2099 57.28 92.5799 57.36C92.9599 57.44 93.3599 57.49 93.7699 57.49C94.5399 57.49 95.0999 57.34 95.4399 57.03C95.7899 56.72 95.9599 56.23 95.9599 55.56V55.25V55.24Z" fill="#1D1D1B"/>
    <path d="M28 0H14V14H28V0Z" fill="#F08371"/>
    <path d="M42 14H28V28H42V14Z" fill="#6D6059"/>
    <path d="M56 14H42V28H56V14Z" fill="#BAAFAA"/>
    <path d="M14 28H0V42H14V28Z" fill="#546850"/>
    <path d="M28 28H14V42H28V28Z" fill="#848D7A"/>
    <path d="M56 28H42V42H56V28Z" fill="#FDE4CE"/>
    <path d="M42 42H28V56H42V42Z" fill="#F18732"/>
    <path d="M109 51H101V52H109V51Z" fill="#1D1D1B"/>
    <path d="M314.98 34.28C313.77 34.26 312.78 34.13 312.01 33.89C311.26 33.65 310.67 33.31 310.22 32.88C309.79 32.43 309.49 31.9 309.32 31.28C309.17 30.65 309.1 29.94 309.1 29.15V12.94L313.27 12.27V28.31C313.27 28.68 313.3 29.02 313.35 29.32C313.4 29.62 313.51 29.87 313.66 30.08C313.83 30.29 314.06 30.45 314.36 30.58C314.66 30.71 315.06 30.79 315.56 30.83L314.97 34.27L314.98 34.28ZM299.75 18.88C300.98 18.88 302.01 19.02 302.83 19.3C303.65 19.58 304.3 19.98 304.79 20.5C305.29 21.02 305.65 21.66 305.85 22.4C306.06 23.15 306.16 23.98 306.16 24.89V33.57C305.56 33.7 304.73 33.85 303.67 34.02C302.61 34.21 301.32 34.3 299.81 34.3C298.86 34.3 297.99 34.22 297.21 34.05C296.44 33.88 295.78 33.61 295.22 33.24C294.66 32.85 294.23 32.34 293.93 31.73C293.63 31.11 293.48 30.36 293.48 29.46C293.48 28.56 293.65 27.87 293.98 27.28C294.33 26.68 294.8 26.21 295.38 25.85C295.96 25.5 296.62 25.24 297.37 25.09C298.12 24.92 298.89 24.84 299.69 24.84C300.23 24.84 300.71 24.87 301.12 24.92C301.55 24.96 301.89 25.01 302.16 25.09V24.7C302.16 23.99 301.95 23.42 301.52 22.99C301.09 22.56 300.34 22.35 299.28 22.35C298.57 22.35 297.87 22.41 297.18 22.52C296.49 22.61 295.89 22.75 295.39 22.94L294.86 19.58C295.1 19.51 295.4 19.43 295.76 19.36C296.13 19.27 296.53 19.19 296.96 19.14C297.39 19.07 297.84 19.01 298.3 18.97C298.79 18.91 299.27 18.89 299.76 18.89L299.75 18.88ZM300.09 31.09C300.5 31.09 300.89 31.09 301.27 31.06C301.64 31.04 301.94 31.01 302.17 30.98V27.82C302 27.78 301.75 27.75 301.41 27.71C301.07 27.67 300.77 27.65 300.49 27.65C300.1 27.65 299.72 27.68 299.37 27.73C299.03 27.77 298.74 27.85 298.47 27.98C298.21 28.11 298 28.29 297.85 28.51C297.7 28.73 297.63 29.01 297.63 29.35C297.63 30 297.84 30.46 298.27 30.72C298.72 30.96 299.32 31.08 300.09 31.08V31.09ZM283.27 15.6L287.44 14.93V19.27H292.45V22.74H287.44V27.92C287.44 28.8 287.59 29.5 287.89 30.02C288.21 30.54 288.83 30.8 289.77 30.8C290.22 30.8 290.68 30.76 291.14 30.69C291.63 30.6 292.06 30.48 292.46 30.33L293.05 33.58C292.55 33.79 291.99 33.96 291.37 34.11C290.75 34.26 290 34.33 289.1 34.33C287.96 34.33 287.02 34.18 286.27 33.88C285.52 33.56 284.93 33.13 284.48 32.59C284.03 32.03 283.71 31.36 283.53 30.57C283.36 29.79 283.28 28.92 283.28 27.97V15.59L283.27 15.6ZM281.31 22.97C280.94 22.88 280.5 22.78 279.99 22.69C279.49 22.58 278.94 22.52 278.37 22.52C278.11 22.52 277.79 22.55 277.42 22.6C277.07 22.64 276.79 22.68 276.61 22.74V34H272.44V20.06C273.19 19.8 274.06 19.56 275.07 19.33C276.1 19.09 277.24 18.97 278.49 18.97C278.71 18.97 278.98 18.99 279.3 19.03C279.62 19.05 279.93 19.09 280.25 19.14C280.57 19.18 280.88 19.23 281.2 19.31C281.52 19.37 281.79 19.44 282.01 19.53L281.31 22.97ZM265.79 26.61C265.79 25.32 265.53 24.31 265.01 23.59C264.51 22.84 263.78 22.47 262.83 22.47C261.88 22.47 261.14 22.84 260.62 23.59C260.1 24.32 259.84 25.33 259.84 26.61C259.84 27.89 260.1 28.92 260.62 29.69C261.14 30.44 261.88 30.81 262.83 30.81C263.78 30.81 264.51 30.44 265.01 29.69C265.53 28.92 265.79 27.9 265.79 26.61ZM270.04 26.61C270.04 27.77 269.87 28.83 269.54 29.8C269.2 30.75 268.72 31.57 268.08 32.26C267.45 32.93 266.68 33.45 265.78 33.83C264.9 34.2 263.91 34.39 262.81 34.39C261.71 34.39 260.74 34.2 259.84 33.83C258.96 33.46 258.21 32.93 257.57 32.26C256.94 31.57 256.44 30.75 256.09 29.8C255.74 28.83 255.56 27.77 255.56 26.61C255.56 25.45 255.74 24.4 256.09 23.45C256.46 22.5 256.97 21.69 257.6 21.01C258.25 20.34 259.02 19.82 259.9 19.44C260.8 19.07 261.77 18.88 262.81 18.88C263.85 18.88 264.84 19.07 265.72 19.44C266.62 19.81 267.38 20.34 268.02 21.01C268.65 21.68 269.15 22.49 269.5 23.45C269.85 24.41 270.03 25.46 270.03 26.61H270.04ZM253.9 26.64C253.9 27.78 253.76 28.81 253.48 29.75C253.2 30.69 252.79 31.49 252.25 32.16C251.71 32.83 251.04 33.35 250.23 33.73C249.43 34.1 248.5 34.29 247.46 34.29C246.88 34.29 246.34 34.23 245.84 34.12C245.34 34.01 244.85 33.85 244.38 33.64V39.18H240.21V19.78C240.58 19.67 241.01 19.57 241.5 19.47C241.99 19.36 242.49 19.26 243.01 19.19C243.55 19.12 244.09 19.06 244.63 19.02C245.19 18.96 245.72 18.94 246.23 18.94C247.44 18.94 248.53 19.13 249.48 19.5C250.43 19.85 251.23 20.37 251.89 21.04C252.54 21.69 253.04 22.5 253.37 23.45C253.72 24.4 253.9 25.47 253.9 26.64ZM249.64 26.75C249.64 25.46 249.35 24.44 248.77 23.67C248.19 22.89 247.33 22.49 246.19 22.49C245.82 22.49 245.47 22.51 245.15 22.55C244.83 22.57 244.57 22.6 244.37 22.63V30.16C244.63 30.33 244.97 30.47 245.38 30.58C245.81 30.69 246.24 30.75 246.67 30.75C248.65 30.75 249.64 29.42 249.64 26.75ZM230.86 18.88C232.09 18.88 233.12 19.02 233.94 19.3C234.76 19.58 235.41 19.98 235.9 20.5C236.4 21.02 236.76 21.66 236.96 22.4C237.16 23.14 237.27 23.98 237.27 24.89V33.57C236.67 33.7 235.84 33.85 234.78 34.02C233.72 34.21 232.43 34.3 230.92 34.3C229.97 34.3 229.1 34.22 228.32 34.05C227.55 33.88 226.89 33.61 226.33 33.24C225.77 32.85 225.34 32.34 225.04 31.73C224.74 31.12 224.59 30.36 224.59 29.46C224.59 28.56 224.76 27.87 225.09 27.28C225.44 26.68 225.91 26.21 226.49 25.85C227.07 25.49 227.73 25.24 228.48 25.09C229.23 24.92 230 24.84 230.8 24.84C231.34 24.84 231.82 24.87 232.23 24.92C232.66 24.96 233 25.01 233.27 25.09V24.7C233.27 23.99 233.06 23.42 232.63 22.99C232.2 22.56 231.45 22.35 230.39 22.35C229.68 22.35 228.98 22.41 228.29 22.52C227.6 22.61 227 22.75 226.5 22.94L225.97 19.58C226.21 19.51 226.51 19.43 226.87 19.36C227.24 19.27 227.64 19.19 228.07 19.14C228.5 19.07 228.95 19.01 229.41 18.97C229.9 18.91 230.38 18.89 230.87 18.89L230.86 18.88ZM231.2 31.09C231.61 31.09 232 31.09 232.38 31.06C232.76 31.03 233.05 31.01 233.28 30.98V27.82C233.11 27.78 232.86 27.75 232.52 27.71C232.18 27.67 231.88 27.65 231.6 27.65C231.21 27.65 230.83 27.68 230.48 27.73C230.14 27.77 229.85 27.85 229.58 27.98C229.31 28.11 229.11 28.29 228.96 28.51C228.81 28.73 228.74 29.01 228.74 29.35C228.74 30 228.95 30.46 229.38 30.72C229.83 30.96 230.43 31.08 231.2 31.08V31.09ZM214.38 15.6L218.55 14.93V19.27H223.56V22.74H218.55V27.92C218.55 28.8 218.7 29.5 219 30.02C219.32 30.54 219.94 30.8 220.88 30.8C221.33 30.8 221.79 30.76 222.25 30.69C222.74 30.6 223.17 30.48 223.57 30.33L224.16 33.58C223.66 33.79 223.1 33.96 222.48 34.11C221.86 34.26 221.11 34.33 220.21 34.33C219.07 34.33 218.13 34.18 217.38 33.88C216.63 33.56 216.04 33.13 215.59 32.59C215.14 32.03 214.82 31.36 214.64 30.57C214.47 29.79 214.39 28.92 214.39 27.97V15.59L214.38 15.6ZM205.17 18.88C206.4 18.88 207.43 19.02 208.25 19.3C209.07 19.58 209.72 19.98 210.21 20.5C210.71 21.02 211.07 21.66 211.27 22.4C211.48 23.15 211.58 23.98 211.58 24.89V33.57C210.98 33.7 210.15 33.85 209.09 34.02C208.03 34.21 206.74 34.3 205.23 34.3C204.28 34.3 203.41 34.22 202.63 34.05C201.86 33.88 201.2 33.61 200.64 33.24C200.08 32.85 199.65 32.34 199.35 31.73C199.05 31.11 198.9 30.36 198.9 29.46C198.9 28.56 199.07 27.87 199.4 27.28C199.75 26.68 200.22 26.21 200.8 25.85C201.38 25.5 202.04 25.24 202.79 25.09C203.54 24.92 204.31 24.84 205.11 24.84C205.65 24.84 206.13 24.87 206.54 24.92C206.97 24.96 207.31 25.01 207.58 25.09V24.7C207.58 23.99 207.37 23.42 206.94 22.99C206.51 22.56 205.76 22.35 204.7 22.35C203.99 22.35 203.29 22.41 202.6 22.52C201.91 22.61 201.31 22.75 200.81 22.94L200.28 19.58C200.52 19.51 200.82 19.43 201.18 19.36C201.55 19.27 201.95 19.19 202.38 19.14C202.81 19.07 203.26 19.01 203.72 18.97C204.21 18.91 204.69 18.89 205.18 18.89L205.17 18.88ZM205.51 31.09C205.92 31.09 206.31 31.09 206.69 31.06C207.06 31.04 207.36 31.01 207.59 30.98V27.82C207.42 27.78 207.17 27.75 206.83 27.71C206.49 27.67 206.19 27.65 205.91 27.65C205.52 27.65 205.14 27.68 204.79 27.73C204.45 27.77 204.16 27.85 203.89 27.98C203.63 28.11 203.42 28.29 203.27 28.51C203.12 28.73 203.05 29.01 203.05 29.35C203.05 30 203.26 30.46 203.69 30.72C204.14 30.96 204.74 31.08 205.51 31.08V31.09ZM196.81 33.52C196.44 33.63 196.01 33.74 195.52 33.86C195.03 33.95 194.52 34.04 193.98 34.11C193.46 34.18 192.92 34.24 192.36 34.28C191.82 34.34 191.3 34.36 190.79 34.36C189.58 34.36 188.49 34.18 187.54 33.83C186.59 33.48 185.79 32.97 185.13 32.32C184.48 31.65 183.97 30.85 183.62 29.91C183.28 28.96 183.12 27.89 183.12 26.72C183.12 25.55 183.27 24.45 183.57 23.5C183.87 22.53 184.3 21.71 184.86 21.04C185.42 20.37 186.1 19.85 186.9 19.5C187.72 19.15 188.65 18.97 189.7 18.97C190.28 18.97 190.79 19.03 191.24 19.14C191.71 19.25 192.17 19.41 192.64 19.62V12.96L196.81 12.29V33.54V33.52ZM187.38 26.52C187.38 27.81 187.67 28.84 188.25 29.63C188.83 30.41 189.69 30.81 190.83 30.81C191.2 30.81 191.55 30.81 191.87 30.78C192.19 30.74 192.45 30.71 192.65 30.67V23.08C192.39 22.91 192.04 22.77 191.61 22.66C191.2 22.55 190.78 22.49 190.35 22.49C188.37 22.49 187.38 23.83 187.38 26.52ZM169.41 31C170.18 31 170.72 30.93 171.03 30.78C171.35 30.63 171.51 30.34 171.51 29.91C171.51 29.57 171.3 29.28 170.89 29.04C170.48 28.78 169.85 28.49 169.01 28.17C168.36 27.93 167.76 27.68 167.22 27.41C166.7 27.15 166.25 26.84 165.88 26.49C165.51 26.12 165.22 25.68 165.01 25.17C164.8 24.67 164.7 24.06 164.7 23.35C164.7 21.97 165.21 20.88 166.24 20.07C167.27 19.27 168.68 18.87 170.47 18.87C171.37 18.87 172.22 18.95 173.05 19.12C173.87 19.27 174.52 19.44 175.01 19.62L174.28 22.87C173.79 22.7 173.26 22.55 172.68 22.42C172.12 22.29 171.49 22.22 170.78 22.22C169.47 22.22 168.82 22.58 168.82 23.31C168.82 23.48 168.85 23.63 168.9 23.76C168.95 23.89 169.07 24.02 169.24 24.15C169.41 24.26 169.63 24.39 169.91 24.54C170.21 24.67 170.58 24.82 171.03 24.99C171.94 25.33 172.7 25.66 173.3 26C173.9 26.32 174.36 26.67 174.7 27.06C175.05 27.43 175.3 27.85 175.43 28.32C175.58 28.79 175.65 29.33 175.65 29.94C175.65 31.4 175.1 32.5 174 33.24C172.92 33.99 171.38 34.36 169.38 34.36C168.07 34.36 166.98 34.25 166.1 34.02C165.24 33.8 164.64 33.61 164.31 33.46L165.01 30.07C165.72 30.35 166.45 30.57 167.19 30.74C167.94 30.89 168.67 30.96 169.4 30.96L169.41 31ZM158.77 25.15C158.75 24.8 158.69 24.45 158.57 24.11C158.48 23.77 158.32 23.48 158.09 23.21C157.88 22.95 157.61 22.73 157.28 22.57C156.96 22.4 156.56 22.32 156.08 22.32C155.6 22.32 155.21 22.4 154.88 22.57C154.54 22.72 154.26 22.92 154.04 23.19C153.82 23.46 153.64 23.76 153.51 24.11C153.4 24.45 153.31 24.79 153.26 25.15H158.78H158.77ZM148.97 26.75C148.97 25.44 149.17 24.3 149.56 23.33C149.97 22.34 150.5 21.52 151.16 20.87C151.82 20.22 152.56 19.72 153.4 19.39C154.26 19.05 155.14 18.89 156.03 18.89C158.12 18.89 159.77 19.53 160.99 20.82C162.2 22.09 162.81 23.97 162.81 26.45C162.81 26.69 162.81 26.96 162.78 27.26C162.76 27.54 162.74 27.79 162.72 28.02H153.26C153.35 28.88 153.75 29.56 154.46 30.06C155.17 30.56 156.12 30.82 157.32 30.82C158.09 30.82 158.83 30.75 159.56 30.62C160.31 30.47 160.91 30.29 161.38 30.09L161.94 33.48C161.72 33.59 161.42 33.7 161.04 33.82C160.66 33.94 160.25 34.03 159.78 34.1C159.33 34.19 158.85 34.27 158.32 34.32C157.79 34.37 157.27 34.4 156.75 34.4C155.42 34.4 154.27 34.2 153.28 33.81C152.31 33.42 151.5 32.89 150.84 32.21C150.21 31.52 149.73 30.71 149.41 29.77C149.11 28.84 148.96 27.83 148.96 26.75H148.97ZM146.6 32.15C146.6 34.56 145.98 36.34 144.75 37.5C143.54 38.68 141.65 39.26 139.09 39.26C138.19 39.26 137.3 39.18 136.4 39.01C135.5 38.86 134.67 38.66 133.91 38.39L134.64 34.89C135.29 35.15 135.97 35.36 136.68 35.51C137.41 35.66 138.23 35.73 139.14 35.73C140.33 35.73 141.17 35.47 141.66 34.95C142.16 34.43 142.42 33.76 142.42 32.93V32.4C141.97 32.61 141.51 32.76 141.02 32.88C140.55 32.97 140.04 33.02 139.48 33.02C137.45 33.02 135.89 32.42 134.8 31.23C133.72 30.02 133.18 28.33 133.18 26.16C133.18 25.08 133.35 24.1 133.68 23.22C134.02 22.32 134.5 21.56 135.14 20.92C135.79 20.29 136.59 19.8 137.52 19.46C138.45 19.11 139.51 18.93 140.68 18.93C141.18 18.93 141.7 18.96 142.22 19.01C142.76 19.05 143.29 19.1 143.82 19.18C144.35 19.26 144.84 19.35 145.3 19.46C145.79 19.55 146.21 19.66 146.59 19.77V32.15H146.6ZM137.44 26.16C137.44 28.49 138.38 29.66 140.27 29.66C140.7 29.66 141.1 29.6 141.47 29.49C141.84 29.38 142.16 29.25 142.42 29.1V22.44C142.21 22.4 141.97 22.37 141.69 22.36C141.41 22.32 141.08 22.3 140.71 22.3C139.61 22.3 138.79 22.66 138.25 23.39C137.71 24.12 137.44 25.04 137.44 26.16ZM131.2 15.02C131.2 15.79 130.95 16.39 130.44 16.84C129.95 17.27 129.38 17.48 128.7 17.48C128.02 17.48 127.44 17.27 126.94 16.84C126.45 16.39 126.21 15.79 126.21 15.02C126.21 14.25 126.45 13.66 126.94 13.23C127.44 12.78 128.03 12.56 128.7 12.56C129.37 12.56 129.95 12.78 130.44 13.23C130.94 13.66 131.2 14.26 131.2 15.02ZM130.81 34H126.64V19.27H130.81V34ZM124.54 22.97C124.17 22.88 123.73 22.78 123.22 22.69C122.72 22.58 122.17 22.52 121.6 22.52C121.34 22.52 121.02 22.55 120.65 22.6C120.3 22.64 120.02 22.68 119.84 22.74V34H115.67V20.06C116.42 19.8 117.29 19.56 118.3 19.33C119.33 19.09 120.47 18.97 121.72 18.97C121.94 18.97 122.21 18.99 122.53 19.03C122.85 19.05 123.16 19.09 123.48 19.14C123.8 19.18 124.11 19.23 124.43 19.31C124.75 19.37 125.02 19.44 125.24 19.53L124.54 22.97ZM109.25 25.15C109.23 24.8 109.17 24.45 109.05 24.11C108.96 23.77 108.8 23.48 108.57 23.21C108.36 22.95 108.09 22.73 107.76 22.57C107.44 22.4 107.04 22.32 106.56 22.32C106.08 22.32 105.69 22.4 105.36 22.57C105.02 22.72 104.74 22.92 104.52 23.19C104.3 23.46 104.12 23.76 103.99 24.11C103.88 24.45 103.79 24.79 103.74 25.15H109.26H109.25ZM99.45 26.75C99.45 25.44 99.65 24.3 100.04 23.33C100.45 22.34 100.98 21.52 101.64 20.87C102.3 20.22 103.04 19.72 103.88 19.39C104.74 19.05 105.62 18.89 106.51 18.89C108.6 18.89 110.25 19.53 111.47 20.82C112.68 22.09 113.29 23.97 113.29 26.45C113.29 26.69 113.29 26.96 113.26 27.26C113.24 27.54 113.22 27.79 113.2 28.02H103.74C103.83 28.88 104.23 29.56 104.94 30.06C105.65 30.56 106.6 30.82 107.8 30.82C108.57 30.82 109.31 30.75 110.04 30.62C110.79 30.47 111.39 30.29 111.86 30.09L112.42 33.48C112.2 33.59 111.9 33.7 111.52 33.82C111.14 33.94 110.73 34.03 110.26 34.1C109.81 34.19 109.33 34.27 108.8 34.32C108.27 34.37 107.75 34.4 107.23 34.4C105.9 34.4 104.75 34.2 103.76 33.81C102.79 33.42 101.98 32.89 101.32 32.21C100.69 31.52 100.21 30.71 99.89 29.77C99.59 28.84 99.44 27.83 99.44 26.75H99.45ZM89.98 34C89.03 32.13 88.06 29.95 87.07 27.45C86.1 24.95 85.18 22.22 84.3 19.27H88.72C88.91 20 89.12 20.79 89.36 21.65C89.62 22.49 89.88 23.35 90.14 24.23C90.42 25.09 90.69 25.93 90.95 26.75C91.23 27.57 91.5 28.32 91.76 28.99C92 28.32 92.26 27.57 92.54 26.75C92.82 25.93 93.09 25.09 93.35 24.23C93.63 23.35 93.89 22.49 94.13 21.65C94.39 20.79 94.62 20 94.8 19.27H99.11C98.23 22.22 97.3 24.94 96.31 27.45C95.34 29.95 94.38 32.14 93.43 34H89.96H89.98ZM76.53 30.67C77.15 30.67 77.65 30.62 78.04 30.53C78.45 30.42 78.78 30.28 79.02 30.11C79.26 29.92 79.43 29.71 79.52 29.47C79.61 29.23 79.66 28.96 79.66 28.66C79.66 28.03 79.36 27.5 78.76 27.09C78.16 26.66 77.14 26.2 75.68 25.72C75.05 25.5 74.41 25.24 73.78 24.96C73.15 24.66 72.58 24.3 72.07 23.87C71.57 23.42 71.16 22.89 70.84 22.27C70.52 21.64 70.36 20.87 70.36 19.97C70.36 19.07 70.53 18.27 70.86 17.56C71.2 16.83 71.67 16.22 72.29 15.71C72.91 15.2 73.65 14.82 74.53 14.56C75.41 14.28 76.4 14.14 77.5 14.14C78.81 14.14 79.94 14.28 80.89 14.56C81.84 14.84 82.63 15.15 83.24 15.48L81.98 18.92C81.44 18.64 80.83 18.4 80.16 18.19C79.51 17.97 78.71 17.85 77.78 17.85C76.73 17.85 75.98 18 75.51 18.3C75.06 18.58 74.84 19.02 74.84 19.62C74.84 19.97 74.92 20.27 75.09 20.52C75.26 20.77 75.49 20.99 75.79 21.19C76.11 21.38 76.46 21.55 76.85 21.72C77.26 21.87 77.71 22.03 78.19 22.2C79.2 22.57 80.08 22.95 80.82 23.32C81.57 23.67 82.18 24.09 82.67 24.58C83.17 25.07 83.55 25.63 83.79 26.29C84.03 26.95 84.15 27.74 84.15 28.67C84.15 30.48 83.52 31.89 82.25 32.9C80.98 33.89 79.07 34.38 76.51 34.38C75.65 34.38 74.88 34.32 74.19 34.21C73.5 34.12 72.88 34 72.34 33.85C71.82 33.7 71.36 33.54 70.97 33.37C70.6 33.2 70.28 33.04 70.02 32.89L71.25 29.42C71.83 29.74 72.54 30.03 73.38 30.29C74.24 30.53 75.28 30.65 76.52 30.65L76.53 30.67Z" fill="#1D1D1B"/>
  </g>
  <defs>
    <clipPath id="clip0_4796_38155">
      <rect width="334.73" height="58.64" fill="white"/>
    </clipPath>
  </defs>
</svg>
