<svg width="16" height="16" viewBox="0 0 16 16" fill="none" xmlns="http://www.w3.org/2000/svg">
    <path d="M0 0H16V16H0V0Z" fill="#3F3D3C"/>
    <path d="M12.6947 4.29279C12.8822 4.48031 12.9875 4.73462 12.9875 4.99979C12.9875 5.26495 12.8822 5.51926 12.6947 5.70679L7.69471 10.7068C7.50718 10.8943 7.25288 10.9996 6.98771 10.9996C6.72255 10.9996 6.46824 10.8943 6.28071 10.7068L4.28071 8.70679C4.09855 8.51818 3.99776 8.26558 4.00004 8.00339C4.00232 7.74119 4.10749 7.49038 4.29289 7.30497C4.4783 7.11956 4.72911 7.01439 4.99131 7.01211C5.25351 7.00983 5.50611 7.11063 5.69471 7.29279L6.98771 8.58579L11.2807 4.29279C11.4682 4.10532 11.7225 4 11.9877 4C12.2529 4 12.5072 4.10532 12.6947 4.29279Z" fill="#F0EFEE"/>
</svg>
