<svg width="125" height="125" viewBox="0 0 125 125" fill="none" xmlns="http://www.w3.org/2000/svg">
<g clip-path="url(#clip0_14_3)">
<path d="M78.4722 13.8893H74.8264C73.8778 11.2855 72.1513 9.03653 69.881 7.44739C67.6108 5.85824 64.9066 5.00586 62.1354 5.00586C59.3642 5.00586 56.6601 5.85824 54.3898 7.44739C52.1196 9.03653 50.3931 11.2855 49.4445 13.8893H46.5278C44.3205 13.8984 42.2062 14.7794 40.6453 16.3402C39.0845 17.901 38.2036 20.0153 38.1945 22.2226V34.7226H86.8056V22.2226C86.7964 20.0153 85.9155 17.901 84.3547 16.3402C82.7939 14.7794 80.6796 13.8984 78.4722 13.8893ZM79.8611 27.7782H45.1389V21.7018C45.1389 21.4716 45.2304 21.2508 45.3932 21.088C45.5559 20.9252 45.7767 20.8337 46.007 20.8337H55.3472L55.7639 16.9796C55.8378 16.3564 56.047 15.757 56.3769 15.2232C56.7068 14.6894 57.1493 14.2341 57.6736 13.8893C58.6055 13.1946 59.6968 12.7449 60.8476 12.5815C61.9984 12.418 63.1718 12.5461 64.2602 12.9538C65.3487 13.3615 66.3174 14.036 67.0776 14.9152C67.8377 15.7945 68.365 16.8506 68.6111 17.9865L68.9236 20.9032H78.9931C79.2233 20.9032 79.4441 20.9946 79.6069 21.1574C79.7697 21.3202 79.8611 21.541 79.8611 21.7712V27.7782Z" fill="black"/>
<path d="M115.451 62.7088H74.0625L83.9236 52.8824C84.2474 52.5586 84.5042 52.1743 84.6794 51.7513C84.8546 51.3283 84.9448 50.8749 84.9448 50.4171C84.9448 49.9593 84.8546 49.5059 84.6794 49.0829C84.5042 48.6599 84.2474 48.2756 83.9236 47.9518C83.5999 47.6281 83.2156 47.3713 82.7926 47.1961C82.3696 47.0208 81.9162 46.9307 81.4584 46.9307C81.0005 46.9307 80.5472 47.0208 80.1242 47.1961C79.7012 47.3713 79.3168 47.6281 78.9931 47.9518L60.7639 66.181L78.9931 84.4101C79.3175 84.732 79.7023 84.9866 80.1254 85.1594C80.5484 85.3322 81.0014 85.4197 81.4584 85.4171C82.1409 85.4143 82.8075 85.2103 83.3748 84.8308C83.9421 84.4512 84.385 83.9129 84.648 83.2831C84.9111 82.6532 84.9827 81.9598 84.8538 81.2895C84.725 80.6192 84.4014 80.0018 83.9236 79.5143L74.0625 69.6532H115.451C116.372 69.6532 117.255 69.2874 117.907 68.6362C118.558 67.985 118.924 67.1019 118.924 66.181C118.924 65.2601 118.558 64.3769 117.907 63.7258C117.255 63.0746 116.372 62.7088 115.451 62.7088Z" fill="black"/>
<path d="M100.694 55.5558H107.639V23.1947C107.648 22.4348 107.507 21.6807 107.223 20.9756C106.94 20.2705 106.52 19.6285 105.988 19.0863C105.455 18.5442 104.821 18.1127 104.121 17.8166C103.421 17.5206 102.67 17.3659 101.91 17.3613H94.0278V24.3058H100.694V55.5558Z" fill="black"/>
<path d="M100.694 107.639H24.3056V24.3058H31.25V17.3613H23.0556C21.5329 17.3796 20.0794 17.9998 19.0125 19.0862C17.9455 20.1727 17.3519 21.6372 17.3611 23.1599V108.75C17.352 109.51 17.4931 110.264 17.7765 110.969C18.0599 111.674 18.4799 112.316 19.0124 112.859C19.5448 113.401 20.1792 113.832 20.8791 114.128C21.5789 114.424 22.3304 114.579 23.0903 114.584H101.944C103.467 114.565 104.921 113.945 105.988 112.859C107.055 111.772 107.648 110.308 107.639 108.785V76.5974H100.694V107.639Z" fill="black"/>
</g>
<defs>
<clipPath id="clip0_14_3">
<rect width="125" height="125" fill="white"/>
</clipPath>
</defs>
</svg>
