<svg width="24" height="24" viewBox="0 0 24 24" fill="none" xmlns="http://www.w3.org/2000/svg">
<path d="M6.5 12.75H12.75M6.5 15.75H10.25M19 18V9.25L12.75 3H6.5C5.83696 3 5.20107 3.26339 4.73223 3.73223C4.26339 4.20107 4 4.83696 4 5.5V18C4 18.663 4.26339 19.2989 4.73223 19.7678C5.20107 20.2366 5.83696 20.5 6.5 20.5H16.5C17.163 20.5 17.7989 20.2366 18.2678 19.7678C18.7366 19.2989 19 18.663 19 18Z" stroke="#6E615A" stroke-width="2" stroke-linecap="round" stroke-linejoin="round"/>
<path d="M11.7505 4V7.75C11.7505 8.41304 12.0139 9.04893 12.4827 9.51777C12.9516 9.98661 13.5874 10.25 14.2505 10.25H18.0005" stroke="#6E615A" stroke-width="2" stroke-linecap="round" stroke-linejoin="round"/>
</svg>