<svg width="15" height="18" viewBox="0 0 15 18" fill="none" xmlns="http://www.w3.org/2000/svg">
<path d="M11.25 0H3.75C1.68 0 0 1.68 0 3.75V15C0 16.6575 1.3425 18 3 18H11.25C13.32 18 15 16.32 15 14.25V3.75C15 1.68 13.32 0 11.25 0ZM13.5 3.75V12H4.5V1.5H11.25C12.4875 1.5 13.5 2.5125 13.5 3.75ZM3 1.635V12C2.4525 12 1.9425 12.1575 1.5 12.42V3.75C1.5 2.775 2.13 1.95 3 1.635ZM11.25 16.5H3C2.175 16.5 1.5 15.825 1.5 15C1.5 14.175 2.175 13.5 3 13.5H13.5V14.25C13.5 15.4875 12.4875 16.5 11.25 16.5ZM6.5925 10.5C6.9075 10.5 7.1925 10.2975 7.2975 10.005L7.6575 9H10.35L10.71 10.005C10.815 10.305 11.1 10.5 11.415 10.5C11.9325 10.5 12.2925 9.99 12.12 9.495L10.065 3.7275C9.9 3.2775 9.4875 2.985 9.0075 2.985C8.5275 2.985 8.115 3.2775 7.95 3.735L5.895 9.5025C5.7225 9.99 6.0825 10.5075 6.6 10.5075L6.5925 10.5ZM9.8175 7.5H8.1975L9.0075 5.2275L9.8175 7.5Z" fill="#556951"/>
</svg>
