<svg xmlns="http://www.w3.org/2000/svg" width="24" height="24" viewBox="0 0 24 24" fill="none">
  <g clip-path="url(#clip0_1139_8914)">
    <path d="M12.0002 23.3L8.6502 20H4.0002V15.35L0.700195 12L4.0002 8.65001V4.00001H8.6502L12.0002 0.700012L15.3502 4.00001H20.0002V8.65001L23.3002 12L20.0002 15.35V20H15.3502L12.0002 23.3ZM12.0002 20.5L14.5002 18H18.0002V14.5L20.5002 12L18.0002 9.50001V6.00001H14.5002L12.0002 3.50001L9.5002 6.00001H6.0002V9.50001L3.5002 12L6.0002 14.5V18H9.5002L12.0002 20.5ZM9.0752 16.25L12.0002 14.475L14.9252 16.25L14.1502 12.925L16.7502 10.675L13.3252 10.4L12.0002 7.25001L10.6752 10.4L7.2502 10.675L9.8502 12.925L9.0752 16.25Z" fill="#F49383"/>
  </g>
  <defs>
    <clipPath id="clip0_1139_8914">
      <rect width="24" height="24" fill="white"/>
    </clipPath>
  </defs>
</svg>