<svg width="54" height="49" viewBox="0 0 54 49" fill="none" xmlns="http://www.w3.org/2000/svg">
<path d="M26.6991 44.8955C26.8993 44.8955 27.1296 44.8454 27.3899 44.7453C27.6503 44.6452 27.8605 44.515 28.0207 44.3548L48.266 24.0494C48.7867 23.5288 49.1772 22.9346 49.4375 22.267C49.6978 21.5998 49.828 20.9323 49.828 20.2647C49.828 19.5839 49.6978 18.903 49.4375 18.2222C49.1772 17.5413 48.7867 16.9405 48.266 16.4199L37.4525 5.60638C36.9319 5.08573 36.3311 4.69524 35.6503 4.43492C34.9694 4.17459 34.2886 4.04443 33.6077 4.04443C32.9401 4.04443 32.2726 4.17459 31.6054 4.43492C30.9378 4.69524 30.3436 5.08573 29.823 5.60638L28.7416 6.68773L33.6077 11.6139C34.1284 12.1746 34.5889 12.8254 34.9894 13.5663C35.3899 14.3073 35.5902 15.1183 35.5902 15.9994C35.5902 17.5213 34.9994 18.863 33.818 20.0244C32.6365 21.1859 31.2848 21.7666 29.7629 21.7666C28.7617 21.7666 27.9306 21.6164 27.2698 21.316C26.609 21.0156 26.0044 20.5883 25.4561 20.034L21.052 15.6389L10.1784 26.5125C9.97817 26.7128 9.838 26.9236 9.7579 27.1451C9.6778 27.3662 9.63774 27.6033 9.63774 27.8564C9.63774 28.3622 9.80796 28.7854 10.1484 29.1258C10.4888 29.4662 10.9127 29.6364 11.4202 29.6364C11.6737 29.6364 11.9106 29.5763 12.1309 29.4562C12.3511 29.336 12.5414 29.1959 12.7016 29.0357L20.9919 20.7453L23.5151 23.2685L15.2848 31.4987C15.0846 31.699 14.9444 31.9193 14.8643 32.1596C14.7842 32.3999 14.7441 32.6402 14.7441 32.8805C14.7441 33.3611 14.9244 33.7816 15.2848 34.1421C15.6453 34.5025 16.0658 34.6827 16.5464 34.6827C16.7867 34.6827 17.017 34.6327 17.2372 34.5325C17.4575 34.4324 17.6478 34.3023 17.808 34.1421L26.0983 25.8517L28.6215 28.3748L20.3912 36.6051C20.231 36.7653 20.1008 36.9722 20.0007 37.2257C19.9006 37.4796 19.8505 37.7333 19.8505 37.9869C19.8505 38.4675 20.0307 38.888 20.3912 39.2484C20.7516 39.6089 21.1722 39.7891 21.6528 39.7891C21.8931 39.7891 22.1133 39.7491 22.3136 39.669C22.5138 39.5889 22.7141 39.4487 22.9143 39.2484L31.2047 30.9581L33.7279 33.4812L25.4375 41.7716C25.2372 41.9718 25.0971 42.1921 25.017 42.4324C24.9369 42.6727 24.8968 42.893 24.8968 43.0932C24.8968 43.6539 25.057 44.0945 25.3774 44.4149C25.6978 44.7353 26.1384 44.8955 26.6991 44.8955ZM26.7027 48.5C25.3786 48.5 24.1959 48.0094 23.1546 47.0282C22.1133 46.0469 21.4926 44.833 21.2923 43.3864C19.9306 43.191 18.7892 42.6327 17.868 41.7115C16.9469 40.7904 16.3862 39.6489 16.1859 38.2872C14.8242 38.087 13.6928 37.5163 12.7917 36.5751C11.8906 35.6339 11.3399 34.5025 11.1396 33.1809C9.65777 32.9806 8.43624 32.3798 7.47504 31.3786C6.51384 30.3773 6.03324 29.1758 6.03324 27.7741C6.03324 27.0932 6.16781 26.4114 6.43694 25.7285C6.70648 25.0457 7.09256 24.4459 7.59519 23.9293L21.052 10.4725L27.6603 17.0807C27.9807 17.4011 28.3277 17.6514 28.7014 17.8317C29.0754 18.0119 29.4493 18.102 29.823 18.102C30.3436 18.102 30.8342 17.8717 31.2948 17.4111C31.7554 16.9506 31.9857 16.4569 31.9857 15.9303C31.9857 15.696 31.9156 15.4287 31.7754 15.1283C31.6352 14.8279 31.405 14.5175 31.0846 14.1971L22.4938 5.60638C21.9732 5.08573 21.3724 4.69524 20.6916 4.43492C20.0107 4.17459 19.3299 4.04443 18.649 4.04443C17.9814 4.04443 17.3139 4.17459 16.6467 4.43492C15.9791 4.69524 15.3861 5.08293 14.8679 5.59797L5.73286 14.7378C5.17216 15.2985 4.78168 15.8892 4.5614 16.51C4.34112 17.1308 4.21096 17.8317 4.17091 18.6126C4.13086 19.3936 4.28105 20.1546 4.62148 20.8955C4.9619 21.6364 5.37241 22.3073 5.85301 22.908L3.26979 25.4912C2.46878 24.6101 1.81797 23.5488 1.31734 22.3073C0.816719 21.0657 0.566406 19.8041 0.566406 18.5225C0.566406 17.321 0.796694 16.1696 1.25727 15.0682C1.71785 13.9668 2.36866 12.9956 3.20971 12.1546L12.281 3.08323C13.1622 2.20213 14.1592 1.55131 15.2722 1.13079C16.3856 0.710263 17.527 0.5 18.6965 0.5C19.8663 0.5 21.002 0.710263 22.1033 1.13079C23.2047 1.55131 24.1959 2.20213 25.077 3.08323L26.1584 4.16458L27.2397 3.08323C28.1208 2.20213 29.1179 1.55131 30.2309 1.13079C31.3443 0.710263 32.4857 0.5 33.6552 0.5C34.825 0.5 35.9606 0.710263 37.062 1.13079C38.1634 1.55131 39.1546 2.20213 40.0357 3.08323L50.7892 13.8367C51.6703 14.7178 52.3311 15.7196 52.7717 16.8422C53.2122 17.9652 53.4325 19.1067 53.4325 20.2665C53.4325 21.4268 53.2122 22.5576 52.7717 23.6589C52.3311 24.7603 51.6703 25.7516 50.7892 26.6327L30.5439 46.878C30.0232 47.3986 29.4319 47.7991 28.7699 48.0795C28.1078 48.3598 27.4188 48.5 26.7027 48.5Z" fill="#6E615A"/>
</svg>
