<svg width="24" height="24" viewBox="0 0 24 24" fill="none" xmlns="http://www.w3.org/2000/svg">
<path d="M11.4419 20.475C11.5252 20.475 11.6211 20.4542 11.7294 20.4125C11.8377 20.3708 11.9252 20.3167 11.9919 20.25L20.4169 11.8C20.6336 11.5833 20.7961 11.3361 20.9044 11.0583C21.0127 10.7806 21.0669 10.5028 21.0669 10.225C21.0669 9.94167 21.0127 9.65833 20.9044 9.375C20.7961 9.09167 20.6336 8.84167 20.4169 8.625L15.9169 4.125C15.7002 3.90833 15.4502 3.74583 15.1669 3.6375C14.8836 3.52917 14.6002 3.475 14.3169 3.475C14.0391 3.475 13.7613 3.52917 13.4836 3.6375C13.2058 3.74583 12.9586 3.90833 12.7419 4.125L12.2919 4.575L14.3169 6.625C14.5336 6.85833 14.7252 7.12917 14.8919 7.4375C15.0586 7.74583 15.1419 8.08333 15.1419 8.45C15.1419 9.08333 14.8961 9.64167 14.4044 10.125C13.9127 10.6083 13.3502 10.85 12.7169 10.85C12.3002 10.85 11.9544 10.7875 11.6794 10.6625C11.4044 10.5375 11.1528 10.3597 10.9246 10.129L9.0919 8.3L4.56689 12.825C4.48356 12.9083 4.42523 12.9961 4.39189 13.0883C4.35856 13.1803 4.34189 13.2789 4.34189 13.3842C4.34189 13.5948 4.41273 13.7708 4.55439 13.9125C4.69606 14.0542 4.87248 14.125 5.08364 14.125C5.18914 14.125 5.28773 14.1 5.37939 14.05C5.47106 14 5.55023 13.9417 5.61689 13.875L9.06689 10.425L10.1169 11.475L6.69189 14.9C6.60856 14.9833 6.55023 15.075 6.51689 15.175C6.48356 15.275 6.46689 15.375 6.46689 15.475C6.46689 15.675 6.54189 15.85 6.69189 16C6.84189 16.15 7.01689 16.225 7.21689 16.225C7.31689 16.225 7.41273 16.2042 7.50439 16.1625C7.59606 16.1208 7.67523 16.0667 7.74189 16L11.1919 12.55L12.2419 13.6L8.81689 17.025C8.75023 17.0917 8.69606 17.1777 8.6544 17.2832C8.61273 17.3889 8.5919 17.4945 8.5919 17.6C8.5919 17.8 8.66689 17.975 8.81689 18.125C8.9669 18.275 9.14189 18.35 9.3419 18.35C9.44189 18.35 9.53356 18.3333 9.61689 18.3C9.70023 18.2667 9.78356 18.2083 9.86689 18.125L13.3169 14.675L14.3669 15.725L10.9169 19.175C10.8336 19.2583 10.7752 19.35 10.7419 19.45C10.7086 19.55 10.6919 19.6417 10.6919 19.725C10.6919 19.9583 10.7586 20.1417 10.8919 20.275C11.0252 20.4083 11.2086 20.475 11.4419 20.475ZM11.4434 21.975C10.8924 21.975 10.4002 21.7708 9.9669 21.3625C9.53356 20.9542 9.27523 20.449 9.19189 19.847C8.62523 19.7657 8.15023 19.5333 7.76689 19.15C7.38356 18.7667 7.15023 18.2917 7.06689 17.725C6.50023 17.6417 6.02939 17.4042 5.65439 17.0125C5.27939 16.6208 5.05023 16.15 4.96689 15.6C4.35023 15.5167 3.84189 15.2667 3.44189 14.85C3.04189 14.4333 2.84189 13.9333 2.84189 13.35C2.84189 13.0667 2.89789 12.7829 3.00989 12.4988C3.12206 12.2146 3.28273 11.965 3.49189 11.75L9.0919 6.15L11.8419 8.9C11.9752 9.03333 12.1196 9.1375 12.2751 9.2125C12.4308 9.2875 12.5864 9.325 12.7419 9.325C12.9586 9.325 13.1627 9.22917 13.3544 9.0375C13.5461 8.84583 13.6419 8.64042 13.6419 8.42125C13.6419 8.32375 13.6127 8.2125 13.5544 8.0875C13.4961 7.9625 13.4002 7.83333 13.2669 7.7L9.69189 4.125C9.47523 3.90833 9.22523 3.74583 8.94189 3.6375C8.65856 3.52917 8.37523 3.475 8.09189 3.475C7.81406 3.475 7.53631 3.52917 7.25865 3.6375C6.98081 3.74583 6.73406 3.90717 6.51839 4.1215L2.71689 7.925C2.48356 8.15833 2.32106 8.40417 2.22939 8.6625C2.13773 8.92083 2.08356 9.2125 2.06689 9.5375C2.05023 9.8625 2.11273 10.1792 2.25439 10.4875C2.39606 10.7958 2.56689 11.075 2.76689 11.325L1.69189 12.4C1.35856 12.0333 1.08773 11.5917 0.879395 11.075C0.671061 10.5583 0.566895 10.0333 0.566895 9.5C0.566895 9 0.662728 8.52083 0.854395 8.0625C1.04606 7.60417 1.31689 7.2 1.66689 6.85L5.44189 3.075C5.80856 2.70833 6.22348 2.4375 6.68665 2.2625C7.14998 2.0875 7.62498 2 8.11164 2C8.59848 2 9.07106 2.0875 9.5294 2.2625C9.98773 2.4375 10.4002 2.70833 10.7669 3.075L11.2169 3.525L11.6669 3.075C12.0336 2.70833 12.4485 2.4375 12.9116 2.2625C13.375 2.0875 13.85 2 14.3366 2C14.8235 2 15.2961 2.0875 15.7544 2.2625C16.2127 2.4375 16.6252 2.70833 16.9919 3.075L21.4669 7.55C21.8336 7.91667 22.1086 8.33358 22.2919 8.80075C22.4752 9.26808 22.5669 9.74308 22.5669 10.2258C22.5669 10.7086 22.4752 11.1792 22.2919 11.6375C22.1086 12.0958 21.8336 12.5083 21.4669 12.875L13.0419 21.3C12.8252 21.5167 12.5791 21.6833 12.3036 21.8C12.0281 21.9167 11.7414 21.975 11.4434 21.975Z" fill="currentColor"/>
</svg>
