<svg width="24" height="24" viewBox="0 0 24 24" fill="none" xmlns="http://www.w3.org/2000/svg">
<path d="M7 17.3889C7.22222 17.3889 7.41667 17.3056 7.58333 17.1389C7.75 16.9722 7.83333 16.7778 7.83333 16.5556C7.83333 16.3333 7.75 16.1389 7.58333 15.9722C7.41667 15.8056 7.22222 15.7222 7 15.7222C6.77778 15.7222 6.58333 15.8056 6.41667 15.9722C6.25 16.1389 6.16667 16.3333 6.16667 16.5556C6.16667 16.7778 6.25 16.9722 6.41667 17.1389C6.58333 17.3056 6.77778 17.3889 7 17.3889ZM7 12.8333C7.22222 12.8333 7.41667 12.75 7.58333 12.5833C7.75 12.4167 7.83333 12.2222 7.83333 12C7.83333 11.7778 7.75 11.5833 7.58333 11.4167C7.41667 11.25 7.22222 11.1667 7 11.1667C6.77778 11.1667 6.58333 11.25 6.41667 11.4167C6.25 11.5833 6.16667 11.7778 6.16667 12C6.16667 12.2222 6.25 12.4167 6.41667 12.5833C6.58333 12.75 6.77778 12.8333 7 12.8333ZM7 8.27778C7.22222 8.27778 7.41667 8.19444 7.58333 8.02778C7.75 7.86111 7.83333 7.66667 7.83333 7.44444C7.83333 7.22222 7.75 7.02778 7.58333 6.86111C7.41667 6.69444 7.22222 6.61111 7 6.61111C6.77778 6.61111 6.58333 6.69444 6.41667 6.86111C6.25 7.02778 6.16667 7.22222 6.16667 7.44444C6.16667 7.66667 6.25 7.86111 6.41667 8.02778C6.58333 8.19444 6.77778 8.27778 7 8.27778ZM10.6667 17.3889H17.4444V15.7222H10.6667V17.3889ZM10.6667 12.8333H17.4444V11.1667H10.6667V12.8333ZM10.6667 8.27778H17.4444V6.61111H10.6667V8.27778ZM3.66667 22C3.22222 22 2.83333 21.8333 2.5 21.5C2.16667 21.1667 2 20.7778 2 20.3333V3.66667C2 3.22222 2.16667 2.83333 2.5 2.5C2.83333 2.16667 3.22222 2 3.66667 2H20.3333C20.7778 2 21.1667 2.16667 21.5 2.5C21.8333 2.83333 22 3.22222 22 3.66667V20.3333C22 20.7778 21.8333 21.1667 21.5 21.5C21.1667 21.8333 20.7778 22 20.3333 22H3.66667ZM3.66667 20.3333H20.3333V3.66667H3.66667V20.3333Z" fill="currentColor"/>
</svg>
