<svg xmlns="http://www.w3.org/2000/svg" width="24" height="24" viewBox="0 0 24 24" fill="none">
  <path d="M1 21.8V2H11.725V6.5375H23V21.8H1ZM2.65 20.15H5.5375V17.2625H2.65V20.15ZM2.65 15.6125H5.5375V12.725H2.65V15.6125ZM2.65 11.075H5.5375V8.1875H2.65V11.075ZM2.65 6.5375H5.5375V3.65H2.65V6.5375ZM7.1875 20.15H10.075V17.2625H7.1875V20.15ZM7.1875 15.6125H10.075V12.725H7.1875V15.6125ZM7.1875 11.075H10.075V8.1875H7.1875V11.075ZM7.1875 6.5375H10.075V3.65H7.1875V6.5375ZM11.725 20.15H21.35V8.1875H11.725V11.075H13.925V12.725H11.725V15.6125H13.925V17.2625H11.725V20.15ZM16.8125 12.725V11.075H18.4625V12.725H16.8125ZM16.8125 17.2625V15.6125H18.4625V17.2625H16.8125Z" fill="currentColor"/>
</svg>