<svg width="24" height="24" viewBox="0 0 24 24" fill="none" xmlns="http://www.w3.org/2000/svg">
<path fill-rule="evenodd" clip-rule="evenodd" d="M19 18V9.25L12.75 3H6.5C5.83696 3 5.20107 3.26339 4.73223 3.73223C4.26339 4.20107 4 4.83696 4 5.5V18C4 18.663 4.26339 19.2989 4.73223 19.7678C5.20107 20.2366 5.83696 20.5 6.5 20.5H16.5C17.163 20.5 17.7989 20.2366 18.2678 19.7678C18.7366 19.2989 19 18.663 19 18Z" stroke="#6E615A" stroke-width="2" stroke-linecap="round" stroke-linejoin="round"/>
<path d="M11.7505 4V7.75C11.7505 8.41304 12.0139 9.04893 12.4827 9.51777C12.9516 9.98661 13.5874 10.25 14.2505 10.25H18.0005" stroke="#6E615A" stroke-width="2" stroke-linecap="round" stroke-linejoin="round"/>
<path d="M7.728 13.794C8.348 13.794 8.824 13.904 9.156 14.124C9.488 14.34 9.654 14.696 9.654 15.192C9.654 15.692 9.486 16.054 9.15 16.278C8.814 16.498 8.334 16.608 7.71 16.608H7.416V18H6.48V13.902C6.684 13.862 6.9 13.834 7.128 13.818C7.356 13.802 7.556 13.794 7.728 13.794ZM7.788 14.592C7.72 14.592 7.652 14.594 7.584 14.598C7.52 14.602 7.464 14.606 7.416 14.61V15.81H7.71C8.034 15.81 8.278 15.766 8.442 15.678C8.606 15.59 8.688 15.426 8.688 15.186C8.688 15.07 8.666 14.974 8.622 14.898C8.582 14.822 8.522 14.762 8.442 14.718C8.366 14.67 8.272 14.638 8.16 14.622C8.048 14.602 7.924 14.592 7.788 14.592ZM10.9773 17.238C11.0213 17.242 11.0713 17.246 11.1273 17.25C11.1873 17.25 11.2573 17.25 11.3373 17.25C11.8053 17.25 12.1513 17.132 12.3753 16.896C12.6033 16.66 12.7173 16.334 12.7173 15.918C12.7173 15.482 12.6093 15.152 12.3933 14.928C12.1773 14.704 11.8353 14.592 11.3673 14.592C11.3033 14.592 11.2373 14.594 11.1693 14.598C11.1013 14.598 11.0373 14.602 10.9773 14.61V17.238ZM13.6833 15.918C13.6833 16.278 13.6273 16.592 13.5153 16.86C13.4033 17.128 13.2433 17.35 13.0353 17.526C12.8313 17.702 12.5813 17.834 12.2853 17.922C11.9893 18.01 11.6573 18.054 11.2893 18.054C11.1213 18.054 10.9253 18.046 10.7013 18.03C10.4773 18.018 10.2573 17.99 10.0413 17.946V13.896C10.2573 13.856 10.4813 13.83 10.7133 13.818C10.9493 13.802 11.1513 13.794 11.3193 13.794C11.6753 13.794 11.9973 13.834 12.2853 13.914C12.5773 13.994 12.8273 14.12 13.0353 14.292C13.2433 14.464 13.4033 14.684 13.5153 14.952C13.6273 15.22 13.6833 15.542 13.6833 15.918ZM14.1652 18V13.842H16.9492V14.628H15.1012V15.498H16.7452V16.284H15.1012V18H14.1652Z" fill="#6E615A"/>
</svg>
