<svg xmlns="http://www.w3.org/2000/svg" width="51" height="51" viewBox="0 0 51 51" fill="none">
  <g clip-path="url(#clip0_3478_33146)">
    <path d="M25.5 0C32.263 0 38.749 2.6866 43.5312 7.46878C48.3134 12.251 51 18.737 51 25.5C51 32.263 48.3134 38.749 43.5312 43.5312C38.749 48.3134 32.263 51 25.5 51C18.737 51 12.251 48.3134 7.46878 43.5312C2.6866 38.749 0 32.263 0 25.5C0 18.737 2.6866 12.251 7.46878 7.46878C12.251 2.6866 18.737 0 25.5 0ZM4.78125 25.5C4.78125 30.995 6.96411 36.2648 10.8496 40.1504C14.7352 44.0359 20.005 46.2188 25.5 46.2188C30.995 46.2188 36.2648 44.0359 40.1504 40.1504C44.0359 36.2648 46.2188 30.995 46.2188 25.5C46.2188 20.005 44.0359 14.7352 40.1504 10.8496C36.2648 6.96411 30.995 4.78125 25.5 4.78125C20.005 4.78125 14.7352 6.96411 10.8496 10.8496C6.96411 14.7352 4.78125 20.005 4.78125 25.5ZM20.3331 16.6611L33.9246 24.8179C34.042 24.8888 34.1392 24.9889 34.2066 25.1084C34.274 25.2279 34.3095 25.3628 34.3095 25.5C34.3095 25.6372 34.274 25.7721 34.2066 25.8916C34.1392 26.0111 34.042 26.1112 33.9246 26.1821L20.3331 34.3389C20.2122 34.4117 20.0742 34.4512 19.9331 34.4531C19.792 34.4551 19.6529 34.4196 19.5301 34.3502C19.4072 34.2809 19.305 34.1801 19.2338 34.0583C19.1626 33.9365 19.1251 33.7979 19.125 33.6568V17.3464C19.1245 17.205 19.1617 17.0661 19.2326 16.9438C19.3035 16.8215 19.4057 16.7203 19.5287 16.6505C19.6516 16.5808 19.7909 16.545 19.9323 16.5468C20.0737 16.5487 20.212 16.5881 20.3331 16.6611Z" fill="black"/>
  </g>
  <defs>
    <clipPath id="clip0_3478_33146">
      <rect width="51" height="51" fill="white"/>
    </clipPath>
  </defs>
</svg>