<svg width="88" height="89" viewBox="0 0 88 89" fill="none" xmlns="http://www.w3.org/2000/svg">
<g filter="url(#filter0_d_354_8)">
<path d="M34.9092 53.0325V26.967C34.9097 26.6409 34.998 26.3209 35.1647 26.0406C35.3314 25.7603 35.5704 25.53 35.8567 25.3739C36.143 25.2177 36.4661 25.1414 36.792 25.153C37.1179 25.1646 37.4347 25.2636 37.7092 25.4397L57.9855 38.4688C58.2423 38.6333 58.4535 38.8598 58.5998 39.1273C58.7462 39.3948 58.8229 39.6948 58.8229 39.9997C58.8229 40.3047 58.7462 40.6047 58.5998 40.8722C58.4535 41.1397 58.2423 41.3661 57.9855 41.5306L37.7092 54.5634C37.4347 54.7395 37.1179 54.8385 36.792 54.8501C36.4661 54.8617 36.143 54.7854 35.8567 54.6292C35.5704 54.4731 35.3314 54.2428 35.1647 53.9625C34.998 53.6822 34.9097 53.3622 34.9092 53.0361V53.0325Z" fill="white"/>
<path d="M4 40C4 17.9091 21.9091 0 44 0C66.0909 0 84 17.9091 84 40C84 62.0909 66.0909 80 44 80C21.9091 80 4 62.0909 4 40ZM44 5.45455C34.838 5.45455 26.0512 9.09415 19.5727 15.5727C13.0941 22.0512 9.45455 30.838 9.45455 40C9.45455 49.162 13.0941 57.9488 19.5727 64.4273C26.0512 70.9059 34.838 74.5455 44 74.5455C53.162 74.5455 61.9488 70.9059 68.4273 64.4273C74.9059 57.9488 78.5455 49.162 78.5455 40C78.5455 30.838 74.9059 22.0512 68.4273 15.5727C61.9488 9.09415 53.162 5.45455 44 5.45455Z" fill="white"/>
</g>
<defs>
<filter id="filter0_d_354_8" x="0" y="0" width="88" height="89" filterUnits="userSpaceOnUse" color-interpolation-filters="sRGB">
<feFlood flood-opacity="0" result="BackgroundImageFix"/>
<feColorMatrix in="SourceAlpha" type="matrix" values="0 0 0 0 0 0 0 0 0 0 0 0 0 0 0 0 0 0 127 0" result="hardAlpha"/>
<feOffset dy="5"/>
<feGaussianBlur stdDeviation="2"/>
<feComposite in2="hardAlpha" operator="out"/>
<feColorMatrix type="matrix" values="0 0 0 0 0 0 0 0 0 0 0 0 0 0 0 0 0 0 0.25 0"/>
<feBlend mode="normal" in2="BackgroundImageFix" result="effect1_dropShadow_354_8"/>
<feBlend mode="normal" in="SourceGraphic" in2="effect1_dropShadow_354_8" result="shape"/>
</filter>
</defs>
</svg>
