<svg xmlns="http://www.w3.org/2000/svg" width="40" height="40" viewBox="0 0 40 40" fill="none">
  <path d="M38.7324 8C39.2298 8 39.653 8.3653 39.7118 8.85913C39.7906 9.51992 39.8533 10.1968 39.8997 10.8897C39.9666 11.8861 40 12.6168 40 13.0818C40 17.5326 39.198 21.7841 37.594 25.8363C36.0792 29.6002 34.2367 32.831 32.0663 35.5286C31.8315 35.8205 31.4495 35.948 31.0841 35.8653L22.7416 33.977C22.1267 33.8379 21.793 33.1716 22.0306 32.5878C23.0772 30.0168 23.9208 27.1685 24.5614 24.0427C25.3634 20.3891 25.7644 16.9348 25.7644 13.6797C25.7644 13.5469 25.7644 13.2811 25.7644 12.8826C25.7644 12.4176 25.731 11.9193 25.6642 11.3879C25.6642 10.79 25.6307 10.1922 25.5639 9.5943C25.5639 9.44173 25.5617 9.29348 25.5574 9.14956C25.539 8.54095 26.0088 8 26.6177 8H38.7324ZM17.1786 8C17.6759 8 18.0991 8.3653 18.158 8.85913C18.2368 9.51992 18.2994 10.1968 18.3459 10.8897C18.4127 11.8861 18.4461 12.6168 18.4461 13.0818C18.4461 17.5326 17.6441 21.7841 16.0401 25.8363C14.5254 29.6002 12.6828 32.831 10.5125 35.5286C10.2776 35.8205 9.89563 35.948 9.53024 35.8653L1.18768 33.977C0.572866 33.8379 0.239068 33.1716 0.476737 32.5878C1.52332 30.0168 2.36691 27.1685 3.00752 24.0427C3.80952 20.3891 4.21053 16.9348 4.21053 13.6797C4.21053 13.5469 4.21053 13.2811 4.21053 12.8826C4.21053 12.4176 4.17711 11.9193 4.11028 11.3879C4.11028 10.79 4.07686 10.1922 4.01002 9.5943C4.01002 9.44173 4.00785 9.29348 4.0035 9.14956C3.98509 8.54095 4.45488 8 5.06378 8H17.1786Z" fill="currentColor"/>
</svg>