<svg width="16" height="16" viewBox="0 0 16 16" fill="none" xmlns="http://www.w3.org/2000/svg">
<path d="M16 15C16 15.5533 15.5533 16 15 16H3.66667C1.64667 16 0 14.3533 0 12.3333V1C0 0.446667 0.446667 0 1 0C1.55333 0 2 0.446667 2 1V12.3333C2 13.2533 2.74667 14 3.66667 14H15C15.5533 14 16 14.4467 16 15ZM15 0C14.4467 0 14 0.446667 14 1V11C14 11.5533 14.4467 12 15 12C15.5533 12 16 11.5533 16 11V1C16 0.446667 15.5533 0 15 0ZM11.6667 7.33333C12.22 7.33333 12.6667 6.88667 12.6667 6.33333V3.66667C12.6667 3.11333 12.22 2.66667 11.6667 2.66667C11.1133 2.66667 10.6667 3.11333 10.6667 3.66667V6.33333C10.6667 6.88667 11.1133 7.33333 11.6667 7.33333ZM8.33333 10C8.88667 10 9.33333 9.55333 9.33333 9V6.33333C9.33333 5.78 8.88667 5.33333 8.33333 5.33333C7.78 5.33333 7.33333 5.78 7.33333 6.33333V9C7.33333 9.55333 7.78 10 8.33333 10ZM5 12.6667C5.55333 12.6667 6 12.22 6 11.6667V9C6 8.44667 5.55333 8 5 8C4.44667 8 4 8.44667 4 9V11.6667C4 12.22 4.44667 12.6667 5 12.6667Z" fill="#556951"/>
</svg>
