<svg width="19" height="19" viewBox="0 0 19 19" fill="none" xmlns="http://www.w3.org/2000/svg">
<path d="M13.524 6.37521C13.524 6.87249 13.3265 7.3494 12.9748 7.70103C12.6232 8.05266 12.1463 8.25021 11.649 8.25021C11.1517 8.25021 10.6748 8.05266 10.3232 7.70103C9.97154 7.3494 9.774 6.87249 9.774 6.37521C9.774 5.87792 9.97154 5.40101 10.3232 5.04938C10.6748 4.69775 11.1517 4.50021 11.649 4.50021C12.1463 4.50021 12.6232 4.69775 12.9748 5.04938C13.3265 5.40101 13.524 5.87792 13.524 6.37521ZM13.5195 11.5247C13.4783 12.7164 13.1808 13.8851 12.6473 14.9515C12.1556 15.8811 11.4175 16.6575 10.5137 17.1953C9.61 17.7331 8.57559 18.0116 7.524 18.0002H6.774V13.8752C6.77065 13.18 6.49301 12.5143 6.00145 12.0228C5.50989 11.5312 4.84416 11.2536 4.149 11.2502H0.024V10.5002C0.0126463 9.44861 0.291146 8.4142 0.828946 7.51046C1.36675 6.60672 2.14307 5.86856 3.07275 5.37696C4.13907 4.8434 5.30785 4.5459 6.4995 4.50471C7.59214 3.09338 8.99532 1.95285 10.6001 1.17165C12.2049 0.39045 13.9682 -0.0104047 15.753 0.000205257C16.05 -0.0016714 16.3444 0.0550924 16.6194 0.167242C16.8944 0.279392 17.1446 0.444722 17.3556 0.653752C17.5666 0.862782 17.7342 1.1114 17.8489 1.38536C17.9636 1.65931 18.0231 1.95321 18.024 2.25021C18.0367 4.03837 17.6369 5.80537 16.8557 7.4139C16.0744 9.02242 14.9328 10.4291 13.5195 11.5247ZM1.587 9.75021H3.2835C3.84048 8.5097 4.49478 7.31522 5.24025 6.17796C4.72246 6.29842 4.22073 6.47968 3.7455 6.71796C3.17395 7.01976 2.68103 7.45122 2.3062 7.97778C1.93137 8.50433 1.68506 9.11135 1.587 9.75021ZM11.8463 12.784C10.709 13.5294 9.51451 14.1837 8.274 14.7407V16.4372C8.91286 16.3391 9.51987 16.0928 10.0464 15.718C10.573 15.3432 11.0044 14.8503 11.3063 14.2787C11.5445 13.8035 11.7258 13.3017 11.8463 12.784ZM16.524 2.22921C16.5185 2.03395 16.4371 1.84854 16.297 1.7124C16.157 1.57626 15.9693 1.50013 15.774 1.50021C11.904 1.61046 9.2865 3.0932 6.7605 6.6167C6.05561 7.63161 5.43575 8.703 4.90725 9.81996C5.72619 9.97248 6.47976 10.3694 7.0688 10.9584C7.65783 11.5474 8.05473 12.301 8.20725 13.12C9.3242 12.5915 10.3956 11.9716 11.4105 11.2667C14.931 8.73771 16.4138 6.12021 16.524 2.22921ZM4.6155 13.4095C5.03458 13.8328 5.26965 14.4045 5.26965 15.0002C5.26965 15.5959 5.03458 16.1676 4.6155 16.591C3.93525 17.2705 1.899 17.6897 1.0545 17.839L0 18.0242L0.18525 16.9697C0.33525 16.1252 0.75375 14.089 1.43325 13.4087C1.86206 12.9997 2.43194 12.7716 3.02453 12.7717C3.61712 12.7719 4.18688 13.0002 4.6155 13.4095ZM3.774 15.0002C3.77427 14.9017 3.75498 14.8041 3.71726 14.7131C3.67954 14.622 3.62413 14.5394 3.55425 14.47C3.4136 14.3294 3.22287 14.2504 3.024 14.2504C2.82513 14.2504 2.6344 14.3294 2.49375 14.47C2.20781 14.9861 2.00698 15.5451 1.899 16.1252C2.47936 16.0168 3.03849 15.8157 3.555 15.5297C3.62466 15.4603 3.67987 15.3777 3.71746 15.2869C3.75505 15.196 3.77427 15.0986 3.774 15.0002Z" fill="currentColor"/>
</svg>
