<svg width="48" height="48" viewBox="0 0 48 48" fill="none" xmlns="http://www.w3.org/2000/svg">
<path d="M12 36.9333C12.5333 36.9333 13 36.7333 13.4 36.3333C13.8 35.9333 14 35.4667 14 34.9333C14 34.4 13.8 33.9333 13.4 33.5333C13 33.1333 12.5333 32.9333 12 32.9333C11.4667 32.9333 11 33.1333 10.6 33.5333C10.2 33.9333 10 34.4 10 34.9333C10 35.4667 10.2 35.9333 10.6 36.3333C11 36.7333 11.4667 36.9333 12 36.9333ZM12 26C12.5333 26 13 25.8 13.4 25.4C13.8 25 14 24.5333 14 24C14 23.4667 13.8 23 13.4 22.6C13 22.2 12.5333 22 12 22C11.4667 22 11 22.2 10.6 22.6C10.2 23 10 23.4667 10 24C10 24.5333 10.2 25 10.6 25.4C11 25.8 11.4667 26 12 26ZM12 15.0667C12.5333 15.0667 13 14.8667 13.4 14.4667C13.8 14.0667 14 13.6 14 13.0667C14 12.5333 13.8 12.0667 13.4 11.6667C13 11.2667 12.5333 11.0667 12 11.0667C11.4667 11.0667 11 11.2667 10.6 11.6667C10.2 12.0667 10 12.5333 10 13.0667C10 13.6 10.2 14.0667 10.6 14.4667C11 14.8667 11.4667 15.0667 12 15.0667ZM20.8 36.9333H37.0667V32.9333H20.8V36.9333ZM20.8 26H37.0667V22H20.8V26ZM20.8 15.0667H37.0667V11.0667H20.8V15.0667ZM4 48C2.93333 48 2 47.6 1.2 46.8C0.4 46 0 45.0667 0 44V4C0 2.93333 0.4 2 1.2 1.2C2 0.4 2.93333 0 4 0H44C45.0667 0 46 0.4 46.8 1.2C47.6 2 48 2.93333 48 4V44C48 45.0667 47.6 46 46.8 46.8C46 47.6 45.0667 48 44 48H4ZM4 44H44V4H4V44Z" fill="#6E615A"/>
</svg>
