<svg width="16" height="16" viewBox="0 0 16 16" fill="none" xmlns="http://www.w3.org/2000/svg">
    <path d="M9.99984 6V6.66667L6.6665 6.66667L6.6665 8H7.33317L7.33317 16.6667C7.33317 17.0203 7.47365 17.3594 7.72369 17.6095C7.97374 17.8595 8.31288 18 8.6665 18H15.3332C15.6868 18 16.0259 17.8595 16.276 17.6095C16.526 17.3594 16.6665 17.0203 16.6665 16.6667V8H17.3332V6.66667L13.9998 6.66667V6L9.99984 6ZM8.6665 8L15.3332 8L15.3332 16.6667H8.6665L8.6665 8ZM9.99984 9.33333L9.99984 15.3333L11.3332 15.3333L11.3332 9.33333L9.99984 9.33333ZM12.6665 9.33333L12.6665 15.3333H13.9998L13.9998 9.33333H12.6665Z" fill="#6E615A"/>
</svg>
