<svg width="16" height="18" viewBox="0 0 16 18" fill="none" xmlns="http://www.w3.org/2000/svg">
<path d="M0 18V13C0 12.45 0.195833 11.9792 0.5875 11.5875C0.979167 11.1958 1.45 11 2 11H14C14.55 11 15.0208 11.1958 15.4125 11.5875C15.8042 11.9792 16 12.45 16 13V18H0ZM5 10C3.61667 10 2.4375 9.5125 1.4625 8.5375C0.4875 7.5625 0 6.38333 0 5C0 3.61667 0.4875 2.4375 1.4625 1.4625C2.4375 0.4875 3.61667 0 5 0H11C12.3833 0 13.5625 0.4875 14.5375 1.4625C15.5125 2.4375 16 3.61667 16 5C16 6.38333 15.5125 7.5625 14.5375 8.5375C13.5625 9.5125 12.3833 10 11 10H5ZM2 16H14V13H2V16ZM5 8H11C11.8333 8 12.5417 7.70833 13.125 7.125C13.7083 6.54167 14 5.83333 14 5C14 4.16667 13.7083 3.45833 13.125 2.875C12.5417 2.29167 11.8333 2 11 2H5C4.16667 2 3.45833 2.29167 2.875 2.875C2.29167 3.45833 2 4.16667 2 5C2 5.83333 2.29167 6.54167 2.875 7.125C3.45833 7.70833 4.16667 8 5 8ZM5 6C5.28333 6 5.52083 5.90417 5.7125 5.7125C5.90417 5.52083 6 5.28333 6 5C6 4.71667 5.90417 4.47917 5.7125 4.2875C5.52083 4.09583 5.28333 4 5 4C4.71667 4 4.47917 4.09583 4.2875 4.2875C4.09583 4.47917 4 4.71667 4 5C4 5.28333 4.09583 5.52083 4.2875 5.7125C4.47917 5.90417 4.71667 6 5 6ZM11 6C11.2833 6 11.5208 5.90417 11.7125 5.7125C11.9042 5.52083 12 5.28333 12 5C12 4.71667 11.9042 4.47917 11.7125 4.2875C11.5208 4.09583 11.2833 4 11 4C10.7167 4 10.4792 4.09583 10.2875 4.2875C10.0958 4.47917 10 4.71667 10 5C10 5.28333 10.0958 5.52083 10.2875 5.7125C10.4792 5.90417 10.7167 6 11 6Z" fill="#f49383"/>
</svg>
